<svg width="36" height="36" viewBox="0 0 36 36" xmlns="http://www.w3.org/2000/svg"><title>logo--cl</title><g fill="#4A4A4A" fill-rule="evenodd"><path d="M18.247 20.273c3.874 1.08 6.762 1.59 6.762 1.59-1.67-1.68-3.15-3.408-4.44-5.042 2.25-3.21 4.02-5.43 4.02-5.43-2.39.536-4.64 1.19-6.66 1.86-1.92-2.79-2.97-4.75-2.97-4.75-.56 2.09-.83 4.184-.92 6.15-3.206 1.255-5.21 2.28-5.21 2.28 1.734.79 3.533 1.48 5.276 2.07.28 3.78 1.037 6.408 1.037 6.408.972-1.754 2.04-3.498 3.1-5.13"/><path d="M35.93 19.28c-.528.835-1.334 1.43-2.277 1.848-.13-2.675-.533-5.04-.533-5.04-.805 2.196-1.66 4.146-2.484 5.83-2.84.367-5.627-.055-5.627-.055 1.52 1.853 2.71 2.953 3.67 3.695-1.44 2.45-2.48 3.758-2.48 3.758 2.01-.465 3.61-1.237 4.88-2.15.52.36.97.762 1.41 1.444 0 0 .82-1.175 1.1-3.898 2.03-2.684 2.33-5.43 2.33-5.43M35 11.868c-.904-2.058-2.208-3.61-3.63-4.78-1.213-2.575-2.61-3.764-2.61-3.764.118.592.03 1.263-.19 1.955-3.02-1.52-5.773-1.73-5.773-1.73 1.754 1.16 3.312 2.6 4.65 4.09-1.233 2.022-2.854 3.732-2.854 3.732 2.15-.49 3.877-.695 5.26-.73 2.123 2.953 3.267 5.435 3.267 5.435.04-1.998-.157-3.74-.487-5.244C34.43 11.19 35 11.87 35 11.87M22.797 3.556c-1.465-.745-2.868-1.264-4.17-1.62C20.287.516 21.83.156 21.83.156c-2.665-.107-4.957.38-6.876 1.125-2.864-.23-4.69.27-4.69.27.43.33.792.92 1.162 1.61-2.42 1.68-3.65 3.43-3.65 3.43 1.46-.73 3.008-1.29 4.534-1.71.167.31.34.62.533.92 1.01 1.59 2.12 2.7 2.12 2.7.397-1.91 1.08-3.39 1.864-4.543 3.407-.48 5.97-.394 5.97-.394M4.404 9.43c.913-.892 2.025-1.853 3.372-2.845 0 0-1.242 0-2.555.337.87-2.125 1.84-3.302 1.84-3.302S1.53 7.59.48 14.73c0 0 .46-1.292 2.04-3.24.62 1.416 1.34 2.307 1.34 2.307.01-1.63.223-3.096.54-4.374m4.43 7.495c-1.92.06-3.422.23-4.594.45-.33-2.076-.38-3.57-.38-3.57-.95 1.464-1.563 2.874-1.943 4.186-1.333.5-1.67.983-1.67.983.21.72.624 1.42 1.15 2.076-.165 3.11.83 5.165.83 5.165.224-1.09.67-2.15 1.23-3.142 1.638 1.323 3.26 2.19 3.26 2.19-.765-1.386-1.327-2.935-1.74-4.436 1.835-2.33 3.86-3.906 3.86-3.906m9.49 15.886s-1.61-.65-3.914-1.96c.08-1.4.293-3.184.73-5.446 0 0-1.83 1.83-4.2 3.25-1.377-.96-2.824-2.09-4.23-3.39 0 0 .684 2.136 2.002 4.49-1.25.472-2.54.692-3.72.4 0 0 1.395 1.76 5.69 2.504 1.19 1.43 2.643 2.61 4.337 3.02 0 0-.51-.567-.624-2.69 1.17.016 2.474-.037 3.927-.177m7.79-.18c.37-1.71.09-3.31.09-3.31-1.086 1.58-2.154 2.78-3.142 3.7-2.66.14-4.733-.202-4.733-.202s1.187 1.2 2.557 1.89c-1.807 1.13-3.02 1.233-3.02 1.233 7.914.17 12.66-5.053 12.66-5.053-1.332.89-2.876 1.432-4.41 1.75"/></g></svg>