<svg width="36" height="36" viewBox="0 0 36 36" xmlns="http://www.w3.org/2000/svg"><title>logo--cl</title><g fill="#4A4A4A" fill-rule="evenodd"><path d="M18.247 20.273c3.874 1.08 6.762 1.59 6.762 1.59-1.663-1.68-3.15-3.408-4.437-5.042 2.25-3.213 4.02-5.438 4.02-5.438-2.385.534-4.64 1.187-6.658 1.858-1.92-2.785-2.972-4.745-2.972-4.745-.56 2.09-.83 4.184-.92 6.15-3.206 1.255-5.21 2.28-5.21 2.28 1.734.79 3.533 1.48 5.276 2.072.28 3.78 1.037 6.406 1.037 6.406.972-1.754 2.04-3.498 3.1-5.13"/><path d="M35.93 19.28c-.528.835-1.334 1.43-2.277 1.848-.13-2.675-.533-5.04-.533-5.04-.805 2.196-1.66 4.146-2.484 5.83-2.84.367-5.627-.055-5.627-.055 1.527 1.853 2.715 2.953 3.676 3.695-1.438 2.45-2.48 3.758-2.48 3.758 2.01-.465 3.61-1.237 4.88-2.15.52.36.968.762 1.41 1.444 0 0 .82-1.175 1.1-3.898 2.03-2.684 2.333-5.43 2.333-5.43M35 11.868c-.904-2.058-2.208-3.61-3.63-4.78-1.213-2.575-2.61-3.764-2.61-3.764.118.592.03 1.263-.19 1.955-3.02-1.514-5.773-1.724-5.773-1.724 1.754 1.162 3.312 2.603 4.65 4.09-1.233 2.026-2.854 3.736-2.854 3.736 2.15-.49 3.877-.695 5.26-.732 2.123 2.955 3.267 5.437 3.267 5.437.04-1.998-.157-3.74-.487-5.244C34.43 11.19 35 11.868 35 11.868M22.797 3.556c-1.465-.745-2.868-1.264-4.17-1.62C20.286.515 21.83.155 21.83.155c-2.665-.106-4.957.38-6.876 1.126-2.864-.23-4.69.27-4.69.27.43.328.792.912 1.162 1.61-2.42 1.676-3.65 3.423-3.65 3.423 1.46-.733 3.008-1.288 4.534-1.71.167.308.34.616.533.918 1.01 1.59 2.12 2.702 2.12 2.702.397-1.908 1.08-3.393 1.864-4.545 3.407-.48 5.97-.394 5.97-.394M4.404 9.43c.913-.892 2.025-1.853 3.372-2.845 0 0-1.242 0-2.555.337.87-2.125 1.832-3.303 1.832-3.303S1.524 7.593.474 14.736c0 0 .465-1.292 2.04-3.24.625 1.416 1.345 2.307 1.345 2.307.01-1.63.227-3.096.544-4.374M8.835 16.925c-1.92.06-3.424.23-4.596.448-.33-2.076-.38-3.57-.38-3.57-.95 1.464-1.562 2.874-1.942 4.186-1.336.5-1.674.984-1.674.984.21.72.625 1.42 1.152 2.077-.165 3.11.83 5.165.83 5.165.224-1.09.67-2.15 1.23-3.143 1.638 1.326 3.26 2.19 3.26 2.19-.765-1.383-1.327-2.932-1.74-4.433 1.835-2.33 3.86-3.905 3.86-3.905M18.328 32.81s-1.61-.65-3.914-1.96c.082-1.402.296-3.185.734-5.447 0 0-1.832 1.832-4.204 3.252-1.376-.96-2.823-2.09-4.23-3.392 0 0 .685 2.137 2.003 4.49-1.25.473-2.54.693-3.72.4 0 0 1.394 1.76 5.69 2.505 1.19 1.43 2.642 2.61 4.336 3.02 0 0-.51-.567-.624-2.69 1.17.016 2.475-.037 3.928-.177M26.115 32.63c.37-1.717.092-3.314.092-3.314-1.087 1.58-2.155 2.782-3.143 3.698-2.66.14-4.736-.203-4.736-.203s1.187 1.2 2.557 1.89c-1.808 1.13-3.02 1.232-3.02 1.232 7.913.17 12.66-5.053 12.66-5.053-1.333.89-2.877 1.432-4.41 1.75"/></g></svg>