<svg xmlns="http://www.w3.org/2000/svg" width="600" height="785.8" viewBox="0 0 600 785.8"><path d="M258.547 741.804c-40.93-19.625-60.35-23.175-91.05-35.08C63.085 663.704 7.117 599.804 10.043 479.73c15.034-121.953 65.153-176.665 42.602-253.722-7.727-29.026-25.27-59.306-50.33-81.023C49.718 105.515 84.178 72.73 113.205 2.98c61.602 49.286 129.682 14.83 186.692 13.784 56.8 1.044 124.878 35.71 186.69-13.574 29.03 69.54 63.277 102.324 111.1 141.794-25.476 21.717-43.02 52-50.327 81.442-22.972 76.428 27.147 131.35 42.39 253.302 2.714 120.074-53.252 183.976-157.04 227.207-31.113 11.897-50.746 15.243-91.464 35.292-23.183 11.695-34.46 28.813-41.35 42.392-6.68-13.79-18.168-30.7-41.35-42.82z"/><path fill="#FFF" d="M209.475 715.912c-39.47-10.445-64.948-23.387-92.512-39.258V13.004c24.85 13.992 42.183 23.598 92.512 21.094v224.695c2.92-3.76 5.846-8.354 9.605-15.452 25.686 22.77 47.614 10.24 80.818 8.78 32.993 1.46 54.918 14.2 80.607-8.77 2.923 7.306 6.053 12.53 9.396 15.66V34.098c50.12 2.713 69.76-6.89 92.52-21.093v663.65c-27.56 15.452-52.832 28.812-92.72 39.47V502.908c-22.97 15.448-31.32 15.658-58.26 23.6-15.874 6.053-24.854 11.896-31.744 23.6-6.68-11.906-15.66-17.963-31.53-23.6-27.36-8.15-35.92-9.188-58.682-23.81V715.91z"/><path d="M449.238 205.333l-7.936-41.974c-.624-13.79-13.99-16.92-20.465-2.72v49.7c.628 3.76 1.458 5.43 4.386 8.14h-33.83c3.34-3.55 3.97-3.13 4.385-8.56V90.682c-.416-3.13-1.46-4.382-4.386-6.89h33.83c-1.88 2.09-3.757 3.55-4.385 6.89v54.3l40.93-53.67c1.46-2.504 1.045-5.43-2.92-7.934h23.594c-1.66.83-6.05 2.503-9.18 6.68l-33.41 45.105c10.44-1.042 17.54-2.087 22.557 11.487 8.77 40.72 8.56 75.6 21.51 53.25-6.27 30.07-32.582 20.26-34.67 5.43zm-333.028 12.5c5.694-3.702 7.444-5.143 7.883-11.312V91.35c0-3.698-2.19-6.58-6.35-8.635 44.666 0 60.868-1.646 74.442 12.338 13.576 14.193 9.415 32.083-7.224 46.687 28.03 12.34 26.5 54.706 8.76 66.43-17.29 10.69-22.55 9.666-77.5 9.666z"/><path fill="#FFF" d="M250.195 205.126c-10.652-15.8-7.31-32.885 4.176-40.358 9.61-5.553 25.06-4.914 25.06 15.59-.2 11.53-11.9 15.372-18.37 10.034-9.604 14.736 14.41 32.46 46.57 9.825V90.24c-10.23.425-19.84.425-30.28 1.918l3.76-7.898c17.75 0 38.214 0 57.427-.215-2.09 2.775-4.382 4.272-5.43 8.542l.212 110.833c-43.437 15.372-64.11 22.847-83.115 1.706zm-102.093-67.244V87.766c17.522 0 27.814 8.56 28.034 24.433-.437 17.54-9.42 26.1-28.034 25.68zm.205 70.588v-62.857c27.27.21 35.188 16.915 35.405 33.202-.22 18.794-12.095 30.07-35.405 29.655z"/><path d="M159.927 669.53v-8.83c7.192-.215 8.884.432 8.884-3.875v-63.077l-9.94-.212c10.158-7.752 16.29-13.352 29.41-25.192v88.914c-.213 3.874 2.96 3.44 9.52 3.44v8.832h-37.87z"/><path fill="#FFF" d="M376.974 620.774c.057-67.388-69.523-67.412-69.505-.026-.07 67.385 69.51 67.416 69.5.034v-.008z"/><path d="M357.956 620.774c-.036 60.27-31.697 60.253-31.697-.02.03-60.263 31.69-60.263 31.69.01v.01zm59.294-11.09h2.065c7.08 0 12.485-1.166 15.826-4.356 3.74-2.815 5.8-7.27 5.8-12.893 0-5.23-1.67-9.204-4.13-12.012-2.55-3.297-6.29-4.463-11.3-4.463-2.85 0-5.792.392-8.26 1.647-2.94 1.167-4.22 1.942-4.22 2.815 0 .384.88 1.16 2.95 3.2 1.67 1.54 2.46 3.963 2.46 6.005 0 2.807-.79 4.845-2.46 6.397-2.065 1.64-4.127 2.415-7.077 2.415s-5.406-.78-7.08-2.81c-2.06-2.04-2.944-4.85-2.944-8.05 0-5.23 2.555-9.59 7.96-13.278 5.407-3.584 11.99-5.617 19.95-5.617 8.75 0 15.828 2.423 21.626 6.88 5.798 4.844 8.747 10.46 8.747 17.25 0 5.23-1.674 9.687-5.407 13.273-3.34 3.19-8.745 6.392-15.82 8.04 7.47 2.042 13.76 5.23 17.89 9.98 4.13 4.464 6.29 10.47 6.29 17.35 0 8.43-2.946 15.21-9.24 20.45-6.19 5.23-14.056 7.652-24.08 7.652-8.35 0-14.935-2.042-20.442-5.62-5.796-4.072-8.252-8.823-8.252-14.927 0-3.584.788-6.39 2.853-8.814 2.16-2.42 5.01-3.59 8.35-3.59 2.56 0 5.016.775 6.685 2.423 1.674 1.55 2.46 3.973 2.46 6.395 0 2.81-1.183 5.623-3.34 7.654l-3.246 3.2c0 1.257 1.57 2.42 4.52 3.196 2.944 1.26 6.29 2.035 10.413 2.035 5.015 0 9.535-1.65 12.48-5.23 2.95-3.584 4.527-8.43 4.527-14.437 0-7.66-2.062-13.667-6.192-17.74-3.734-3.97-10.026-6.004-17.496-6.004-.396 0-.79.396-1.67.396h-1.184v-8.82h-.003z"/><path fill="#FFF" d="M271.15 625.124c-2.485 2.807-5.26 4.747-8.51 6.397-2.87 1.26-6.504 2.04-10.14 2.04-8.13 0-14.157-3.2-19.418-8.82-4.88-6.105-7.27-13.66-7.27-23.355 0-9.59 2.39-17.242 8.035-23.256 5.26-6.006 12.53-9.303 21.043-9.303 10.14 0 18.27 4.07 24.294 12.11 5.74 7.66 8.896 18.416 8.896 32.567 0 16.378-3.634 30.037-10.52 40.507-6.89 10.46-16.166 15.69-27.07 15.69-6.12 0-11.383-1.64-15.783-5.23-4.116-3.197-6.505-7.262-6.505-12.01 0-3.69 1.246-6.496 2.87-8.44 2.01-2.03 4.4-3.287 7.27-3.287 2.772 0 4.88.872 6.408 2.423 2.105 1.64 2.868 3.68 2.868 6.006 0 2.03-.763 4.07-2.392 5.62-1.244 1.64-2.007 2.425-2.007 2.906 0 1.16.76 1.936 2.77 3.2 1.62.775 3.63 1.55 6.12 1.55 5.64 0 10.14-3.59 13.77-9.98 3.156-6.886 5.26-15.7 5.26-26.943v-.38z"/><path d="M257.38 576.865c-5.26 0-8.898 2.032-11.766 6.495-2.392 3.964-3.635 9.978-3.635 18.018 0 7.654 1.24 13.668 4.01 18.123 2.484 3.98 6.503 6.01 11.77 6.01s8.892-2.03 11.28-5.61c2.49-3.59 3.73-9.693 3.73-17.25 0-8.43-1.242-14.54-4.112-18.898-2.39-4.454-6.406-6.88-11.286-6.88z"/><path fill="#E32219" d="M282.42 525.708c-17.243-7.237-25.424-8.543-38.354-12.932-43.98-15.873-67.555-39.438-66.325-83.722 6.34-44.972 27.45-65.15 17.95-93.572-3.252-10.704-10.64-21.873-21.2-29.882 19.97-14.557 34.49-26.647 46.71-52.37 25.95 18.175 54.628 5.468 78.64 5.084 23.927.386 52.607 13.17 78.64-5.005 12.228 25.64 26.65 37.73 46.796 52.29-10.73 8.01-18.12 19.18-21.2 30.03-9.674 28.188 11.438 48.443 17.86 93.415 1.143 44.284-22.432 67.85-66.15 83.795-13.102 4.393-21.372 5.623-38.524 13.016-9.765 4.318-14.517 10.635-17.42 15.637-2.814-5.086-7.652-11.318-17.415-15.792z"/><path fill="#FFF" d="M297.588 498.317c-32.578-.84-71.627-23.6-78.518-68.285-3.76-25.067 4.384-55.97 34.038-79.773-4.176 5.22-9.814 10.65-13.363 21.92-6.057 18.165-4.594 33.203 1.252 48.03 12.948 24.22 31.952 39.256 57.22 40.086 38.003-2.293 55.755-29.866 60.14-43.22 3.553-10.445 9.4-25.896-2.923-52-3.97-8.14-10.44-14.827-10.44-14.827 17.54 12.11 37.17 37.797 34.456 76.012-2.51 36.128-35.505 70.588-81.862 72.05zm1.892-152.644l-5.834-18.588h-19.02l14.913-12.536-5.84-19.89 16.21 11.453 15.34-11.02-5.62 19.233 15.13 12.75h-19.02"/></svg>