<svg xmlns="http://www.w3.org/2000/svg" width="200" height="272.763" version="1"><path d="M189.365 101.838c.148.065.43.148.538.19.454.18.832.426 1.15.8.723.852.722 1.802.677 2.83.56.515 1.503 1.038 2.063 1.567 1.01.95 1.503 1.482 1.84 2.876.198.82.127 1.808.033 2.67.437.44.616 1.05.594 1.687-.062 1.8-.09 3.6-.206 5.4.044.02.088.04.128.06.92.477 1.497 1.178 1.576 2.238.047.633-.317 1.51-.446 2.12 1.762.11 2.81.946 2.612 2.884-.245 2.4-1.963 4.58-3.867 5.953-1.205.87-2.834 1.845-3.18 3.4-.044.19-.11.38-.17.566.01.054.02.11.027.163.37.417.672.89.823 1.423.96.25 1.454 1.03 1.506 2.11.083 1.676-.475 4.7-1.126 6.5.047.03.095.057.14.087.926.596 1.596 1.395 1.523 2.555-.023.378-.177.73-.372 1.047-.107.17-.316.423-.47.635.238.137.603.322.76.44.69.526.997 1.26 1.076 2.11.202 2.16-2.04 4.33-3.59 5.57-.726.58-1.576 1.037-2.373 1.517-.47.284-1.57.892-1.92 1.27-.1.11-.45.414-.33.58.77 1.096.98 2.248.36 3.4.467 2.095.26 4.31-.438 6.333-.9 2.61-2.123 5.093-3.247 7.61-1.797 4.026-2.953 8.918-6.2 12.075-1.383 1.345-2.69 2.28-4.43 3.118-.507.244-1.023.47-1.544.682-.126 2.54-1.51 5.35-2.994 7.446.73.71 1.088 1.577.825 2.597-.16.62-.5.822-.82 1.193.168.18.507.51.57.585.58.68.74 1.46.664 2.34-.273 3.024-7.027 5.81-9.604 6.45-.68.167-.794.224-.83.938-.11 2.132.21 3.646-2.085 4.776-.41.2-.826.386-1.254.544-.39 2.416-2.18 4.653-4.52 5.423-.47.153-.953.234-1.442.28.22.56.275 1.147.184 1.762-.08.546-.27 1.014-.615 1.446-.19.237-.446.45-.617.685-.103.143-.137.27-.137.444 0 1.947 1.335 3.766.17 5.776-1.107 1.91-3.733 3.15-5.637 4.138-.51.263-1.118.317-1.685.322-.25 0-.916-.036-1.33-.004h.252l-3.14 2.66c-5.516 4.684-10.73 9.723-16.5 14.11-1.74 1.323-2.797 2.192-5.11 1.542-1.063-.3-2.13-.58-3.21-.836-3.857 3.306-7.797 6.52-11.83 9.61l-2.81 2.156-2.765-2.216c-3.923-3.148-7.76-6.403-11.553-9.708-1.157.273-2.306.59-3.432.97-2.11.71-2.71-.02-4.32-1.143-6.11-4.252-11.366-9.503-17.05-14.273l-2.67-2.24c-1.554-.698-3.383-1.644-4.51-2.79L34.55 222.46l2.727-.55c.303-.06.606-.12.91-.173L23.99 203.9l1.19-.044c.898-.033 1.795-.073 2.692-.1-1.14-2.988-2.54-5.858-4.298-8.54l-.3-.455c-1.546-.64-2.98-1.47-4.225-2.6-3.41-3.107-3.77-7.626-5.54-11.596-1.18-2.64-2.75-5.126-3.69-7.867-.72-2.067-.98-4.325-.46-6.468l.473-1.95c-.944-1.55-1.803-3.144-2.578-4.796l-1.305-2.78 2.866.638c-.474-2.174-1.047-4.33-1.675-6.464-1.594-5.426-3.53-10.798-5.812-15.973L0 131.883l3.152.97c1.1.34 2.19.715 3.267 1.125-.89-1.903-1.608-4.027-2.05-5.993-1.93-8.493.31-18.163 5.082-25.358l.725-1.092c-.47-7.674-.76-15.36-.82-23.05l-.028-3.703c2.09.142 4.08-.232 6.144-.62 6.83-1.278 12.776-4.186 19.216-7.145C44.96 62.3 54.91 56.94 64.92 51.707c2.295-1.2 4.59-2.4 6.888-3.592l-17.255-15.41 31.85-3.122L99.205 0l12.8 29.583 31.85 3.12L126.92 47.83c4.147 2.177 8.27 4.397 12.4 6.606 8.315 4.447 16.64 8.9 25.247 12.762 6.55 2.94 13.86 5.93 21.01 6.885l4.05.54-.133 4.086c-.242 7.38-.293 14.77-.526 22.15.126.33.25.66.397.98zM92.757 259.465c2.207 1.884 4.435 3.745 6.69 5.57 2.325-1.8 4.618-3.64 6.882-5.515-2.38-.295-4.78-.453-7.18-.44-2.127.012-4.275.152-6.4.385z" fill="#161413" fill-rule="evenodd"/><path d="M30.435 88.915c12.936-5.058 25.52-11.276 37.78-17.788 3.075-1.633 6.135-3.29 9.188-4.967l2.76-12.606-3.293-2.942c-16.068 8.206-33.053 17.39-46.197 23.11-6.696 2.915-12.625 4.653-16.74 5.105.07 11.91.753 23.375 1.592 33.923-1.436-2.948-2.638-5.988-3.678-8.82-.52-8.474-.913-16.956-.977-25.453l-.018-2.285c2.334-.148 6.204-.81 9.39-1.82 5.302-1.685 11.148-4.176 15.085-5.986 10.258-4.713 20.292-10.112 30.297-15.342 2.924-1.528 5.866-3.07 8.825-4.594L58.12 33.87l29.315-2.874L99.21 3.793l11.77 27.203 29.315 2.873-16.002 14.29c4.796 2.49 9.556 5.05 14.32 7.6 8.325 4.45 16.724 8.94 25.34 12.81 6.544 2.935 14.287 6.05 21.426 7.002l2.7.36-.09 2.724c-.228 6.87-.29 13.74-.48 20.61-.35-.428-.79-.745-1.22-1.1-.536-.437-1.11-.848-1.748-.863.124-5.35.183-11.058.434-18.748-16.854-2.25-41.17-16.925-63.093-28.254l-3.633 3.245 2.765 12.62c2.27 1.215 4.55 2.428 6.826 3.633 7.16 3.79 14.35 7.53 21.646 11.03 6.13 2.94 12.485 5.826 18.914 8.04l2.146.74-.12 2.27c-1.057 19.72-2.974 39.726-8.29 58.805-9.68 34.734-28.48 62.934-52.902 88.547-1.272-.153-2.544-.276-3.823-.367 26.54-27.424 44.518-55.588 53.825-88.988 5.02-18.013 7.066-37.29 8.183-58.158-12.56-4.33-29.368-13.06-45.552-21.68l2.736 12.49-25.39-15.033L73.818 82.53l2.732-12.47c-14.865 8.104-30.19 15.863-45.02 21.66 1.543 20.44 2.713 40.442 7.78 58.557 9.32 33.305 30.09 65.317 54.785 88.64-1.32.104-2.633.238-3.944.398-24.59-23.836-44.62-55.626-53.74-88.227-.76-2.727-1.44-5.484-2.04-8.265l.01-.016.745-1.706-1.056.28c-3.35-16.18-4.305-33.105-5.538-49.43l-.167-2.22 2.075-.81zm59.7 170.28c3.798 3.265 6.97 5.894 9.295 7.76 3.22-2.47 6.392-5.03 9.525-7.663 1.273.208 2.54.454 3.796.73-3.75 3.205-7.57 6.32-11.482 9.322l-1.875 1.437-1.842-1.47c-3.807-3.054-7.55-6.225-11.24-9.435 1.248-.26 2.535-.485 3.83-.675zM18.73 120.043c-3.823-5.367-6.35-11.95-8.017-16.556-5.33 8.03-6.414 17.417-4.874 24.192.65 2.87 1.66 5.26 2.6 6.953.59-1.91 1.38-3.748 2.34-5.452.224-.403.47-.81.73-1.216-1.187-4.387-2.116-12.44-1.478-17.334.003 3.183.285 6.953.783 10.4.268-1.492.757-3.23 1.5-4.595-.642 2.245-1.164 5.02-1.145 6.806.258 1.43.553 2.757.88 3.91 1.75-2.535 4.09-5.05 6.677-7.11z" fill="#f6ca00" fill-rule="evenodd"/><path d="M25.99 116.88c-6.137 2.15-11.866 8.2-14.42 12.75-1.09 1.95-1.937 4.022-2.508 6.126 2.136.96 4.27 2.093 6.266 3.396.14-.606.298-1.25.477-1.923-.156-1.77-1.046-4.58-1.99-6.81 1.144 1.6 1.96 3.84 2.358 5.48 1.23-4.27 3.116-9.3 5.127-12.568-2.244 5.003-4.157 10.972-5.277 16.278 2.985 2.04 5.614 4.474 7.41 7.278.85-.69 1.74-1.345 2.654-1.946.1-.583.178-1.16.233-1.73.295-3.032-.257-6.66-1.05-10.226-.975-4.37-.76-11.79.72-16.11zm-11.05 52.107c-2.434-3.068-4.453-6.142-6.315-10.107 10.407 2.32 15.37 5.787 19.727 9.54-.9 1.336-1.68 2.756-2.347 4.238-3.086-2.888-7.152-6.32-10.725-8.29 3.21 2.55 7.147 5.746 10.388 9.07-.147.352-.288.708-.423 1.067-.914-.366-1.824-.747-2.725-1.155-2.696-1.22-5.244-2.628-7.58-4.363zm-4.367-10.58c-1.688-8.515-5.376-18.44-7.863-24.078 8.473 2.602 16.368 7.37 20.023 13.15-2.013 1.73-3.777 3.672-5.104 5.643-1.33 1.978-2.37 4.144-3.087 6.412-1.31-.43-2.637-.8-3.975-1.135zm-3.41-19.64c2.495 2.713 4.944 5.51 7.11 8.44-1.133-.663-2.468-1.16-4.388-1.61 1.857.785 3.786 1.7 5.113 2.61 1.037 1.46 2 2.955 2.858 4.49l.485-.734c-2.28-4.048-6.54-9.065-11.173-13.198z" fill="#f6ca00" fill-rule="evenodd"/><path d="M33.552 142.482c-6.29 1.646-12.255 6.823-15.17 11.153-1.313 1.952-2.297 4.05-2.975 6.197 2.267.785 4.474 1.737 6.574 2.912.32.175.628.354.93.536.79-3.166 1.926-6.435 3.41-9.14-1.01 3.15-1.985 6.354-2.727 9.56.82.52 1.605 1.064 2.37 1.633 1.025-1.096 2.11-2.548 3.06-3.975-1.035 2.087-1.69 3.268-2.61 4.313.836.64 1.65 1.31 2.466 2.01.92-1.268 1.957-2.453 3.113-3.53-.02-1.985-.23-4.09-.52-6.178-.62-4.436.256-11.297 2.082-15.485zm1.264 54.816c-.317 2.53-.436 5.775-.272 7.448.744.192 4.01.763 5.63 1.22-.103-2.024-.098-4.197-.007-6.5-1.867-.955-3.425-1.572-5.35-2.168zm6.11 8.888c.792.24 1.578.505 2.358.795.38.147.76.29 1.137.45.448-1.506 1-2.993 1.64-4.456-1.763-1.18-3.62-2.317-5.53-3.316.1 2.17.204 4.366.4 6.533zm-.594 15.884l-13.3-16.722c6.727-.25 12.434 1.027 17.142 2.954-.472 1.783-.79 3.592-.932 5.417-2.52-1.66-5.882-3.45-9.12-4.907 2.868 1.737 6.337 3.96 9.06 5.887-.024.546-.03 1.09-.023 1.64-1.097.09-2.17.165-4.14.33 1.344.154 2.854.203 4.15.23.06 1.613.26 3.24.616 4.87-1.148.047-2.3.15-3.46.297zm10.084-25.13c-5.384 8.146-7.565 16.574-5.702 24.8 2.112-.035 4.205.105 6.27.432-1.07-4.427-1.705-10.147-1.39-16.758.244 4.478.676 9.208 1.53 13.678.458-1.685 1.15-2.814 2.66-5.233-1.09 2.16-2.197 5.062-2.36 6.712.125.586.26 1.166.402 1.74 1.298.237 2.586.55 3.86.94.662-1.154 1.53-2.167 2.49-3.12-.584.89-1.323 1.995-1.897 3.31 1.87.612 3.72 1.393 5.523 2.35.387.205.765.414 1.136.628-.537-2.91-1.646-5.53-2.856-7.71-1.455-2.623-3.442-4.913-5.157-8.102-2.12-3.947-3.737-9.45-4.515-13.673z" fill="#f6ca00" fill-rule="evenodd"/><path d="M62.463 244.428c-3.207-1.122-6.818-2.61-8.317-4.137l-16.568-16.84c20.247-4.077 31.67 8.568 34.697 11.788.896.952 2.263 4.275 3.236 6.878-1.15.266-2.3.53-3.45.784-1.9-2.093-4.32-4.282-7.45-6.56-.113-1.916-.285-3.33-1.116-5.45.4 1.707.527 3.347.376 4.916-4.563-3.23-10.557-6.636-18.498-10.21 3.264 1.788 6.544 3.51 9.76 5.374-1.445.126-2.357.137-4.86.217 2.175.25 4.61.39 6.018.464 3.613 2.146 7.132 4.503 10.444 7.37-2.007.15-5.665.214-8.29.298 2.114.242 7.12.33 9.078.395 1.185 1.067 2.34 2.203 3.464 3.42-.864.186-1.73.36-2.597.52-1.68.315-4.016.818-5.92.784z" fill="none" stroke="#161413" stroke-width=".048"/><path d="M62.463 244.428c-3.207-1.122-6.818-2.61-8.317-4.137l-16.568-16.84c20.247-4.077 31.67 8.568 34.697 11.788.896.952 2.263 4.275 3.236 6.878-1.15.266-2.3.53-3.45.784-1.9-2.093-4.32-4.282-7.45-6.56-.113-1.916-.285-3.33-1.116-5.45.4 1.707.527 3.347.376 4.916-4.563-3.23-10.557-6.636-18.498-10.21 3.264 1.788 6.544 3.51 9.76 5.374-1.445.126-2.357.137-4.86.217 2.175.25 4.61.39 6.018.464 3.613 2.146 7.132 4.503 10.444 7.37-2.007.15-5.665.214-8.29.298 2.114.242 7.12.33 9.078.395 1.185 1.067 2.34 2.203 3.464 3.42-.864.186-1.73.36-2.597.52-1.68.315-4.016.818-5.92.784zm-37.37-49.595c1.867 2.918 3.352 6.05 4.605 9.55 1.214.013 2.3.107 3.928.352-.156-2.295-.06-5.088.373-7.754-2.85-.77-6-1.2-8.91-2.142z" fill="#f6ca00" fill-rule="evenodd"/><path d="M10.83 166.624c-.456 1.872-.21 3.803.416 5.62.807 2.337 2.248 4.62 3.644 7.744 1.59 3.563 2.148 8.34 5.176 11.097 3.714 3.385 8.594 3.47 13.74 4.874 4.082 1.11 8.327 3.32 12.628 6.17.473-1.01.99-2 1.55-2.988-1.855-5.213-4.188-11.26-5.266-13.477-1.876-3.86-5.72-5.565-9.436-7.098-6.633-2.738-15.573-5.007-22.452-11.95z" fill="none" stroke="#161413" stroke-width=".048"/><path d="M35.245 162.69c-4.675 3.206-7.503 7.73-9.156 12.148 1.62.633 3.25 1.23 4.88 1.85.33-3.115.95-6.34 1.97-9.103-.505 3.104-.974 6.256-1.242 9.382.644.25 1.286.505 1.926.77 1.947.802 3.678 1.59 5.176 2.52-.358-.82-.706-1.668-1.026-2.562-1.512-4.22-2.392-10.714-2.535-15.005z" fill="#f6ca00" fill-rule="evenodd"/><path d="M10.83 166.624c-.456 1.872-.21 3.803.416 5.62.807 2.337 2.248 4.62 3.644 7.744 1.59 3.563 2.148 8.34 5.176 11.097 3.714 3.385 8.594 3.47 13.74 4.874 4.082 1.11 8.327 3.32 12.628 6.17.473-1.01.99-2 1.55-2.988-1.855-5.213-4.188-11.26-5.266-13.477-1.876-3.86-5.72-5.565-9.436-7.098-6.633-2.738-15.573-5.007-22.452-11.95zm176.435.064c.455 1.87.273 3.867-.353 5.683-.806 2.34-1.802 4.37-3.2 7.49-1.59 3.568-2.938 8.757-5.874 11.61-1.413 1.376-2.484 2.098-4.033 2.84-3.288 1.58-7.14 2.46-10.66 3.31-4.242 1.028-9.615 3.15-14.816 6.5 2.3-5.15 6.74-16.07 7.74-18.32 2.194-4.94 5.53-5.88 9.247-7.414 6.505-2.608 15.127-4.94 21.943-11.692z" fill="#d91521" fill-rule="evenodd"/><path d="M123.488 242.065c.154-2.314.19-4.812 1.452-6.254 1.12-1.27 3.248.09 4.415-.96 1.066-.96.574-5.01 2.792-7.613.904-1.06 2.85-.216 4.213-.507 1.834-.39 2.055-2.4 3.604-2.588 1.508-.18 2.347 1.683 3.808 1.268.85-.24 1.523-1.215 2.386-2.04.864-.826 1.922-1.504 2.735-1.158 1.187.503 1.415 1.705 1.252 2.89-.163 1.186-.97 2.1-.793 3.15.116.677.942 1 .76 2.232-.19 1.29-1.387 1.08-1.387 2.795 0 1.73 1.123 3.725.372 5.02-.835 1.44-3.025 2.516-5.025 3.552-.613.318-2.618.007-3.275.357-1.077.573-1.914 1.29-2.743 1.912h-.172c-2.623.007-5.12-.054-7.694-.547 2.2-1.714 4.417-3.674 6.786-6.053 2.327.17 6.086.04 8.315-.305-1.74.043-5.75.133-7.78-.24 2.92-2.986 6.084-6.615 9.72-11.194-2.254 2.44-4.447 4.915-6.718 7.33.167-1.57.288-2.713.483-4.59-.57 2.02-.87 4.02-1.24 5.396-1.673 1.757-3.395 3.48-5.22 5.125-.017-1.98.195-5.747.303-8.43-.4 2.12-.86 7.22-1.06 9.105-1.42 1.248-2.907 2.447-4.483 3.586-.478-1.665-.802-2.788-1.36-4.705.193 1.72.55 3.356.767 4.67-1.746-.373-3.482-.784-5.22-1.2zm40.932-43.82c-1.694 3.074-3.914 6.63-6.058 9.82-.527-2.08-1.038-3.784-1.696-5.176.51 1.802.984 3.73 1.325 5.72-.76 1.12-1.502 2.185-2.21 3.16-.013-.128-.04-.263-.072-.403-.287-1.184-.982-1.457-1.475-2.4-.326-.626-.1-2.685-.17-3.51-.115-1.34-.483-2.39-1.635-2.696 3.462-1.853 7.222-3.365 10.935-4.263l1.06-.254zm6.99-1.96c-.13 2.608-1.862 5.55-3.12 7.19-.795 1.034 1.33 1.25.996 2.543-.125.486-1.053.755-.942 1.64.16 1.278 1.46 1.103 1.316 2.722-.14 1.563-5.076 4.282-8.467 5.122-.95.236-1.88.598-1.97 2.324-.075 1.48.333 2.725-1.245 3.503-.39.19-.75.35-1.104.48-.048-.89-.364-1.63-1.187-2.346-.945-.823-1.784-1.768-1.886-2.823.72-1.442 1.45-2.973 2.47-4.522 3.06-.41 6.28-.537 9.007-1.096-2.957.123-5.9.374-8.517.387 1.043-1.505 2.31-3.374 3.58-5.39 1.067-.433 2.3-.914 3.52-1.507-1.27.367-2.19.636-3.15.915 1.464-2.36 2.903-4.886 3.98-7.25 2.25-.545 4.535-1.116 6.724-1.898z" fill="#f6ca00" fill-rule="evenodd"/><path d="M136.577 225.694c-.23-1.493-.327-2.91-.083-3.86.215-.83 1.69-1.32 2.177-2.18.71-1.247-.59-4.53-.45-5.87.197-1.885 2.138-1.342 3.344-1.732 1.48-.478.618-2.196 1.767-2.76 1.327-.65 1.016 1.04 2.39.183.61-.38 1.288-2 1.54-2.728.26-.764.935-1.018 1.37-1.368 1.17-.95 2.327-1.778 2.9-1.8 1.288-.05 1.517.68 1.627 1.96.103 1.19-.222 2.905.27 3.845.524 1.007 1.168 1.254 1.397 2.197.285 1.163-.353 1.716-1.05 2.576-1.99 2.45-.267 4.61 1.32 5.99.943.82.955 1.624.84 2.626-.285 2.414-2.14 3.982-3.534 4.44-.61.2-1.34.242-2.096.272.177-.685.634-1.474.744-2.276.217-1.59-.2-3.17-1.793-3.848-1.15-.49-2.367.184-3.28.946.84-2.12 1.753-4.57 2.552-7.08.895-.775 1.953-1.66 2.96-2.656l-2.728 1.905c.69-2.253 1.28-4.537 1.622-6.663-1.083 4.623-3.35 10.633-5.414 15.483-.2.216-.42.446-.638.65-.63-3.405-1.134-6.015-1.964-8.02.61 2.667 1.133 5.58 1.27 8.553-.04.018-.074.033-.11.043-.785.224-1.923-1.506-3.67-1.296-1.782.214-2.19 1.898-3.28 2.458zm34.22-65.062c.003-1 .15-1.927.594-2.683.86-1.47 3.21-.53 4.16-1.788.864-1.145-.38-5.027 1.306-8.003.69-1.21 2.613-.98 3.895-1.52 1.727-.73.74-.74 2.18-1.335 1.638-.675 1.816-1.824 2.84-2.302.59-.275 1.26.726 2.907-1.09.802-.883 2.11-1.417 2.977-1.59.877-.174 1.895-.64 1.953.552.057 1.16-.483 4.782-1.24 6.41-.547 1.183 1.862 1.232 1.778 2.566-.03.5-1.21 1.324-.933 2.17.4 1.226 1.78.68 1.934 2.3.102 1.107-1.1 2.71-3.032 4.256-.876.7-3.803 2.218-4.467 2.946-.707.774-1.08 1.568-.455 2.46 1.04 1.483.08 2.357-1.323 3.416-.3-1.02-.773-1.968-1.48-2.814-.258-.305-1.335-1.266-1.443-1.47-.098-.28-.015-1.518-.118-2.04-.07-.362-.19-.68-.35-.963 2.327-.37 5.815-1.056 7.43-1.692-2.43.535-5.83.99-7.906 1.063-.212-.215-.46-.397-.732-.55 2.28-3.626 7.78-10.1 10.13-12.737-2.48 2.295-9.02 8.92-10.785 12.444-.22-.08-.45-.145-.69-.197-1.53-.333-4.342.537-5.823 1.017-1.11.36-2.21.76-3.3 1.175zm4.045-24.042c-.024-.314-.028-.62-.008-.916.105.385.185.7.008.915zm6.29-12.632c.184-1.268.638-2.405 1.46-2.894 1.612-.958 2.542-.706 3.888-1.492 1.528-.89.786-1.863 1.737-2.476.547-.353 1.41.356 2.54-1.093.734-.94 1.2-1.565 2.033-1.853.845-.292 2.05-.914 2.01.28-.04 1.143-.08 3.655-.227 5.692-.092 1.298 1.63.838 1.73 2.17.036.5-.766 2.177-.376 2.98.56 1.16 2.756-.307 2.545 1.757-.144 1.393-1.11 3.34-3.25 4.88-1.03.742-2.95 1.89-3.63 3.8-.38-.68-.89-1.264-1.518-1.798-.298-.255-2-1.372-2.16-1.577-.014-.125-.024-.247-.032-.37 2.094-.995 4.84-2.417 6.1-3.376-1.796.962-4.23 2.05-6.137 2.76-.008-.125-.02-.25-.034-.373 1.22-4.278 2.99-9.747 3.888-12.364-.68 1.492-1.752 4.176-2.785 7.048-.66-1.125-1.122-1.857-1.97-3.312.584 1.57 1.225 2.843 1.73 3.99-.42 1.19-.83 2.4-1.194 3.556-.048-.08-.1-.158-.158-.235-.3-.384-.692-.6-1.146-.75-.117-.038-.545-.144-.66-.21-.446-.82-.697-1.64-1.21-2.476-.625-1.02-1.888-2.272-3.167-2.272zm11.045 15.298c.037.224.017.443-.048.66v-.07c.01-.195.025-.39.042-.59zm-16.67 9.714c-.093-.24-.166-.47-.213-.685-.18-.84.92-1.936.97-2.923.074-1.432-2.56-3.784-3.036-5.045-.67-1.774 1.31-2.158 2.214-3.046 1.108-1.09-.43-2.24.344-3.253.895-1.177 1.374.473 2.218-.908.376-.614.384-1.856.282-2.618-.106-.8.382-1.814.612-2.347.308-.714 1.063-2.763 1.664-3.096.937-.623 2.297.57 2.968 1.66.624 1.017.74 1.624 1.2 2.46.354.648 1.367.41 1.873 1.06.42.537.28 1.08.416 2.254.082.756 1.31 1.142 2.462 2.127.693.59 1.38 1.36 1.725 2.53.2.68.11 1.406.04 2.35-1.17.28-2.45.94-3.247 1.82-1.42 1.565-1.407.31-2.62.876-.512.24-.857.59-1.183.952-.04-.73-.095-1.51-.164-2.314.7-1.133 1.647-2.51 2.475-4.023-1.042 1.31-1.722 2.17-2.55 3.21-.394-4.173-1.1-8.83-1.57-11.062.35 3.174 1.004 10.316 1.18 14.866-.266.255-.576.486-.99.657-.5.207-.92.408-1.284.82-.218.245-.61.39-.903.516-1.434.607-3.366.217-4.326 1.91-.23.406-.413.825-.558 1.253z" fill="#f6ca00" fill-rule="evenodd"/><path d="M178.19 127.486c-1.167-.95-2.118-2.154-2.82-2.82-1.59-1.51-.585-.372-1.544-1.823-.76-1.154.205-2.71 1.293-3.48.71-.504 1.1-1.255 1.15-1.752.145-1.42-1.62-2.99-2.15-4.67-.455-1.453.483-4.41 3.59-4.91.922-.15.66-1.85 1.18-2.348 1.503-1.422 3.04.64 2.927-1.995-.036-.805.28-1.793.534-2.314.343-.7 1.2-2.71 1.816-3.01.53-.316 1.03.077 1.59.537.466.38 1.013.758 1.29 1.266.576 1.047.663 1.66 1.08 2.518.322.666 1.287.525 1.82 1.15.39.463.353.967.303 2.147-.03.76 1.447 1.334 2.55 2.374.664.62 1.123.945 1.41 2.132.14.582.07 1.466-.025 2.338-.398.015-.8.146-1.17.28-.175.063-.35.132-.527.193-1.127.39-1.747 1.25-2.45 2.152-.884 1.13-1.35.262-2.32.89-1.306.84-.575 1.796-1.7 2.453-.42.242-.823.38-1.29.5l-.284.076c.25-1.706.45-3.96.6-6.29.85-1.065 2.048-2.404 3.068-3.83l-3.018 2.98c.207-3.655.283-7.354.21-9.277-.164 2.827-.613 8.888-1.12 13.4-1.483-1.56-3.366-3.38-4.816-4.092 1.763 1.473 3.5 3.425 4.715 4.977-.107.865-.21 1.653-.316 2.327-.555.174-1.06.38-1.645.725-1.257.747-1.775 2.387-1.94 3.922-.032.02-.067.04-.1.062-.834.497-1.474 2.183-1.898 3.215zm-13.208 50.057c-.052-.634-.063-1.118-.01-1.346.286-1.262 2.005-1.427 2.874-2.625.765-1.054.18-2.265-.456-3.79-.818-1.958-1.81-4.353-1.015-6.72.196-1.887 1.312-.327 2.517-.717.38-.123 4.075-1.685 7.18-2.532-.65 3.042-1.413 6.11-2.246 9.208-1.44-1.82-3.58-4.22-5.142-5.48 1.22 1.302 3.95 4.437 4.952 6.19-.456 1.675-.93 3.36-1.42 5.054-2.4.944-4.826 1.8-7.23 2.76l-.004.004zm11.163-17.75c1.475-.398 2.81-.63 3.58-.462 3.09.68 2.016 3.11 2.365 4.11.27.77 2.033 1.397 2.878 4.14-2.754 2.35-5.843 4.165-9.164 5.69-.904.413-1.814.8-2.73 1.17.174-.692.346-1.404.52-2.136 1.937-1.292 5.452-3.85 6.993-5.57-1.336 1.133-4.92 3.67-6.774 4.634.398-1.727.795-3.565 1.193-5.537.865-1.062 2.077-2.363 3.176-3.837-1.217 1.154-2.01 1.91-2.975 2.83.312-1.588.626-3.26.938-5.027z" fill="#f6ca00" fill-rule="evenodd"/><path d="M99.223 11.38l-9.71 22.442-24.248 2.376 18.23 16.283-5.24 23.94L99.223 64l20.97 12.417-5.243-23.934L133.182 36.2l-24.247-2.376-9.712-22.443z" fill="#d91521" fill-rule="evenodd"/><path d="M99.498 24.693L98.87 46.12 77.8 40.225l20.492 7.65-11.988 17.47 13.248-16.587L112.29 64.94l-11.43-17.167 19.326-6.993-19.75 5.492-.938-21.58z" fill="#f6ca00" fill-rule="evenodd"/><path d="M61.226 245.23c5.62 4.716 10.598 9.775 16.943 14.194 1.22.85 1.47 1.46 2.98.952 4.61-1.553 12.07-2.706 18.01-2.74 6.123-.034 12.452 1.045 18.48 2.74 1.75.492 2.453-.278 3.79-1.292 5.732-4.362 10.94-9.392 16.44-14.057-2.89.008-5.38-.055-8.16-.62-8.717-1.77-17.612-4.903-30.376-4.76-12.764.144-23.745 3.582-30.785 4.893-2.913.543-5.4 1.013-7.327.69z" fill="#d91521" fill-rule="evenodd"/><path d="M30.107 88.086c12.936-5.058 25.427-11.235 37.685-17.744 2.95-1.567 5.888-3.158 8.818-4.764l2.56-11.69-2.452-2.19c-3.114 1.603-6.206 3.222-9.28 4.828-10.064 5.262-20.155 10.688-30.474 15.43-2.295 1.055-5.06 2.3-7.982 3.468-4.753 1.897-9.432 3.508-14.14 4.208.088 10.26.583 20.208 1.367 30.437.12 1.59.25 3.18.38 4.78.87 1.61 1.81 3.17 2.85 4.623 2.01-1.51 4.14-2.73 6.25-3.467l1.755-.616-.604 1.76c-1.422 4.158-1.65 11.337-.693 15.623.737 3.312 1.4 7.117 1.07 10.51-.035.336-.075.67-.12 1.005 1.98-1.19 4.05-2.123 6.084-2.67-3.38-16.27-4.312-33.1-5.56-49.595l-.215-2.887L30.1 88.08zm46.296 153.772c1.733-.398 3.468-.79 5.208-1.137 2.46-.49 4.93-.91 7.4-1.24-24.483-23.907-44.362-55.605-53.46-88.13-.647-2.31-1.23-4.634-1.76-6.97-1.347 4.027-1.955 9.623-1.424 13.444.244 1.75.456 3.63.518 5.508.59-.496 1.206-.967 1.85-1.41l1.36-.932.056 1.648c.15 4.518.96 10.482 2.48 14.73.48 1.33 1.054 2.612 1.647 3.884.583.455 1.122.947 1.61 1.49 1.298 1.432 2.088 3.303 3.03 5.707.9 2.295 2.813 7.3 3.67 9.713l2.307-3.624.407 2.204c.766 4.14 2.47 9.773 4.424 13.41 1.532 2.85 3.6 5.296 5.15 8.09 1.516 2.73 2.627 5.686 3.082 8.754 3.39 2.098 6.164 4.587 8.976 7.578 1.08 1.154 2.49 4.598 3.476 7.29zm14.92 17.185c2.676 2.298 5.38 4.566 8.12 6.774 2.82-2.175 5.594-4.412 8.326-6.697-2.868-.417-5.75-.644-8.618-.63-2.39.015-5.105.202-7.834.553zm31.243-17.237c.138-2.262.215-4.977 1.667-6.634 1.435-1.638 3.773-.395 4.49-1.042.282-.255.598-2.273.68-2.694.346-1.748.85-3.45 2.03-4.834 1.17-1.374 2.833-.687 4.222-.746-.248-1.6-.355-3.173-.068-4.288.344-1.33 1.82-1.614 2.266-2.398.43-.76-.7-4.25-.568-5.52.075-.72.365-1.357.968-1.782 1.025-.722 2-.393 2.996-.715.72-.233.09-1.95 1.64-2.712.497-.242 1.21-.27 1.56.05.12.11.236.19.34.24l.04-.044c.28-.316.593-.526.92-.662l.61-1.33c.257-.99.65-1.977 1.104-2.965 1.174-2.63 2.288-5.294 3.4-7.95 1.442-3.443 2.832-6.963 4.345-10.37 2.044-4.607 4.743-5.833 8.84-7.52-.077-.835-.09-1.527-.003-1.914.403-1.783 2.22-1.846 3.024-2.955.53-.732-.262-2.2-.56-2.91-.965-2.315-1.867-4.755-1.067-7.265.082-.657.32-1.32.997-1.576.86-.324 1.644.35 2.13.193.416-.14.854-.32 1.28-.496-.026-1.263.13-2.487.717-3.493 1.1-1.88 3.632-1.1 4.213-1.87.23-.304.16-2.346.163-2.775.005-.84.046-1.68.182-2.495-.362-.66-.633-1.3-.757-1.873-.288-1.334.903-2.25.95-3.16.045-.87-2.53-3.483-2.98-4.68-.254-.673-.28-1.376.068-2.026.395-.738.98-1.047 1.55-1.39-.146-1.122-.12-2.222.284-3.194.603-1.45 2.128-1.634 3.11-1.938.07-.505.04-1.153-.004-1.48-.103-.774.14-1.528.43-2.243-1.113-.88-2.005-2.024-3.074-3.04-.255-.243-.945-.81-1.14-1.09-.18-.26-.348-.61-.535-.89-1.09-1.65.11-3.713 1.524-4.715.31-.22.74-.712.78-1.107.068-.653-.862-1.936-1.203-2.48-.36-.578-.704-1.183-.91-1.835-.356-1.14-.043-2.52.54-3.53.796-1.384 2.114-2.246 3.672-2.524.257-.454.11-1.47.8-2.13.533-.506 1.15-.77 1.88-.806.19-.01.523.022.76.023.016-.175.01-.414.004-.518-.037-.87.245-1.977.627-2.754.457-.93 1.218-2.828 2.136-3.374.156-6.073.225-12.15.414-18.23-7.316-1.12-15.03-4.2-21.705-7.194-8.7-3.903-17.176-8.432-25.584-12.928-4.9-2.623-9.8-5.264-14.736-7.822l-2.78 2.48 2.563 11.697c2.15 1.15 4.303 2.296 6.458 3.436 7.146 3.78 14.32 7.51 21.61 11.008 6.135 2.944 12.376 5.784 18.815 8.004l2.79.963-.157 2.948c-1.062 19.82-2.978 39.823-8.322 59-9.66 34.668-28.406 62.9-52.66 88.448 1.95.26 3.9.594 5.864.99 2.13.427 4.244.925 6.356 1.43z" fill="#d91521" fill-rule="evenodd"/><path d="M32.488 92.335c1.434 19.13 2.522 39.202 7.7 57.716 9.234 33.01 29.94 65.217 55.14 88.8 1.328-.08 2.658-.13 3.993-.15 1.658-.02 3.29.02 4.91.11 25.03-25.74 44.358-54.03 54.14-89.153 5.18-18.573 7.07-38.082 8.12-57.285-6.354-2.235-12.625-5.083-18.685-7.99-7.342-3.523-14.58-7.285-21.78-11.093l-2.847-1.51 2.762 12.61-26.72-15.82L72.5 84.39l2.753-12.57c-1.726.936-3.457 1.864-5.19 2.785-12.2 6.48-24.71 12.666-37.57 17.735z" fill="#d91521" fill-rule="evenodd"/><path d="M32.488 92.335c1.434 19.13 2.522 39.202 7.7 57.716 4.16 14.87 10.648 29.58 18.826 43.408V80.32c-8.68 4.365-17.516 8.463-26.526 12.015zm53.725 137.397c2.96 3.16 6.005 6.205 9.116 9.117 1.32-.09 2.65-.14 3.99-.15 1.65-.02 3.282.013 4.91.103 2.73-2.813 5.4-5.656 7.99-8.535v-154l-13.01-7.705-13 7.7v153.47zm53.21-35.938c8.052-13.567 14.49-28.145 18.947-44.142 5.176-18.573 7.068-38.082 8.114-57.285-6.353-2.235-12.624-5.083-18.684-7.99-2.807-1.346-5.598-2.726-8.377-4.132v113.55z" fill="#293484" fill-rule="evenodd"/><path d="M78.095 58.808l-24.912 12.83c-3.963 2.01-7.94 3.995-11.972 5.864-5.6 2.6-11.55 5.142-17.51 6.795l-.437.12-.24-.87.434-.12c5.913-1.64 11.818-4.167 17.38-6.746 4.02-1.86 7.988-3.84 11.94-5.843l25.574-13.17-.25 1.146zm41.91-1.6l26.457 13.624c3.953 2.006 7.92 3.985 11.942 5.85 5.56 2.578 11.466 5.106 17.38 6.744l.434.12-.24.87-.436-.12c-5.962-1.652-11.91-4.195-17.518-6.794-4.032-1.87-8.01-3.854-11.973-5.865l-25.79-13.284-.25-1.146zM21.74 86.068c.057 10.314.974 20.55 1.924 30.8-.29.14-.578.29-.866.447-.965-10.4-1.904-20.78-1.963-31.245l-.002-.45.904-.004.002.452zm156.595 0c-.04 7.068-.48 14.093-1.06 21.113-.32.07-.632.168-.93.287.593-7.116 1.047-14.237 1.087-21.398l.003-.453.903.005-.003.45zm-10.39 74.038l-.407 1.18c-.292-.077-.61-.126-.943-.035l.494-1.433.14-.428.855.29-.147.426zm-2.47 7.014c-1.51 4.158-3.106 8.286-4.84 12.35-.47.25-.913.52-1.336.81 2.14-4.923 4.07-9.945 5.88-15 .03.62.14 1.234.29 1.842zm-18.447 37.71c-.793 1.27-1.6 2.536-2.423 3.79-.04-.03-.08-.065-.123-.103-.176-.163-.446-.236-.735-.237 2.096-3.186 4.092-6.437 6-9.738-.736 1.743-1.48 3.484-2.25 5.208-.166.36-.323.72-.47 1.08zm-9.084 13.264c-5.935 7.974-12.31 15.56-19.034 22.88l-1.02-.224c7.033-7.635 13.687-15.558 19.858-23.91.082.448.156.878.196 1.253zm-105.107-55.74l.28.805-.232.19c-.012-.333-.028-.668-.048-1zm14.82 33.293c.396.71.795 1.415 1.2 2.12l-.27.42c-.24-.68-.567-1.567-.93-2.54zm6.293 10.55c1.665 2.603 3.393 5.167 5.194 7.68 6.788 9.476 14.2 18.395 22.086 26.95-.344.07-.687.142-1.03.214-7.775-8.46-15.086-17.272-21.79-26.632l-.153-.213c-.89-1.3-1.777-2.607-2.533-4.013-.623-1.16-1.223-2.526-1.774-3.98z" fill="#f6ca00" fill-rule="evenodd"/><path d="M21.835 81.257c2.05 0 3.71 1.662 3.71 3.71 0 2.05-1.66 3.71-3.71 3.71s-3.71-1.66-3.71-3.71c0-2.048 1.66-3.71 3.71-3.71z" fill="#161413" fill-rule="evenodd"/><path d="M21.836 82.16c1.55 0 2.807 1.258 2.807 2.808 0 1.55-1.257 2.807-2.807 2.807s-2.807-1.257-2.807-2.807 1.25-2.807 2.8-2.807z" fill="#f6ca00" fill-rule="evenodd"/><path d="M52.827 67.585c2.048 0 3.71 1.662 3.71 3.71 0 2.05-1.662 3.71-3.71 3.71-2.05 0-3.71-1.66-3.71-3.71 0-2.048 1.66-3.71 3.71-3.71z" fill="#161413" fill-rule="evenodd"/><path d="M52.827 68.49c1.55 0 2.807 1.256 2.807 2.806s-1.258 2.807-2.807 2.807c-1.55 0-2.807-1.257-2.807-2.807s1.257-2.807 2.807-2.807z" fill="#f6ca00" fill-rule="evenodd"/><path d="M177.345 81.257c2.05 0 3.71 1.662 3.71 3.71 0 2.05-1.66 3.71-3.71 3.71s-3.71-1.66-3.71-3.71c0-2.048 1.66-3.71 3.71-3.71z" fill="#161413" fill-rule="evenodd"/><path d="M177.345 82.16c1.55 0 2.807 1.258 2.807 2.808 0 1.55-1.257 2.807-2.807 2.807s-2.807-1.257-2.807-2.807 1.257-2.807 2.807-2.807z" fill="#f6ca00" fill-rule="evenodd"/><path d="M146.276 67.585c2.05 0 3.71 1.662 3.71 3.71 0 2.05-1.66 3.71-3.71 3.71-2.048 0-3.71-1.66-3.71-3.71 0-2.048 1.662-3.71 3.71-3.71z" fill="#161413" fill-rule="evenodd"/><path d="M146.277 68.49c1.55 0 2.807 1.256 2.807 2.806s-1.257 2.807-2.807 2.807-2.807-1.257-2.807-2.807 1.258-2.807 2.807-2.807z" fill="#f6ca00" fill-rule="evenodd"/><path d="M46.74 91.637l16.438-3.743 1.545 4.953 7.864-6.47 17.46-1.27 11.505 8.723-.883 42.46.76 11.646-9.73 9.944-20.196.91-4.43-3.785-.765 12.468-19.573 1.956-5.456-6.948-9.62 1.908-18.06-8.93 17.88-60.266 15.258-3.558z" fill="#161413" fill-rule="evenodd"/><path d="M33.586 136.475l4.948-.744 9.718-42.58 13.214-3.01-7.33 43.47 2.457-.16 5.75-36.242 10.71-8.983L89.49 86.97l9.663 7.496-.015 14.377-15.59.085.17-9.835-6.455.3-3.595 32.74 9.216-.39.847-14.736 15.53-.51-.38 18.91-11.66 9.205-21.36 1.417-7.666-6.46-2.36 17.845-15.56 1.236 1.413-9.824-25.527 4.37 16.67-56.61 11.41-2.514-10.65 42.406z" fill="#f6ca00" fill-rule="evenodd"/><path d="M33.896 97.75L18.07 151.49l25.22-4.315-1.438 9.986 12.78-1.01 2.538-19.21 9.14 7.7 20.396-1.353 10.833-8.548.333-16.843-12.865.423-.845 14.725-12.02.51L76.04 98.09l9.14-.422-.17 9.648h12.696L97.79 95.3l-8.8-6.77-15.57 1.183-9.82 8.21-5.84 36.814-5.246.338 7.278-43.162-10.41 2.37-9.732 42.654-7.87 1.185L42.276 96.06l-8.378 1.693z" fill="#fff" fill-rule="evenodd"/><path d="M119.034 97.647l4.827-11.756 18.027 3.22-2.065 5.93 5.91-4.926 21.697 6.07 18.92 59.728-15.36 8.797-23.394-3.685-22.836-2.46-3.484-6.083-.71 5.885-22.23-.646.842-72.825 19.043.752.815 12z" fill="#161413" fill-rule="evenodd"/><path d="M117.758 105.516l7.22-17.59 14.5 2.59-8.096 23.236 14.68 23.87-7.152-39.478 7.248-6.04 19.84 5.553 17.685 55.823-14.028-3.045-2.763-11.135-5.04-.438 2.053 10.865-14.878-2.222-16.234-1.412-13.716-23.788 1.425 22.87-18.693-.398-.8-58.002 15.512.613 1.23 18.128zm35.49-1.42l5.08 21.128 5.54.767-6.203-20.62-4.416-1.27z" fill="#f6ca00" fill-rule="evenodd"/><path d="M102.385 88.186l.76 55.264 15.912.34-1.693-27.168 16.25 28.183 15.572 1.354 13.033 1.94-2.037-10.748 7.786.677 2.793 11.256 10.918 2.37-16.756-52.896-18.45-5.16-6.094 5.077 8.296 45.785-18.788-30.55 7.785-22.344-11.85-2.115-8.885 22.514-1.69-23.274-12.865-.507zm49 13.964l5.84 24.29 8.55 1.184-7.026-23.358-7.37-2.116zM99.5 160.763c17.134 0 31.03 13.896 31.03 31.03 0 17.136-13.896 31.032-31.03 31.032-17.136 0-31.032-13.896-31.032-31.03 0-17.136 13.896-31.032 31.03-31.032z" fill="#fff" fill-rule="evenodd"/><path d="M99.5 160.31c17.384 0 31.482 14.1 31.482 31.484 0 17.385-14.098 31.483-31.483 31.483-17.39 0-31.49-14.098-31.49-31.483 0-17.384 14.1-31.483 31.484-31.483zm21.824 24.757l-11.29 3.996c-.447 3.97-1.656 7.823-3.776 11.53l6.95 9.567c2.926-.1 5.987-1.132 8.93-3.242 2.712-4.05 4.368-8.87 4.567-14.063-1.106-3.33-2.958-6-5.38-7.788zm-11.525 3.28l11.25-3.983c.86-2.83.93-5.94-.176-9.424-3.08-3.9-7.203-6.94-11.95-8.693-3.5.02-6.606.95-9.054 2.69v12.26c3.687 1.64 7.018 3.978 9.924 7.15zm2.72 22.147l-6.94-9.55c-3.81.762-7.74.802-11.8-.017l-7.01 9.928c1.023 2.707 2.82 5.174 5.725 7.253 2.233.594 4.578.913 7 .913 2.56 0 5.038-.35 7.388-1.012 2.855-2.095 4.71-4.6 5.633-7.51zm-26.25-.235l6.87-9.738c-1.99-3.495-3.29-7.346-3.755-11.62l-11.668-3.792c-2.37 1.788-4.268 4.27-5.43 7.748.208 5.335 1.95 10.276 4.8 14.395 2.946 2.046 6.103 3.073 9.18 3.002zm-8.398-25.89l11.873 3.856c2.59-2.808 5.685-5.116 9.37-6.83v-12.38c-2.435-1.71-5.39-2.746-9.065-2.77-4.744 1.755-8.865 4.794-11.944 8.697-1.056 3.33-1.13 6.565-.233 9.426zm43.42-10.12c1.647.43 3.173 1.077 4.538 1.993-4.206-7.11-11.21-12.37-19.494-14.265 1.25 1.122 2.417 2.39 3.217 3.696 4.634 1.786 8.673 4.772 11.738 8.576zm8.664 14.84c-.68 1.537-1.527 3.038-2.523 4.2-.27 5.083-1.897 9.804-4.523 13.81.1 1.697-.042 3.34-.49 4.917 4.763-5.39 7.654-12.47 7.654-20.228 0-.91-.04-1.81-.117-2.7zm-18.475 30.837c-1.672-.17-3.362-.51-4.777-1.1-2.3.613-4.716.94-7.21.94-2.397 0-4.723-.3-6.943-.87-1.577.642-3.183 1.04-4.824 1.122 3.623 1.51 7.597 2.35 11.77 2.35 4.253 0 8.304-.87 11.985-2.443zM76.73 212.2c-.374-1.635-.596-3.34-.497-4.866-2.737-4.09-4.428-8.94-4.68-14.168-1.08-1.317-1.932-2.732-2.497-4.273-.09.955-.138 1.922-.138 2.9 0 7.843 2.955 14.996 7.81 20.408zm-3.462-36.13c1.454-.843 3.022-1.562 4.513-1.917 3.08-3.79 7.138-6.755 11.78-8.522.92-1.43 2.007-2.68 3.3-3.69-8.304 1.84-15.337 7.058-19.59 14.13z" fill="#161413" fill-rule="evenodd"/><path d="M100.383 254.418v-1.843l1.41-.003c.86-.003 1.61-.376 1.61-1.59v-4.038c0-1.04-.956-1.53-1.842-1.53h-1.19v-1.81h-1.65v1.81H97.5c-.86 0-1.82.484-1.82 1.53v4.077c0 1.19.815 1.56 1.685 1.56h1.352v1.843h1.666zm0-2.805v-5.227l.598-.003c.44 0 .76.042.76.766v3.88c0 .45-.295.57-.59.572l-.762.006zm-1.666-5.227v5.227h-.708c-.388 0-.67-.213-.67-.58v-3.964c0-.527.26-.688.665-.688h.706z" fill="#f6ca00"/><path d="M22.527 180.18c.583-.122 1.2-.278 1.56-1.23l1.087.156 2.712 10.8-1.726-.233-2.066-8.506-1.328.014-.24-1zm149.98.58c.714-.228 1.51-.57 2.355-1.81l1.072-.204-3.198 10.7-1.623.332 2.35-8.23-1.29.3.334-1.09zm-7.324 2.74c.715-.225 1.513-.568 2.364-1.807l1.073-.204-3.252 10.7-1.624.33 2.39-8.23-1.29.3.34-1.09zm-130.226.757l1.72 6.626c.375 1.442-.4 1.953-1.312 1.85l-.698-.077c-1.348-.15-2.2-1.477-2.355-2.113l-.228-.924 1.657.34.23.904c.07.287.388.662.806.736.317.057.578-.05.444-.59l-.603-2.4c-.254.083-.6.066-.98.017-1.4-.18-1.978-.876-2.297-2.23l-.738-3.12c-.33-1.407.413-1.804 1.437-1.715l.45.04c1.426.123 2.112 1.274 2.47 2.65zm-.744 2.945l-1.016-3.74c-.092-.343-.273-.685-.753-.76-.54-.085-.418.395-.342.686l.93 3.606c.105.408.406.604.673.65.22.04.68.195.508-.442zm56.322 57.208l1.7 10.505-1.675.15-1.523-9.406-1.907.16 1.528 9.424-1.674.15-1.708-10.527 5.26-.464zm19.605-.12l-1.677-.188-1.483 10.684 1.68.188.77-5.566 1.27 5.76 1.678.188-1.323-5.872 2.87-4.686-1.68-.186-2.798 4.676.694-5z" fill="#f6ca00" fill-rule="evenodd"/></svg>