<svg xmlns="http://www.w3.org/2000/svg" width="250.487" height="173.063"><path d="M125.306 164.72C62.402 164.408 11.78 129.468 12.24 86.68c.458-42.79 51.824-77.222 114.73-76.91 62.903.312 113.525 35.252 113.066 78.04-.458 42.668-51.546 77.052-114.274 76.912" fill="#f00000"/><path d="M126.105.002C56.968-.348.508 38.144.003 85.96c-.504 47.815 55.14 86.845 124.278 87.194l.51.02c68.943.157 125.094-38.277 125.598-85.957C250.89 39.402 195.248.35 126.108.002zm-.078 18.97c58.057.273 104.79 30.914 104.367 68.442-.422 37.42-47.58 67.583-105.473 67.46h-.42C66.44 154.6 19.727 123.958 20.147 86.43c.424-37.526 47.824-67.733 105.88-67.46z" fill="#a8862d"/><path d="M147.975 75.895c-.115-.015-.208-1.638-.207-3.625 0-1.988.095-3.587.21-3.573.116.015.208 1.638.208 3.625 0 1.982-.095 3.58-.21 3.573M122.702 5.223s-6.38.122-9.51.318c-.98.066-2.006.206-2.822.85-.594.47-1 1.19-1.254 1.907-.236.667-.313 1.403-.313 2.117s.05 1.46.313 2.118c.337.837.9 1.667 1.672 2.117 1.22.712 4.18.635 4.18.635s4.732.02 8.36 0c.598-.005.288-.877.312-1.483.033-.824-1.045-1.59-1.045-1.59s-.567-.44-1.044-.53c-2.05-.387-6.58 0-6.58 0s-1.65.116-2.3-.423c-.39-.328-.542-.987-.415-1.484.1-.386.48-.677.837-.846.697-.33 2.3-.212 2.3-.212l4.178-.106s1.84.06 2.718-.424c.345-.192.848-.395 1.045-.743.41-.727.627-2.434.627-2.434zM102.6 6.2s-6.294 1.063-9.363 1.72c-.96.206-1.954.497-2.67 1.256-.52.553-.817 1.323-.965 2.07-.136.696-.107 1.435-.005 2.142.104.705.26 1.437.615 2.047.455.78 1.13 1.516 1.96 1.848 1.31.523 4.227.01 4.227.01s4.68-.68 8.27-1.238c.59-.092.16-.908.09-1.512-.086-.817-1.26-1.415-1.26-1.415s-.625-.352-1.11-.37c-2.09-.078-6.513.975-6.513.975s-1.618.36-2.337-.08c-.433-.263-.68-.892-.625-1.403.042-.396.376-.74.705-.962.64-.43 2.243-.55 2.243-.55l4.12-.722s1.83-.214 2.627-.82c.316-.242.783-.517.928-.89.3-.78.268-2.5.268-2.5zm39.236-.404s-6.364-.453-9.5-.54c-.98-.028-2.014.02-2.884.59-.633.414-1.1 1.09-1.416 1.784-.294.643-.436 1.37-.498 2.08s-.08 1.46.126 2.137c.263.863.75 1.74 1.48 2.258 1.154.82 4.108 1.01 4.108 1.01s4.712.447 8.327.752c.592.05.36-.846.44-1.448.102-.82-.9-1.68-.9-1.68s-.53-.49-1-.62c-2.01-.57-6.557-.59-6.557-.59s-1.653-.037-2.252-.63c-.36-.36-.456-1.03-.286-1.516.132-.376.537-.63.907-.767.724-.27 2.31-.006 2.31-.006l4.173.27s1.827.227 2.743-.175c.36-.16.88-.318 1.104-.645.475-.687.84-2.367.84-2.367zm18.744 2.688s-6.31-.947-9.43-1.277c-.976-.103-2.01-.137-2.92.364-.664.37-1.18 1.01-1.55 1.67-.34.62-.537 1.337-.653 2.04-.116.704-.19 1.45-.036 2.14.2.88.62 1.794 1.31 2.368 1.09.907 4.02 1.325 4.02 1.325s4.664.81 8.245 1.398c.59.097.43-.814.55-1.41.167-.804-.77-1.74-.77-1.74s-.49-.527-.945-.696c-1.965-.724-6.494-1.1-6.494-1.1s-1.646-.162-2.197-.802c-.336-.386-.38-1.06-.17-1.53.16-.365.58-.59.96-.696.74-.21 2.3.177 2.3.177l4.14.595s1.808.367 2.75.038c.37-.13.9-.247 1.15-.556.527-.646 1.017-2.293 1.017-2.293zm18.642 5.058s-6.187-1.576-9.26-2.218c-.96-.2-1.986-.34-2.94.067-.695.3-1.273.88-1.704 1.51-.4.58-.666 1.27-.85 1.96-.185.69-.33 1.42-.246 2.128.11.896.436 1.846 1.066 2.486.994 1.01 3.87 1.723 3.87 1.723s4.56 1.278 8.066 2.22c.58.156.506-.767.686-1.346.245-.785-.597-1.81-.597-1.81s-.434-.575-.87-.79c-1.884-.92-6.354-1.75-6.354-1.75s-1.63-.324-2.11-1.02c-.3-.415-.277-1.092-.02-1.54.19-.344.633-.524 1.02-.593.76-.134 2.274.407 2.274.407l4.06 1.01s1.76.546 2.732.312c.382-.09.92-.154 1.2-.436.584-.595 1.234-2.185 1.234-2.185zm17.248 7.97s-5.756-2.783-8.642-4.027c-.903-.39-1.882-.73-2.897-.523-.733.15-1.413.608-1.96 1.135-.504.49-.9 1.113-1.214 1.75-.314.64-.6 1.328-.654 2.036-.07.9.067 1.897.56 2.65.776 1.19 3.456 2.464 3.456 2.464s4.222 2.166 7.475 3.792c.537.262.645-.658.935-1.19.392-.72-.233-1.893-.233-1.893s-.31-.65-.7-.947c-1.664-1.276-5.884-2.985-5.884-2.985s-1.527-.646-1.87-1.422c-.204-.47-.05-1.127.283-1.514.26-.3.728-.39 1.122-.38.77.02 2.15.854 2.15.854l3.783 1.8s1.62.888 2.617.854c.393-.013.933.033 1.26-.19.69-.46 1.637-1.89 1.637-1.89zm15.89 9.346s-5.342-3.53-8.04-5.15c-.843-.508-1.77-.976-2.803-.907-.752.05-1.486.418-2.095.868-.565.418-1.038.982-1.434 1.572-.396.59-.77 1.235-.915 1.93-.186.882-.18 1.89.208 2.7.62 1.284 3.11 2.905 3.11 2.905s3.9 2.712 6.915 4.76c.5.338.726-.56 1.083-1.048.483-.66.016-1.908.016-1.908s-.225-.69-.57-1.034c-1.485-1.49-5.445-3.748-5.445-3.748s-1.43-.845-1.668-1.66c-.142-.493.097-1.125.478-1.464.296-.263.772-.287 1.16-.224.76.124 2.02 1.134 2.02 1.134l3.516 2.293s1.49 1.096 2.48 1.195c.394.04.923.16 1.278-.016.745-.368 1.87-1.657 1.87-1.657zm14.19 12.832s-4.696-4.377-7.093-6.426c-.75-.64-1.587-1.258-2.617-1.362-.75-.076-1.532.158-2.206.5-.626.317-1.184.795-1.67 1.31-.487.517-.96 1.09-1.218 1.75-.327.84-.487 1.834-.235 2.7.4 1.37 2.59 3.385 2.59 3.385s3.41 3.327 6.048 5.85c.436.417.807-.43 1.238-.852.585-.572.328-1.88.328-1.88s-.11-.714-.393-1.113c-1.222-1.717-4.76-4.607-4.76-4.607s-1.272-1.07-1.373-1.914c-.06-.51.278-1.09.71-1.36.335-.21.808-.153 1.18-.025.73.25 1.808 1.456 1.808 1.456l3.095 2.85s1.29 1.33 2.25 1.594c.38.103.884.308 1.26.195.796-.24 2.116-1.323 2.116-1.323zm11.536 15.2s-3.748-5.228-5.698-7.717c-.61-.778-1.31-1.55-2.3-1.86-.72-.224-1.533-.15-2.26.05-.675.185-1.315.542-1.893.95-.578.408-1.154.876-1.535 1.472-.485.758-.835 1.7-.757 2.6.122 1.422 1.877 3.836 1.877 3.836s2.69 3.95 4.783 6.95c.346.496.874-.26 1.38-.587.684-.444.687-1.777.687-1.777s.03-.722-.17-1.17c-.862-1.928-3.766-5.468-3.766-5.468s-1.04-1.305-.973-2.152c.04-.513.49-1.017.967-1.195.37-.14.823.01 1.164.21.666.39 1.487 1.79 1.487 1.79l2.477 3.41s1.006 1.564 1.898 2.016c.355.178.808.48 1.2.444.825-.076 2.33-.873 2.33-.873zm6.566 19.21s-1.455-6.292-2.3-9.352c-.265-.957-.615-1.943-1.41-2.617-.577-.483-1.354-.74-2.1-.84-.695-.09-1.422-.012-2.11.137-.69.15-1.4.355-1.978.754-.737.51-1.42 1.24-1.693 2.1-.43 1.358.27 4.273.27 4.273s.97 4.69 1.75 8.28c.13.592.906.102 1.496 0 .8-.14 1.314-1.37 1.314-1.37s.303-.654.29-1.145c-.06-2.116-1.38-6.52-1.38-6.52s-.46-1.61-.074-2.365c.232-.46.836-.75 1.343-.727.39.017.75.333.99.65.464.62.684 2.233.684 2.233l.98 4.116s.327 1.836.977 2.603c.258.3.56.757.935.88.79.253 2.482.11 2.482.11zm-.404 22.223s.647-6.428.83-9.6c.06-.992.045-2.04-.49-2.94-.39-.652-1.043-1.147-1.716-1.488-.626-.318-1.338-.484-2.038-.57-.7-.086-1.437-.126-2.112.06-.86.24-1.74.704-2.276 1.428-.844 1.142-1.124 4.127-1.124 4.127s-.59 4.756-1.005 8.406c-.068.603.824.396 1.415.493.802.13 1.682-.86 1.682-.86s.5-.52.644-.99c.626-2.02.79-6.62.79-6.62s.085-1.677.692-2.26c.367-.36 1.03-.43 1.503-.246.366.145.606.562.73.94.24.74-.07 2.338-.07 2.338l-.398 4.216s-.28 1.844.09 2.783c.144.37.283.9.6 1.14.663.5 2.31.923 2.31.923zm-7.766 17.917s2.87-5.77 4.158-8.668c.403-.906.76-1.89.576-2.923-.133-.757-.57-1.45-1.08-2.018-.472-.523-1.078-.935-1.7-1.268-.625-.334-1.3-.638-1.996-.707-.888-.09-1.874.03-2.63.51-1.19.762-2.503 3.45-2.503 3.45s-2.226 4.23-3.9 7.49c-.275.54.63.667 1.15.97.702.414 1.873-.194 1.873-.194s.65-.305.95-.69c1.295-1.662 3.07-5.9 3.07-5.9s.668-1.532 1.442-1.862c.467-.2 1.114-.03 1.49.318.29.27.367.745.35 1.144-.037.777-.89 2.157-.89 2.157l-1.856 3.795s-.91 1.62-.897 2.632c0 .4-.057.943.16 1.28.44.71 1.83 1.7 1.83 1.7zm-11.192 14.073s4.262-4.808 6.256-7.26c.623-.768 1.222-1.624 1.313-2.668.06-.76-.18-1.55-.527-2.23-.32-.63-.8-1.188-1.315-1.675-.515-.486-1.087-.96-1.74-1.21-.835-.322-1.817-.47-2.67-.206-1.347.42-3.31 2.663-3.31 2.663s-3.24 3.49-5.7 6.193c-.406.446.434.81.856 1.243.57.584 1.86.308 1.86.308s.704-.12 1.094-.41c1.68-1.26 4.49-4.874 4.49-4.874s1.044-1.3 1.875-1.413c.503-.07 1.083.268 1.355.7.21.338.162.818.04 1.198-.236.743-1.415 1.848-1.415 1.848l-2.774 3.17s-1.296 1.322-1.545 2.3c-.098.387-.294.898-.178 1.28.245.8 1.33 2.124 1.33 2.124zm-13.682 11.27s5.116-3.86 7.55-5.864c.76-.63 1.514-1.35 1.807-2.358.213-.732.13-1.554-.076-2.288-.198-.683-.557-1.327-.967-1.907-.41-.58-.88-1.16-1.472-1.537-.754-.48-1.687-.823-2.575-.734-1.403.14-3.765 1.95-3.765 1.95s-3.86 2.77-6.796 4.926c-.486.357.267.883.596 1.39.447.688 1.763.675 1.763.675s.714.022 1.154-.186c1.892-.895 5.352-3.88 5.352-3.88s1.273-1.07 2.11-1.01c.506.033 1.01.478 1.192.957.14.373-.002.834-.195 1.182-.377.68-1.748 1.526-1.748 1.526l-3.34 2.55s-1.53 1.038-1.965 1.947c-.17.36-.463.822-.424 1.22.085.833.89 2.348.89 2.348zm-15.072 8.71s5.576-3.14 8.25-4.804c.835-.52 1.676-1.137 2.098-2.09.306-.7.332-1.528.224-2.28-.1-.7-.374-1.39-.705-2.02-.33-.63-.72-1.268-1.258-1.72-.685-.58-1.565-1.04-2.457-1.076-1.408-.048-3.985 1.426-3.985 1.426s-4.19 2.233-7.38 3.977c-.53.287.15.91.41 1.456.35.74 1.657.904 1.657.904s.705.12 1.168-.03c1.994-.635 5.813-3.13 5.813-3.13s1.41-.887 2.23-.72c.5.103.94.61 1.058 1.11.092.39-.11.827-.346 1.146-.462.623-1.932 1.28-1.932 1.28l-3.64 2.08s-1.654.823-2.204 1.666c-.216.33-.565.75-.578 1.15-.026.84.575 2.45.575 2.45zm-15.913 6.914s5.937-2.366 8.803-3.655c.897-.404 1.81-.897 2.353-1.79.39-.65.523-1.466.52-2.23-.01-.708-.19-1.425-.44-2.094-.246-.668-.55-1.35-1.02-1.873-.606-.665-1.418-1.244-2.298-1.394-1.39-.23-4.136.887-4.136.887s-4.445 1.65-7.837 2.95c-.56.216.03.924.216 1.5.252.783 1.526 1.12 1.526 1.12s.683.212 1.16.127c2.06-.363 6.172-2.324 6.172-2.324s1.505-.693 2.3-.416c.477.168.85.73.9 1.24.04.4-.216.806-.493 1.09-.54.557-2.08 1.01-2.08 1.01l-3.882 1.576s-1.748.593-2.4 1.355c-.26.303-.66.67-.727 1.066-.135.83.25 2.506.25 2.506zm-16.633 4.81s6.24-1.34 9.278-2.132c.95-.248 1.932-.582 2.613-1.372.5-.575.76-1.357.88-2.11.11-.702.047-1.44-.086-2.14-.133-.7-.32-1.424-.703-2.018-.487-.758-1.194-1.464-2.037-1.76-1.334-.464-4.225.178-4.225.178s-4.65.886-8.21 1.6c-.587.12-.12.916-.03 1.516.12.81 1.322 1.353 1.322 1.353s.64.323 1.123.32c2.09-.014 6.465-1.26 6.465-1.26s1.6-.43 2.335-.025c.446.245.72.862.687 1.374-.024.4-.343.757-.662.992-.622.457-2.218.647-2.218.647l-4.084.906s-1.82.292-2.59.934c-.304.253-.76.55-.887.928-.27.793-.165 2.51-.165 2.51zm-16.943 3.25s6.28-1.13 9.343-1.82c.958-.217 1.95-.518 2.656-1.285.514-.558.804-1.33.944-2.08.13-.697.093-1.436-.017-2.14-.11-.705-.274-1.435-.637-2.042-.462-.773-1.145-1.503-1.978-1.826-1.316-.51-4.227.035-4.227.035s-4.67.723-8.25 1.32c-.592.1-.15.91-.08 1.512.094.818 1.276 1.403 1.276 1.403s.63.343 1.115.356c2.09.057 6.5-1.042 6.5-1.042s1.614-.376 2.337.054c.438.26.69.886.642 1.397-.04.397-.37.745-.696.97-.637.436-2.238.572-2.238.572l-4.112.767s-1.827.234-2.618.85c-.313.243-.778.524-.918.897-.294.783-.243 2.503-.243 2.503zm-18.19 1.403s6.36-.494 9.475-.872c.974-.118 1.99-.318 2.77-1.01.565-.504.93-1.243 1.143-1.975.197-.68.233-1.42.192-2.132-.04-.71-.132-1.45-.433-2.09-.384-.815-.992-1.61-1.79-2.015-1.26-.64-4.21-.39-4.21-.39s-4.725.256-8.345.488c-.6.04-.24.89-.23 1.5.01.822 1.13 1.523 1.13 1.523s.59.405 1.072.467c2.074.265 6.573-.385 6.573-.385s1.64-.212 2.32.29c.41.3.6.95.5 1.453-.077.393-.44.706-.787.895-.677.37-2.283.346-2.283.346l-4.166.35s-1.84.048-2.69.58c-.333.21-.824.445-1 .8-.37.75-.487 2.47-.487 2.47zm-18.07-.784s6.38.15 9.515.086c.98-.02 2.012-.116 2.854-.727.613-.444 1.048-1.143 1.332-1.85.263-.657.37-1.39.4-2.102.03-.713.012-1.46-.225-2.128-.302-.85-.83-1.703-1.583-2.186-1.19-.77-4.15-.818-4.15-.818s-4.728-.222-8.353-.354c-.6-.02-.325.862-.374 1.467-.067.82.978 1.63.978 1.63s.55.462 1.028.573c2.037.475 6.578.28 6.578.28s1.655-.045 2.28.52c.378.344.504 1.008.357 1.5-.115.383-.507.657-.87.81-.71.3-2.306.115-2.306.115l-4.18-.07s-1.837-.14-2.732.306c-.352.18-.863.36-1.073.7-.44.71-.727 2.404-.727 2.404zm-18.343-2.61s6.332.79 9.46 1.044c.977.078 2.012.086 2.91-.436.653-.38 1.155-1.032 1.506-1.707.327-.628.506-1.345.605-2.05.1-.708.155-1.454-.016-2.142-.22-.876-.66-1.778-1.367-2.334-1.11-.873-4.05-1.22-4.05-1.22s-4.682-.696-8.276-1.193c-.594-.08-.408.826-.516 1.423-.146.81.814 1.72.814 1.72s.5.516.96.673c1.98.676 6.518.94 6.518.94s1.65.12 2.217.747c.34.377.402 1.05.207 1.525-.15.37-.57.603-.944.72-.736.227-2.305-.12-2.305-.12l-4.15-.49s-1.817-.323-2.75.03c-.37.14-.897.27-1.14.585-.51.66-.96 2.32-.96 2.32zM84.396 9.75s-6.16 1.68-9.15 2.638c-.936.3-1.898.686-2.536 1.513-.464.607-.687 1.4-.762 2.16-.07.707.03 1.44.202 2.13.17.694.396 1.407.81 1.98.526.73 1.27 1.396 2.127 1.644 1.355.39 4.208-.41 4.208-.41s4.597-1.137 8.11-2.047c.582-.15.073-.92-.05-1.514-.163-.806-1.392-1.285-1.392-1.285s-.656-.287-1.14-.257c-2.086.13-6.388 1.614-6.388 1.614s-1.574.516-2.332.15c-.458-.22-.764-.82-.76-1.334.005-.4.304-.776.61-1.027.597-.494 2.18-.77 2.18-.77l4.03-1.128s1.8-.394 2.535-1.077c.29-.27.73-.59.837-.975.226-.806.027-2.514.027-2.514zm-19.46 6.46s-5.87 2.532-8.7 3.9c-.883.43-1.783.95-2.3 1.857-.378.66-.49 1.48-.46 2.242.03.703.23 1.42.493 2.08.26.66.58 1.33 1.07 1.84.62.65 1.45 1.203 2.33 1.33 1.396.196 4.11-.998 4.11-.998s4.397-1.776 7.75-3.172c.556-.23-.053-.92-.255-1.492-.275-.776-1.557-1.077-1.557-1.077s-.69-.19-1.165-.092c-2.05.423-6.105 2.5-6.105 2.5s-1.485.733-2.286.48c-.484-.155-.87-.707-.936-1.216-.05-.395.194-.81.462-1.102.523-.57 2.053-1.066 2.053-1.066l3.837-1.684s1.73-.643 2.36-1.423c.25-.308.64-.688.694-1.083.113-.83-.32-2.495-.32-2.495zm-16.413 8.266s-5.464 3.336-8.078 5.09c-.818.55-1.638 1.19-2.026 2.163-.288.702-.28 1.53-.15 2.28.124.7.42 1.374.772 1.992.352.617.763 1.24 1.317 1.674.704.554 1.6.99 2.493.987 1.408-.002 3.933-1.567 3.933-1.567s4.11-2.377 7.24-4.232c.516-.307-.183-.905-.46-1.442-.38-.73-1.69-.846-1.69-.846s-.71-.094-1.166.07c-1.97.706-5.7 3.334-5.7 3.334s-1.372.938-2.2.8c-.5-.085-.96-.578-1.093-1.073-.106-.385.08-.83.305-1.157.44-.64 1.887-1.346 1.887-1.346l3.57-2.21s1.62-.88 2.14-1.74c.208-.342.54-.773.54-1.172 0-.84-.66-2.426-.66-2.426zm-15.907 11.21s-4.66 4.415-6.857 6.68c-.69.71-1.36 1.51-1.54 2.543-.13.75.04 1.56.323 2.26.266.656.694 1.255 1.166 1.786.47.53 1 1.052 1.63 1.36.804.394 1.77.63 2.642.44 1.378-.298 3.526-2.36 3.526-2.36s3.53-3.19 6.21-5.666c.444-.41-.362-.846-.745-1.313-.52-.63-1.825-.47-1.825-.47s-.712.06-1.125.315c-1.783 1.106-4.893 4.462-4.893 4.462s-1.15 1.205-1.988 1.244c-.506.024-1.055-.36-1.29-.817-.18-.352-.09-.826.063-1.194.298-.718 1.567-1.716 1.567-1.716l3.037-2.91s1.41-1.204 1.74-2.156c.13-.377.37-.87.287-1.26-.175-.82-1.142-2.233-1.142-2.233zm-13.5 13.466s-3.278 5.544-4.773 8.337c-.468.87-.895 1.823-.787 2.87.08.76.464 1.49.93 2.083.435.556 1.01 1.013 1.607 1.39.598.38 1.25.732 1.94.853.878.154 1.87.11 2.657-.314 1.243-.672 2.747-3.254 2.747-3.254s2.526-4.055 4.43-7.18c.314-.52-.58-.715-1.075-1.056-.67-.464-1.883.056-1.883.056s-.67.256-1 .618c-1.41 1.56-3.49 5.657-3.49 5.657s-.78 1.48-1.574 1.75c-.48.164-1.113-.053-1.46-.426-.273-.29-.315-.77-.268-1.167.09-.773 1.04-2.087 1.04-2.087l2.126-3.646s1.025-1.55 1.085-2.556c.023-.4.12-.94-.067-1.29-.393-.74-1.708-1.83-1.708-1.83zm-8.96 16.04S8.3 71.374 7.516 74.45c-.243.962-.43 1.994-.075 2.98.26.717.81 1.33 1.4 1.797.56.433 1.226.735 1.896.956.67.22 1.386.404 2.085.352.89-.066 1.84-.35 2.504-.956 1.048-.96 1.89-3.837 1.89-3.837s1.483-4.552 2.583-8.053c.182-.577-.732-.55-1.294-.76-.762-.284-1.814.517-1.814.517s-.59.412-.82.843c-.998 1.86-2.035 6.343-2.035 6.343s-.4 1.626-1.107 2.084c-.427.276-1.093.22-1.52-.056-.333-.212-.488-.67-.537-1.064-.094-.774.51-2.28.51-2.28l1.195-4.06s.623-1.754.44-2.747c-.07-.39-.107-.94-.372-1.235-.556-.62-2.092-1.356-2.092-1.356zM5.93 83.602s-.1 6.46-.017 9.638c.026.993.128 2.037.737 2.885.442.618 1.135 1.054 1.836 1.336.65.268 1.373.37 2.077.397.704.025 1.443.002 2.1-.243.837-.312 1.675-.852 2.147-1.62.745-1.21.772-4.21.772-4.21s.187-4.787.292-8.46c.017-.607-.853-.324-1.45-.37-.81-.06-1.604 1.003-1.604 1.003s-.453.56-.558 1.04c-.454 2.066-.23 6.664-.23 6.664s.057 1.675-.498 2.31c-.336.386-.99.52-1.477.37-.378-.11-.652-.51-.806-.873-.3-.717-.123-2.334-.123-2.334L9.17 86.9s.122-1.863-.324-2.766c-.175-.356-.36-.873-.694-1.083-.703-.44-2.38-.72-2.38-.72zm2.11 19.128s2.084 6.108 3.236 9.063c.36.924.808 1.87 1.667 2.456.624.42 1.423.59 2.176.613.7.02 1.41-.13 2.08-.352.67-.22 1.354-.497 1.89-.955.68-.584 1.286-1.38 1.47-2.266.29-1.396-.695-4.22-.695-4.22s-1.443-4.568-2.584-8.055c-.19-.578-.91-.01-1.49.154-.78.223-1.165 1.5-1.165 1.5s-.237.68-.173 1.17c.272 2.1 2.034 6.34 2.034 6.34s.62 1.554.314 2.345c-.184.477-.755.83-1.26.86-.395.024-.785-.25-1.055-.544-.526-.57-.91-2.15-.91-2.15l-1.39-3.992s-.514-1.79-1.238-2.49c-.285-.274-.632-.695-1.018-.777-.81-.172-2.48.148-2.48.148zm7.058 16.666s4.022 5.016 6.102 7.394c.65.744 1.39 1.477 2.396 1.73.73.186 1.538.068 2.254-.17.664-.224 1.285-.615 1.84-1.054.555-.44 1.105-.94 1.454-1.554.443-.784.742-1.743.617-2.638-.192-1.413-2.073-3.727-2.073-3.727s-2.897-3.79-5.147-6.672c-.373-.476-.86.307-1.347.662-.66.48-.592 1.81-.592 1.81s.01.725.234 1.16c.962 1.88 4.05 5.256 4.05 5.256s1.108 1.246 1.087 2.095c-.013.514-.43 1.042-.895 1.246-.362.16-.822.035-1.174-.146-.686-.352-1.58-1.704-1.58-1.704l-2.655-3.27s-1.088-1.507-2.003-1.91c-.36-.158-.83-.434-1.22-.377-.82.12-2.28.998-2.28.998zm60.487 42.012s6.302 1.002 9.42 1.36c.974.11 2.008.154 2.923-.338.665-.358 1.188-.993 1.56-1.656.348-.616.55-1.327.673-2.03.128-.702.208-1.446.06-2.14-.19-.882-.6-1.798-1.283-2.378-1.08-.916-4.008-1.36-4.008-1.36s-4.658-.854-8.234-1.47c-.59-.103-.434.81-.56 1.403-.175.8.756 1.742.756 1.742s.483.532.938.705c1.957.742 6.483 1.157 6.483 1.157s1.646.175 2.19.82c.33.39.37 1.066.158 1.534-.162.363-.587.582-.967.686-.746.203-2.3-.196-2.3-.196l-4.138-.63s-1.802-.382-2.748-.06c-.374.126-.904.24-1.156.545-.532.645-1.036 2.288-1.036 2.288zm-16.755-6.896s6.034 2.095 9.042 2.996c.94.282 1.952.506 2.937.182.71-.236 1.34-.77 1.82-1.356.443-.546.77-1.21 1.01-1.88.24-.67.442-1.39.42-2.1-.04-.902-.287-1.875-.86-2.567-.908-1.092-3.714-2.045-3.714-2.045s-4.44-1.66-7.856-2.896c-.563-.204-.567.722-.794 1.284-.31.76.445 1.854.445 1.854s.387.61.805.86c1.8 1.074 6.184 2.28 6.184 2.28s1.59.462 2.016 1.194c.258.442.18 1.114-.108 1.537-.224.33-.68.47-1.07.506-.77.07-2.234-.59-2.234-.59l-3.963-1.35s-1.71-.693-2.696-.543c-.39.06-.93.077-1.232.334-.63.54-1.41 2.07-1.41 2.07zM27.584 133.88s4.672 4.402 7.058 6.463c.747.645 1.58 1.267 2.61 1.377.75.08 1.534-.15 2.21-.49.627-.313 1.187-.788 1.677-1.3.483-.514.96-1.086 1.22-1.744.33-.84.496-1.83.25-2.7-.39-1.37-2.57-3.397-2.57-3.397s-3.39-3.35-6.015-5.888c-.435-.42-.81.426-1.243.845-.587.57-.337 1.88-.337 1.88s.107.713.39 1.114c1.212 1.724 4.735 4.633 4.735 4.633s1.268 1.078 1.364 1.922c.058.51-.283 1.09-.715 1.36-.338.206-.81.15-1.18.02-.73-.254-1.8-1.467-1.8-1.467l-3.08-2.864s-1.284-1.338-2.245-1.608c-.38-.107-.882-.314-1.26-.203-.796.236-2.12 1.31-2.12 1.31zm15.14 11.755s5.584 3.125 8.392 4.54c.878.443 1.836.842 2.862.696.746-.1 1.45-.52 2.026-1.01.534-.46.964-1.055 1.317-1.673.358-.618.68-1.29.78-1.992.12-.894.043-1.897-.404-2.68-.705-1.234-3.305-2.666-3.305-2.666s-4.09-2.416-7.24-4.235c-.52-.3-.683.61-1.003 1.124-.434.694.12 1.903.12 1.903s.276.67.645.988c1.59 1.377 5.7 3.336 5.7 3.336s1.49.735 1.784 1.53c.178.48-.014 1.13-.37 1.495-.275.286-.748.345-1.14.31-.768-.065-2.096-.98-2.096-.98l-3.673-2.025s-1.563-.985-2.56-1.01c-.394-.01-.93-.09-1.27.11-.717.424-1.746 1.79-1.746 1.79z" fill="#fff"/><g stroke="#000"><path d="M68.09 204.152l327.896-72.79L117.558 32.84s2.12 17.42 2.38 26.177c.453 15.23.066 30.527-1.428 45.69-1.04 10.565-2.972 21.224-5.95 31.413-3.626 12.418-8.134 24.965-14.99 35.934-5.01 8.01-18.087 21.18-18.087 21.18z" fill="#fff" transform="matrix(.621 0 0 .629 1.047 -.268)"/><path d="M121.345 48.506l14.364 4.357s.792-3.62.05-5.815c-1.926-3.85-5.28-4.962-9.3-4.182-1.98.495-3.605 1.493-4.56 3.254-.41.706-.56 2.386-.56 2.386z" fill="#fff" transform="matrix(.621 0 0 .629 -6.895 -15.933)"/><path d="M130.83 43.438s.115 1.683.086 2.525c-.057 1.634-.032 3.923-.505 4.88-.32.66-.67.084-.67.084l5.808 1.514.337-3.95-1.682-3.532z" transform="matrix(.621 0 0 .629 -6.895 -15.933)"/><path d="M137.438 97.813l-6.063 12.25 7.47.124-12 40.688c1.903.12 14.5 0 14.5 0l4.874-16.78 12.5.25s4.87-.698 7.03-1.782c2.69-1.356 5.073-3.42 7.03-5.72 2.01-2.37 3.62-5.15 4.62-8.093 1.116-3.26 1.754-6.82 1.44-10.25-.184-1.998-.68-4.098-1.906-5.688-1.592-2.065-.485-.982-2.75-2.75-1.002-.78-4.2-2.14-5.47-2.124-9.565.12-31.28-.126-31.28-.126zm19.093 12.218c1.738-.01 3.788-.02 5.07.037 1.243.053 1.49.96 2.124 2.032.693 1.172.88 2.697.594 4.03-.248 1.15-1.094 2.117-1.907 2.97-1.04 1.09-3.562 2.405-3.562 2.405l-9.28-.124 3.81-11.313s1.425-.017 3.157-.03zm64.46-8.673l-7.28 12.255s-4.84-3.047-7.43-4.355c-2.117-1.07-4.976-1.454-6.447-1.03-.995.287-2.477 1.1-2.952 2.02-.567 1.1-.735 2.528-.335 3.7.667 1.955 2.558 3.306 4.208 4.545 5.555 2.74 9.526 6.81 10.433 12.786.274 1.974-.32 4.02-1.007 5.89-.836 2.266-2.09 4.43-3.703 6.226-2.436 2.712-5.557 4.8-8.75 6.563-1.787.986-3.73 1.742-5.72 2.187-2.196.49-4.497.767-6.73.505-2.574-.3-5.108-1.16-7.406-2.357-2.377-1.234-6.393-4.88-6.393-4.88l-3.367-3.7 9.59-9.93 3.87 3.875s2.435 2.22 3.743 2.79c1.34.585 2.45.602 3.66.407 1.464-.236 2.943-.857 4.04-1.85.92-.835 1.818-1.978 1.88-3.22.084-1.657-1.05-3.22-2.07-4.53-1.583-2.043-4.46-2.594-6.392-4.277-1.39-1.21-2.832-2.49-3.68-4.128-1.03-1.994-1.406-4.32-1.514-6.563-.104-2.145-.015-4.42.84-6.392.81-1.864 2.265-3.92 3.752-5.306 1.912-1.783 4.28-3.398 6.632-4.543 1.945-.95 4.32-1.777 6.463-2.09 1.776-.258 4.197-.106 5.86.24 2.33.563 4.185 1.997 6.067 3.385l1.9-2.763z" transform="matrix(.621 0 0 .629 1.047 -.268)"/></g></svg>