<?xml version="1.0" encoding="UTF-8"?>
<!DOCTYPE svg PUBLIC "-//W3C//DTD SVG 1.1//EN" "http://www.w3.org/Graphics/SVG/1.1/DTD/svg11.dtd">
<!-- Creator: CorelDRAW X6 -->
<svg xmlns="http://www.w3.org/2000/svg" xml:space="preserve" width="200px" height="193px" version="1.1" style="shape-rendering:geometricPrecision; text-rendering:geometricPrecision; image-rendering:optimizeQuality; fill-rule:evenodd; clip-rule:evenodd"
viewBox="0 0 20000000 19249400"
 xmlns:xlink="http://www.w3.org/1999/xlink">
 <defs>
  <style type="text/css">
   <![CDATA[
    .fil2 {fill:none}
    .fil0 {fill:#37489F}
    .fil1 {fill:#F4E145}
    .fil3 {fill:white}
    .fil4 {fill:#37489F;fill-rule:nonzero}
   ]]>
  </style>
 </defs>
 <g id="Слой_x0020_1">
  <metadata id="CorelCorpID_0Corel-Layer"/>
  <g id="_658234160">
   <path class="fil0" d="M10000620 19249380c220160,-576710 1777740,-1468800 4954480,-2069740 533060,-100840 2284720,-403390 3061190,-663390 1051540,-352060 1984330,-1089330 1984330,-2285590 0,-2183930 -3200850,-5348690 -3200850,-7256860 0,-488200 688370,-3640790 942880,-4672450 254480,-1031700 320280,-1135560 501390,-1645300 -1205550,637760 -2590450,997260 -4359530,997260 -1827260,0 -2677120,-740970 -3175450,-1117750l-708440 -535560 -708440 535560c-498360,376740 -1348190,1117750 -3175450,1117750 -1769080,0 -3153980,-359540 -4359530,-997260 181110,509740 246910,613600 501390,1645300 254510,1031630 942880,4184210 942880,4672450 0,1908170 -3200850,5072930 -3200850,7256860 0,1196290 932790,1933530 1984330,2285590 776470,260000 2528130,562510 3061190,663390 3176780,600900 4734360,1493030 4954480,2069740z"/>
   <path class="fil1" d="M10000620 18832460c509070,-652990 1872570,-1356280 4169160,-1833670 1903910,-395720 5417960,-525810 5440340,-2958320 20140,-2186540 -3051440,-5265870 -3051440,-7096220 0,-575020 624070,-3356910 868230,-4346540 244120,-989640 278550,-974900 395110,-1460040 -1453760,634590 -3057600,758400 -3939630,758400 -1923670,0 -3005790,-948210 -3172730,-1071230l-709080 -522820 -709080 522820c-166940,123060 -1249060,1071230 -3172720,1071230 -882030,0 -2485840,-123810 -3939640,-758400 116560,485140 150990,470370 395110,1460040 244120,989630 868240,3771520 868240,4346540 0,1830350 -3071590,4909680 -3051440,7096220 22410,2432540 3536430,2562600 5440330,2958320 2296600,477390 3660100,1180680 4169160,1833670l80 0z"/>
   <path class="fil0" d="M15086700 16435070c345980,-39570 1210510,-233770 1867620,-400820 1014160,-257880 2061880,-816910 2058750,-2129350 -2730,-1135680 -499130,-1867430 -1460080,-3562670l-1006140 -1842100c-410760,-745210 -413030,-1137300 -404870,-1522210 19430,-913780 373570,-2073490 619130,-3135270l548290 -2288590c-905040,453090 -1310780,559680 -2181540,696690l-41200 14184320 40 0z"/>
   <path class="fil2" d="M6977860 14579170l1618250 -1731220c-1737490,-2339150 -2500880,-6606090 1159030,-9719220 -3412960,1319700 -5794400,7894800 -2777280,11450440z"/>
   <path class="fil2" d="M10002700 3128320c-2020430,1219310 -4120490,5916930 -1203560,9502420l1617120 -1730000c-1347220,-1912260 -2019520,-3477060 -1322880,-5935420 221410,-781420 519880,-1314300 909320,-1837000z"/>
   <path class="fil2" d="M10231780 3166830c-1763800,1374540 -1440870,5782950 389060,7515030l1650150 -1765270c-2121270,-1336400 -3307550,-3914990 -2039210,-5749760z"/>
   <path class="fil2" d="M14209320 11511960l1020 21020 -13230 7970c-9710,-8920 -22560,10210 -10430,-40250 36130,-870 10430,-1890 22640,11260zm-33000 158930c1400,-2190 2230,-5290 2840,-7220 26190,-85410 -12550,-43010 53250,-64630 29900,-9820 53970,-36390 54770,-75440 1920,-95960 -88670,-85380 -174240,-85750l2610 237240 60770 -4200z"/>
   <path class="fil2" d="M14548230 11822640c1090,1170 10200,-13230 11450,22870 1470,41150 -9640,22940 -15460,25090l4010 -47920 0 -40zm44710 56620c31750,-74690 -50760,-139430 -82730,-71780 -15650,33070 -7560,80850 13910,96800 30160,22370 59330,-2720 68780,-25020l40 0z"/>
   <path class="fil2" d="M15109190 11599570c26260,-37340 25740,-109000 -40260,-89040 -39870,12050 -61530,98790 40260,89040z"/>
   <path class="fil2" d="M10281820 3499730l-7410 81410c327720,0 35530,13080 162410,-71770 -45170,-26120 -150390,14960 44670,-211660 219290,-254740 320280,-285650 565530,-447800 185200,-122410 -73620,64330 50380,-33220 100500,-79100 7670,910 68150,-67460l3810 -24760c-347410,106470 -778990,499350 -887540,775220l0 40z"/>
   <path class="fil2" d="M13171530 2987680c94080,200690 274470,250090 384160,465560l-147670 380c85300,91580 -115280,38550 121890,86820l139280 -54050c-99100,-185090 -341860,-441220 -505370,-514170l7680 15420 30 40z"/>
   <path class="fil2" d="M14263180 11903750l-36700 4420c-9450,-25020 -5940,-42220 -6310,-75020l-26420 1320 24260 81940c22560,3400 18860,12660 45170,-12660z"/>
   <path class="fil2" d="M14892700 11504630l41040 -1510c4120,-15800 7140,-20370 5780,-38860 -2940,-39490 270,-17530 -10160,-27060l1810 52650 -38470 14820 0 -40z"/>
   <path class="fil2" d="M14544220 11870560c5820,-2110 16930,16100 15460,-25090 -1280,-36100 -10360,-21660 -11450,-22870l-4010 47930 0 30z"/>
   <path class="fil2" d="M14197110 11540950l13230 -7970 -1020 -21020c-37570,-10390 -8320,-4340 -20000,3250l7790 25740z"/>
   <path class="fil2" d="M14197110 11540950l-7790 -25740c11680,-7590 -17530,-13640 20000,-3250 -12210,-13150 13490,-12130 -22640,-11260 -12130,50460 720,31330 10430,40250z"/>
   <path class="fil2" d="M14328410 11915990l-24570 -23050c-10430,14970 -16060,-18860 -7520,17880l32130 5170 -40 0z"/>
   <path class="fil2" d="M11383930 2803010c70340,-80880 44370,102240 60240,-104540 -220870,-52200 -59940,-11980 -121770,27630 88100,4910 63490,-17010 61530,76910z"/>
   <path class="fil2" d="M9918150 3195060l20980 22680c55370,-41420 8160,6730 74830,-58510 28500,-27890 38930,-45390 50870,-60090 -145730,22260 -78120,-5110 -146640,95880l-40 40z"/>
   <path class="fil2" d="M12423070 2748430l43240 -53210 -83490 -64970c-300,233990 -11190,27890 40250,118180z"/>
   <path class="fil2" d="M10213030 3204510c71660,-31860 39650,56160 65350,-74570l-76920 60850 11570 13680 0 40z"/>
   <g>
    <path class="fil3" d="M13973020 4563370c0,-1109560 -899490,-2009050 -2009050,-2009050 -1109550,0 -2009040,899490 -2009040,2009050 0,1109550 899490,2009040 2009040,2009040 1109560,0 2009050,-899490 2009050,-2009040z"/>
    <path id="1" class="fil4" d="M11963970 2584310l0 -59980 0 0 104890 2650 103550 7870 102050 12970 100410 17940 98660 22760 96770 27480 94760 32070 92600 36510 90330 40840 87920 45030 85390 49100 82740 53040 79930 56840 77030 60530 73980 64090 70810 67500 67500 70810 64090 73980 60530 77030 56840 79930 53040 82740 49100 85390 45030 87920 40840 90330 36510 92600 32070 94760 27480 96770 22760 98660 17940 100410 12970 102050 7870 103550 2650 104890 -59980 0 -2570 -101870 -7650 -100510 -12590 -99050 -17400 -97450 -22100 -95740 -26660 -93910 -31110 -91940 -35430 -89860 -39640 -87650 -43690 -85340 -47660 -82870 -51480 -80300 -55180 -77590 -58750 -74770 -62210 -71820 -65540 -68730 -68730 -65540 -71820 -62210 -74770 -58750 -77590 -55180 -80300 -51480 -82870 -47660 -85340 -43690 -87650 -39640 -89860 -35430 -91940 -31110 -93910 -26660 -95740 -22100 -97450 -17400 -99050 -12590 -100510 -7650 -101870 -2570 0 0zm-1979050 1979060l-59980 0 0 0 2650 -104890 7870 -103550 12970 -102050 17940 -100410 22760 -98660 27480 -96770 32070 -94760 36510 -92600 40840 -90330 45030 -87920 49100 -85390 53040 -82740 56840 -79930 60530 -77030 64090 -73980 67500 -70810 70810 -67500 73980 -64090 77020 -60530 79940 -56840 82740 -53040 85390 -49100 87910 -45030 90340 -40840 92600 -36510 94760 -32070 96760 -27480 98660 -22760 100420 -17940 102040 -12970 103550 -7870 104890 -2650 0 59980 -101870 2570 -100510 7650 -99040 12590 -97460 17400 -95740 22100 -93900 26660 -91940 31110 -89860 35430 -87660 39640 -85330 43690 -82870 47660 -80300 51480 -77600 55180 -74760 58750 -71820 62210 -68730 65540 -65540 68730 -62210 71820 -58750 74770 -55180 77590 -51480 80300 -47660 82870 -43690 85340 -39640 87650 -35430 89860 -31110 91940 -26660 93910 -22100 95740 -17400 97450 -12590 99050 -7650 100510 -2570 101870 0 0zm1979050 1979050l0 59980 0 0 -104890 -2650 -103550 -7870 -102040 -12970 -100420 -17940 -98660 -22760 -96760 -27480 -94760 -32070 -92600 -36510 -90340 -40840 -87910 -45030 -85390 -49100 -82740 -53040 -79940 -56840 -77020 -60530 -73980 -64090 -70810 -67500 -67500 -70810 -64090 -73980 -60530 -77020 -56840 -79940 -53040 -82740 -49100 -85390 -45030 -87910 -40840 -90340 -36510 -92600 -32070 -94760 -27480 -96760 -22760 -98660 -17940 -100420 -12970 -102040 -7870 -103550 -2650 -104890 59980 0 2570 101870 7650 100510 12590 99040 17400 97460 22100 95740 26660 93900 31110 91940 35430 89860 39640 87660 43690 85330 47660 82870 51480 80300 55180 77600 58750 74760 62210 71820 65540 68730 68730 65540 71820 62210 74760 58750 77600 55180 80300 51480 82870 47660 85330 43690 87660 39640 89860 35430 91940 31110 93900 26660 95740 22100 97460 17400 99040 12590 100510 7650 101870 2570 0 0zm1979060 -1979050l59980 0 0 0 -2650 104890 -7870 103550 -12970 102040 -17940 100420 -22760 98660 -27480 96760 -32070 94760 -36510 92600 -40840 90340 -45030 87910 -49100 85390 -53040 82740 -56840 79940 -60530 77020 -64090 73980 -67500 70810 -70810 67500 -73980 64090 -77030 60530 -79930 56840 -82740 53040 -85390 49100 -87920 45030 -90330 40840 -92600 36510 -94760 32070 -96770 27480 -98660 22760 -100410 17940 -102050 12970 -103550 7870 -104890 2650 0 -59980 101870 -2570 100510 -7650 99050 -12590 97450 -17400 95740 -22100 93910 -26660 91940 -31110 89860 -35430 87650 -39640 85340 -43690 82870 -47660 80300 -51480 77590 -55180 74770 -58750 71820 -62210 68730 -65540 65540 -68730 62210 -71820 58750 -74760 55180 -77600 51480 -80300 47660 -82870 43690 -85330 39640 -87660 35430 -89860 31110 -91940 26660 -93900 22100 -95740 17400 -97460 12590 -99040 7650 -100510 2570 -101870 0 0z"/>
   </g>
   <polygon class="fil0" points="11963970,3855310 11228480,4393440 11510810,5271460 11963970,5271460 12417140,5271460 12699510,4393440 "/>
   <path class="fil0" d="M13657850 4662160l-477170 -474520 47810 -651480 478830 28160c135800,236450 224810,503170 254550,787510l-304060 310300 40 30z"/>
   <path class="fil0" d="M11963970 3208370l-614020 -269070 181610 -338150c139310,-30580 283920,-46830 432410,-46830 148540,0 293260,16250 432530,46830l181570 338150 -614060 269070 -40 0z"/>
   <path class="fil0" d="M12740590 5565240l-306290 577860 438690 212290c239580,-121770 451390,-290190 623620,-493230l-72150 -426550 -683910 129560 40 70z"/>
   <path class="fil0" d="M10270140 4662160l477160 -474520 -47810 -651480 -478940 28160c-135800,236450 -224770,503100 -254510,787470l304140 310370 -40 0z"/>
   <path class="fil0" d="M11187390 5565240l306300 577860 -438770 212290c-239510,-121770 -451310,-290110 -623580,-493150l72150 -426600 683900 129570 0 30z"/>
   <path class="fil0" d="M6977860 14579170l1618250 -1731220c-1737490,-2339150 -2500880,-6606090 1159030,-9719220 -3412960,1319700 -5794400,7894800 -2777280,11450440z"/>
   <path class="fil0" d="M10002700 3128320c-1650560,1058640 -2583730,3395040 -2632370,5200410 -48640,1805370 768870,3685230 1428810,4302050l1617120 -1730010c-1934710,-1729060 -2078860,-5899280 -413560,-7772420l0 -30z"/>
   <path class="fil0" d="M10201430 3190790c-1479390,1080910 -1682920,5487770 419370,7491040l1650150 -1765270c-2121270,-1336410 -3337860,-3891030 -2069560,-5725770l40 0z"/>
   <path class="fil0" d="M4923690 16435070c-345980,-39570 -1210510,-233770 -1867620,-400820 -1014160,-257880 -2061890,-816910 -2058750,-2129350 2720,-1135680 499130,-1867430 1460070,-3562670l1006150 -1842100c410760,-745210 413030,-1137300 404860,-1522210 -19420,-913780 -373560,-2073490 -619120,-3135270l-548300 -2288590c905050,453090 1310780,559680 2181550,696690l41200 14184320 -40 0z"/>
   <path class="fil0" d="M14149790 15693410c145510,40 146610,151940 0,151820l0 -151820zm-450 -397870c136510,-340 134590,136890 0,137010l0 -137010zm325110 223480c90110,-43650 94680,-80990 94680,-213500 0,-157680 -120760,-286230 -390240,-286230l-380330 0 4420 1097160 506800 0c262980,0 308710,-151740 308710,-322200 0,-139540 -12890,-188150 -144040,-275230z"/>
   <polygon class="fil0" points="7118080,16116420 7118080,15751160 7145030,15751160 7311820,16138300 7691210,16116420 7433410,15589850 7661960,15019260 7314510,15007350 7145490,15384660 7118500,15384660 7118080,15019260 6778340,15019260 6778150,16116420 "/>
   <path class="fil0" d="M11403240 15731740c-673550,251750 -576980,-591800 -190,-333960l-77330 -375460c-928290,-196090 -1035320,1222000 7070,1104940l70490 -395520 -40 0z"/>
   <path class="fil0" d="M9318720 17265210l187990 0 93130 -103260c61110,-67810 108360,-164490 111340,-266990 3780,-127250 -62320,-237840 -224730,-239170 -192190,-1660 -228850,172430 -228130,231050 910,70980 49440,191010 162100,201030 36210,3250 34360,1440 70080,-8350l-171780 185690zm171970 -458050c39680,0 71880,32170 71880,71850 0,39690 -32160,71850 -71880,71850 -39690,0 -71850,-32160 -71850,-71850 0,-39680 32160,-71850 71850,-71850z"/>
   <path class="fil0" d="M10158910 16948630c148420,-144490 -35800,-412650 -359210,-231720l76160 134440c202660,-76350 231000,77970 41040,68030l-30 96040c268340,34120 77630,182130 -54690,88630l-84970 148080c476450,159910 537000,-206290 381730,-303500l-30 0z"/>
   <polygon class="fil0" points="8846540,16951960 8950700,16894280 8950700,17262750 9130000,17262750 9130000,16653560 8794000,16830110 "/>
   <path class="fil0" d="M9968990 15003310c311960,0 564810,252850 564810,564810 0,311960 -252850,564810 -564810,564810 -311970,0 -564820,-252850 -564820,-564810 0,-311960 252850,-564810 564820,-564810zm-40 345790c120940,0 219020,98070 219020,218980 0,120980 -98080,219030 -219020,219030 -120950,0 -218990,-98080 -218990,-219030 0,-120910 98040,-218980 218990,-218980z"/>
   <path class="fil0" d="M8771480 15792550l190 323710 -322660 80 0 -1097080 399910 0c124540,3470 218310,37600 281010,101740 62930,64370 94490,166640 94450,306710 -150,106200 -33030,194490 -99020,265440 -65960,70980 -157380,104920 -273490,101550l-80350 -2190m1280 -286190l77520 0c45430,1480 67920,-28000 67840,-87790 190,-61080 -24220,-92110 -73470,-93320l-72000 190 110 180960 0 -40z"/>
   <polygon class="fil0" points="12174610,16116420 11824890,16116420 11824890,15303850 11582470,15303850 11582470,15019260 12363660,15019260 12363660,15303850 12174610,15303850 "/>
   <path class="fil0" d="M13092770 15011240c311960,0 564810,252850 564810,564820 0,311960 -252850,564810 -564810,564810 -311960,0 -564810,-252850 -564810,-564810 0,-311970 252850,-564820 564810,-564820zm-40 345790c120950,0 219020,98080 219020,218990 0,120980 -98070,219020 -219020,219020 -120940,0 -218990,-98080 -218990,-219020 0,-120910 98050,-218990 218990,-218990z"/>
   <path class="fil0" d="M6159250 15116540c269450,110 454420,186940 454190,445910 -230,258970 -148230,422320 -454190,422320l0 190 190 131460 -322660 30 190 -131560c-305950,0 -453920,-163320 -454180,-422330 -270,-258970 184700,-445830 454180,-445910l0 -97430 322280 0 0 97280 0 40zm-323670 573770c-72460,0 -148690,-830 -148580,-137010 -450,-131000 76390,-139910 148690,-139730l-110 276740zm325070 -150c72460,0 148690,-830 148580,-137010 450,-131000 -76390,-139920 -148650,-139730l70 276740z"/>
   <path class="fil4" d="M10543170 17250960c113950,0 180590,-102470 180590,-281960 0,-150840 -49440,-276960 -177000,-276960 -121810,0 -182740,116070 -182740,281230 0,151560 53030,277690 179150,277690zm720 -83830c-47280,0 -73810,-67470 -73810,-195970 0,-129220 29360,-195250 75250,-195250 50150,0 72370,72490 72370,195250 0,127070 -24370,195970 -73090,195970l-720 0z"/>
   <g>
    <path id="_1" class="fil4" d="M10697880 16968950l60000 0 0 0 -210 17690 -610 17260 -1040 16830 -1460 16390 -1850 15930 -2280 15500 -2680 15040 -3100 14610 -3530 14160 -3940 13680 -4360 13220 -4790 12770 -5230 12290 -5670 11790 -6100 11320 -6570 10810 -7010 10270 -7460 9760 -7930 9190 -8380 8630 -8830 8010 -9250 7390 -9700 6760 -10090 6070 -10490 5390 -10870 4700 -11180 3960 -11490 3250 -11790 2520 -12050 1800 -12270 1060 -12510 360 0 -60000 9070 -260 8710 -760 8370 -1240 8030 -1720 7750 -2190 7440 -2640 7150 -3080 6910 -3570 6670 -4010 6440 -4480 6250 -4990 6030 -5470 5820 -5990 5610 -6510 5400 -7060 5190 -7610 4950 -8170 4720 -8720 4450 -9290 4190 -9850 3910 -10410 3620 -10980 3320 -11540 3010 -12080 2680 -12630 2360 -13180 2000 -13700 1670 -14230 1300 -14750 940 -15250 570 -15780 190 -16270 0 0zm-151050 -253310l0 -60000 0 0 13900 430 13520 1310 13090 2160 12690 3020 12270 3860 11780 4680 11280 5470 10770 6240 10200 6930 9670 7610 9100 8240 8560 8830 7980 9350 7460 9870 6920 10330 6420 10760 5920 11190 5440 11540 4980 11900 4550 12270 4110 12580 3700 12870 3310 13170 2910 13440 2530 13690 2160 13920 1810 14140 1470 14360 1130 14540 790 14720 470 14870 160 15020 -60000 0 -140 -13760 -430 -13570 -730 -13340 -1010 -13120 -1310 -12860 -1610 -12580 -1920 -12280 -2210 -11950 -2510 -11600 -2810 -11230 -3120 -10850 -3410 -10440 -3710 -9990 -4000 -9560 -4280 -9100 -4540 -8590 -4840 -8100 -5080 -7610 -5360 -7070 -5600 -6570 -5860 -6050 -6120 -5540 -6390 -5030 -6680 -4550 -6990 -4040 -7320 -3550 -7700 -3060 -8090 -2560 -8570 -2020 -9050 -1500 -9560 -930 -10100 -310 0 0zm-156930 257670l-60000 0 0 0 190 -16390 570 -16120 960 -15820 1350 -15530 1730 -15210 2140 -14910 2530 -14550 2930 -14230 3350 -13870 3750 -13500 4180 -13140 4610 -12750 5030 -12350 5490 -11940 5950 -11510 6410 -11060 6870 -10580 7360 -10100 7860 -9600 8350 -9050 8840 -8460 9340 -7870 9830 -7230 10310 -6560 10760 -5850 11190 -5120 11620 -4370 12010 -3590 12370 -2800 12720 -2010 13020 -1200 13310 -400 0 60000 -9690 300 -9240 840 -8820 1390 -8450 1920 -8070 2410 -7720 2910 -7430 3400 -7140 3870 -6850 4360 -6590 4850 -6360 5370 -6140 5880 -5890 6370 -5640 6900 -5420 7440 -5170 7960 -4910 8480 -4650 9010 -4370 9500 -4090 10010 -3790 10490 -3480 10980 -3190 11460 -2870 11890 -2530 12330 -2230 12770 -1880 13150 -1550 13550 -1210 13950 -860 14300 -530 14640 -170 14990 0 0zm153260 254050l0 60000 0 0 -13790 -430 -13440 -1310 -13040 -2170 -12650 -3030 -12220 -3850 -11750 -4670 -11290 -5460 -10780 -6220 -10260 -6930 -9690 -7570 -9190 -8220 -8630 -8800 -8110 -9340 -7570 -9860 -7060 -10320 -6550 -10750 -6070 -11170 -5590 -11560 -5150 -11940 -4690 -12290 -4270 -12600 -3850 -12920 -3440 -13210 -3050 -13480 -2670 -13760 -2270 -14000 -1920 -14210 -1560 -14440 -1190 -14630 -850 -14810 -500 -14980 -170 -15120 60000 0 150 13780 460 13600 770 13370 1070 13150 1380 12860 1700 12610 2010 12300 2310 11960 2630 11620 2940 11270 3230 10860 3550 10460 3830 10030 4130 9580 4410 9120 4690 8630 4950 8150 5220 7640 5470 7120 5730 6600 5970 6100 6230 5560 6510 5090 6760 4570 7040 4060 7370 3560 7730 3070 8100 2570 8530 2030 8980 1490 9440 930 9970 310 0 0zm-104770 -256210l60000 0 0 0 80 11740 230 11350 370 10970 530 10550 680 10180 800 9770 950 9330 1100 8950 1220 8540 1340 8090 1470 7670 1590 7230 1680 6810 1790 6340 1870 5890 1960 5430 2000 4980 2050 4480 2060 4010 2060 3530 2040 3080 1980 2610 1880 2170 1780 1750 1670 1400 1520 1080 1450 830 1360 620 1310 460 1400 320 1550 220 1730 80 0 60000 -7210 -320 -7150 -1000 -7040 -1680 -6870 -2360 -6560 -3000 -6230 -3590 -5880 -4120 -5470 -4600 -5100 -5030 -4720 -5410 -4360 -5750 -4020 -6060 -3740 -6390 -3440 -6690 -3190 -6980 -2940 -7280 -2720 -7570 -2510 -7910 -2310 -8200 -2120 -8510 -1930 -8830 -1750 -9170 -1580 -9490 -1400 -9800 -1240 -10150 -1070 -10510 -900 -10810 -740 -11160 -570 -11510 -410 -11850 -250 -12190 -80 -12540 0 0zm106970 -229720l0 60000 0 0 -1610 80 -1440 190 -1350 330 -1310 440 -1400 640 -1460 820 -1580 1100 -1720 1420 -1820 1750 -1960 2190 -2030 2590 -2090 3050 -2130 3520 -2130 3960 -2120 4460 -2090 4910 -2020 5350 -1960 5840 -1880 6290 -1770 6740 -1680 7170 -1550 7620 -1440 8050 -1300 8470 -1180 8910 -1020 9300 -880 9740 -730 10150 -570 10540 -410 10960 -250 11380 -90 11760 -60000 0 90 -12640 270 -12280 450 -11920 630 -11580 810 -11210 980 -10860 1160 -10540 1340 -10170 1500 -9830 1700 -9490 1870 -9160 2060 -8830 2250 -8500 2440 -8170 2620 -7840 2860 -7570 3070 -7230 3300 -6900 3550 -6620 3830 -6300 4110 -5990 4430 -5650 4740 -5290 5120 -4930 5460 -4480 5840 -4040 6180 -3500 6460 -2920 6750 -2320 6950 -1650 7060 -990 7090 -320 0 0zm104030 229720l-60000 0 0 0 -70 -11270 -190 -10960 -320 -10590 -460 -10260 -580 -9940 -720 -9580 -830 -9210 -970 -8820 -1090 -8450 -1220 -8080 -1330 -7680 -1460 -7260 -1570 -6890 -1660 -6430 -1750 -5980 -1840 -5540 -1920 -5100 -1970 -4630 -2000 -4150 -1990 -3650 -2000 -3180 -1940 -2710 -1880 -2270 -1770 -1840 -1640 -1440 -1550 -1130 -1420 -850 -1350 -640 -1430 -500 -1480 -370 -1670 -230 -1960 -90 0 -60000 7500 350 7450 1050 7300 1790 7030 2480 6790 3180 6380 3810 5950 4350 5520 4840 5070 5240 4660 5610 4280 5950 3920 6260 3610 6570 3280 6810 3030 7110 2760 7360 2560 7660 2330 7960 2120 8210 1930 8490 1760 8800 1570 9080 1420 9360 1250 9670 1090 9960 930 10250 780 10520 640 10820 500 11120 340 11410 210 11680 70 11970 0 0zm-104770 230460l0 -60000 0 0 1890 -90 1640 -220 1460 -350 1390 -480 1380 -630 1430 -820 1520 -1090 1640 -1390 1760 -1770 1870 -2180 1940 -2620 1990 -3080 2030 -3560 2030 -4050 2000 -4530 1950 -4980 1890 -5470 1820 -5940 1720 -6360 1620 -6820 1520 -7290 1400 -7670 1280 -8110 1160 -8530 1020 -8930 900 -9330 760 -9740 630 -10130 490 -10510 360 -10890 210 -11260 70 -11640 60000 0 -70 12380 -230 12060 -380 11730 -530 11390 -690 11070 -840 10740 -1000 10410 -1160 10110 -1340 9770 -1480 9450 -1680 9150 -1840 8810 -2020 8520 -2220 8220 -2420 7900 -2630 7610 -2870 7340 -3120 7030 -3370 6730 -3670 6460 -3990 6140 -4340 5840 -4710 5480 -5100 5110 -5520 4690 -5920 4190 -6310 3660 -6660 3050 -6930 2380 -7160 1710 -7260 1000 -7310 330 0 0zm-730 -60000l730 0 0 60000 -730 0 0 0 0 -60000z"/>
   </g>
  </g>
 </g>
</svg>
