<svg version="1.2" baseProfile="tiny" xmlns="http://www.w3.org/2000/svg" width="320.546" height="632.83" viewBox="0 0 320.546 632.83"><path fill="#001C58" d="M92.196 423.37c-1.71-.428-3.187-1.488-4.327-3.08-5.783 8.92-8.22 16.895-6.095 24.052 8.895 30.032 35.392 52.212 67.126 55.166-30.328-9.212-52.774-40.815-56.704-76.137m-6.21-17.748c-1.91-1.36-3.547-2.637-4.71-3.748-2.03 7.47-2.965 15.375-2.633 23.52.065 1.646.183 3.275.346 4.89 1.173-4.813 3.484-9.84 6.797-14.97-.64-3-.54-6.413.2-9.692zm1.495-4.584c.802-1.82 1.806-3.5 3-4.916.962-1.133 1.986-2.033 3.073-2.7 2.886-13.452 8.914-25.433 17.725-34.49-13.156 9.355-23.24 22.69-28.54 38.166.704.963 2.575 2.42 4.743 3.94zm113.81 69.05c-6.567-.73-15.353-2.465-19.188-3.793-4.282-1.48-8.092-5.058-10.185-9.577-.867-1.868-1.65-4.353-1.776-7.365-.07-1.8.102-3.786.63-5.936-24.08-7.344-49.583-17.542-67.338-27.023-.625 1.144-1.34 2.207-2.14 3.155-1.336 1.58-2.836 2.725-4.38 3.38 1.667 14.772 6.797 29.248 14.966 41.86 10.836 16.73 25.594 28.197 41.536 31.807 5.652 1.273 13.04 2.863 19.65 1.4 24.504-5.428 44.48-22.378 54.243-44.675-1.145.204-2.43.32-3.81.368-5.59 16.36-17.35 16.935-22.206 16.398zm32.426-51.006c-.35-8.615-2.086-16.842-4.993-24.476-3.574-9.36-15.52-16-31.255-19.564-29.09-6.576-67.3 4.287-91.616 24.744.934 3.73.657 8.18-.597 12.24 17.52 9.42 43 19.616 67.04 26.934 5.657-12.992 16.49-15.47 24.937-13.358 6.052 1.51 9.942 2.302 12.782 2.873l3.125.66c4.015.94 7.538 3.607 9.65 7.325 1.497 2.626 2.872 6.78 1.935 12.5 2.953-.173 4.383-.668 4.714-1.06 3.154-8.993 4.69-18.722 4.276-28.818zM219.93 448.96c.968-4.794-.08-8.13-1.243-10.17-1.46-2.574-3.88-4.42-6.616-5.06l-2.992-.63c-2.724-.55-6.832-1.386-12.988-2.922-8.246-2.06-15.32 1.717-19.228 10.137 4.017 1.168 7.973 2.247 11.828 3.224.62-3 .754-5.08.754-5.117.08-1.3 1.196-2.292 2.497-2.216 1.3.076 2.294 1.188 2.216 2.493-.008.17-.16 2.555-.876 5.96.763.178 1.528.358 2.278.526.773.177 1.535.346 2.28.503.673-3.318 1.106-6.14 1.118-6.195.195-1.288 1.4-2.172 2.684-1.977 1.293.192 2.177 1.396 1.985 2.686-.034.227-.472 3.05-1.164 6.436 1.583.31 3.083.578 4.506.82.523-2.86.65-5.137.65-5.18.063-1.3 1.174-2.304 2.475-2.24 1.305.063 2.31 1.17 2.243 2.467-.01.194-.137 2.584-.697 5.66 3.27.444 6.016.687 8.295.792zm-43.73 5.77c1.843 3.98 5.054 6.28 7.446 7.104 3.107 1.078 11.33 2.805 18.16 3.554 7.492.83 13.35-3.34 16.688-11.762-2.507-.144-5.19-.438-7.97-.824-.52 1.695-1.183 3.386-2.038 4.887-.644 1.132-2.082 1.522-3.215.882-1.132-.644-1.527-2.086-.882-3.223.566-.996 1.035-2.126 1.423-3.29-1.464-.25-2.938-.527-4.397-.81-.5 1.958-1.074 3.817-1.676 5.208-.52 1.194-1.915 1.737-3.11 1.22-1.196-.52-1.738-1.912-1.22-3.106.488-1.118.954-2.634 1.384-4.277-.765-.168-1.522-.336-2.272-.505-.793-.178-1.605-.37-2.415-.565-.425 1.368-.925 2.79-1.534 4.23-.505 1.2-1.897 1.762-3.096 1.256-1.198-.504-1.765-1.89-1.257-3.09.508-1.187.93-2.37 1.29-3.51-3.978-1.01-8.064-2.13-12.207-3.34-1 4.346-.133 7.744.9 9.96zm-77.75-58.81c-1.045-.19-3.12-.175-5.195 2.08-3.285 3.56-4.827 8.386-4.59 14.33.066 1.516.278 2.365.707 3.587.766 2.16 2.606 3.588 3.95 3.832 1.598.292 3.402-.643 5.086-2.636 3.68-4.365 5.266-12.37 3.46-17.477-.75-2.128-1.96-3.45-3.417-3.716z"/><path fill="#FFF" d="M122.556 8.08c-30.403 0-37.61 15.588-37.61 15.588s35.08-2.535 35.08 32.11c0 15.592-8.485 26.16-17.466 37.344-10.434 12.99-22.254 27.712-22.254 52.41 0 40.884 26.266 60.064 49.438 76.984 20.19 14.746 39.256 28.67 39.256 54.887 0 26.363-11.563 46.8-16.84 52.076-8.853 8.85-16.83 10.46-23.232 11.756-6.578 1.327-12.793 2.604-14.098 12.052-24.34 14.62-39.088 40.657-39.088 68.906 0 1.102.023 2.208.067 3.315.874 21.47 10.057 41.312 25.855 55.872 15.797 14.563 36.32 22.098 57.787 21.222 21.468-.874 41.31-10.06 55.872-25.852 14.563-15.798 22.1-36.323 21.22-57.786-1.33-32.773-22.126-61.178-52.98-72.36l.12.043c-.02-.01-.422-.17-.422-.17-.004-.005-.727-.256-.727-.256-3.902-1.347-8.33-2.877-8.33-12.913 0-9.724 4.416-10.53 13.2-12.144 5.224-.96 11.614-2.13 17.88-5.96 11.154-6.807 13.248-15.02 11.217-17.047-2.764-2.77-5.81 3.044-17.037 6.426-4.047 1.222-8.12 1.932-10.87 1.932-2.29 0-3.998-.192-5.25-.42 5.895-11.046 12.5-20.09 12.573-20.184l1.44-1.958-1.722-1.72c-2.28-2.28-3.594-7.024-3.594-13.385 0-7.848 1.996-18.154 6.63-29.344 5.48-13.223 27.23-56.377 77.122-56.377h2.833v-2.833c0-17.836-1.63-34.24-4.84-48.757l-.626-2.82s-4.843 1.375-8.878 2.275c-.48.106-4.254 1.033-4.426.237-.15-.704 2.763-2.167 3.77-2.673 3.79-1.885 8.512-3.87 8.512-3.87l-.652-2.27c-3.56-12.42-7.14-18.354-7.293-18.603l-1.156-1.892-2.107.667c-41.547 13.088-50.43 40.658-55.74 57.127-2.582 8.002-4.18 12.53-7.07 12.53-8.574 0-15.668-7.092-18-9.423-25.902-25.905-23.92-44.58-20.91-72.854 1.064-9.977 2.268-21.283 2.268-34.195-.003-32.542-12.37-47.698-38.922-47.698"/><path fill="#001C58" d="M171.832 277.402c0 26.256-11.2 47.608-17.67 54.077-20.05 20.052-36.588 5.45-36.768 25.567-9.1 8.24-15.645 20.768-18.857 35.077.2.02.398.048.594.085 1.884.342 3.5 1.418 4.735 3.116 25.467-20.755 64.677-31.668 94.647-24.89 9.528 2.153 17.61 5.67 23.73 11.053-9.202-14.887-23.272-26.375-39.903-32.337-3.948-1.415-10.966-3.036-10.966-15.845 0-23.904 26.154-5.318 43.385-31.355.843-1.286-.37-2.408-1.384-1.397-5.21 5.208-18.012 8.792-24.782 8.792-6.778 0-9.327-1.544-9.327-1.544 6.398-12.732 14.367-23.57 14.367-23.57-15.996-15.995 10.926-103.94 82.162-103.94 0-20.4-2.155-36.314-4.774-48.147-1.694.413-15.112 3.577-15.727.755-.543-2.5 9.884-7.92 13.474-9.703-3.502-12.195-6.99-17.91-6.99-17.91-61.056 19.237-48.785 69.788-63.66 69.788-9.68 0-17.285-7.536-20-10.252-36.47-36.463-19.473-60.596-19.473-109.052 0-32.642-12.677-44.867-36.088-44.867-23.41 0-31.775 10.137-31.775 10.137s32.076 1.04 32.076 34.73c0 35.272-39.72 45.008-39.72 89.753-.002 74.49 88.692 73.09 88.692 131.875M129.55 55.778c0-4.324-.466-8.23-1.31-11.753 0 0 6.98-.365 6.98-8.86 0-7.005-4.67-11.78-5.924-11.78-1.01 0-1.262 1.073-3.45 1.073-5.332 0-5.722-6.813-5.722-6.813.79-.027 1.6-.04 2.432-.04 15.266 0 29.396 4.624 29.396 38.175 0 12.407-1.176 23.448-2.21 33.188-1.028 9.62-1.977 18.568-1.704 27.306 0 0-26.584-3.133-26.584-23.133 0-12.987 8.095-16.147 8.095-37.362zM92.195 423.37c-1.71-.428-3.187-1.488-4.327-3.08-5.783 8.92-8.22 16.895-6.095 24.052 8.895 30.032 35.392 52.212 67.126 55.166-30.328-9.212-52.774-40.815-56.704-76.137zm-6.21-17.748c-1.91-1.36-3.547-2.637-4.71-3.748-2.03 7.47-2.965 15.375-2.633 23.52.065 1.646.183 3.275.346 4.89 1.173-4.813 3.484-9.84 6.797-14.97-.64-3-.54-6.413.2-9.692zm1.495-4.584c.802-1.82 1.806-3.5 3-4.916.962-1.133 1.986-2.033 3.073-2.7 2.886-13.452 8.914-25.433 17.725-34.49-13.156 9.355-23.24 22.69-28.54 38.166.704.963 2.575 2.42 4.743 3.94zm113.81 69.05c-6.567-.73-15.353-2.465-19.188-3.793-4.282-1.48-8.092-5.058-10.185-9.577-.867-1.868-1.65-4.353-1.776-7.365-.07-1.8.102-3.786.63-5.936-24.08-7.344-49.583-17.542-67.338-27.023-.625 1.144-1.34 2.207-2.14 3.155-1.336 1.58-2.836 2.725-4.38 3.38 1.667 14.772 6.797 29.248 14.966 41.86 10.836 16.73 25.594 28.197 41.536 31.807 5.652 1.273 13.04 2.863 19.65 1.4 24.504-5.428 44.48-22.378 54.243-44.675-1.145.204-2.43.32-3.81.368-5.59 16.36-17.35 16.935-22.206 16.398zm27.433-75.482c-3.574-9.36-15.52-16-31.255-19.564-29.09-6.576-67.3 4.287-91.616 24.744.934 3.73.657 8.18-.597 12.24 17.52 9.42 43 19.616 67.04 26.934 5.657-12.992 16.49-15.47 24.937-13.358 6.052 1.51 9.942 2.302 12.782 2.873l3.125.66c4.015.94 7.538 3.607 9.65 7.325 1.497 2.626 2.872 6.78 1.935 12.5 2.953-.173 4.383-.668 4.714-1.06 3.15-8.993 4.687-18.722 4.273-28.817-.345-8.616-2.083-16.843-4.99-24.477zM176.2 454.73c1.843 3.98 5.054 6.28 7.446 7.104 3.107 1.078 11.33 2.805 18.16 3.554 7.492.83 13.35-3.34 16.688-11.762-2.507-.144-5.19-.438-7.97-.824-.52 1.695-1.183 3.386-2.038 4.887-.644 1.132-2.082 1.522-3.215.882-1.132-.644-1.527-2.086-.882-3.223.566-.996 1.035-2.126 1.423-3.29-1.464-.25-2.938-.527-4.397-.81-.5 1.958-1.074 3.817-1.676 5.208-.52 1.194-1.915 1.737-3.11 1.22-1.196-.52-1.738-1.912-1.22-3.106.488-1.118.954-2.634 1.384-4.277-.765-.168-1.522-.336-2.272-.505-.793-.178-1.605-.37-2.415-.565-.425 1.368-.925 2.79-1.534 4.23-.505 1.2-1.897 1.762-3.096 1.256-1.198-.504-1.765-1.89-1.257-3.09.508-1.187.93-2.37 1.29-3.51-3.978-1.01-8.064-2.13-12.207-3.34-1 4.346-.133 7.744.9 9.96zm43.73-5.77c.968-4.794-.08-8.13-1.243-10.17-1.46-2.574-3.88-4.42-6.616-5.06l-2.992-.63c-2.724-.55-6.832-1.386-12.988-2.922-8.246-2.06-15.32 1.717-19.228 10.137 4.017 1.168 7.973 2.247 11.828 3.224.62-3 .754-5.08.754-5.117.08-1.3 1.196-2.292 2.497-2.216 1.3.076 2.294 1.188 2.216 2.493-.008.17-.16 2.555-.876 5.96.763.178 1.528.358 2.278.526.773.177 1.535.346 2.28.503.673-3.318 1.106-6.14 1.118-6.195.195-1.288 1.4-2.172 2.684-1.977 1.293.192 2.177 1.396 1.985 2.686-.034.227-.472 3.05-1.164 6.436 1.583.31 3.083.578 4.506.82.523-2.86.65-5.137.65-5.18.063-1.3 1.174-2.304 2.475-2.24 1.305.063 2.31 1.17 2.243 2.467-.01.194-.137 2.584-.697 5.66 3.27.444 6.016.687 8.295.792zM98.45 395.92c-1.045-.19-3.12-.175-5.195 2.08-3.285 3.56-4.827 8.386-4.59 14.33.066 1.516.278 2.365.707 3.587.766 2.16 2.606 3.588 3.95 3.832 1.598.292 3.402-.643 5.086-2.636 3.68-4.365 5.266-12.37 3.46-17.477-.75-2.128-1.96-3.45-3.417-3.716zM37.41 490.135c5.954 3.927 12.258 7.458 12.258 7.458l-2.207 5.72c-.823-3.466-4.26-5.346-8.695-8.09l-14.52 20.995c-1.773 2.53-5.23 8.074-5.51 10.234 0 0-2.382-1.513-4.557-3.133-2.273-1.697-4.434-3.268-4.434-3.268 2.164-.526 5.9-6.04 8.155-9.095l14.125-20.155c-5.29-4.09-7.356-4.892-11.095-5.087l5.028-3.77c.003.003 4.835 3.827 11.453 8.19M267.498 561.258l.438.48c-.41-.02-.75.19-1.19.44l1.273 2.448c.248.453.6 1.142.83 1.192 0 0-.272.155-.598.32-.285.14-.555.25-.555.25.004-.305-.095-.547-.434-1.243l-1.334-2.57c-.448.226-.94.448-1.07.812l-.112-.71s.658-.32 1.37-.688c.826-.427 1.38-.732 1.38-.732M46.81 542.216c-10.087-4.813-11.427-15.927-6.46-26.33 4.987-10.444 14.495-16.324 24.535-11.526 10.036 4.792 11.45 15.88 6.458 26.328-4.967 10.402-14.45 16.343-24.534 11.528m16.63-34.84c-6.448-3.08-11.52 4.205-15.343 12.214-3.824 8.008-6.325 16.586.125 19.665 6.45 3.075 11.547-4.26 15.372-12.267 3.824-8.01 6.297-16.536-.153-19.613zM91.942 515.102c6.82 1.926 12.372 3.215 12.372 3.215l-.59 6.105c-1.83-2.64-2.668-3.286-8.49-4.77l-7.06 23.733c-.565 2.173-3.382 10.392-2.48 11.938 0 0-1.96-.418-5.124-1.296-3.558-.986-5.23-1.653-5.23-1.653 1.825-1.2 4.12-8.226 4.872-11.082l7.094-23.892c-6.032-2.012-7.434-2.152-10.316-.813l3.496-5.206c0 .003 3.937 1.592 11.456 3.722M120.08 521.406c6.722 1.016 13.055 1.59 13.055 1.59l.254 6.126c-2.513-2.234-3.46-2.958-10.096-3.794L119.45 549.7c-.27 2.234-1.7 10.712-.594 12.118 0 0-2.328-.26-5.543-.708-3.215-.457-5.19-.91-5.19-.91 1.57-1.226 2.875-9.253 3.148-11.488l3.94-24.676c-5.752-1.148-6.934-.707-9.696.895l2.504-5.795s5.37 1.26 12.06 2.27M145.006 544.58l-.506 16.378c8.588.113 14.468-.43 17.085-4.156l-1.313 7.442s-4.757.096-11.723 0c-7.656-.11-13.665-.61-13.665-.61 1.274-1.26 1.59-9.243 1.605-11.486l.7-16.076c.03-4.28.42-11.198-1.016-12.652 6.222.43 5.43.422 11.144.645 7.482.297 11.72.074 11.72.074l.94 6.144c-2.92-2.438-7.3-2.724-14.45-2.766l-.393 13.747 10.98.063c.99.01 1.05.562 1.048 1.663-.012 1.087-.027 1.665-1.07 1.654l-11.087-.065M192.964 549.51c.633 5.96 1.262 10.24 2.62 11.022-.34.616-1.416 1.425-2.846 1.577-1.722.183-3.024-.665-4.22-2.047l-19.47-22.334.733 14.208c.237 2.233.494 10.698 1.884 11.828l-6.487.295c1.13-1.394.83-9.46.59-11.698l-.917-16.034c-.238-2.235-.656-11.103-2.05-12.224l5.948-.215 19.953 23.698-1.66-13.636c-.237-2.242-1.45-10.367-2.794-11.497 0 0 .717-.07 3.14-.398 2.416-.328 3.296-.504 3.296-.504-1.12 1.398.18 9.734.42 11.97l1.862 15.986M229.544 541.06c.69 2.773 2.063 9.894 4.098 11.288 0 0-3.08.892-4.962 1.47-1.675.515-5.366 1.473-5.366 1.473.87-1.538-1.07-10.085-1.606-12.22l-1.85-7.436-12.372 3.034 1.406 7.563c.406 2.446 1.695 10.674 3.363 11.678 0 0-1.73.358-5.336 1.098-3.02.62-5.124.953-5.124.953.927-1.54-.315-9.17-.7-11.604l-2.997-15.99c-.548-2.978-1.924-10.52-3.58-11.4 0 0 1.606-.305 5.14-.992 3.533-.688 5.265-1.156 5.265-1.156-.87 1.79.664 9.024 1.08 11.56l.953 5.073 12.174-2.967-1.313-5.184c-.716-2.748-2.228-9.338-3.92-10.56 0 0 1.672-.484 5.06-1.447 3.387-.956 4.848-1.503 4.848-1.503-.672 1.828 1.212 8.246 1.992 11.555l3.744 15.715M252.146 531.582l-12.072 4.728.42 6.63c.27 2.262.277 4.34.772 5.512.243.582.66.968 1.06 1.176 0 0-1.26.457-3.333 1.13-2.075.67-3.215 1-3.215 1 .724-1.248.898-2.966.835-5.11l-1.063-31.427c-.1-1.14-.237-2.21-.616-3.108-.336-.8-.902-1.25-1.297-1.587 1.375-.89 3.095-1.867 4.844-2.6 2.774-1.17 3.944-1.123 5.967 1.236l17.71 21.966c3.22 4.192 6.067 7.013 7.92 7.575 0 0-1.81.836-5.215 2.353-3.404 1.51-5.656 2.37-5.656 2.37.2-.71.225-1.465-.22-2.597-.473-1.223-2.215-3.293-3.34-4.863l-3.5-4.38m-2.19-2.603l-10.728-14.864.756 18.67 9.97-3.806zM302.724 520.188c-2.428 1.637-4.246 2.89-4.246 2.89-.178-2.39-4.79-8.297-6.146-10.09l-10.404-13.57 8.37 26.754c-.327.53-.92 1.274-1.472 1.69-1.65 1.256-3.257 1.01-4.725-.146l-19.81-16.423 6.934 12.77c1.696 3.235 4.965 9.966 7.166 10.63 0 0-1.368.73-3.1 1.57-1.72.83-2.77 1.32-2.77 1.32.384-1.88-2.835-7.465-4.71-11.04l-7.715-14.513c-2.34-4.366-4.923-8.812-7.14-9.698 1.715-.832 2.233-1.086 4.688-2.298 2.045-1.008 3.85-1.996 3.85-1.996l22.303 18.974-8.773-26.863s1.176-.8 3.406-2.287c2.223-1.49 4.23-2.97 4.23-2.97.17 2.403 4.813 8.53 6.505 10.72l9.605 12.36c2.037 2.543 5.847 8.204 8.56 8.853-.002-.002-2.174 1.717-4.606 3.362M272.458 560.056l1.095 1.403c.32.39.645.873.988 1.018 0 0-.284.204-.562.392-.277.183-.482.328-.482.328-.076-.378-.54-.965-.693-1.17l-1.164-1.537.952 3.037c-.04.062-.105.145-.17.19-.25.19-.433.082-.6-.05l-2.295-1.833.896 1.452c.213.376.598 1.067.902 1.208l-.375.222c-.18.106-.356.196-.356.196.042-.367-.42-1.09-.56-1.34l-.983-1.648c-.225-.374-.58-.922-.898-1.015 0 0 .31-.162.61-.33.19-.104.38-.228.496-.29l2.538 2.112-.977-3.01c.093-.044.24-.135.468-.275.293-.18.535-.343.535-.343 0 .368.425 1 .635 1.282M74.46 569.035c2.068.76 4.735 1.684 4.735 1.684-2.246 1.628-4.31 8.103-5.648 11.62l-5.18 14.372c-1.386 3.9-3.75 9.556-2.958 11.573 0 0-2.85-.984-5.157-1.803-1.973-.704-3.093-1.08-5.183-1.973 2.54-.674 4.933-9.12 5.71-11.243l2.372-6.708-12.415-5.177-3.59 7.672c-1.17 2.665-3.965 8.7-3.3 10.59 0 0-2.193-.895-5.403-2.37-3.78-1.742-4.604-2.203-4.604-2.203 2.664-1.31 4.242-5.61 6.27-9.955l6.492-14.378c2.194-4.923 4.175-9.19 4.026-11.994 0 0 1.16.69 4.352 2.126 2.544 1.144 3.843 1.716 5.27 2.288-2.02.804-4.832 8.06-6.316 11.313l-1.902 4.063 12.128 4.996 1.86-4.605c.87-2.353 3.88-9.383 3.23-11.79 0 0 2.49.904 5.21 1.898M88.485 615.678c-10.812-2.844-14.25-13.313-11.383-24.22 2.882-10.965 11.07-18.313 21.83-15.48 10.753 2.828 14.264 13.254 11.386 24.22-2.87 10.91-11.02 18.323-21.833 15.48m9.615-36.54c-6.91-1.817-10.48 6.104-12.69 14.505-2.217 8.394-3.014 17.11 3.893 18.93 6.91 1.813 10.5-6.165 12.708-14.56 2.215-8.4 3-17.055-3.91-18.875zM117.77 619.538s.69-.744 1.158-2.26c.66-2.128 1.086-6.22 1.595-9.413l3.027-23.407c-6.45-.81-8.087-.345-10.92 1.332l2.658-5.993c2.008.445 6.458.926 11.87 1.61 3.623.452 14.412 1.426 14.412 1.426l.367 5.995c-2.38-2.753-4.848-3.003-10.223-3.425l-3.015 23.485c-.27 2.187-1.47 9.773-.28 12.02-1.298-.148-3.446-.392-5.248-.57-1.87-.192-4.327-.617-5.4-.8M169.164 611.408c.074 7.047-5.657 12.148-14.473 12.02-6.855-.1-10.44-2.922-11.812-4.07l1.427-6.688c2.128 4.262 5.656 7.36 9.628 7.422 4.15.058 7.414-2.384 7.48-6.496.044-2.99-1.6-4.794-8.522-8.396-6.632-3.425-9.1-6.843-9.1-11.938 0-6.938 6.034-10.462 13.124-10.464 5.214-.005 8.85 1.593 11.136 2.814l-1.473 6.128c-3.163-4.225-6.027-5.79-9.48-5.837-3.403-.056-5.813 1.8-5.79 5.296.023 3.81 4.215 5.87 9.868 9.027 6.5 3.637 7.95 7.283 7.99 11.18M201.265 589.822c.252.827.403 1.83.48 2.62.068.728.104 1.69.017 2.603-.187 2.284-1.27 4.938-3.063 6.804-2.738 2.858-6.307 4.28-11.037 4.5-1.824.113-2.26-.444-2.383-1.76l-.01-.287s-.04-.51.358-.536l.458-.045c1.397-.174 3.472-.61 5.135-2.634 1.597-2.082 2.142-4.848 1.864-7.825-.296-3.093-1.225-5.32-3.304-6.92-1.805-1.388-3.926-1.84-6.11-1.666 0 0-.875.074-1.847.228 0 0-.57.05-.52.608l2.343 24.277c.203 2.137.785 9.66 2.54 11.212 0 0-1.997.21-5.756.52-2.866.234-5.1.292-5.1.292.753-1.863.628-4.618.44-7.825l-1.816-19.145c-.207-2.19-.577-9.7-2.363-11.556 0 0 4.806-.712 13.696-1.552 4.65-.44 8.457.152 11.742 2.375 2.15 1.447 3.628 3.556 4.237 5.71M237.64 597.65c1.904 8.414-2.045 15.578-10.8 17.767-6.153 1.538-15.013-.72-17.485-11.512l-3.012-12.743c-.793-3.567-2.09-9.883-4.16-11.528 0 0 2.314-.327 5.936-1.003 3.62-.675 5.302-1.078 5.302-1.078-.95 1.5.048 7.403.994 11.74l3.844 16.198c.686 2.97 1.655 5 3.32 6.2 1.233.89 2.88 1.134 4.598.82 1.562-.29 3.188-1.172 4.04-2.754.9-1.66.897-4.062.202-7.027l-4.315-16.2c-1.18-4.458-2.54-10.04-4-10.973 0 0 1.757-.477 5.09-1.43 2.522-.72 4.022-1.156 5.112-1.54-.996 2.438 1.375 9.916 1.877 12.056l3.457 13.007M276.955 594.33c.848.325 1.762.548 2.53.222-.09.528-.585 1.583-1.415 2.435-3.54 3.628-6.863 3.004-7.99 2.56-6.103-2.33-16.312-11.376-16.732-12.364 0 0-.105-.258.16-.367l.37-.164c1.594-.663 3.403-2.466 4.116-4.17 1.142-2.502.95-4.748-.21-7.497-1.2-2.86-3.3-4.66-4.945-5.146-2.435-.72-4.25-.15-5.357.292 0 0-1.46.574-1.895 1.012 0 0-.293.242.048 1.238l7.712 22.027c1.172 3.24 3.207 9.56 5.05 10.625 0 0-2.083.82-5.242 1.96-3.16 1.142-5.082 1.673-5.082 1.673.644-2.46-1.79-9.148-2.403-11.024l-4.986-14.874c-1.247-3.586-3.522-10.012-5.376-11.04 0 0 3.64-1.02 11.825-4.457 4.353-1.828 8.57-2.61 12.374-1.496 2.31.68 3.87 1.838 5.146 3.688.488.716.847 1.42 1.157 2.147.283.677.48 1.454.608 2.176.403 2.248.065 4.638-1.235 6.892 0 0-1.172 2.27-3.675 4.05-.003-.002 8.036 6.808 15.447 9.6"/></svg>