<?xml version="1.0" encoding="UTF-8" standalone="no"?>
<svg
   xmlns:dc="http://purl.org/dc/elements/1.1/"
   xmlns:cc="http://creativecommons.org/ns#"
   xmlns:rdf="http://www.w3.org/1999/02/22-rdf-syntax-ns#"
   xmlns:svg="http://www.w3.org/2000/svg"
   xmlns="http://www.w3.org/2000/svg"
   xmlns:sodipodi="http://sodipodi.sourceforge.net/DTD/sodipodi-0.dtd"
   xmlns:inkscape="http://www.inkscape.org/namespaces/inkscape"
   width="192.754"
   height="192.758"
   id="svg2"
   sodipodi:version="0.32"
   inkscape:version="0.46"
   sodipodi:docname="Dinamo_Zagreb.svg"
   inkscape:output_extension="org.inkscape.output.svg.inkscape">
  <metadata
     id="metadata59">
    <rdf:RDF>
      <cc:Work
         rdf:about="">
        <dc:format>image/svg+xml</dc:format>
        <dc:type
           rdf:resource="http://purl.org/dc/dcmitype/StillImage" />
      </cc:Work>
    </rdf:RDF>
  </metadata>
  <sodipodi:namedview
     inkscape:window-height="681"
     inkscape:window-width="688"
     inkscape:pageshadow="2"
     inkscape:pageopacity="0.0"
     guidetolerance="10.0"
     gridtolerance="10.0"
     objecttolerance="10.0"
     borderopacity="1.0"
     bordercolor="#666666"
     pagecolor="#ffffff"
     id="base"
     showgrid="false"
     inkscape:zoom="2.3967877"
     inkscape:cx="17.266508"
     inkscape:cy="96.378997"
     inkscape:window-x="88"
     inkscape:window-y="116"
     inkscape:current-layer="g12" />
  <defs
     id="defs4">
    <inkscape:perspective
       sodipodi:type="inkscape:persp3d"
       inkscape:vp_x="0 : 96.378998 : 1"
       inkscape:vp_y="0 : 1000 : 0"
       inkscape:vp_z="192.754 : 96.378998 : 1"
       inkscape:persp3d-origin="96.376999 : 64.252665 : 1"
       id="perspective61" />
    <marker
       id="ArrowEnd"
       viewBox="0 0 10 10"
       refX="0"
       refY="5"
       markerUnits="strokeWidth"
       markerWidth="4"
       markerHeight="3"
       orient="auto">
      <path
         d="M 0 0 L 10 5 L 0 10 z"
         id="path7" />
    </marker>
    <marker
       id="ArrowStart"
       viewBox="0 0 10 10"
       refX="10"
       refY="5"
       markerUnits="strokeWidth"
       markerWidth="4"
       markerHeight="3"
       orient="auto">
      <path
         d="M 10 0 L 0 5 L 10 10 z"
         id="path10" />
    </marker>
  </defs>
  <g
     id="g12">
    <path
       style="stroke:none; fill-rule:evenodd; fill:#ffbe00"
       d="M 189.918 96.379C 189.918 148.043 148.039 189.922 96.375 189.922C 44.715 189.922 2.832 148.043 2.832 96.379C 2.832 44.719 44.715 2.836 96.375 2.836C 148.039 2.836 189.918 44.719 189.918 96.379"
       id="path16" />
    <path
       style="stroke:none; fill-rule:evenodd; fill:#ffffff"
       d="M 77.109 41.25C 77.109 40.273 77.109 7.10498 77.109 5.87897C 76.351 6.03897 75.601 6.20697 74.851 6.38599C 74.664 6.42899 74.472 6.47598 74.285 6.52298C 73.765 6.64798 73.25 6.78098 72.738 6.91797C 72.32 7.02698 71.902 7.13998 71.492 7.25397C 71.242 7.32397 70.992 7.39398 70.746 7.46497C 59.972 10.57 50 15.59 41.215 22.121C 41.215 23.101 41.215 40.304 41.215 41.25C 42.199 41.25 76.129 41.25 77.109 41.25"
       id="path18" />
    <path
       style="stroke:none;fill-rule:evenodd;fill:#e32118;fill-opacity:1"
       d="M 78.133 79.215L 78.133 113.898L 112.82 79.215L 78.133 79.215"
       id="path20" />
    <path
       style="stroke:none;fill-rule:evenodd;fill:#e32118;fill-opacity:1"
       d="M 158.687 28.027C 158.304 27.676 157.914 27.328 157.523 26.984C 157.07 26.586 156.609 26.199 156.152 25.808C 154.8 24.672 153.426 23.558 152.011 22.492C 152.011 24.207 152.011 37.187 152.011 40.019L 161.422 30.609C 160.527 29.726 159.613 28.871 158.687 28.023"
       id="path22" />
    <path
       style="stroke:none;fill-rule:evenodd;fill:#e32118;fill-opacity:1"
       d="M 40.191 79.215L 5.40201 79.215C 4.347 84.797 3.789 90.551 3.789 96.433C 3.789 102.781 4.43701 109.027 5.67601 115.105L 40.191 115.105L 40.191 79.215"
       id="path24" />
    <path
       style="stroke:none;fill-rule:evenodd;fill:#e32118;fill-opacity:1"
       d="M 41.195 78.168L 77.129 78.168L 77.129 42.273L 41.195 42.273L 41.195 78.168z"
       id="path26" />
    <path
       style="stroke:none;fill-rule:evenodd;fill:#e32118;fill-opacity:1"
       d="M 41.195 116.152L 41.195 150.836L 75.879 116.152L 41.195 116.152"
       id="path28" />
    <path
       style="stroke:none;fill-rule:evenodd;fill:#e32118;fill-opacity:1"
       d="M 115.074 42.273L 115.074 76.957L 149.758 42.273L 115.074 42.273"
       id="path30" />
    <path
       style="stroke:none;fill-rule:evenodd;fill:#e32118;fill-opacity:1"
       d="M 114.066 5.55096C 108.297 4.43695 102.375 3.85498 96.363 3.85498C 90.125 3.85498 84.031 4.47998 78.133 5.66397L 78.133 41.23L 114.066 41.23L 114.066 5.55096"
       id="path32" />
    <path
       style="stroke:none;fill-rule:evenodd;fill:#e32118;fill-opacity:1"
       d="M 23.195 153.09C 23.261 153.172 23.324 153.254 23.386 153.336C 24.015 154.14 24.66 154.937 25.312 155.722C 25.926 156.453 26.543 157.179 27.179 157.894C 27.422 158.168 27.664 158.433 27.91 158.703C 28.765 159.644 29.64 160.574 30.543 161.488L 38.941 153.09C 36.25 153.09 24.91 153.09 23.195 153.09"
       id="path34" />
    <path
       style="stroke:none;fill-rule:evenodd;fill:#e32118;fill-opacity:1"
       d="M 40.191 22.898C 33.347 28.14 27.25 34.312 22.093 41.23L 40.191 41.23L 40.191 22.898"
       id="path36" />
    <path
       style="stroke:none; fill-rule:evenodd; fill:#ffffff"
       d="M 40.172 116.129C 39.195 116.129 7.14 116.129 5.91 116.129C 6.597 119.312 7.44901 122.433 8.457 125.488C 8.50401 125.636 8.55 125.781 8.597 125.926C 9.00801 127.152 9.44901 128.367 9.91 129.574C 10.047 129.926 10.176 130.277 10.316 130.625C 10.574 131.281 10.843 131.933 11.117 132.586C 11.476 133.426 11.843 134.265 12.226 135.097C 12.476 135.636 12.73 136.172 12.992 136.707C 13.394 137.539 13.808 138.367 14.234 139.187C 14.5 139.691 14.773 140.191 15.047 140.691C 15.461 141.453 15.886 142.207 16.324 142.957C 16.613 143.453 16.906 143.945 17.203 144.433C 17.703 145.254 18.215 146.062 18.742 146.867C 18.957 147.199 19.168 147.535 19.39 147.863C 20.058 148.859 20.75 149.84 21.457 150.808C 21.636 151.058 21.82 151.308 22.004 151.554C 22.129 151.726 22.269 151.89 22.398 152.062L 39.965 152.062L 40.168 151.855C 40.168 149.023 40.168 117.078 40.168 116.129"
       id="path38" />
    <path
       style="stroke:none; fill-rule:evenodd; fill:#ffffff"
       d="M 77.109 79.191C 76.129 79.191 42.199 79.191 41.215 79.191C 41.215 80.176 41.215 114.144 41.215 115.129C 42.168 115.129 74.07 115.129 76.902 115.129L 77.109 114.922C 77.109 112.086 77.109 80.144 77.109 79.191"
       id="path40" />
    <path
       style="stroke:none; fill-rule:evenodd; fill:#ffffff"
       d="M 114.05 42.254C 113.066 42.254 79.136 42.254 78.156 42.254C 78.156 43.234 78.156 77.207 78.156 78.187C 79.105 78.187 111.004 78.187 113.843 78.187L 114.05 77.984C 114.05 75.14 114.05 43.207 114.05 42.254"
       id="path42" />
    <path
       style="stroke:none; fill-rule:evenodd; fill:#ffffff"
       d="M 40.172 42.254C 39.226 42.254 22.277 42.254 21.347 42.254C 15.543 50.265 10.984 59.238 7.972 68.886C 7.77701 69.519 7.58601 70.156 7.40201 70.797C 7.386 70.851 7.371 70.906 7.35501 70.961C 6.679 73.336 6.097 75.746 5.60901 78.187C 6.82001 78.187 39.195 78.187 40.172 78.187C 40.172 77.207 40.172 43.234 40.172 42.254"
       id="path44" />
    <path
       style="stroke:none; fill-rule:evenodd; fill:#ffffff"
       d="M 150.984 21.695C 150.961 21.679 150.933 21.66 150.906 21.64C 150.023 20.992 149.125 20.371 148.222 19.758C 147.808 19.476 147.394 19.195 146.976 18.918C 146.133 18.363 145.281 17.832 144.422 17.304C 143.926 17.004 143.429 16.707 142.933 16.418C 142.101 15.929 141.261 15.453 140.418 14.996C 139.879 14.703 139.336 14.422 138.797 14.14C 138.191 13.828 137.582 13.523 136.968 13.222C 136.152 12.824 135.332 12.437 134.504 12.062C 134.039 11.851 133.574 11.648 133.109 11.445C 132.058 10.992 131 10.558 129.933 10.144C 129.617 10.019 129.304 9.89798 128.988 9.78098C 124.496 8.09396 119.859 6.75397 115.093 5.77298C 115.093 6.99597 115.093 40.273 115.093 41.25C 116.047 41.25 147.945 41.25 150.781 41.25L 150.988 41.047L 150.988 21.699"
       id="path46" />
    <path
       style="stroke:none;fill-rule:evenodd;fill:#1d3a8d;fill-opacity:1"
       d="M 162.297 31.48C 161.543 32.234 32.168 161.609 31.414 162.363C 48.843 179.539 71.879 189.012 96.367 189.012C 147.414 189.012 188.941 147.48 188.941 96.433C 188.941 71.949 179.468 48.914 162.297 31.48"
       id="path48" />
    <path
       style="stroke:none; fill-rule:evenodd; fill:#ffbe00"
       d="M 95.879 87.312C 95.879 87.312 93.937 93.289 93.73 93.926C 93.058 93.926 85.199 93.926 85.199 93.926C 85.199 93.926 91.558 98.547 92.101 98.941C 91.894 99.578 89.465 107.051 89.465 107.051C 89.465 107.051 95.82 102.433 96.363 102.039C 96.906 102.433 103.265 107.051 103.265 107.051C 103.265 107.051 100.836 99.578 100.629 98.941C 101.172 98.547 107.527 93.926 107.527 93.926C 107.527 93.926 99.672 93.926 99 93.926C 98.793 93.289 96.363 85.812 96.363 85.812L 95.875 87.312"
       id="path50" />
    <path
       style="stroke:none;fill-rule:evenodd;fill:#e32118;fill-opacity:1"
       d="M 94.101 94.953L 94.476 94.953C 94.476 94.953 95.765 90.976 96.367 89.129C 96.965 90.976 98.258 94.953 98.258 94.953C 98.258 94.953 102.437 94.953 104.379 94.953C 102.808 96.094 99.426 98.551 99.426 98.551C 99.426 98.551 100.718 102.527 101.316 104.371C 99.746 103.23 96.367 100.773 96.367 100.773C 96.367 100.773 92.984 103.23 91.414 104.371C 92.011 102.523 93.304 98.551 93.304 98.551C 93.304 98.551 89.922 96.094 88.351 94.953C 90.297 94.953 94.101 94.953 94.101 94.953"
       id="path52" />
    <path
       style="stroke:none; fill-rule:evenodd; fill:#ffbe00"
       d="M 145.297 70.047L 114.05 70.047L 114.05 79.008C 114.05 79.008 134.254 79.008 135.226 79.008C 135.226 79.972 135.226 111.922 135.226 114C 129.816 109.215 122.937 106.562 115.687 106.562C 99.394 106.562 86.14 119.816 86.14 136.109C 86.14 152.398 99.394 165.652 115.687 165.652C 123.644 165.652 131.254 162.39 136.797 156.715C 136.797 158.371 136.8 162.84 136.8 162.84L 151.543 162.84L 151.543 154.965C 151.543 154.965 146.66 154.965 145.808 154.965C 145.808 153.957 145.808 70.047 145.808 70.047L 145.297 70.047zM 97.468 136.109C 97.468 126.062 105.64 117.886 115.687 117.886C 125.734 117.886 133.906 126.062 133.906 136.109C 133.906 146.152 125.734 154.328 115.687 154.328C 105.64 154.328 97.468 146.152 97.468 136.109"
       id="path54" />
    <path
       style="stroke:none; fill-rule:evenodd; fill:#ffffff"
       d="M 135.738 71.07C 135.738 71.07 143.867 71.07 144.785 71.07C 144.785 71.969 144.785 155.988 144.785 155.988C 144.785 155.988 149.672 155.988 150.519 155.988C 150.519 156.797 150.519 161.008 150.519 161.816C 149.609 161.816 138.734 161.816 137.824 161.816C 137.824 160.937 137.824 154.136 137.824 154.136L 136.929 155.133C 131.519 161.168 123.777 164.629 115.687 164.629C 99.961 164.629 87.164 151.832 87.164 136.105C 87.164 120.379 99.961 107.586 115.687 107.586C 123.058 107.586 130.05 110.394 135.386 115.488L 136.254 116.32L 136.254 77.98C 136.254 77.98 116.05 77.98 115.074 77.98C 115.074 77.144 115.074 71.906 115.074 71.07C 116.05 71.07 135.742 71.07 135.742 71.07L 135.738 71.07zM 96.441 136.109C 96.441 146.719 105.074 155.351 115.687 155.351C 126.297 155.351 134.929 146.719 134.929 136.109C 134.929 125.496 126.297 116.863 115.687 116.863C 105.074 116.863 96.441 125.496 96.441 136.109"
       id="path56" />
  </g>
</svg>
