<svg xmlns="http://www.w3.org/2000/svg" version="1" width="142" height="144"><path d="M14.506 7.115c9.465 4.155 25 3.663 35.42-4.2 14.57 10.674 28.593 9.578 41.963 0 8.91 6.442 22.63 9.193 35.51 4.335l5.77 8.02c-15.053 20.12-9.48 39.35 6.046 56.272l-6.52 6.61c1.477 43.392-32.13 53.752-51.427 54.827l-10.37 8.48L60.6 133.1C26.15 130.13 7.96 111.952 9.086 78.262L2.382 71.49c13.1-14.168 22.942-33.528 6.116-56.225l6.008-8.152z" fill-rule="evenodd" stroke="#000" stroke-width=".189"/><path d="M15.29 77.39h110.858c2.913 30.678-16.576 47.247-46.213 48.876l-18.833.048c-28.354-2.038-49.48-17.01-45.812-48.923z" fill="#004d98" fill-rule="evenodd"/><path fill="#a50044" d="M63.08 77.76h15.703v49.02H63.08z"/><g fill="#a50044"><path d="M31.826 77.76H47.53v43.81H31.825z"/><path d="M37.3 119.325h10.23v4.512H37.3z"/></g><path d="M94.155 77.76h15.704v43.81H94.15zm0 41.565h10.228v4.512H94.155z" fill="#a50044"/><path d="M70.42 17.25v43.542l-52.918.382 5.455-20.956-6.794-25.072 33.492-4.306 20.766 6.41z" fill="#fff" fill-rule="evenodd"/><path d="M71.186 17.25v43.542l52.92.382-5.455-20.956 6.8-25.072-33.49-4.306-20.765 6.41z" fill="#ffed02" fill-rule="evenodd"/><path fill="#db0030" d="M39.843 12.08h15.173v48.442H39.843z"/><path fill="#db0030" d="M70.42 30.15v15.17H23.21V30.15zm5.515-14.636h5.612v44.692h-5.612zm10.653-3.202h5.61v48h-5.61zm10.722 2.706h5.612v45.394H97.31zm10.622 1.662h5.612v43.69h-5.612z"/><path d="M49.838 6.363c-9.773 7.163-25.237 7.916-34.115 4.335l-3.555 4.577c15.254 21.463 6.49 43.056-5.605 56.28l5.57 5.895c-2.26 32.35 16.618 51.06 49.807 52.985l8.995 7.513 8.978-7.63c19.327-.334 53.216-11.174 49.565-52.915l5.6-5.8c-14.205-15.752-19.1-37.328-5.376-56.328l-3.337-4.548c-12.144 3.99-26.037 1.78-34.398-4.264-12.54 8.984-28.464 9.912-42.13-.1zm42.24 6.148c7.54 4.69 15.873 6.02 30.235 4.76-7.192 12.447-7.97 27.27-1.6 41.58l-99.674-.06C26.4 46 27.63 31.28 19.22 16.987 29.58 18.49 39.7 18.13 49.79 12.64c13.69 8.034 27.77 8.18 42.283-.125zM17.502 77.88H124.39c2.81 29.577-15.984 45.55-44.558 47.12l-18.162.048c-27.34-1.966-47.704-16.4-44.17-47.17z" fill="#edbb00" fill-rule="evenodd" stroke="#deb405" stroke-width=".177"/><path d="M19.11 17.138c8.405 14.3 7.174 29.015 1.813 41.804l99.67.06c-6.367-14.313-5.587-29.138 1.605-41.58-14.363 1.258-22.693-.073-30.232-4.755-14.514 8.307-28.6 8.157-42.288.12-10.09 5.492-20.208 5.855-30.567 4.35zM17.5 77.875h106.884c2.81 29.577-15.982 45.553-44.556 47.123l-18.158.046c-27.338-1.965-47.705-16.4-44.17-47.17zm53.338-59.242V59.02" fill="none" stroke="#000" stroke-width=".756"/><g stroke="#000"><path d="M85.475 100.75a14.517 14.517 0 1 1-29.033 0 14.517 14.517 0 1 1 29.033 0z" fill="#edbb00" stroke-width=".759"/><path d="M62.664 89.086c-1.697 6.182-2.748 12.27 2.145 15.194 3.41 2.044 5.73-2.124 6.37-3.74m-13.58 6.243c2.86-.13 4.35-.367 6.19-3.158m7.264-2.975c2.873-1.768 5.43-.913 6.62 3.51 2.796-1.123 5.492 1.036 6.195 3.22m-6.138-3.22c-2.123 5.128-7.71 7.502-15.55 8.283m8.876-11.583c-1.765-1.616-4.48-3.465-.525-8.215-1.68-2.126-2.136-4.203.057-6.175m14.914 15.322c-2.58-4.562-8.587-10.884-14.97-9.205" stroke-width=".661" fill="none"/></g><path d="M50.73 61.44v.052h-2.64v13.732h2.85v-5.7h4.07V66.62h-4.07v-2.23h7.024v-2.95H50.73z"/><path d="M72.326 65.74l2.56-1.336c-1.634-3.614-8.26-4.642-10.44 0-2.25 5.536.14 10.68 4.494 11.18 2.766.403 4.958-.95 5.89-3.357l-2.533-1.45c-.674 1.68-3.245 2.836-5.206.028-.6-1.255-.75-3.187-.08-5.064 1.61-2.21 3.96-1.97 5.32 0z" fill-rule="evenodd" stroke="#000" stroke-width=".038"/><path d="M82.115 61.475l.053 13.856 7.542-.03c2.454-.34 5.67-4.36 1.902-7.48 1.993-1.75 1.743-5.51-2.245-6.31l-7.252-.03zm2.9 2.728h3.756c1.66.476 1.17 2.064.06 2.333h-3.81v-2.333zm.03 5.038l3.95.06c1.955.58 1.513 2.81.06 3.19l-3.98-.03-.03-3.21z" fill-rule="evenodd" stroke="#000" stroke-width=".189"/></svg>