<?xml version="1.0" encoding="UTF-8" standalone="no"?>
<svg width="205px" height="250px" viewBox="0 0 205 250" version="1.1" xmlns="http://www.w3.org/2000/svg" xmlns:xlink="http://www.w3.org/1999/xlink">
    <!-- Generator: Sketch 39.1 (31720) - http://www.bohemiancoding.com/sketch -->
    <title>logo--sevilla</title>
    <desc>Created with Sketch.</desc>
    <defs>
        <radialGradient cx="50.0007601%" cy="50.0005625%" fx="50.0007601%" fy="50.0005625%" r="50.0073883%" id="radialGradient-1">
            <stop stop-color="#7C4C23" offset="0%"></stop>
            <stop stop-color="#371B02" offset="100%"></stop>
        </radialGradient>
        <radialGradient cx="54.4257467%" cy="-305.650379%" fx="54.4257467%" fy="-305.650379%" r="222.357827%" id="radialGradient-2">
            <stop stop-color="#EBBD50" offset="0%"></stop>
            <stop stop-color="#975C2B" offset="36.52%"></stop>
            <stop stop-color="#371B02" offset="100%"></stop>
        </radialGradient>
        <radialGradient cx="28.068322%" cy="102.356795%" fx="28.068322%" fy="102.356795%" r="137.077058%" id="radialGradient-3">
            <stop stop-color="#EBBD50" offset="0%"></stop>
            <stop stop-color="#975C2B" offset="36.52%"></stop>
            <stop stop-color="#371B02" offset="100%"></stop>
        </radialGradient>
        <radialGradient cx="71.2955253%" cy="-41.3243687%" fx="71.2955253%" fy="-41.3243687%" r="140.069076%" id="radialGradient-4">
            <stop stop-color="#EBBD50" offset="0%"></stop>
            <stop stop-color="#975C2B" offset="36.52%"></stop>
            <stop stop-color="#371B02" offset="100%"></stop>
        </radialGradient>
        <radialGradient cx="0.143506845%" cy="77.5345393%" fx="0.143506845%" fy="77.5345393%" r="121.484667%" id="radialGradient-5">
            <stop stop-color="#EBBD50" offset="0%"></stop>
            <stop stop-color="#975C2B" offset="36.52%"></stop>
            <stop stop-color="#371B02" offset="100%"></stop>
        </radialGradient>
        <radialGradient cx="103.334646%" cy="133.915284%" fx="103.334646%" fy="133.915284%" r="260.364601%" id="radialGradient-6">
            <stop stop-color="#EBBD50" offset="0%"></stop>
            <stop stop-color="#975C2B" offset="36.52%"></stop>
            <stop stop-color="#371B02" offset="100%"></stop>
        </radialGradient>
        <radialGradient cx="-127.760522%" cy="9.31067989%" fx="-127.760522%" fy="9.31067989%" r="263.519921%" id="radialGradient-7">
            <stop stop-color="#EBBD50" offset="0%"></stop>
            <stop stop-color="#975C2B" offset="36.52%"></stop>
            <stop stop-color="#371B02" offset="100%"></stop>
        </radialGradient>
        <radialGradient cx="-273.621513%" cy="39.7214389%" fx="-273.621513%" fy="39.7214389%" r="396.279685%" id="radialGradient-8">
            <stop stop-color="#EBBD50" offset="0%"></stop>
            <stop stop-color="#975C2B" offset="36.52%"></stop>
            <stop stop-color="#371B02" offset="100%"></stop>
        </radialGradient>
        <radialGradient cx="71.4159242%" cy="30.1281987%" fx="71.4159242%" fy="30.1281987%" r="139.481104%" id="radialGradient-9">
            <stop stop-color="#EBBD50" offset="0%"></stop>
            <stop stop-color="#975C2B" offset="36.52%"></stop>
            <stop stop-color="#371B02" offset="100%"></stop>
        </radialGradient>
        <radialGradient cx="-63.0804%" cy="-5.00253423%" fx="-63.0804%" fy="-5.00253423%" r="279.231251%" id="radialGradient-10">
            <stop stop-color="#EBBD50" offset="0%"></stop>
            <stop stop-color="#975C2B" offset="36.52%"></stop>
            <stop stop-color="#371B02" offset="100%"></stop>
        </radialGradient>
    </defs>
    <g id="Champions-League" stroke="none" stroke-width="1" fill="none" fill-rule="evenodd">
        <g id="Desktop" transform="translate(-206.000000, -643.000000)">
            <g id="logo--sevilla" transform="translate(206.000000, 643.000000)">
                <g id="Calque_1">
                    <path d="M204.29316,5.977422 L204.15704,2.8407225 L202.6507,4.06896552 C189.68691,14.6444992 174.04541,19.7857143 154.83199,19.7857143 C135.43858,19.7857143 117.08329,12.9634647 103.1478,0.575533662 L102.5,0 L101.8522,0.575533662 C87.91589,12.9634647 69.56142,19.7857143 50.16842,19.7857143 C30.95418,19.7857143 15.31268,14.6449097 2.34971,4.06896552 L0.84378,2.8407225 L0.70725,5.977422 L0.656,6.83538588 C-2.13323,49.5270936 3.98192,90.9404762 18.83294,129.921182 C32.46011,165.688424 53.37052,199.324713 80.9832,229.896141 L80.98525,229.898194 C91.37178,241.334975 101.81243,249.144499 101.91739,249.221264 L102.49959,249.654351 L103.08138,249.221264 C103.18552,249.144089 113.62699,241.334975 124.01434,229.898194 L124.01557,229.896141 C151.62866,199.324713 172.53989,165.688834 186.16624,129.921182 C201.01767,90.9404762 207.13282,49.5270936 204.344,6.83538588 L204.29316,5.977422 L204.29316,5.977422 Z" id="Shape" fill="#000000"></path>
                    <path d="M202.39691,6.95689655 C202.39691,6.95689655 202.38912,6.82512315 202.38543,6.75082102 C189.35727,16.8218391 173.78465,21.7385057 154.8324,21.7385057 C135.25572,21.7385057 116.71388,14.9351396 102.50164,2.58579639 C102.50082,2.5862069 102.50041,2.58661741 102.5,2.58702791 C102.49918,2.58661741 102.49918,2.58661741 102.49836,2.5862069 C88.28571,14.9355501 69.74387,21.7389163 50.16842,21.7389163 C31.21576,21.7389163 15.64314,16.8222496 2.61498,6.75123153 C2.61047,6.82553366 2.60309,6.95730706 2.60309,6.95730706 C2.16767,13.612069 1.95119,20.2356322 1.95119,26.8230706 C1.95119,62.2212644 8.21968,96.5841544 20.65621,129.225369 C34.19605,164.764778 54.97977,198.194992 82.43009,228.585386 C91.30495,238.357143 100.19867,245.432266 102.49959,247.208949 C102.49959,247.208539 102.5,247.208539 102.50041,247.208539 C102.50041,247.208539 102.50082,247.208539 102.50123,247.208949 C104.80215,245.432266 113.69628,238.357143 122.57073,228.585386 C150.02064,198.194992 170.80477,164.764778 184.34461,129.225369 C196.78114,96.5837438 203.0484,62.2208539 203.0484,26.8226601 C203.0484,20.2352217 202.83192,13.6116585 202.39691,6.95689655 L202.39691,6.95689655 Z" id="Shape" fill="#B4742A"></path>
                    <path d="M124.36612,105.542282 C123.47519,94.8850575 114.99311,86.3949097 104.34828,85.5061576 L104.34828,45.4310345 L104.47128,45.3538588 C133.30043,27.2532841 170.48292,29.545156 194.89268,50.9265189 L196.95826,52.7360427 C195.34204,70.6974548 192.03252,88.3444171 187.06332,105.542282 L124.36612,105.542282 L124.36612,105.542282 Z" id="Shape" fill="#FFFFFF"></path>
                    <path d="M100.63778,85.5073892 C89.99992,86.4035304 81.52563,94.8899836 80.63429,105.542282 L17.93709,105.542282 C12.96748,88.3444171 9.6596,70.6978654 8.04215,52.7360427 L10.10855,50.9265189 C34.51831,29.545156 71.7008,27.2532841 100.52954,45.3538588 L100.63819,45.4224138 L100.63819,85.5073892 L100.63778,85.5073892 Z" id="Shape" fill="#FFFFFF"></path>
                    <path d="M84.03155,107.678571 C84.03155,117.877258 92.2869,126.146552 102.47704,126.146552 C112.668,126.146552 120.96968,117.876847 120.96968,107.678571 C120.96968,97.4326765 112.66841,89.1629721 102.47704,89.1629721 C92.28649,89.1629721 84.03155,97.4326765 84.03155,107.678571" id="Shape" fill="#371B02"></path>
                    <path d="M85.70312,103.738506 C85.70312,98.0554187 90.29963,93.4490969 95.97608,93.4490969 C101.64392,93.4490969 106.23551,98.0558292 106.23551,103.738506 C106.23551,109.41954 101.64351,114.018883 95.97608,114.018883 C90.29963,114.018883 85.70312,109.41954 85.70312,103.738506" id="Shape" fill="url(#radialGradient-1)"></path>
                    <path d="M101.05598,120.805008 C98.86166,121.19376 95.77272,121.278325 92.54643,120.374795 C91.25452,120.031199 90.56326,121.324302 91.68215,122.141215 C94.43407,124.206897 97.74728,125.454433 101.18554,125.711823 C101.74765,125.757389 102.26138,125.283662 102.26138,124.723727 L102.26138,121.79844 C102.26097,121.106322 101.74765,120.676929 101.05598,120.805008 L101.05598,120.805008 Z" id="Shape" fill="url(#radialGradient-2)"></path>
                    <path d="M92.58415,101.697044 L95.47014,103.374795 C95.94082,103.630131 96.58493,103.456897 96.84405,103.029146 C98.64969,100.018883 103.42291,95.0619869 109.35438,92.865353 C110.42981,92.4412972 110.47368,91.4466338 109.39702,90.9708539 C107.25067,90.1149425 104.92679,89.5960591 102.4344,89.5960591 C98.34752,89.5956486 90.04871,100.226601 92.58415,101.697044 L92.58415,101.697044 Z" id="Shape" fill="url(#radialGradient-3)"></path>
                    <path d="M101.27164,114.866585 C97.78992,114.821018 91.0815,113.143268 86.22546,109.095238 C85.32264,108.364532 84.45836,108.837438 84.58792,110.003284 C84.88599,112.284893 85.62071,114.563629 86.86875,116.71798 C88.92982,120.247126 102.26097,122.140805 102.26097,119.254516 L102.26097,115.853038 C102.26097,115.339901 101.78578,114.866585 101.27164,114.866585 L101.27164,114.866585 Z" id="Shape" fill="url(#radialGradient-4)"></path>
                    <path d="M97.27619,103.245074 C97.01707,103.673235 97.18558,104.361248 97.66077,104.62069 L101.91985,107.074713 L102.90467,107.074713 L117.05336,98.9376026 C117.57365,98.6391626 117.69419,97.9946634 117.35553,97.5188834 C116.66837,96.4802956 113.26783,92.3111658 111.89474,92.6100164 C104.88333,94.2019704 99.12529,100.183087 97.27619,103.245074 L97.27619,103.245074 Z" id="Shape" fill="url(#radialGradient-5)"></path>
                    <path d="M87.85849,98.9380131 L90.35088,100.399836 C90.95194,100.745895 91.55628,100.486453 91.81171,99.8809524 C92.58415,97.77422 94.04908,95.0197044 96.45537,92.6925287 C97.40124,91.7495895 96.58493,90.4995895 95.33648,91.0619869 C92.15734,92.3940887 89.44847,94.6728243 87.51286,97.5192939 C87.21028,97.9946634 87.34025,98.6777504 87.85849,98.9380131 L87.85849,98.9380131 Z" id="Shape" fill="url(#radialGradient-6)"></path>
                    <path d="M112.62454,102.034483 L109.70042,103.756158 C109.23015,104.020115 109.05631,104.663793 109.31174,105.092365 C111.03087,108.152299 112.92712,114.78243 111.8521,121.021346 C111.63562,122.183087 112.49498,122.702381 113.44167,122.009852 C115.28585,120.593596 116.87993,118.781609 118.12715,116.673235 C120.14804,113.098112 115.11734,100.615764 112.62454,102.034483 L112.62454,102.034483 Z" id="Shape" fill="url(#radialGradient-7)"></path>
                    <path d="M118.73067,99.7553366 C118.47114,99.2405583 117.82334,99.0238095 117.35553,99.3271757 L114.81886,100.788998 C114.21493,101.135468 114.12883,101.779557 114.55646,102.294335 C115.9767,104.020115 117.60727,106.685961 118.4285,109.914614 C118.77413,111.247126 120.23414,111.119458 120.40675,109.786946 C120.83028,106.339901 120.23455,102.856322 118.73067,99.7553366 L118.73067,99.7553366 Z" id="Shape" fill="url(#radialGradient-8)"></path>
                    <path d="M87.64283,99.408867 C87.12828,99.1108374 86.52353,99.2832512 86.26892,99.8452381 C85.70763,100.961412 83.81507,106 84.76094,107.03202 C89.62108,112.323071 97.66036,114.308703 101.229,114.390394 C101.78578,114.390394 102.26097,113.917077 102.26097,113.359195 L102.26097,108.409688 L101.74724,107.548851 L87.64283,99.408867 L87.64283,99.408867 Z" id="Shape" fill="url(#radialGradient-9)"></path>
                    <path d="M107.54915,105.009852 L103.25112,107.45977 L102.78003,108.325123 L102.78003,124.635878 C102.78003,125.237685 103.25112,125.672414 103.80872,125.627258 C105.05676,125.543103 110.34986,124.680213 110.77667,123.347701 C112.92753,116.460591 110.64752,108.493432 108.92757,105.397373 C108.62458,104.880131 108.02393,104.706897 107.54915,105.009852 L107.54915,105.009852 Z" id="Shape" fill="url(#radialGradient-10)"></path>
                    <path d="M179.7358,127.465517 C166.41449,162.431445 145.94975,195.33867 118.9123,225.273399 C112.60158,232.222085 106.31833,237.733169 102.5,240.885468 C98.68167,237.732348 92.39596,232.219622 86.07827,225.262726 C59.04943,195.33867 38.58551,162.431034 25.26379,127.465517 C22.97558,121.458539 20.89893,115.38711 19.03507,109.256979 L80.6347,109.256979 C81.57729,120.524631 91.0036,129.376847 102.50082,129.376847 C113.99763,129.376847 123.42394,120.524631 124.36612,109.256979 L185.96534,109.256979 C184.10148,115.38711 182.02401,121.458539 179.7358,127.465517 L179.7358,127.465517 Z" id="Shape" fill="#FFFFFF"></path>
                    <path d="M197.33054,48.1268473 C171.69857,25.6781609 132.70347,23.2430213 102.5,42.206486 C72.29653,23.2426108 33.30184,25.6781609 7.66864,48.1272578 C7.14835,41.0697865 6.88308,33.9655172 6.88308,26.8226601 C6.88308,23.1637931 6.97082,19.4667488 7.10817,15.7631363 C19.39874,23.0878489 33.5708,26.6765189 50.16842,26.6765189 C69.44334,26.6765189 87.85931,20.4109195 102.5,8.96715928 C117.14069,20.4109195 135.55625,26.6765189 154.83199,26.6765189 C171.4292,26.6765189 185.60085,23.0874384 197.89142,15.7635468 C198.02877,19.4704433 198.11651,23.1670772 198.11651,26.8226601 C198.11651,33.9655172 197.85124,41.0689655 197.33054,48.1268473 L197.33054,48.1268473 Z" id="Shape" fill="#EB2626"></path>
                    <path d="M102.50041,129.376847 C100.07567,129.376847 97.74523,128.979064 95.56526,128.252053 L95.56526,234.813218 C98.26429,237.311166 100.66812,239.372742 102.5,240.885468 C104.33229,239.371921 106.73571,237.311166 109.43392,234.813629 L109.43392,128.252463 C107.25436,128.979064 104.92515,129.376847 102.50041,129.376847 L102.50041,129.376847 Z" id="Shape" fill="#EB2626"></path>
                    <path d="M66.20352,109.256979 L66.20352,201.146962 C70.59421,207.005337 75.21819,212.768883 80.07218,218.431034 L80.07218,109.256979 L66.20352,109.256979 L66.20352,109.256979 Z" id="Shape" fill="#EB2626"></path>
                    <path d="M36.84178,109.256979 L36.84178,153.796798 C41.03813,162.189655 45.66334,170.442118 50.71085,178.539819 L50.71085,109.256979 L36.84178,109.256979 L36.84178,109.256979 Z" id="Shape" fill="#EB2626"></path>
                    <path d="M124.92782,109.256979 L124.92782,218.431034 C129.78099,212.767652 134.4062,207.004516 138.79607,201.146962 L138.79607,109.256979 L124.92782,109.256979 L124.92782,109.256979 Z" id="Shape" fill="#EB2626"></path>
                    <path d="M154.28915,109.256979 L154.28915,178.54023 C159.33666,170.442118 163.96187,162.190476 168.15822,153.797209 L168.15822,109.256979 L154.28915,109.256979 L154.28915,109.256979 Z" id="Shape" fill="#EB2626"></path>
                    <path d="M101.07443,100.660099 C99.88953,99.3033662 98.18762,98.454844 96.29014,98.4577176 C95.34632,98.4470443 94.48696,98.6518883 93.5825,99.1042693 C93.56405,99.0816913 93.54396,99.0603448 93.52346,99.0394089 C93.34757,98.8633005 93.11428,98.7668309 92.86705,98.7668309 L89.66413,98.7668309 C89.41936,98.7668309 89.18074,98.865353 89.00649,99.0385878 C88.83388,99.2118227 88.73507,99.4519704 88.73507,99.6970443 L88.73507,100.408867 C88.73507,100.657635 88.83183,100.891215 89.00772,101.067323 C89.18238,101.2422 89.41567,101.33908 89.66413,101.33908 L89.92612,101.33908 C89.99992,101.33908 90.05322,101.342775 90.08561,101.34688 C90.08684,101.348933 90.08848,101.350985 90.08971,101.353038 C90.10652,101.455665 90.13235,101.901888 90.12456,102.876437 L90.12456,113.877258 L89.66413,113.877258 C89.41936,113.877258 89.18074,113.977011 89.00649,114.149836 C88.83388,114.323071 88.73507,114.563218 88.73507,114.808292 L88.73507,115.520115 C88.73507,115.765189 88.83347,116.004105 89.00649,116.17775 C89.18033,116.350575 89.41936,116.450328 89.66413,116.450328 L94.92156,116.450328 C95.1692,116.450328 95.4029,116.353859 95.57797,116.17775 C95.75386,116.001642 95.85062,115.768062 95.85062,115.520115 L95.85062,114.808292 C95.85062,114.563629 95.7514,114.323481 95.5792,114.149836 C95.40495,113.977011 95.16633,113.877258 94.92156,113.877258 L93.97446,113.877258 C93.90968,113.877258 93.86253,113.874795 93.83342,113.8711 L93.82276,113.857553 C93.82194,113.850164 93.82112,113.841544 93.81989,113.831691 C93.808,113.731527 93.80144,113.536946 93.79816,113.229885 C94.54026,113.486864 95.29712,113.608374 96.10933,113.603038 C98.15195,113.620279 99.92766,112.731527 101.20276,111.122742 C102.36839,109.646552 102.96289,107.855911 102.9592,105.936371 C102.9592,103.875616 102.26343,102.017241 101.07443,100.660099 L101.07443,100.660099 Z M96.3705,111.006568 C95.45292,110.995074 94.70385,110.679392 93.7957,109.762315 L93.7957,102.163793 C94.46441,101.447044 94.88425,101.29023 95.58535,101.267652 C96.51113,101.26601 97.43814,101.800493 98.18229,102.828818 C98.91906,103.849343 99.41106,105.325944 99.40901,106.956076 C99.40983,108.192939 99.03427,109.232759 98.47462,109.933087 C97.90718,110.633005 97.19829,111.001642 96.3705,111.006568 L96.3705,111.006568 Z" id="Shape" fill="#FFFFFF"></path>
                    <path d="M116.11569,114.752053 L115.825,114.301724 C115.59827,113.95197 115.16982,113.795567 114.77335,113.916667 C114.37196,114.037767 114.34367,114.04064 114.22846,114.042693 C113.9513,114.076765 113.0985,113.763136 111.75739,112.981117 C112.1719,112.775862 112.55812,112.511905 112.91892,112.18514 C114.58188,110.750821 115.51955,108.410099 115.52693,105.983169 C115.52693,103.930624 114.85945,102.083333 113.70653,100.729885 C112.55853,99.3764368 110.89721,98.5254516 109.04032,98.5295567 C108.09568,98.5197044 107.22853,98.7311166 106.39623,99.1559934 C106.36671,99.1149425 106.33391,99.0759442 106.29701,99.0394089 C106.12153,98.8633005 105.88865,98.7668309 105.6406,98.7668309 L102.55084,98.7668309 C102.30607,98.7668309 102.06663,98.8657635 101.89361,99.0394089 C101.72018,99.2122332 101.62178,99.4519704 101.62178,99.6970443 L101.62178,100.408456 C101.62178,100.657225 101.71854,100.890394 101.89361,101.066502 C102.0695,101.243021 102.30238,101.33908 102.55084,101.33908 L102.80299,101.33908 C102.85711,101.33908 102.8977,101.341544 102.9264,101.344007 C102.9428,101.446634 102.96863,101.899425 102.96248,102.876026 L102.96125,113.877668 L102.55084,113.877668 C102.30607,113.877668 102.06663,113.976601 101.89361,114.150246 C101.72018,114.323071 101.62178,114.562808 101.62178,114.807882 L101.62178,115.519294 C101.62178,115.765189 101.72018,116.004105 101.89361,116.17775 C102.06663,116.350575 102.30607,116.450328 102.55084,116.450328 L107.62213,116.450328 C107.87018,116.450328 108.10347,116.353448 108.27936,116.176519 C108.45607,116.000821 108.5516,115.767652 108.5516,115.518883 L108.5516,114.952791 C109.06656,115.275862 109.55692,115.571018 109.91895,115.767652 C111.07146,116.409278 112.30925,116.841133 113.41297,116.852627 L113.43429,116.852627 C114.37729,116.852627 115.24854,116.535304 115.92217,115.979885 C116.28994,115.679803 116.37358,115.150657 116.11569,114.752053 L116.11569,114.752053 Z M106.6,113.872332 L106.59426,113.865353 C106.58934,113.827997 106.58442,113.763547 106.57991,113.665025 C106.68036,113.732759 106.78614,113.802956 106.89766,113.876847 L106.70783,113.876847 C106.66191,113.876847 106.62583,113.874384 106.6,113.872332 L106.6,113.872332 Z M108.51552,101.267241 C109.33839,101.263547 110.19365,101.767652 110.8886,102.761084 C111.57658,103.744663 112.03824,105.167898 112.0366,106.718391 C112.0407,108.041461 111.75452,109.118637 111.35272,109.718801 C110.79676,110.57225 109.97594,111.014778 109.31215,111.007389 C108.73282,110.998768 108.32446,110.864532 106.94932,109.860427 L106.6082,109.615353 C106.59549,109.606322 106.58237,109.597291 106.56843,109.58867 L106.56843,102.253284 C107.25272,101.515189 107.82467,101.279557 108.51552,101.267241 L108.51552,101.267241 Z" id="Shape" fill="#FFFFFF"></path>
                    <path d="M92.86664,100.621921 C94.21595,99.6970443 95.10237,99.3887521 96.29055,99.3887521 C99.53324,99.3887521 102.03014,102.235222 102.03014,105.93555 C102.03014,107.667077 101.50698,109.232759 100.47952,110.537356 C99.33152,111.960591 97.90144,112.672414 96.10933,112.672414 C94.92115,112.672414 93.97446,112.411741 92.86664,111.770936 L92.86664,112.364122 C92.86664,114.071839 92.86664,114.167077 93.10813,114.451149 C93.30944,114.712233 93.53125,114.807061 93.97405,114.807061 L94.92074,114.807061 L94.92074,115.518473 L89.66413,115.518473 L89.66413,114.807061 L91.05403,114.807061 L91.05403,102.875616 C91.05403,101.143678 91.03394,101.07266 90.81213,100.764368 C90.61082,100.503284 90.38942,100.408456 89.92612,100.408456 L89.66413,100.408456 L89.66413,99.6970443 L92.86664,99.6970443 L92.86664,100.621921 L92.86664,100.621921 Z M92.86664,110.134236 C93.97446,111.367406 95.08187,111.937192 96.37091,111.937192 C98.62632,111.937192 100.33848,109.802135 100.33848,106.955665 C100.33848,103.326355 98.18352,100.337438 95.58535,100.337438 C94.53821,100.337438 93.73256,100.764368 92.86664,101.808292 L92.86664,110.134236 L92.86664,110.134236 Z" id="Shape" fill="#000000"></path>
                    <path d="M105.6406,100.764368 C106.80623,99.839491 107.77793,99.4597701 109.04114,99.4597701 C112.18871,99.4597701 114.59869,102.28243 114.59869,105.983169 C114.59869,108.165435 113.72416,110.276683 112.30556,111.486453 C111.46998,112.221675 110.67376,112.529967 109.42941,112.601396 L109.77955,112.83867 C112.03373,114.309524 113.3937,114.973317 114.22928,114.973317 C114.48184,114.973317 114.65732,114.926108 115.04559,114.807471 L115.33669,115.25821 C114.8123,115.68555 114.17065,115.922414 113.41338,115.922414 C112.57739,115.922414 111.41176,115.542693 110.36257,114.949918 C109.66311,114.570608 108.32282,113.716338 107.40893,113.099754 C106.65125,112.601806 106.24289,112.293514 105.64101,111.771346 L105.64101,112.364532 C105.64101,114.07225 105.64101,114.167488 105.87389,114.45156 C106.06823,114.712644 106.28184,114.807471 106.70906,114.807471 L107.62295,114.807471 L107.62295,115.518883 L102.55166,115.518883 L102.55166,114.807471 L103.89195,114.807471 L103.89195,102.876026 C103.89195,101.144089 103.87309,101.073071 103.65907,100.764778 C103.46473,100.503695 103.25112,100.408867 102.80422,100.408867 L102.55207,100.408867 L102.55207,99.6974548 L105.64142,99.6974548 L105.64142,100.764368 L105.6406,100.764368 Z M105.6406,111.153941 L106.06782,110.3711 L106.39869,110.608374 C107.77793,111.628489 108.45771,111.936782 109.31297,111.936782 C110.36216,111.936782 111.43103,111.295977 112.13049,110.228654 C112.67456,109.398604 112.96566,108.165025 112.96566,106.71798 C112.96566,103.254516 110.94477,100.337028 108.51634,100.337028 C107.44747,100.337028 106.51431,100.834975 105.64019,101.902299 L105.64019,111.153941 L105.6406,111.153941 Z" id="Shape" fill="#000000"></path>
                </g>
            </g>
        </g>
    </g>
</svg>