<svg xmlns="http://www.w3.org/2000/svg" width="167.618" height="214.745" viewBox="0 0 442.1652 566.928"><path d="M-.24 359.136c0 25.056 11.736 48.456 31.536 63.576l189.72 144.216 189.72-144.216c19.8-15.12 31.536-38.52 31.536-63.576V0H-.24v359.136z" fill="#f7d117"/><path d="M12.432 359.136c0 10.512 2.448 20.736 6.984 29.88 4.536 9.072 11.16 17.208 19.512 23.616L429.6 12.744H12.432v346.392z" fill="#171796"/><path fill="#fff" d="M71.328 71.568v223.92l218.736-223.92"/><path d="M126.984 141.48c-.936 2.52-2.016 11.736-2.232 12.672-.504.864-2.952 1.296-4.536 0-1.08-1.296-3.096-6.264-5.4-10.224v28.73c1.944 1.15 4.32 1.51 6.048 1.51 2.088 5.257 4.536 9.937 9.072 14.69-1.152 7.415.432 11.95 5.184 15.767 3.096 2.664 1.944 5.616.36 7.2l6.408.216c-.072-.28-.216-1.65-.216-2.44 0-.43.432-1.583 1.296-1.08.288 0 .288 1.297 0 1.8 0 .36-.36 1.51-.432 1.73l1.368.072h5.472c.072-.504.072-1.08-.072-1.584-2.232-6.552-2.952-10.152.432-15.77 6.768.866 7.704-4.102 4.32-8.35-2.232-5.472.648-5.472-4.536-11.952-4.968-6.12-8.064-21.887-4.464-28.223 3.384-5.616 5.184-9-1.8-8.352-2.088-1.582-3.672-3.6-5.688-4.32-1.8-.214-3.384 1.154-5.4.72-3.168-.72-6.336-8.134-8.784-.934-.72 2.086 4.536 5.902 3.6 8.134z"/><path fill="#fff" d="M41.448 214.488l13.536 9.216-4.464-15.768L63.336 198l-16.2-.648-5.688-15.624-5.616 15.624-16.2.648 13.032 9.936-4.752 15.768m225.792-63.288l13.536 9.072-4.536-15.84 12.888-10.152-16.488-.432-5.4-15.552-5.616 15.552-16.488.432 13.104 10.152-4.752 15.84M359.976 51.696l13.536 9-4.752-15.552 12.888-10.152-16.272-.432-5.4-15.552-5.904 15.552-16.2.432 13.032 10.152-4.464 15.552m-304.92-9l-13.536 9 4.464-15.552-12.816-10.152 16.2-.432 5.688-15.552 5.616 15.552 16.2.432-13.032 10.152 4.752 15.552m145.512-9l13.536 9-4.536-15.552L222.6 34.992l-16.416-.432-5.616-15.552-5.472 15.552-16.416.432 12.816 10.152-4.464 15.552M41.448 377.424l13.536 9-4.464-15.768 12.816-10.152-16.2-.504-5.688-15.336L35.832 360l-16.2.504 13.032 10.152-4.752 15.768M147.936 268.92l13.32 9.072-4.464-15.552 13.032-10.152-16.704-.72-5.184-15.552-5.616 15.552-16.488.72 13.104 10.152-4.536 15.552"/><path d="M129 128.592l-5.832 2.088c-4.32 1.368-8.568 2.016-13.536 2.016-20.304 0-36.576-12.168-36.576-26.64 0-14.4 16.272-26.352 36.576-26.352 20.304 0 37.008 11.952 37.008 26.352 0 9.504-7.272 18.072-17.64 22.536z" fill="#009959"/><path d="M103.728 93.672c1.584 0 2.736-1.152 2.736-2.52 0-1.296-1.152-2.448-2.736-2.448-1.368 0-2.232 1.152-2.232 2.448 0 1.368.864 2.52 2.232 2.52zm-15.552 6.984c1.152 0 2.232-1.152 2.232-2.232 0-1.584-1.08-2.736-2.232-2.736-1.584 0-2.736 1.152-2.736 2.736 0 1.08 1.152 2.232 2.736 2.232zm13.752 16.488c1.152 0 2.304-1.152 2.304-2.736 0-1.152-1.152-2.232-2.304-2.232-1.368 0-2.664 1.08-2.664 2.232 0 1.584 1.296 2.736 2.664 2.736zm23.256-.216c1.584 0 2.736-1.152 2.736-2.52s-1.152-2.448-2.736-2.448c-1.368 0-2.52 1.08-2.52 2.448 0 1.368 1.152 2.52 2.52 2.52zm-10.152-11.52c1.152 0 2.232-1.152 2.232-2.736 0-1.368-1.08-2.448-2.232-2.448-1.584 0-2.736 1.08-2.736 2.448 0 1.584 1.152 2.736 2.736 2.736zm18.504-5.184c1.368 0 2.664-.72 2.664-2.304 0-1.296-1.296-2.448-2.664-2.448s-2.52 1.152-2.52 2.448c0 1.584 1.152 2.304 2.52 2.304z" fill="#d42e12"/><path d="M121.368 162.216c.216.288.648.936.216 1.152-1.584.936-3.168-.432-3.888-1.584 1.152.432 2.736 0 3.672.432z" fill="#fff"/><path d="M148.656 216.36l4.176-4.248h-8.928l-22.752-.72c-4.104 0-6.12-1.8-6.336-6.048v-70.848c0-.72.288-1.44.72-2.16-1.872.216-3.816.36-5.904.36-1.584 0-3.096-.072-4.536-.216.36.648.504 1.368.648 2.016v70.128c0 4.32-1.512 6.768-4.68 6.768l-13.104 1.152c-4.752.216-7.2 3.6-3.384 3.6l59.328.216h4.752z" fill="#703824"/><path fill="#fff" d="M387.912 424.08V55.368l-54.792 56.16v354.168m-41.688 31.608V154.152L236.64 210.24v328.608m-41.616-7.704V252.936l-54.792 56.016v180.576M38.928 412.632H39l59.544 45.216V351.576l-59.616 61.056z"/><path d="M387.912 424.08l15.12-11.448c8.352-6.336 15.048-14.472 19.584-23.616s6.984-19.368 6.984-29.88V12.744l-41.688 42.624V424.08zm-74.376 56.52l19.584-14.904V111.528l-41.688 42.624v343.152m-70.56 53.496l15.768-11.952V210.24l-41.616 42.696v278.208m-54.792-222.192l-41.688 42.624v106.272l41.688 31.68" fill="#d42e12"/></svg>