<svg xmlns="http://www.w3.org/2000/svg" xmlns:xlink="http://www.w3.org/1999/xlink" width="265.067" height="300" viewBox="0 0 265.067 300"><defs><path id="a" d="M1.966 1.953v67.805h23.506l.73 170.964 4.606 15.323 7.047 12.395 15.61 15.723 11.17 6.893 16.732 6.848 181.76.14.187-246.585-11.52-8.198-13.023-8.856-12.92-11.073-8.856-9.774-7.36-11.22z"/></defs><clipPath id="b"><use xlink:href="#a" overflow="visible"/></clipPath><linearGradient id="c" gradientUnits="userSpaceOnUse" x1="-252.941" y1="426.306" x2="-247.759" y2="426.306" gradientTransform="matrix(0 -57.14 -57.14 0 24491.621 -14154.894)"><stop offset="0" stop-color="#C4C6C8"/><stop offset=".096" stop-color="#CED0D1"/><stop offset=".53" stop-color="#F7F8F8"/><stop offset=".764" stop-color="#D5D6D7"/><stop offset="1" stop-color="#AEAFB2"/></linearGradient><path clip-path="url(#b)" fill="url(#c)" d="M1.966 1.953h261.348v296.09H1.966z"/><path fill="#1B1C20" d="M265.067 300H82.447c-3.87 0-15.58-5.612-15.695-5.676-16.095-7.777-27.6-18.296-35.155-32.184-3.01-5.544-8.077-16.832-8.077-30.148V71.706H0V0h1.964c18.54 0 99.885.162 153.71.296 28.634.045 51.242.1 53.952.1h1.2l.53 1.057c10.453 20.042 34.896 37.51 52.645 46.36l1.08.535v2.295c.076 28.217.4 172.78 0 247.415l-.01 1.942zM3.917 67.79h23.51v164.2c0 12.914 5.317 24.065 7.602 28.264 7.243 13.326 17.873 23.037 33.413 30.547 4.486 2.15 12.04 5.28 14 5.28h178.73c.38-75.033.067-217.04 0-245.3-18.66-9.51-41.808-26.452-52.72-46.48-5.582-.01-26.68-.06-52.79-.1-52.108-.11-130.014-.28-151.75-.28v63.87z"/><path fill="#FFF" d="M222.335 82.33v-26.6h15.845c5.313 0 7.218 3.813 7.218 9.587 0 5.045-2.438 9.202-7.218 9.202h-8.555v7.81h-7.29zm13.01-13.726c1.114 0 2.068-.698 2.068-3.29 0-2.57-.757-3.36-2.027-3.36h-5.76v6.65h5.72zm3.255 19.194c2.363 8.102 6.414 19.796 9.172 26.61h-8.07c-.532-1.25-1.216-3.09-1.917-5.104h-10.3c-.564 2.014-1.038 3.813-1.374 5.104h-7.9c1.99-6.986 6.46-19.63 9.28-26.61h11.11zm-5.514 6.427h-.943c-.767 2.12-1.786 5.37-2.81 8.762h6.36c-1.073-3.347-2.012-6.596-2.607-8.762m-5.906 35.423h4.702c1.797 0 2.672-.154 2.672-1.792 0-1.576-1-1.943-4.965-1.943-1.57 0-5.05.258-6.42.635l-1.305-6.4c2.485-.543 6.61-.915 9.67-.915 8.046 0 10.84 1.708 10.84 7.047 0 3.86-.99 5.923-5.77 6.32 5.05.208 6.302 2.462 6.302 6.82 0 5.664-3.396 7.603-11.37 7.603-2.84 0-7.235-.342-9.74-.84l1.3-6.566c1.327.385 4.917.647 6.485.647 4.23 0 5.34-.407 5.34-2.122 0-1.855-1.11-2.194-2.853-2.194h-4.897v-6.3zm-2.183 48.924v-26.617h19.447v6.403h-12.13v20.214m-9.98 32.055V184.02h15.846c5.313 0 7.218 3.823 7.218 9.582 0 5.03-2.438 9.203-7.218 9.203h-8.555v7.822h-7.29zm13.01-13.746c1.115 0 2.07-.662 2.07-3.273 0-2.56-.758-3.357-2.028-3.357h-5.76v6.636h5.72zm3.256 19.22c2.363 8.107 6.414 19.79 9.172 26.61h-8.07c-.532-1.265-1.216-3.09-1.917-5.107h-10.3c-.564 2.02-1.038 3.833-1.374 5.108h-7.9c1.99-6.967 6.46-19.623 9.28-26.606h11.11zm-5.514 6.41h-.943c-.767 2.138-1.786 5.386-2.81 8.78h6.36c-1.073-3.35-2.012-6.592-2.607-8.78m11.09 45.49h4.618l-.87 12.675h-6.498v-5.878h-17.044v5.878h-6.525l-.87-12.672h4.42c1.768-6.155 3.135-12.64 3.436-19.823h19.334V268zm-7.254-13.41h-5.34c-.46 4.315-1.153 8.775-2.413 13.41h7.75v-13.41z"/><path fill="#1B1C20" d="M221.59 80.843V54.24h15.843c5.3 0 7.21 3.808 7.21 9.572 0 5.04-2.442 9.217-7.21 9.217h-8.564v7.81h-7.28zm13.01-13.747c1.112 0 2.067-.693 2.067-3.284 0-2.545-.762-3.36-2.022-3.36h-5.776v6.645h5.73zm3.253 19.222c2.374 8.074 6.422 19.77 9.162 26.598h-8.06c-.532-1.262-1.216-3.09-1.9-5.12h-10.312c-.574 2.03-1.04 3.814-1.38 5.12h-7.9c1.99-6.996 6.456-19.624 9.28-26.598h11.11zm-5.508 6.4h-.943c-.757 2.14-1.797 5.378-2.824 8.782h6.373c-1.07-3.358-2.02-6.602-2.6-8.783m-5.904 35.423h4.678c1.806 0 2.686-.13 2.686-1.78 0-1.567-.995-1.944-4.96-1.944-1.57 0-5.04.268-6.414.632l-1.3-6.4c2.47-.55 6.596-.932 9.652-.932 8.06 0 10.852 1.726 10.852 7.077 0 3.856-.99 5.918-5.77 6.303 5.037.212 6.292 2.48 6.292 6.834 0 5.646-3.4 7.6-11.377 7.6-2.824 0-7.22-.336-9.732-.842l1.31-6.55c1.32.376 4.916.642 6.485.642 4.228 0 5.35-.414 5.35-2.125 0-1.855-1.122-2.19-2.862-2.19h-4.89v-6.325zm-2.19 48.924V150.45h19.433v6.43h-12.13v20.184m-9.966 32.06v-26.592h15.844c5.3 0 7.21 3.813 7.21 9.58 0 5.032-2.442 9.194-7.21 9.194h-8.564v7.818h-7.28zm13.01-13.73c1.113 0 2.068-.69 2.068-3.28 0-2.57-.76-3.357-2.02-3.357h-5.777v6.637h5.73zm3.254 19.2c2.374 8.105 6.422 19.78 9.162 26.613h-8.06c-.533-1.262-1.217-3.086-1.9-5.098h-10.313c-.574 2.01-1.04 3.812-1.38 5.092h-7.9c1.99-6.978 6.456-19.62 9.28-26.612h11.11zm-5.508 6.41h-.944c-.757 2.14-1.797 5.4-2.824 8.79h6.373c-1.07-3.35-2.024-6.605-2.604-8.79m11.09 45.488h4.61l-.862 12.69h-6.504v-5.892h-17.03v5.893h-6.54l-.88-12.69h4.43c1.774-6.147 3.14-12.634 3.43-19.817h19.345v19.816zm-7.264-13.39h-5.35c-.453 4.303-1.137 8.763-2.39 13.39h7.74v-13.39z"/><defs><path id="d" d="M9.883 61.828H33.4V231.99c0 11.563 4.804 21.615 6.87 25.418 6.628 12.174 16.417 21.074 30.77 27.997 4.308 2.077 9.965 4.354 11.74 4.716h122.21V10.27c-7.91-.018-42.722-.053-62.53-.108-43.273-.095-106.232-.24-132.577-.273v51.94z"/></defs><clipPath id="e"><use xlink:href="#d" overflow="visible"/></clipPath><linearGradient id="f" gradientUnits="userSpaceOnUse" x1="-243.989" y1="434.72" x2="-238.808" y2="434.72" gradientTransform="matrix(16.199 62.168 62.168 -16.199 -23005.023 22210.25)"><stop offset="0" stop-color="#007227"/><stop offset=".012" stop-color="#007227"/><stop offset="1" stop-color="#001C00"/></linearGradient><path clip-path="url(#e)" fill="url(#f)" d="M192.587-37.72l80.783 310.027L22.29 337.73-58.494 27.702"/><defs><path id="g" d="M86.622 67.86v14.625h10.546c-.777 42.796-21.034 115.2-51.328 132.1-1.964.02-4.296.157-4.388.187l-2.343.125v12.53h51.003l.06-13.138H74.59c18.297-20.147 35.247-73.028 39.33-106.7l32.656 106.694h-9.425v13.136h63.35v-13.13h-9.333l-41.43-131.805h11.212V67.86H86.62z"/></defs><clipPath id="h"><use xlink:href="#g" overflow="visible"/></clipPath><linearGradient id="i" gradientUnits="userSpaceOnUse" x1="-259.051" y1="427.017" x2="-253.869" y2="427.017" gradientTransform="matrix(-15.428 -34.157 -34.157 15.428 10775.052 -15141.679)"><stop offset="0" stop-color="#59595B"/><stop offset=".189" stop-color="#7F8083"/><stop offset=".37" stop-color="#A6A9AC"/><stop offset=".521" stop-color="#D9DBDC"/><stop offset=".806" stop-color="#A6A9AC"/><stop offset="1" stop-color="#E7E8E9"/></linearGradient><path clip-path="url(#h)" fill="url(#i)" d="M66.456 287.97L-20.75 94.9 173.153 7.32l87.206 193.07"/><path fill="#1B1C20" d="M158.478 70.35v9.665h-12.125l42.994 136.753h8.668v8.177H139.63v-8.177h10.288L112.358 94.04c0 33.606-22.614 106.333-44.025 122.73h19.354l-.03 8.176H41.583v-7.71s2.882-.187 4.893-.187C79.32 199.5 99.663 121.99 99.663 80.01H89.107v-9.66h69.372m4.95-4.97H84.154v19.582h10.468c-.736 21.074-5.923 47.793-13.93 71.132-9.768 28.52-22.343 48.338-35.528 56.037-1.85.04-3.772.157-3.87.17l-4.665.27v17.32H92.6l.01-4.92.03-8.18.016-4.97h-12.87c15.4-20.52 29.34-61.78 34.936-93.13l28.5 93.13h-8.558v18.07h68.313v-18.07h-10L153.104 84.963h10.328V65.38z"/><defs><path id="j" d="M137.44 243.98l1.545 5.185 3.91-1.477v12.59h5.836v-20.22z"/></defs><clipPath id="k"><use xlink:href="#j" overflow="visible"/></clipPath><linearGradient id="l" gradientUnits="userSpaceOnUse" x1="-331.014" y1="419.385" x2="-325.835" y2="419.385" gradientTransform="matrix(-3.189 -4.531 -4.531 3.189 1009.76 -2555.667)"><stop offset="0" stop-color="#68676C"/><stop offset=".024" stop-color="#7C7B7F"/><stop offset=".116" stop-color="#C2C2C4"/><stop offset=".181" stop-color="#EEEEEF"/><stop offset=".215" stop-color="#FFF"/><stop offset=".274" stop-color="#E3E4E5"/><stop offset=".37" stop-color="#AEAFB2"/><stop offset=".463" stop-color="#C2C3C4"/><stop offset=".691" stop-color="#EEEDEA"/><stop offset=".806" stop-color="#FFFEF9"/><stop offset=".963" stop-color="#F1F2F1"/><stop offset="1" stop-color="#EDEEEF"/></linearGradient><path clip-path="url(#k)" fill="url(#l)" d="M141.18 265.594l-13.255-18.838 17.067-12.01 13.258 18.837"/><path fill="#1B1C20" d="M148.256 240.725V259.8h-4.88V247l-4.08 1.54-1.27-4.266 10.23-3.55zm.953-1.342l-1.27.44-10.228 3.556-.86.29.258.87 1.27 4.26.29.983.96-.36 2.79-1.054v12.38h6.79v-21.37z"/><defs><path id="m" d="M157.686 247.336c0-.934 0-1.105 1.513-1.105 1.332 0 1.41.09 1.41 1.617 0 .197 0 .415-.006.623-.363.01-1.02.01-1.02.01-1.904 0-1.904-.085-1.904-1.14m-6.112.103c0 4.58 1.905 6.197 7.274 6.197h.182c-.95 1.6-2.52 3.647-4.5 5.85l-.716.79h7.25l.148-.148c3.937-4.174 5.695-8.096 5.695-12.73 0-5.202-1.724-6.71-7.705-6.71-5.77 0-7.625 1.637-7.625 6.748"/></defs><clipPath id="n"><use xlink:href="#m" overflow="visible"/></clipPath><linearGradient id="o" gradientUnits="userSpaceOnUse" x1="-331.977" y1="417.225" x2="-326.795" y2="417.225" gradientTransform="matrix(-3.148 -4.473 -4.473 3.148 996.454 -2525.206)"><stop offset="0" stop-color="#68676C"/><stop offset=".024" stop-color="#7C7B7F"/><stop offset=".116" stop-color="#C2C2C4"/><stop offset=".181" stop-color="#EEEEEF"/><stop offset=".215" stop-color="#FFF"/><stop offset=".274" stop-color="#E3E4E5"/><stop offset=".37" stop-color="#AEAFB2"/><stop offset=".463" stop-color="#C2C3C4"/><stop offset=".691" stop-color="#EEEDEA"/><stop offset=".806" stop-color="#FFFEF9"/><stop offset=".963" stop-color="#F1F2F1"/><stop offset="1" stop-color="#EDEEEF"/></linearGradient><path clip-path="url(#n)" fill="url(#o)" d="M156.65 267.496l-14.297-20.316 19.472-13.704 14.3 20.315"/><path fill="#1B1C20" d="M159.2 241.164c5.973 0 7.228 1.547 7.228 6.24 0 4.934-2.067 8.696-5.566 12.4h-5.974c2.057-2.295 3.96-4.73 4.95-6.645h-.99c-5.296 0-6.8-1.55-6.8-5.727 0-4.884 1.658-6.274 7.15-6.274m.383 7.79c.448 0 .95 0 1.48-.02.03-.36.03-.75.03-1.094 0-1.69-.2-2.084-1.89-2.084-1.643 0-1.98.27-1.98 1.574 0 1.39.25 1.623 2.366 1.623m-.38-8.74c-6.058 0-8.1 1.824-8.1 7.23 0 4.665 1.933 6.524 7.072 6.67-.94 1.446-2.315 3.187-3.995 5.057l-1.43 1.587h8.525l.286-.297c4.026-4.266 5.825-8.29 5.825-13.053 0-5.446-1.993-7.194-8.184-7.194m-.963 6.555c.062 0 .305-.056.963-.056.683 0 .85.073.87.094.01.033.074.25.074 1.038V248c-.198.005-.386.005-.563.005-.967 0-1.31-.06-1.417-.117.033 0 0-.145 0-.554 0-.44.053-.56.063-.577-.004.004 0 .01.01.01"/><defs><path id="p" d="M175.767 247.994v3.145h-1.845c.507-.92 1.186-2.09 1.845-3.15m-1.36-6.66c-2.04 2.99-5.315 8.563-7.575 12.68v2.243h8.934v4.02h5.705v-4.02h2.26v-5.12h-2.254V241.13l-7.063.203z"/></defs><clipPath id="q"><use xlink:href="#p" overflow="visible"/></clipPath><linearGradient id="r" gradientUnits="userSpaceOnUse" x1="-331.317" y1="415.434" x2="-326.135" y2="415.434" gradientTransform="matrix(-3.17 -4.505 -4.505 3.17 1006.645 -2544.113)"><stop offset="0" stop-color="#68676C"/><stop offset=".024" stop-color="#7C7B7F"/><stop offset=".116" stop-color="#C2C2C4"/><stop offset=".181" stop-color="#EEEEEF"/><stop offset=".215" stop-color="#FFF"/><stop offset=".274" stop-color="#E3E4E5"/><stop offset=".37" stop-color="#AEAFB2"/><stop offset=".463" stop-color="#C2C3C4"/><stop offset=".691" stop-color="#EEEDEA"/><stop offset=".806" stop-color="#FFFEF9"/><stop offset=".963" stop-color="#F1F2F1"/><stop offset="1" stop-color="#EDEEEF"/></linearGradient><path clip-path="url(#q)" fill="url(#r)" d="M172.43 268.23l-14.61-20.755 20.31-14.293 14.607 20.756"/><path fill="#1B1C20" d="M180.994 241.607v10.007h2.255v4.17h-2.26v4.016h-4.758v-4.016h-8.93v-1.77c2.038-3.592 5.413-9.356 7.496-12.407h6.19m-7.87 10.007h3.115v-5.235c-1.044 1.55-2.415 3.89-3.115 5.23m8.827-10.96h-7.654l-.277.413c-2.047 3-5.34 8.598-7.535 12.475l-.12.223v2.974h8.927v4.015h6.66v-4.015h2.254v-6.072h-2.253V240.65z"/><defs><path id="s" d="M185.45 241.132v12.038l.528-.063c1.126-.135 2.966-.203 4.084-.203 2.71 0 2.71.11 2.71 1.11 0 1.02 0 1.056-2.602 1.056-1.067 0-3.3-.18-4.04-.414l-.504-.15-1.073 5.445.445.11c1.468.36 4.78.577 6.506.577 5.812 0 7.68-1.638 7.68-6.754 0-4.633-1.81-6.19-7.184-6.19-.28 0-.605.01-.94.024v-1.237h7.605v-5.345H185.45z"/></defs><clipPath id="t"><use xlink:href="#s" overflow="visible"/></clipPath><linearGradient id="u" gradientUnits="userSpaceOnUse" x1="-331.637" y1="413.362" x2="-326.456" y2="413.362" gradientTransform="matrix(-3.155 -4.482 -4.482 3.155 1002.873 -2533.352)"><stop offset="0" stop-color="#68676C"/><stop offset=".024" stop-color="#7C7B7F"/><stop offset=".116" stop-color="#C2C2C4"/><stop offset=".181" stop-color="#EEEEEF"/><stop offset=".215" stop-color="#FFF"/><stop offset=".274" stop-color="#E3E4E5"/><stop offset=".37" stop-color="#AEAFB2"/><stop offset=".463" stop-color="#C2C3C4"/><stop offset=".691" stop-color="#EEEDEA"/><stop offset=".806" stop-color="#FFFEF9"/><stop offset=".963" stop-color="#F1F2F1"/><stop offset="1" stop-color="#EDEEEF"/></linearGradient><path clip-path="url(#t)" fill="url(#u)" d="M189.4 267.518l-14.023-19.926 18.962-13.345 14.02 19.925"/><path fill="#1B1C20" d="M198.187 241.607v4.39h-7.6v2.228c.503-.04.998-.062 1.418-.062 5.27 0 6.705 1.55 6.705 5.722 0 4.905-1.75 6.274-7.208 6.274-1.692 0-4.984-.22-6.394-.56l.88-4.49c.82.254 3.12.436 4.183.436 2.68 0 3.08-.078 3.08-1.537 0-1.375-.24-1.587-3.18-1.587-1.14 0-3.004.073-4.14.212v-11.033h12.26m.956-.955h-14.168v13.058l1.068-.128c1.083-.13 2.88-.202 4.025-.202.48 0 1.934 0 2.244.162h-.003c-.032 0-.01.134-.01.47 0 .4-.04.515-.05.53-.17.055-1.36.055-2.08.055-1.12 0-3.25-.197-3.893-.393l-1.015-.307-.2 1.03-.883 4.482-.175.903.89.21c1.5.366 4.86.583 6.613.583 6.026 0 8.163-1.886 8.163-7.222 0-4.865-2.08-6.67-7.66-6.67-.15 0-.306.006-.465.006v-.273h7.6v-6.293z"/><defs><path id="v" d="M27.32 22.38v24.044h7.276V28.897h6.546v17.527h7.228V22.38z"/></defs><clipPath id="w"><use xlink:href="#v" overflow="visible"/></clipPath><linearGradient id="x" gradientUnits="userSpaceOnUse" x1="-271.541" y1="424.797" x2="-266.36" y2="424.797" gradientTransform="matrix(-7.815 -9.899 -9.899 7.815 2169.444 -5911.753)"><stop offset="0" stop-color="#68676C"/><stop offset=".024" stop-color="#7C7B7F"/><stop offset=".116" stop-color="#C2C2C4"/><stop offset=".181" stop-color="#EEEEEF"/><stop offset=".215" stop-color="#FFF"/><stop offset=".274" stop-color="#E3E4E5"/><stop offset=".37" stop-color="#AEAFB2"/><stop offset=".463" stop-color="#C2C3C4"/><stop offset=".691" stop-color="#EEEDEA"/><stop offset=".806" stop-color="#FFFEF9"/><stop offset=".963" stop-color="#F1F2F1"/><stop offset="1" stop-color="#EDEEEF"/></linearGradient><path clip-path="url(#w)" fill="url(#x)" d="M35.403 56.662L15.627 31.61 40.29 12.142l19.773 25.05"/><path fill="#1B1C20" d="M47.892 22.855V45.95h-6.275V28.425h-7.5V45.95H27.79V22.856h20.102zm.954-.954H26.838v25.006h8.234v-17.53h5.597V46.9h8.172v-25z"/><defs><path id="y" d="M58.38 34.36c0-2.694.326-3.27 2.432-3.405v6.872c-2.053-.158-2.432-.795-2.432-3.467m9.706-3.446c2.457.134 2.664.756 2.664 3.446 0 2.72-.208 3.343-2.664 3.472v-6.918zm-7.274-8.535v2.46c-7.317.492-9.8 2.95-9.8 9.52 0 6.57 2.482 9.03 9.8 9.55v2.51h7.274v-2.537c7.51-.544 10.174-3.066 10.174-9.53 0-6.47-2.665-9-10.174-9.518v-2.463h-7.274z"/></defs><clipPath id="z"><use xlink:href="#y" overflow="visible"/></clipPath><linearGradient id="A" gradientUnits="userSpaceOnUse" x1="-271.614" y1="423.407" x2="-266.429" y2="423.407" gradientTransform="matrix(-7.772 -9.845 -9.845 7.772 2159.743 -5882.77)"><stop offset="0" stop-color="#68676C"/><stop offset=".024" stop-color="#7C7B7F"/><stop offset=".116" stop-color="#C2C2C4"/><stop offset=".181" stop-color="#EEEEEF"/><stop offset=".215" stop-color="#FFF"/><stop offset=".274" stop-color="#E3E4E5"/><stop offset=".37" stop-color="#AEAFB2"/><stop offset=".463" stop-color="#C2C3C4"/><stop offset=".691" stop-color="#EEEDEA"/><stop offset=".806" stop-color="#FFFEF9"/><stop offset=".963" stop-color="#F1F2F1"/><stop offset="1" stop-color="#EDEEEF"/></linearGradient><path clip-path="url(#z)" fill="url(#A)" d="M61.474 59.675L39.32 31.61 67.797 9.13l22.155 28.06"/><path fill="#1B1C20" d="M67.615 22.853v2.437c7.856.45 10.174 2.917 10.174 9.074 0 6.2-2.35 8.613-10.18 9.083v2.502h-6.32V43.46c-7.76-.46-9.806-2.882-9.806-9.104 0-6.197 2.047-8.638 9.805-9.074V22.85h6.324m0 15.476c3.256-.09 3.613-.918 3.613-3.965 0-3.05-.357-3.85-3.613-3.94v7.91m-6.325 0V30.46c-2.918.1-3.386.89-3.386 3.907 0 2.984.498 3.854 3.385 3.966m7.273-16.43h-8.228v2.5c-7.22.598-9.8 3.283-9.8 9.968 0 6.768 2.492 9.374 9.8 9.99V46.9h8.23v-2.576c7.494-.633 10.17-3.312 10.17-9.964 0-6.586-2.77-9.35-10.17-9.967V21.9zm0 15.428V31.42c1.652.154 1.71.658 1.71 2.943 0 2.3-.058 2.818-1.71 2.963m-8.228-.026c-1.306-.188-1.483-.777-1.483-2.938 0-2.21.13-2.735 1.483-2.892v5.83z"/><defs><path id="B" d="M102.322 22.38l-7.864.247c-2.032 3.757-4.473 7.43-6.292 9.84V22.38h-7.27v24.044h7.27V35.95c2.576.528 4.494 2.534 6.842 10.14l.11.334h8.508l-.177-.607c-2.7-9.364-5.03-11.723-7.027-12.772 1.176-1.483 3.436-4.914 6.31-9.95l.41-.715h-.826z"/></defs><clipPath id="C"><use xlink:href="#B" overflow="visible"/></clipPath><linearGradient id="D" gradientUnits="userSpaceOnUse" x1="-271.415" y1="422.076" x2="-266.232" y2="422.076" gradientTransform="matrix(-7.827 -9.915 -9.915 7.827 2179.521 -5926.479)"><stop offset="0" stop-color="#68676C"/><stop offset=".024" stop-color="#7C7B7F"/><stop offset=".116" stop-color="#C2C2C4"/><stop offset=".181" stop-color="#EEEEEF"/><stop offset=".215" stop-color="#FFF"/><stop offset=".274" stop-color="#E3E4E5"/><stop offset=".37" stop-color="#AEAFB2"/><stop offset=".463" stop-color="#C2C3C4"/><stop offset=".691" stop-color="#EEEDEA"/><stop offset=".806" stop-color="#FFFEF9"/><stop offset=".963" stop-color="#F1F2F1"/><stop offset="1" stop-color="#EDEEEF"/></linearGradient><path clip-path="url(#C)" fill="url(#D)" d="M89.623 57.476L69.203 31.61l25.695-20.285 20.42 25.866"/><path fill="#1B1C20" d="M102.33 22.855c-3.41 5.964-5.77 9.38-6.67 10.354 2.192.95 4.52 2.97 7.334 12.74h-7.53c-2.518-8.167-4.62-10.16-7.773-10.56v10.56h-6.32V22.85h6.32v11c1.76-2.17 4.717-6.42 7.19-11h7.45m1.64-.954h-9.66l-.27.504c-1.713 3.166-3.72 6.285-5.4 8.61V21.9h-8.22v25h8.22V36.566c2.127.698 3.828 2.892 5.92 9.658l.208.676h9.494l-.354-1.214c-2.348-8.16-4.463-11.3-6.78-12.778 1.203-1.597 3.25-4.716 6.028-9.587l.812-1.42z"/></svg>