<svg baseProfile="tiny" xmlns="http://www.w3.org/2000/svg" width="488.068" height="566" viewBox="0 0 488.068 566"><path fill="#D49F45" d="M488.018 0H.05L0 416.076c0 25.574 6.87 45.36 20.417 58.81 13.44 13.343 33.132 19.648 58.502 20.36 73.12 2.045 119.193 18.247 155.322 58.827l9.79 11.927 9.785-11.928c36.13-40.58 82.204-56.782 155.327-58.827 25.37-.712 45.063-7.018 58.503-20.36 13.55-13.45 20.42-33.235 20.42-58.81L488.017 0z"/><path fill="#003A80" d="M409.148 482.332c-76.364 2.456-128.693 19.76-165.114 61.657-36.42-41.9-88.75-59.207-165.114-61.66-43.856-1.387-66.26-21.736-66.26-66.26l.03-226.2h462.69l.027 226.202c0 44.522-22.403 64.872-66.26 66.256z"/><path fill="#DA001A" d="M12.71 12.66h462.648l.02 164.55H12.688"/><path fill="#D49F45" d="M298.872 222.32v227.01h144.746v-72.2h-64.702V222.32"/><path fill="#FFF" d="M369.067 232.168v154.808h64.706v52.507H308.72V232.168"/><path fill="#D49F45" d="M35.463 335.824c0 65.632 53.392 119.024 119.018 119.024 65.638 0 119.03-53.393 119.03-119.024 0-65.63-53.392-119.018-119.024-119.018-65.625 0-119.017 53.39-119.017 119.018z"/><path fill="#FFF" d="M45.9 335.824c0-59.872 48.71-108.58 108.58-108.58 59.876 0 108.586 48.708 108.586 108.58 0 59.873-48.71 108.586-108.585 108.586-59.87 0-108.58-48.713-108.58-108.586z"/><path fill="#D49F45" d="M217.665 268.335c-6.685 2.774-9.906-2.15-10.835-5.53-3.975 3.974-1.782 8.88-.205 10.258-1.3.67-6.73 3.776-6.977 10.426 5.49 1.55 10.66-.97 12.246-2.1.348 1.79 2.798 4.83 8.043 3.82-2.708-2.877-3.972-8.03-.12-10.187l1.01-.523c5.657-2.435 9.01 1.806 9.918 3.833 1.866 4.173.25 9.173-3.607 11.147l-25.303 13.07c-12.98 6.554-11.696 18.75-8.893 24.333l11.63 23.037c2.172 4.59-1.082 7.757-3.403 8.82-3.72 1.7-8.2.23-9.96-3.213l-15.635-30.56c.87.7 3.217 1.553 5.285.615-6.862-11.124 5.3-10.69 1.318-20.76.89 1.188 3.775 1.92 5.183 1.406-6.125-13.765 7.735-13.627.694-24.518.747.616 3.687.43 4.932-.613-8.583-8.558-.855-14.34-11.308-17.833 1.52.064 3.44-1.53 3.822-3.344-7.168.497-10.58-8.75-20.86-7.444-4.208.533-7.914 1.687-11.675 2.873-2.158.68-3.79-.11-5.774.88-.752.754-1.59 3.12-1.59 3.12-2.68.575-7.06 1.81-8.265 3.102-.37 1.36-.004 2.65.516 3.685 0 0 .63.22.78.986.75 3.767 1.975 7.06 4.148 9.015l6.355-1.58s5.037 2.792 6.66 6.98c.94 2.44.54 3.963-2.438 4.007-2.55.043-7.544-1.047-9.533-1.365-.84 2.15-1.23 6.277.646 7.688 1.02.764 6.366.495 8 .37-.414 5.828-4.613 9.383-11.81 7.043-20.624-6.692-33.86-8.63-41.365-25.392.277-1.17 1.716-12.643-6.56-15.566 1.034 3.223 1.9 6.98.996 10.11-1.36-5.33-5.36-8.84-11.64-8.21 3.56 2.523 5.77 5.687 5.798 8.92-2.647-1.95-7.495-2.583-11.087-1.047 17.086 7.72 11.27 20.884 3.73 22.09 3.113 2.575 8.15 1.875 11.19 0l10.234 13.092c-1.906.4-3.795 1.91-4.497 3.19 2.068-.117 5.354.222 6.726 1.563.767 2.077 1.783 5.77.416 11.125 4.006-2.09 5.624-4.986 6.193-7.588l15.055 8.813c-7.6 4-30.31 15.424-41.916 10.08-1.764-.815-13.186-5.72-19.48.68 4.264-.143 8.405 1.6 9.153 3.31-4.398.484-9.71 2.403-11.05 7.315 1.658-1.07 7.207-1.46 10.07-.97-2.5 1.983-4.49 5.54-4.2 10.125 0 0 9.175-8.487 16.707-6.303 3.506 1.016 1.8 7.155 1.112 8.63 5.683-.82 7.13-6.448 7.146-6.904l17.527-.73c1.174.57 1.673 3.07.59 5.068 3-.834 4.33-2.61 5.082-5.44 3.68.444 5.72 2.95 6.146 6.69 2.55-2.635 2.207-6.71 1.155-8.798l19.09-4.607 6.63 7.316s-34.16 21.348-45.79 20.79c1.805 4.117 10.17 3.656 14.04 2.2-1.187 2.145-.34 5.246-.34 5.246s2.576.17 5.24-3.215c0 0 5.12 10.23 4.298 12.035-2.397 5.265-19.11 6.397-19.11 6.397-3.04-2.417-11.4-5.238-16.055-1.7 3.572.153 6.446 2.875 6.907 4.57-1.957.014-8.79.83-10.34 7.175 3.833-1.747 8.47-1.747 9.89-.987-2.17 1.55-4.856 5.154-4.16 9.626 4.93-5.21 11.776-7.555 16.33-6.54 2.666.592 2.813 4.587 2.04 7.435 3.795-1 5.977-4.914 6.783-6.98l18.275-5.693s.59 1.628.555 4.23c2.284-.26 4.538-3.076 4.708-5.1 0 0 3.43 5.21 8.82 4.3-3.13-5.284-7.44-18.888-7.42-22.38.027-4.41 13.34-7.033 15.57-7.7l6.448 9.414s-6.555 3.205-7.68 7.41c5.745-2.54 10.374-2.286 11.843-1.924 1.26 1.33 2.516 3.69 3.038 6.485 1.25-.8 2.875-3.16 3.044-5.58 14.61 4.63 14.63 6.87 11.07 21.618-6.633-.65-17.21-.984-19.5 5.79 4.01-1.105 8.62-.39 11.112.57-3.108 1.055-8.684 4.294-7.35 10.684 0 0 5.398-6.04 11.607-4.97-3.326 2.047-7.48 6.34-3.83 11.7 3.296-6.794 11.003-7.475 14.23-6.826l4.574-9.902c1.86-4.026 6.98-3.52 7.547 1.6 4.84-5.947-.6-12.454-2.15-13.222l4.18-8.98c1.34.13 4.81 1.01 6.85-1.4-2.133-.648-4.008-2.04-4.837-3.516 2.13.148 7.802 1.02 10.49-2.685-9.113-1.825-30.35-14.78-31.95-22.76 4.16 3.377 10.186 4.35 15.407 2.014 3.37-1.51 5.923-4.135 7.246-7.43 3.772-7.794 13.734-1.463 15.29-15.89-3.985 5.65-12.776 1.893-14.508 8.91-3.53-15.537 18.896-5.39 19.05-28.856-5.53 9.596-25.32 6.174-23.694 18.31-8.475-25.062 29.505-8.827 27.426-41.355-7.413 14.694-36.863 10.804-34.077 28.18l-1.61-3.194c-2.226-4.587-1.71-10.96 5.2-14.706l25.984-13.393c7.08-3.63 10.067-12.353 6.764-20.15-1.994-4.716-9.354-11.882-19.403-7.163zm-68.614-6.445s-.613-2.015 1.91-2.512c2.83-.555 5.52 1.136 7.827 1.927-1.445 1.753-7.014 2.8-9.73.585zm.12 15.166c-11.173 5.03-20.504 4.722-29.072-.062 1.86 6.054 18.092 13.98 29.073.062z"/><path fill="#FFF" d="M170.99 153.298c-4.253 4.118-9.437 6.422-16.323 6.422-6.887 0-12.158-2.304-16.41-6.422-6.12-5.928-5.95-13.253-5.95-23.38 0-10.13-.168-17.454 5.95-23.382 4.252-4.118 9.523-6.425 16.41-6.425 6.886 0 12.07 2.31 16.322 6.43 6.12 5.93 6.03 13.254 6.03 23.38 0 10.13.085 17.455-6.036 23.38zm-8.757-39.847c-1.7-1.892-4.337-3.13-7.567-3.13s-5.952 1.237-7.652 3.13c-2.298 2.477-2.89 5.19-2.89 16.47s.592 13.997 2.89 16.467c1.7 1.893 4.422 3.128 7.652 3.128s5.867-1.234 7.567-3.127c2.295-2.47 2.973-5.187 2.973-16.465s-.677-13.994-2.973-16.465zM77.81 149.02H52.476v-47.78l-.628-.63H41.29l-.63.63v57.36l.63.63h36.507l.63-.63v-8.96m44.86-49.03H111.4l-11.14 23.626-11.307-23.626H76.75l-.414.412 17.973 34.165v23.41l.63.63h10.47l.63-.63v-23.41l17.863-33.957m105.368-.62l-.627.63v35.26l-23.974-35.895h-9.91l-.63.63v57.36l.63.63h10.555l.63-.63v-35.35l23.978 35.98h9.91l.63-.63v-57.36l-.63-.63m108.583.63l-.63-.63H339.3l-.613.61-21.614 57.548.464.46h11.688l3.656-10.373h21.51l3.577 10.374h11.696l.458-.456-21.697-57.532zm-12.22 37.984l7.652-21.327 7.393 21.325H336.2zm45.367-38.617l-.634.625v57.364l.636.63h10.555l.63-.63v-57.358l-.63-.63m-97.37 0l-.63.63V136.5l-23.975-35.895h-9.912l-.63.63v57.36l.63.63h10.555l.63-.63v-35.35l23.974 35.98h9.912l.63-.63v-57.36l-.63-.63m140.754 28.898c-2.55-2.307-6.035-3.788-11.56-4.53l-7.14-.986c-2.467-.33-4.424-1.237-5.615-2.306-1.273-1.15-1.784-2.72-1.784-4.2 0-4.03 3.06-7.404 9.355-7.404 3.843 0 8.23.485 11.962 3.674l.87-.05 6.612-6.33v-.807c-5.09-4.562-11.01-6.455-19.107-6.455-13.096 0-21.086 7.33-21.086 17.787 0 4.94 1.444 8.727 4.333 11.524 2.726 2.555 6.55 4.12 11.738 4.86l7.312.986c2.802.415 4.163.987 5.354 2.056 1.273 1.156 1.87 2.885 1.87 4.94 0 4.694-3.742 7.247-10.713 7.247-5.4 0-10.393-1.168-14.173-4.56l-.888.05-6.747 6.532v.88c5.854 5.498 12.693 7.306 21.64 7.306 12.668 0 22.446-6.42 22.446-17.784 0-5.187-1.446-9.468-4.676-12.432zM74.15 82.425c-4.046 4.044-8.98 6.307-15.538 6.307-6.554 0-11.57-2.263-15.616-6.308-5.83-5.826-5.666-13.028-5.666-22.978 0-9.953-.164-17.155 5.666-22.984 4.045-4.042 9.062-6.31 15.616-6.31 6.557 0 11.492 2.268 15.537 6.31 5.82 5.83 5.74 13.03 5.74 22.984 0 9.95.08 17.152-5.746 22.978zM65.813 43.26c-1.618-1.862-4.127-3.077-7.202-3.077s-5.66 1.215-7.28 3.078c-2.184 2.43-2.75 5.1-2.75 16.19 0 11.08.565 13.75 2.75 16.18 1.62 1.86 4.208 3.076 7.284 3.076s5.586-1.21 7.204-3.074c2.187-2.427 2.833-5.1 2.833-16.18 0-11.086-.646-13.755-2.833-16.185zm281.612 41.063l-4.492-4.49c3.642-5.34 3.563-11.73 3.563-20.387 0-9.953.078-17.155-5.748-22.984-4.045-4.042-8.983-6.31-15.536-6.31-6.554 0-11.57 2.268-15.616 6.31-5.826 5.83-5.663 13.03-5.663 22.984 0 9.95-.163 17.152 5.663 22.978 4.045 4.045 9.063 6.308 15.616 6.308 4.532 0 8.416-1.048 11.652-3.154l4.652 4.652h.894l5.015-5.017v-.89zm-13.23-13.23l-4.29-4.287-5.986 5.908 5.012 4.938c-1.055.724-2.346 1.048-3.724 1.048-3.07 0-5.663-1.212-7.28-3.075-2.19-2.427-2.755-5.1-2.755-16.18 0-11.085.566-13.754 2.754-16.185 1.62-1.863 4.21-3.078 7.28-3.078 3.076 0 5.585 1.215 7.202 3.078 2.184 2.43 2.832 5.1 2.832 16.186 0 5.824-.164 9.14-1.05 11.647zm-209.817 7.123h-22.993V31.27l-.63-.63H90.77l-.63.63v56.347l.63.63h33.608l.63-.63v-8.773M163 30.64h-11.263l-10.6 23.22-10.763-23.22h-11.276l-.625.624 17 33.357v23l.628.63h9.91l.63-.63v-23l17-33.353m48.25-.624L196.92 61.79l-15.05-31.15h-10.46l-.628.63v56.355l.634.625h9.983l.63-.625V54.668l11.085 21.848h7.608l11.004-21.848v32.95l.63.63h9.982l.632-.625V31.27l-.628-.63m71.215 0h-9.99l-.627.624v56.36l.628.624h9.99l.63-.63V31.27m94.06-.63l-.63.627v36.836c0 6.635-3.965 10.598-10.034 10.598-6.07 0-9.954-3.96-9.954-10.592V31.27l-.63-.63h-9.985l-.633.63v37.236c0 12.22 9.386 20.227 21.2 20.227 11.815 0 21.202-8.008 21.202-20.227V31.27l-.63-.63h-9.91zm32.07 47.576V64.218h22.106l.63-.63v-8.774l-.63-.63h-22.11v-13.51h26.074l.63-.634v-8.77l-.63-.63h-36.686l-.63.63v56.347l.63.63h36.687l.63-.63v-8.773l-.63-.628M256.09 30.64h-21.707l-.625.624v56.353l.63.63h9.99l.63-.63V68.575h11.086c11.896 0 19.016-9.176 19.016-18.97 0-9.79-7.12-18.966-19.016-18.966zm-.57 27.822h-10.516v-17.79h10.517c5.1 0 8.337 4.242 8.337 8.932 0 4.696-3.24 8.858-8.34 8.858z"/></svg>