<svg version="1" xmlns="http://www.w3.org/2000/svg" width="557.584" height="593.525" viewBox="0 0 557.584 593.525"><path d="M539.75 2.562L539.163 0l-2.407 1.06c-68.01 29.924-131.25 42.692-211.458 42.692-80.21 0-143.453-12.768-211.464-42.693L111.427 0l-.59 2.562C101.384 43.648 95.633 84.76 93.717 124.8c-2.72-.265-5.475-.416-8.264-.416C38.333 124.384 0 162.72 0 209.844s38.333 85.46 85.452 85.46c8.113 0 15.953-1.163 23.393-3.29 31.724 134.393 110.12 243.997 215.417 300.95l1.035.56 1.035-.56c84.096-45.49 152.348-125.847 192.183-226.27C562 257.074 569.343 131.158 539.75 2.562z"/><path fill="#FFD500" d="M536.06 6.083c-67.667 29.415-130.878 42.02-210.763 42.02-79.884 0-143.095-12.605-210.764-42.02C105.44 46.247 99.97 86.133 98.1 125.325c41.15 6.13 72.82 41.692 72.82 84.52 0 37.558-24.367 69.513-58.116 80.946 6.02 25.46 13.79 50.28 23.32 74.3 39.29 99.06 106.458 178.35 189.173 223.46 82.715-45.11 149.883-124.4 189.173-223.454 25.787-65.002 38.764-135.797 38.764-209.502 0-48.836-5.73-98.952-17.173-149.503z"/><path d="M521.346 30.336C459.746 54.26 399.28 64.93 325.296 64.93c-73.98 0-134.444-10.67-196.044-34.594l-2.43-.943-.493 2.56c-5.07 26.26-8.59 52.67-10.48 78.498l-.126 1.7 1.613.53c42.11 13.858 70.403 52.908 70.403 97.17 0 37.51-20.54 71.975-53.61 89.94l-1.506.82.444 1.658c5.22 19.468 11.51 38.52 18.69 56.623 36.19 91.22 97.427 165.67 172.437 209.634l1.1.645 1.1-.645c75.01-43.964 136.245-118.414 172.433-209.64 24.93-62.853 37.573-131.253 37.573-203.3 0-40.286-4.082-81.882-12.135-123.63l-.492-2.56-2.43.946z"/><path fill="#E2001A" d="M325.3 564.086C251.63 520.53 191.46 447.154 155.81 357.28c-6.923-17.455-12.992-35.808-18.083-54.56 33.567-18.957 54.373-54.358 54.373-92.877 0-45.563-28.78-85.778-71.762-100.693 1.836-24.312 5.14-49.124 9.81-73.833 61.274 23.458 121.593 33.96 195.15 33.96v494.81z"/><path fill="#172983" d="M325.297 69.28c73.56 0 133.883-10.504 195.16-33.964 7.68 40.624 11.598 81.074 11.598 120.27 0 71.492-12.538 139.352-37.268 201.697-35.65 89.873-95.82 163.248-169.488 206.805l-.01-494.81z"/><path fill="#FFD500" d="M68.08 277.732c2.745-3.44 4.76-8.248 4.76-13.815 0-4.46-1.356-9.414-4.604-14.536-30.534-3.81-51.987-27.42-59.642-65.37-2.738 8.125-4.244 16.81-4.244 25.84 0 32.81 19.59 61.115 47.68 73.877 5.292 1.836 11.695-.53 16.05-5.987zM35.35 160.845c2.894 7.387 10.836 14.923 24.47 14.354 18.558-24.54 49.707-31.34 86.387-19.02-14.874-16.82-36.59-27.45-60.755-27.45-17.704 0-34.09 5.72-47.44 15.38-4.153 3.736-5.212 10.217-2.662 16.727z"/><path fill="#FFD500" d="M62.946 178.205c-1.36 8.568-.296 15.335 3.2 20.097 3.51 4.784 9.56 7.782 18.408 9.187 6.4-7.9 12.974-12.14 20.07-12.92 6.566-.73 13.484 1.61 20.59 6.93 7.444-12.918 19.354-16.217 28.366-14.858 4.24.64 7.94 2.263 10.813 4.583-2.46-10.438-6.94-20.1-13.01-28.556-.034-.01-.07-.016-.103-.03-37.815-14.816-69.97-9.137-88.334 15.557z"/><path fill="#FFD500" d="M69.305 245.16c8.105-3.106 13.435-7.414 15.81-12.823 2.39-5.438 1.957-12.186-1.26-20.56-10.025-1.595-16.998-5.152-21.216-10.9-3.91-5.32-5.32-12.487-4.27-21.29-14.93.016-23.75-8.662-27.077-17.156-1.55-3.95-1.997-7.93-1.444-11.55-7.607 7.178-13.825 15.8-18.22 25.435.01.044.03.084.034.13 6.074 40.16 27.07 65.167 57.636 68.724zm83.625-54.21c-7.837-1.18-18.31 1.963-24.628 14.042 3.343 7.93 5.037 16.017 5.037 24.12 0 20.865-10.94 41.795-31.87 60.248 37.08-7.458 65.1-40.273 65.1-79.515 0-2.627-.14-5.224-.388-7.788-.967-5.598-6.27-10.052-13.26-11.106z"/><path fill="#FFD500" d="M124.117 206.174c-6.746-5.466-13.144-7.93-19.018-7.28-5.91.65-11.53 4.365-17.17 11.33 3.65 9.502 4.04 17.322 1.16 23.862-2.654 6.044-8.156 10.85-16.31 14.342 7.48 12.915 4.38 24.89-1.31 32.017-2.674 3.352-5.93 5.74-9.377 7.067 7.4 2.23 15.235 3.442 23.35 3.442 2.654 0 5.275-.137 7.863-.387.04-.035.07-.074.11-.107 31.724-25.34 42.882-56.033 30.693-84.286z"/><path d="M443.412 281.123c22.94-22.876 31.263-46.545 31.263-66.12 0-8.63-1.61-16.464-4.283-23.082-8.178-20.24-26.992-32.82-49.1-32.82h-71.117l-.022 52.13H301.44v-90.15h110.087v-26.2H275.25v116.343c-16.073.006-47.453.558-68.92 22.013-14.786 14.777-22.283 37.004-22.283 66.063 0 39.214 16.28 81.486 47.08 122.243 29.653 39.243 71.213 75.263 120.185 104.163l3.28 1.937V496.77l-1.103-.624c-38.64-21.896-74.3-52.92-100.42-87.36-28.1-37.047-42.95-74.773-42.95-109.104 0-20.998 5.32-36.918 15.82-47.318 15.523-15.378 38.335-15.16 49.3-15.057h.002v169.79h26.19l-.046-169.73h48.755l.024 241.86 3.105-1.472c92.57-43.837 116.414-91.063 120.114-122.963.367-3.17.55-6.332.55-9.477 0-24.475-11.053-47.782-30.53-64.192zm-66.89-43.754c3.78 0 31.832.04 31.832.04v-26.19h-31.83l.02-26.1h41.915c14.78 0 25.73 8.77 28.58 22.88.47 2.343.71 4.802.71 7.355 0 23.93-21.26 56.05-71.23 77.992v-55.98zm69.925 114.25c-2.856 28.63-29.546 59.79-69.882 81.94l-.087-108.37c9.82-4.97 31.256-16.44 45.56-25.308 16.357 13.756 24.68 29.31 24.68 46.34 0 1.78-.09 3.576-.27 5.39z"/><path fill="#FFD500" d="M438.898 282.918l-1.936-1.545 1.78-1.72c23.26-22.455 31.59-45.66 31.59-64.647 0-8.033-1.492-15.31-3.976-21.458-7.612-18.847-24.46-30.1-45.066-30.1h-66.77c0 3.994-.022 52.122-.022 52.122H297.09v-98.844h110.087V99.23H279.6v116.34h-3.057c-15.048-.008-46.36-.025-67.138 20.74-13.94 13.933-21.008 35.125-21.008 62.986 0 38.26 15.976 79.625 46.2 119.622 28.64 37.9 68.606 72.736 115.645 101.006v-20.658c-38.71-22.145-74.42-53.285-100.636-87.853-28.674-37.81-43.832-76.445-43.832-111.732 0-22.2 5.757-39.16 17.112-50.4 16.813-16.655 41.752-16.42 52.4-16.317l4.314.028v169.76h17.49c0-4.24-.044-169.727-.044-169.727h57.456s.02 232.55.022 239.3c88.158-42.547 111.018-87.58 114.55-118.027.348-2.996.52-5.99.52-8.965 0-23.936-11.092-46.772-30.696-62.406zm-66.7-102.147h46.262c16.978 0 29.563 10.11 32.846 26.38 5.513 27.328-15.884 66.24-76.114 91.577l-3.02 1.27V233.02l31.833.044v-17.49H372.17l.027-34.8zm78.577 171.28c-3.122 31.3-31.297 63.87-75.367 87.13l-3.188 1.684-.095-118.344 1.204-.603c9.39-4.7 33.06-17.314 47.77-26.562l1.322-.83 1.21.99c19.83 16.18 29.21 35.733 27.134 56.545z"/></svg>