<svg xmlns="http://www.w3.org/2000/svg" width="464.398" height="828.555"><defs><clipPath id="a"/><clipPath id="b"/></defs><g clip-path="url(#a)" transform="matrix(21.357 0 0 -21.357 -2774.975 9039.565)"><g clip-path="url(#b)"><path d="M140.756 384.885c-6.79 3.83-9.967 9.532-10.402 17.453v7.138h20.913v-7.246c-.435-7.922-3.72-13.515-10.51-17.345" fill="#9f8c50"/><path d="M140.756 384.885c-6.79 3.83-9.967 9.532-10.402 17.453v7.138h20.913v-7.246c-.435-7.922-3.72-13.515-10.51-17.345" fill="none" stroke="#231f20" stroke-width=".373" stroke-linecap="round"/><path d="M140.756 386.452c-10.185 6.53-8.966 16.365-8.966 16.365h18.063s.957-10.097-9.097-16.365" fill="#fff"/><path d="M140.756 386.452c-10.185 6.53-8.966 16.365-8.966 16.365h18.063s.957-10.097-9.097-16.365" fill="none" stroke="#231f20" stroke-width=".373"/><path d="M133.705 402.687v-8.38s.892-1.914 2.437-3.742v12.122m11.448.043l.065-9.01s-1.285-2.306-2.48-3.482l-.023 12.492" fill="#ee2722"/><path d="M140.756 386.452c-10.185 6.53-8.966 16.365-8.966 16.365h18.063s.957-10.097-9.097-16.365" fill="none" stroke="#231f20" stroke-width=".373" stroke-linecap="round"/><path d="M140.906 422.058l.3.808h-.993l.3-.808c-.16-.046-.277-.162-.346-.323l-.785.277v-.97l.785.277c.07-.167.185-.28.346-.33l-.16-.44c.09.048.23.094.345.094.14 0 .254-.047.37-.093l-.162.44c.16.046.277.16.323.323l.8-.278v.97l-.806-.278c-.047.16-.163.276-.324.322m4.11-2.906c-.37.114-.852.068-1.5-.07l-1.57-.393c-.275-.045-.53-.07-.74-.045.026-.115.07-.23.096-.37v-.02h.02c.093 0 .186-.025.3-.025.14 0 .53.047 1.224.116.486.07.855.048 1.086-.044.253-.07.44-.254.553-.532.02-.07.07-.184.07-.277.043-.184.043-.37.043-.577-.024-.278-.07-.578-.186-.878-.07-.208-.186-.416-.3-.67-.116-.207-.23-.415-.393-.646-.37-.6-.624-1.038-.74-1.293-.207-.417-.322-.83-.322-1.247.162 0 .347-.024.53-.047.025.6.21 1.155.58 1.663.207.3.6.715 1.176 1.27.046.046.092.092.14.115.44.46.74.808.876 1.108.092.162.162.323.185.485.07.35.046.716-.093 1.132v.046c-.23.645-.578 1.04-1.04 1.2m-3.555.736c0 .208-.07.37-.208.53-.07.047-.115.094-.184.14-.115.046-.23.092-.37.092-.115 0-.253-.05-.345-.095-.07-.046-.116-.093-.185-.14-.138-.16-.23-.32-.23-.53 0-.208.092-.393.23-.554.093-.07.185-.138.3-.184.07-.025.162-.048.23-.048.094 0 .186.022.255.046.116.046.208.115.3.184.14.16.208.345.208.553" fill="#9f8c50"/><path d="M141.3 418.248v.023c-.024.14-.07.26-.093.37-.092.23-.162.42-.255.51-.068-.02-.16-.043-.253-.043-.07 0-.168.023-.237.046-.093-.092-.162-.23-.208-.415-.047-.116-.093-.254-.117-.393-.023-.044-.023-.044-.023-.07-.068-.23-.114-.482-.137-.736-.09-.53-.114-1.11-.114-1.78v-.23c0-.877.093-1.615.254-2.262.14-.576.302-.922.487-1.015h.206c.185.093.346.44.485 1.016.16.647.23 1.41.253 2.31v.183c0 .67-.045 1.247-.114 1.778-.023.255-.07.51-.14.717" fill="#9f8c50"/><path d="M141.437 417.532c.115-.07.23-.115.392-.162.433-.16 1.13-.3 2.03-.392l.74-.07c0 .21 0 .393-.05.578 0 .092-.047.208-.07.277h-.047c-.877-.046-1.64.023-2.31.185-.322.092-.6.185-.807.3h-.023c.07-.208.116-.462.14-.716" fill="#9f8c50"/><path d="M146.054 417.948v-.046" fill="#fff200"/><path d="M146.147 416.77c.646-.09 1.085-.206 1.293-.39.3-.255.37-.578.184-.994-.092-.23-.277-.508-.53-.83-.116-.117-.232-.255-.37-.394l-1.224-1.27c-.346-.392-.577-.738-.67-1.015.232-.046.44-.092.67-.162.208.208.508.462.924.762l1.64 1.085c1.407.993 2.077 1.94 2.03 2.817-.068 1.17-.74 1.75-1.985 1.77-.42 0-1.02-.045-1.807-.16-.092-.023-.16-.046-.254-.046v-.048c.14-.416.162-.786.093-1.13" fill="#9f8c50"/><path d="M145.5 412.892l1.223 1.27c.14.138.255.277.37.392-.554.254-1.224.462-2.01.624-.045-.023-.09-.07-.138-.116-.576-.554-.968-.97-1.176-1.27-.37-.507-.56-1.062-.58-1.662.58-.046 1.13-.138 1.64-.254.09.277.32.624.67 1.016" fill="#ee2722"/><path d="M145.616 411.69c-.024 0-.07.024-.116.024-.23.07-.44.116-.67.162-.507.115-1.06.208-1.64.253-.183.02-.368.04-.53.04-.6.047-1.2.07-1.846.07h-.208c-.67 0-1.316-.023-1.893-.07-.185-.022-.37-.022-.554-.046-.56-.07-1.09-.14-1.57-.254-.26-.045-.468-.09-.7-.16-.045 0-.09-.023-.114-.023-.14-.046-.208-.14-.277-.323-.046-.162-.046-.323-.023-.508.094-.44.325-.624.67-.555.048 0 .093.025.14.025 1.316.414 2.793.622 4.41.622 1.615 0 3.093-.208 4.432-.623.023 0 .046 0 .07-.024.39-.07.623.09.74.553.02.185.02.346-.025.508-.07.186-.162.28-.3.325" fill="#9f8c50"/><path d="M143.723 414.716c.16.23.277.44.392.646-.83.116-1.685.185-2.563.208-.023-.9-.092-1.662-.253-2.308-.14-.578-.307-.924-.49-1.016.645 0 1.245-.023 1.845-.07 0 .416.115.83.322 1.247.115.254.37.693.74 1.293m1.477-4.41c-.024.023-.047.023-.07.023-1.338.41-2.816.62-4.432.62-1.616 0-3.093-.21-4.41-.626-.046 0-.09-.024-.138-.024l.023-.692h9.028" fill="#ee2722"/><path d="M135.11 417.994c-.807.115-1.407.16-1.8.16-1.27-.02-1.94-.6-1.985-1.776-.046-.877.623-1.824 2.03-2.817l1.617-1.08c.416-.3.74-.553.924-.76.23.07.44.115.693.16-.12.277-.35.623-.7 1.016l-1.223 1.27c-.115.138-.23.276-.346.392-.276.323-.46.6-.553.83-.16.417-.113.74.21.994.185.186.6.3 1.223.39-.09.37-.07.765.07 1.18-.046.024-.115.024-.16.047" fill="#9f8c50"/><path d="M135.296 417.948h-.023c-.14-.416-.162-.808-.07-1.178.046-.16.093-.3.162-.438.14-.3.485-.693.97-1.155l.046-.046c.6-.55 1-.99 1.18-1.29.396-.53.58-1.11.6-1.71.19.028.37.028.558.05-.024.417-.14.855-.347 1.317-.115.254-.37.67-.76 1.293-.117.184-.232.37-.325.553-.16.277-.276.53-.345.74-.118.276-.187.553-.187.83-.023.21 0 .415.023.623.023.07.046.162.07.23.115.3.3.51.553.6.252.094.62.094 1.11.048.69-.092 1.08-.115 1.22-.115.14 0 .28 0 .415.044.023.14.07.278.116.394-.253-.047-.53-.047-.877.022l-1.57.394c-.623.136-1.13.16-1.477.044-.485-.162-.83-.578-1.04-1.247" fill="#9f8c50"/><path d="M136.774 417.532c-.023-.208-.046-.415-.023-.623l.81.063c.9.092 1.57.23 2.03.392.14.046.28.092.398.16.023.255.07.51.138.74-.23-.14-.506-.23-.853-.323-.67-.162-1.43-.23-2.285-.185h-.14c-.022-.07-.045-.163-.068-.23" fill="#9f8c50"/><path d="M140.12 413.262c-.16.646-.253 1.385-.253 2.263-.97-.024-1.824-.093-2.586-.185.1-.185.21-.37.33-.554.39-.624.646-1.04.76-1.293.21-.462.324-.9.348-1.316.577.046 1.224.07 1.893.07-.185.09-.346.438-.485 1.015m-2.562.578c-.185.3-.577.738-1.18 1.292l-.043.046c-.787-.16-1.457-.37-2.01-.623.115-.116.23-.254.345-.393l1.224-1.27c.344-.392.575-.738.69-1.015.486.115 1.017.185 1.57.253-.022.6-.206 1.178-.6 1.71" fill="#ee2722"/><path d="M141.206 418.64c.208-.022.462 0 .74.047l1.57.393c.645.138 1.13.185 1.5.07.46-.163.807-.555 1.038-1.2m-4.986 2.607c.07-.046.115-.092.185-.138.138-.168.207-.33.207-.538 0-.207-.07-.392-.207-.553-.093-.07-.185-.14-.3-.185m.347-.9v.023c-.024.14-.07.254-.093.37" fill="none" stroke="#231f20" stroke-width=".33" stroke-linecap="round" stroke-linejoin="round"/><path d="M144.484 417.763c-.115.277-.3.462-.554.53-.23.094-.6.117-1.085.047-.693-.07-1.085-.115-1.224-.115-.11 0-.2.023-.3.023m3.28-1.338l-.74.07c-.9.09-1.59.23-2.03.39-.16.047-.274.093-.39.162m-.116.716h-.02c.07-.208.115-.462.14-.716m-.12.716c.21-.115.487-.208.81-.3.67-.162 1.43-.23 2.31-.185h.045m.115-.853c0 .207 0 .392-.045.576 0 .092-.047.208-.07.277m-.37-2.4c.115.253.23.46.3.67.116.3.162.6.184.876m-3.648 2.24c.093-.098.162-.28.254-.51m4.847-.696c.093 0 .162.023.254.046.788.116 1.388.163 1.8.163 1.25-.023 1.92-.6 1.99-1.778.046-.877-.624-1.824-2.03-2.816l-1.64-1.087c-.417-.3-.717-.554-.925-.762" fill="none" stroke="#231f20" stroke-width=".33" stroke-linecap="round" stroke-linejoin="round"/><path d="M146.147 416.77c-.023-.16-.093-.322-.185-.484-.138-.3-.44-.646-.878-1.108m.97 2.77v-.046c.14-.416.162-.785.093-1.132" fill="none" stroke="#231f20" stroke-width=".33" stroke-linecap="round" stroke-linejoin="round"/><path d="M147.093 414.554c.254.323.44.6.53.83.186.417.117.74-.184.994-.21.185-.65.3-1.298.392m-1.316-4.894c.092.277.323.623.67 1.016l1.223 1.27c.14.138.254.276.37.392m-1.894-4.248c.39-.07.623.092.74.554.02.185.02.346-.025.508-.07.184-.16.277-.3.323-.023 0-.07.03-.115.03m-.417 3.462c-.05-.023-.094-.07-.14-.115-.577-.554-.97-.97-1.178-1.27-.37-.508-.553-1.062-.577-1.663m-.53.048c0 .415.117.83.324 1.246.115.255.37.693.74 1.294.16.23.275.438.39.646m-2.563.208c-.023-.9-.092-1.66-.254-2.31-.138-.575-.3-.92-.484-1.014m.622 5.287c.07-.53.115-1.11.115-1.78v-.184m1.108-3.393c-.6.046-1.2.07-1.844.07m-4.664-1.94c.046 0 .092.023.14.023 1.314.414 2.792.62 4.408.62 1.616 0 3.093-.206 4.432-.622.023 0 .046 0 .07-.023m-.37 1.573c-.507.114-1.06.207-1.638.253m-1.64 3.44c.878-.023 1.732-.093 2.563-.208m-.923-3.232c-.183.023-.368.047-.53.047m2.84-.463c-.23.07-.44.115-.67.16m.254 3.3c.786-.16 1.456-.37 2.01-.62m-6.74 6l.16.44c-.16.046-.277.16-.346.323l-.785-.28v.97l.784-.277c.07.16.186.277.347.323l-.3.806h.992l-.3-.808c.16-.047.276-.163.322-.324l.805.277v-.97l-.808.28c-.048-.16-.163-.278-.325-.324l.162-.44m-5.77-2.606h-.023c-.047.024-.116.024-.162.047-.806.115-1.406.162-1.8.162-1.27-.025-1.94-.6-1.984-1.78-.044-.877.625-1.824 2.03-2.816l1.62-1.086c.415-.3.74-.555.923-.763" fill="none" stroke="#231f20" stroke-width=".33" stroke-linecap="round" stroke-linejoin="round"/><path d="M135.296 417.948h-.023c-.14-.416-.162-.808-.07-1.178m-.877-2.216c-.277.323-.46.6-.554.83-.162.417-.115.74.208.994.185.185.6.3 1.223.392m1.132-1.592c-.485.462-.83.854-.97 1.154-.07.14-.115.277-.16.44m5.263 2.378c-.115.045-.208.114-.3.183-.14.162-.232.347-.232.554 0 .208.093.37.23.532.07.04.116.09.186.132m.716 0c-.116.047-.23.093-.37.093-.115 0-.253-.048-.346-.094m.116-1.405c.07-.024.16-.048.23-.048.092 0 .185.023.253.046m-.69-.417c.05.184.12.322.21.415" fill="none" stroke="#231f20" stroke-width=".33" stroke-linecap="round" stroke-linejoin="round"/><path d="M140.26 418.733c-.254-.046-.53-.046-.877.023l-1.57.393c-.623.132-1.132.16-1.478.04-.484-.16-.83-.577-1.04-1.247m1.455-1.037c0-.28.07-.556.185-.833.07-.208.185-.462.347-.74m-.44 2.425c-.022-.07-.045-.16-.07-.23-.02-.21-.044-.417-.02-.625" fill="none" stroke="#231f20" stroke-width=".33" stroke-linecap="round" stroke-linejoin="round"/><path d="M140.144 418.34c-.138-.046-.277-.046-.415-.046-.14 0-.537.023-1.23.116-.485.046-.854.046-1.108-.047-.254-.092-.44-.3-.554-.6m-.09-.853l.81.07c.9.09 1.57.23 2.03.39.14.047.275.093.39.162m.138.738c-.23-.137-.51-.23-.855-.322-.67-.162-1.43-.23-2.285-.185h-.137m3.276.507c0 .024 0 .024.023.07m-.163-.808c.024.254.07.508.14.74m.023.068c.023.14.07.277.116.393m-.39-3.21v.23c0 .67.024 1.248.116 1.78m.623-5.287c-.185.092-.346.44-.485 1.016-.16.646-.25 1.385-.25 2.262m-1.71-3.394c-.02.6-.21 1.178-.6 1.71-.183.3-.58.737-1.18 1.292l-.042.046m.945.162c.095-.185.21-.37.326-.555.393-.623.647-1.04.762-1.293.207-.462.322-.9.345-1.316m-.552-.046c-.553-.07-1.084-.138-1.57-.254m4.226.37h-.208c-.67 0-1.316-.023-1.893-.07m1.154 3.348c-.97-.023-1.823-.092-2.585-.185m1.433-3.168c-.186-.023-.37-.023-.555-.047m-1.57-.254c-.115.278-.347.624-.693 1.017l-1.223 1.27c-.116.137-.23.275-.347.39m1.57-2.84c-.045 0-.092-.022-.114-.022-.138-.045-.207-.138-.277-.32-.046-.164-.046-.325-.024-.51.094-.44.324-.623.67-.554m.185 4.87c-.784-.16-1.453-.37-2.01-.62m2.266-2.68c-.255-.046-.463-.09-.694-.16" fill="none" stroke="#231f20" stroke-width=".33" stroke-linecap="round" stroke-linejoin="round"/><path d="M133.933 406.656c-.056-.127-.436-.994-.472-1.085h.95c-.03.07-.427.97-.47 1.09zm1.02-2.393l-.31.715h-1.41c-.03-.06-.28-.64-.31-.715h-.663c.04.09 1.424 3.346 1.45 3.402h.45c.02-.05 1.41-3.275 1.466-3.402h-.674m2.063-.08c-.695 0-1.13.465-1.257.973.09.025.47.106.578.13.086-.313.36-.53.7-.53.39 0 .643.232.68.658-.088.03-1.827.685-1.98.74-.004.066-.01.178-.01.284 0 .67.534 1.288 1.29 1.288.633 0 1.145-.416 1.277-.968-.102-.03-.462-.102-.583-.132-.066.28-.31.527-.68.527-.37 0-.644-.27-.684-.618.127-.046 1.88-.705 1.962-.736.015-.077.025-.188.025-.33 0-.705-.542-1.293-1.318-1.293m4.308.082v2.255c-.127-.104-.837-.65-.99-.768-.14.1-.856.664-.983.76v-2.25h-.603v3.447c.218-.16 1.395-1.045 1.592-1.197.16.127 1.42 1.065 1.58 1.197v-3.446h-.602m2.85 2.786v-.795h1.535v-.598h-1.536v-1.395h-.61v3.38h2.55v-.592h-1.94m3.823.677c.568 0 1.01-.263 1.288-.563-.045-.046-.37-.38-.435-.44-.182.196-.456.394-.852.394-.623 0-1.14-.52-1.14-1.168 0-.63.513-1.16 1.14-1.16.346 0 .65.17.858.406.06-.057.38-.38.435-.43-.274-.296-.725-.585-1.288-.585-.963 0-1.78.766-1.78 1.77 0 1 .807 1.775 1.78 1.775" fill="#ee2722"/></g></g></svg>