<svg xmlns="http://www.w3.org/2000/svg" width="1350" height="1714.437" viewBox="0 0 1350 1714.4366"><path d="M0 857.218V0h1350v1714.438H0v-857.22z" fill="#fdfcfc"/><path d="M653.352 1679.768c-62.26-80.32-133.65-134.384-298.422-225.994-97.68-54.308-126.316-71.668-163.205-98.94-70.867-52.395-124.218-113.875-154.037-177.507-12.376-26.41-28.158-78.89-28.173-93.683-.004-4.444-1.5-9.572-3.322-11.395-2.15-2.15-2.882-22.69-2.084-58.47 2.08-93.26 13.2-138 81.42-327.64 48.73-135.48 59.252-208.687 42.61-296.43-9.226-48.62-34.77-111.37-68.66-168.65-6.956-11.756-11.957-23.16-11.11-25.356.84-2.192 34.643-44.514 75.12-94.05 40.48-49.534 74.326-91.96 75.216-94.276 1.334-3.48 84.302-4.21 475.867-4.21 465.845 0 474.318.106 478.088 6.142 2.11 3.38 36.68 46.35 76.82 95.49 40.14 49.14 72.98 91.08 72.98 93.2 0 2.12-8.57 18.688-19.047 36.817-62.034 107.35-80.497 203.1-60.008 311.21 8.9 46.964 17.316 73.49 69.456 218.88 31.405 87.57 46.91 149.85 54.146 217.482 2.982 27.877.836 87.917-3.34 93.485-1.31 1.74-3.41 10.3-4.67 19.012-6.196 42.824-34.66 107.34-65.718 148.943-24.12 32.312-72.24 79.385-109.276 106.903-42.356 31.47-73.872 50.765-171.75 105.15-97.06 53.93-130.12 74.18-170.88 104.668-52.28 39.103-97.34 82.924-131.347 127.735-6.943 9.15-13.65 16.638-14.9 16.638-1.252 0-11.052-11.323-21.78-25.162zm365.364-278.317c12.118-6.87 24.65-12.042 26.282-14.63 2.223-3.522-100.357-173.503-405.982-671.41C414.802 350.128 228.21 44.758 227.116 41.9c-1.096-2.853-4.302-.89-7.126-.346-7.78 1.498-93.085 106.958-91.438 113.042 1.13 4.17 763.114 1244.67 789.31 1285.106l7.815 12.06 35.503-18.905c19.527-10.398 45.418-24.53 57.536-31.406zm152.742-101.723c58.057-46.372 107.26-117.405 125.916-181.79 26.882-92.762 16.518-191.205-35.122-333.6-60.477-166.763-73.915-213.707-80.174-280.08-8.488-90.01 13.656-182.12 67.834-282.157 7.713-14.244 10.176-21.84 8.22-25.354-6.376-11.45-124.762-154.135-129.53-156.114-6.813-2.83-741.917-2.81-749.057.02-4.827 1.915-4.98 3.16-1.264 10.32 11.578 22.31 773.21 1261.004 775.35 1261.004 1.37 0 9.398-5.513 17.83-12.25zM896.83 492.467c-74.99-20.016-134.174-81.004-150.702-155.29-7.016-31.54-4.973-82.836 4.47-112.177 19.61-60.94 72.194-113.57 133.557-133.678 28.35-9.29 86.08-11.55 114.35-4.476 122.43 30.635 190.838 160.027 146.677 277.433-23.054 61.29-81.918 113.72-144.135 128.39-25.72 6.06-81.14 5.95-104.216-.21zm94.745-25.156c47.965-11.3 95.35-48.19 118.333-92.11 37.654-71.95 24.836-156.42-32.41-213.58-55.665-55.572-136.188-68.79-208.91-34.29-29.073 13.793-68.432 53.284-82.36 82.636-30.91 65.146-23.652 133.905 20.263 191.937 24.24 32.027 67.557 58.975 107.77 67.047 20.88 4.19 55.74 3.452 77.32-1.634zM874.648 288.38V164.79h44.278l.836 102.2.837 102.2 57.04 1.585 57.04 1.584.942 19.8.943 19.807h-161.92z" fill="#eb1b23"/><path d="M653.352 1679.768c-62.26-80.32-133.65-134.384-298.422-225.994-97.68-54.308-126.316-71.668-163.205-98.94-70.867-52.395-124.218-113.875-154.037-177.507-12.376-26.41-28.158-78.89-28.173-93.683-.004-4.444-1.5-9.572-3.322-11.395-2.15-2.15-2.882-22.69-2.084-58.47 2.08-93.26 13.2-138 81.42-327.64 48.73-135.48 59.252-208.687 42.61-296.43-9.226-48.62-34.77-111.37-68.66-168.65-6.956-11.756-11.957-23.16-11.11-25.356.84-2.192 34.643-44.514 75.12-94.05 40.48-49.534 74.326-91.96 75.216-94.276 1.334-3.48 84.302-4.21 475.867-4.21 465.845 0 474.318.106 478.088 6.142 2.11 3.38 36.68 46.35 76.82 95.49 40.14 49.14 72.98 91.08 72.98 93.2 0 2.12-8.57 18.688-19.047 36.817-62.034 107.35-80.497 203.1-60.008 311.21 8.9 46.964 17.316 73.49 69.456 218.88 31.405 87.57 46.91 149.85 54.146 217.482 2.982 27.877.836 87.917-3.34 93.485-1.31 1.74-3.41 10.3-4.67 19.012-6.196 42.824-34.66 107.34-65.718 148.943-24.12 32.312-72.24 79.385-109.276 106.903-42.356 31.47-73.872 50.765-171.75 105.15-97.06 53.93-130.12 74.18-170.88 104.668-52.28 39.103-97.34 82.924-131.347 127.735-6.943 9.15-13.65 16.638-14.9 16.638-1.252 0-11.052-11.323-21.78-25.162zm336.965-262.51c20.915-11.363 43.732-24.737 50.704-29.718 6.978-4.982 39.777-26.955 72.89-48.83 85.07-56.188 129.196-101.608 161.81-166.55 51.955-103.446 47.96-218.45-13.463-387.83-60.477-166.76-73.915-213.705-80.174-280.077-8.49-90.01 13.656-182.12 67.834-282.158 7.713-14.243 10.176-21.84 8.22-25.353-7.515-13.495-125.19-154.276-130.71-156.376-5.808-2.208-644.894-.67-831.12 2.002l-79.225 1.136-43.83 53.148c-27.144 32.912-44.59 52.528-43.73 55.697 1.124 4.15 762.02 1246.71 788.25 1287.2l7.716 11.916 13.403-6.776c7.37-3.726 30.515-16.072 51.43-27.436zM896.83 492.466c-74.99-20.015-134.174-81.003-150.702-155.292-7.016-31.54-4.973-82.833 4.47-112.174 19.61-60.94 72.194-113.57 133.557-133.678 28.35-9.29 86.08-11.55 114.35-4.476 122.43 30.635 190.838 160.027 146.677 277.433-23.054 61.29-81.918 113.72-144.135 128.39-25.72 6.06-81.14 5.95-104.216-.21zm94.745-25.155c47.965-11.3 95.35-48.19 118.333-92.11 37.654-71.95 24.836-156.42-32.41-213.58-55.665-55.572-136.188-68.79-208.91-34.29-29.073 13.793-68.432 53.284-82.36 82.636-30.91 65.146-23.652 133.905 20.263 191.937 24.24 32.027 67.557 58.975 107.77 67.047 20.88 4.19 55.74 3.452 77.32-1.634zM874.648 288.38V164.79h44.278l.836 102.2.837 102.2 57.04 1.585 57.04 1.584.942 19.8.943 19.807h-161.92z" fill="#00a352"/><path d="M653.352 1679.768c-62.26-80.32-133.65-134.384-298.422-225.994-97.68-54.308-126.316-71.668-163.205-98.94-70.867-52.395-124.218-113.875-154.037-177.507-12.376-26.41-28.158-78.89-28.173-93.683-.004-4.444-1.5-9.572-3.322-11.395-2.15-2.15-2.882-22.69-2.084-58.47 2.08-93.26 13.2-138 81.42-327.64 48.73-135.48 59.252-208.687 42.61-296.43-9.226-48.62-34.77-111.37-68.66-168.65-6.956-11.756-11.957-23.16-11.11-25.356.84-2.192 34.643-44.514 75.12-94.05 40.48-49.534 74.326-91.96 75.216-94.276 1.334-3.48 84.302-4.21 475.867-4.21 465.845 0 473.676-3.105 477.446 2.93 2.11 3.38 37.32 49.56 77.46 98.703 40.14 49.14 72.982 91.08 72.982 93.2 0 2.12-8.572 18.687-19.048 36.816-62.034 107.35-80.497 203.1-60.008 311.21 8.9 46.964 17.316 73.49 69.456 218.88 31.404 87.57 46.91 149.85 54.145 217.482 2.982 27.878.836 87.918-3.34 93.486-1.31 1.742-3.41 10.3-4.67 19.013-6.196 42.824-34.66 107.34-65.718 148.943-24.12 32.312-72.24 79.385-109.276 106.903-42.356 31.47-73.872 50.765-171.75 105.15-97.06 53.93-130.12 74.18-170.88 104.668-52.28 39.103-97.34 82.924-131.347 127.735-6.943 9.15-13.65 16.637-14.9 16.637-1.252 0-11.052-11.323-21.78-25.162zm65.786-80.387c61.65-60.44 138.647-116.172 203.045-146.97 39.7-18.988 102.942-53.507 118.838-64.865 6.978-4.98 39.777-26.954 72.89-48.83 85.07-56.187 129.196-101.607 161.81-166.55 51.955-103.445 47.96-218.45-13.463-387.83-60.477-166.76-73.915-213.704-80.174-280.076-8.49-90.01 13.656-182.12 67.834-282.16 7.713-14.243 10.176-21.84 8.22-25.353-7.52-13.497-126.477-153.957-131.997-156.057-5.83-2.215-645.427-.983-829.837 1.695l-79.226 1.15-40.55 48.744c-22.302 26.81-42.824 53.02-45.605 58.25-2.78 5.23-11.984 17.83-20.453 28.003-8.47 10.175-15.4 19.98-15.4 21.788 0 1.81 9.92 23.433 22.05 48.05 42.35 85.974 55.15 136.82 55.17 219.06.01 83.24-9.89 122.477-78.76 312.15-36.815 101.39-49.88 162.16-50.087 232.92-.304 105.842 31.805 181.94 109.065 258.477 48.52 48.064 97.505 81.19 221.186 149.57 89.286 49.364 139.556 80.212 178.76 109.696 35.828 26.944 78.566 65.232 102.134 91.5 9.78 10.892 18.62 19.805 19.658 19.805 1.036 0 21.238-18.98 44.893-42.17zM896.83 492.47c-74.99-20.015-134.174-81.003-150.702-155.292-7.016-31.54-4.973-82.833 4.47-112.174 19.61-60.94 72.194-113.57 133.557-133.677 28.35-9.29 86.08-11.55 114.35-4.476 122.43 30.637 190.838 160.03 146.677 277.435-23.054 61.29-81.918 113.725-144.135 128.39-25.72 6.064-81.14 5.955-104.216-.204zm94.745-25.155c47.965-11.306 95.35-48.19 118.333-92.11 37.654-71.954 24.836-156.423-32.41-213.58-55.665-55.577-136.188-68.796-208.91-34.296-29.073 13.79-68.432 53.282-82.36 82.634-30.91 65.146-23.652 133.905 20.263 191.937 24.24 32.03 67.557 58.977 107.77 67.05 20.88 4.19 55.74 3.453 77.32-1.633zM874.648 288.38V164.79h44.278l.836 102.2.837 102.2 57.04 1.585 57.04 1.584.942 19.8.943 19.807h-161.92z"/></svg>