<svg xmlns="http://www.w3.org/2000/svg" width="500" height="500" version="1"><defs><clipPath id="a"><path d="M0 841.89h595.276V0H0v841.89z"/></clipPath><linearGradient x2="1" gradientUnits="userSpaceOnUse" gradientTransform="matrix(244.588 -244.588 -244.588 -244.588 175.344 543.238)" id="b"><stop offset="0" stop-color="#7ea7d1"/><stop offset=".242" stop-color="#2651a5"/><stop offset=".242" stop-color="#2651a5"/><stop offset="1" stop-color="#2651a5"/></linearGradient><linearGradient x2="1" gradientUnits="userSpaceOnUse" gradientTransform="matrix(173.91 -173.91 -173.91 -173.91 210.684 507.899)" id="c"><stop offset="0" stop-color="#4393d7"/><stop offset=".961" stop-color="#6cbfea"/><stop offset=".961" stop-color="#6cbfea"/><stop offset="1" stop-color="#6cbfea"/></linearGradient><linearGradient x2="1" gradientUnits="userSpaceOnUse" gradientTransform="matrix(142.023 -142.023 -142.023 -142.023 223.258 497.83)" id="d"><stop offset="0" stop-color="#caedf8"/><stop offset=".365" stop-color="#feffff"/><stop offset=".365" stop-color="#feffff"/><stop offset=".775" stop-color="#caedf8"/><stop offset="1" stop-color="#feffff"/></linearGradient></defs><g clip-path="url(#a)" transform="matrix(1.37 0 0 -1.37 -157.825 826.779)"><path d="M478.268 420.945c0-99.76-80.87-180.63-180.63-180.63-99.76 0-180.63 80.87-180.63 180.63 0 99.76 80.87 180.63 180.63 180.63 99.76 0 180.63-80.87 180.63-180.63" fill="#2651a5"/><path d="M175.344 543.24c-32.666-32.667-50.656-76.1-50.656-122.295 0-46.197 17.99-89.63 50.656-122.295 32.666-32.666 76.097-50.656 122.294-50.656s89.628 17.99 122.294 50.656 50.656 76.098 50.656 122.295c0 46.196-17.99 89.628-50.656 122.294-32.666 32.66-76.097 50.65-122.294 50.65s-89.628-17.99-122.294-50.656" fill="url(#b)"/><path d="M165.008 420.945c0-73.133 59.497-132.63 132.63-132.63s132.63 59.497 132.63 132.63c0 73.132-59.497 132.63-132.63 132.63s-132.63-59.498-132.63-132.63" fill="#fff"/><path d="M170.127 420.945c0-70.31 57.2-127.51 127.51-127.51s127.51 57.2 127.51 127.51-57.2 127.51-127.51 127.51-127.51-57.2-127.51-127.51" fill="#4393d7"/><path d="M174.607 420.945c0-67.84 55.192-123.03 123.03-123.03 67.84 0 123.03 55.19 123.03 123.03s-55.19 123.03-123.03 123.03c-67.838 0-123.03-55.19-123.03-123.03" fill="url(#c)"/><path d="M222.284 496.857h46.583l75.82-90.65c.488-.58 1.438-.236 1.438.523v68.095c0 8.66-7.02 15.68-15.68 15.68h-4.733v6.352h47.227v-6.353h-3.13c-7.775 0-14.08-6.303-14.08-14.08v-130.16h-6.17l-97.076 116.05c-.28.332-.823.134-.823-.3V372.48c0-9.192 7.45-16.642 16.64-16.642h3.79v-5.743h-49.81v5.743h5.105c7.776 0 14.08 6.304 14.08 14.08v105.567l-7.052 8.428-2.642 3.156c-1.813 2.17-4.52 3.43-7.35 3.43h-2.137v6.352z" fill="url(#d)"/></g></svg>