<svg xmlns="http://www.w3.org/2000/svg" version="1" width="768" height="768" viewBox="0 0 55.111256 55.169998"><defs><clipPath id="a"><path d="M0 841.945h595V.055H0v841.89z"/></clipPath></defs><g clip-path="url(#a)" transform="matrix(0 -1.25 -1.25 0 77.282 78.187)"><path d="M40.482 61.872c12.188 0 22.068-9.88 22.068-22.068s-9.88-22.067-22.068-22.067-22.068 9.88-22.068 22.067c0 12.188 9.88 22.068 22.068 22.068" fill="#fde100"/><path d="M61.5 39.8c0 11.604-9.423 21-21.025 21-11.602 0-21-9.396-21-21 0-11.6 9.398-21 21-21S61.5 28.2 61.5 39.8zm-1.175 0c0-10.956-8.892-19.824-19.85-19.824-10.958 0-19.825 8.868-19.825 19.825 0 10.96 8.867 19.85 19.825 19.85 10.958 0 19.85-8.89 19.85-19.85zm-3.2 6.576l-16.7-5.4V38.65l16.7-5.324v3.25l-11.15 3.25 11.15 3.225v3.33zm-8.225 8.35H32.425V49.55c0-4.186 5.07-6.31 8.2-3.4h.025c.016 0 .025-.024.025-.024 2.733-2.42 7.547-1.4 8.225 3.1v5.5zm0-21.4H32.425v-5.2c0-4.187 5.07-6.31 8.2-3.4h.025c.016 0 .025-.025.025-.025 2.733-2.42 7.547-1.393 8.225 3.1v5.53zM45.825 51.7v-2.55c0-1.653-3.167-1.992-3.675-.1v2.65h3.675zm0-21.45v-2.524c0-1.653-3.167-1.994-3.675-.1v2.625h3.675zM39.2 51.7v-2.25c0-1.866-3.395-2.55-3.875-.124V51.7H39.2zm0-21.45v-2.224c0-1.866-3.395-2.552-3.875-.125v2.35H39.2zm-7.125 12.8c0 1.337-1.09 2.426-2.425 2.426H26c-1.336 0-2.425-1.09-2.425-2.425V43c0-1.335 1.09-2.424 2.425-2.424h3.65c1.336 0 2.425 1.09 2.425 2.425v.05zm0-6.424c0 1.336-1.04 2.475-2.375 2.475h-.6c-1.336 0-2.416-1.22-2.45-2.47 0 0 .006-.51.15-.774l-.825-.024c-.417 0-.786.337-.775.75.01.34.183.8.6.8 0 0 .55-.075.55.325v1.4c-.133.01-.215 0-.4 0-1.267 0-2.375-1.084-2.375-2.55.014-1.383 1.075-2.35 2.45-2.35h3.65c1.336 0 2.4 1.04 2.4 2.376v.05zM30.35 36.6c0-.44-.332-.774-.75-.774h-.475c-.417 0-.75.333-.75.75 0 .44.333.8.75.8h.475c.418 0 .75-.358.75-.775zm-.025 6.45c0-.44-.332-.8-.75-.8H25.95c-.417 0-.75.358-.75.776 0 .44.333.775.75.775h3.625c.418 0 .75-.33.75-.75z" fill="#231f20"/></g></svg>