<svg xmlns="http://www.w3.org/2000/svg" width="183" height="179.781" viewBox="0 0 183 179.781"><g fill-rule="evenodd" clip-rule="evenodd"><path d="M92.77 56.625c33.552 0 60.915 27.365 60.915 60.914 0 33.55-27.363 60.91-60.914 60.91s-60.91-27.36-60.91-60.91 27.36-60.92 60.91-60.92z"/><path fill="#AABAC2" d="M32.707 117.54c0-33.12 26.945-60.063 60.065-60.063s60.064 26.945 60.064 60.063c0 33.12-26.944 60.064-60.064 60.064-33.12 0-60.065-26.943-60.065-60.064z"/><path d="M40.927 117.54c0 28.588 23.257 51.846 51.845 51.846 28.587 0 51.845-23.258 51.845-51.846 0-28.586-23.258-51.843-51.845-51.843-28.588 0-51.845 23.257-51.845 51.843z"/><path fill="#FFF" d="M41.78 117.54c0-28.116 22.875-50.99 50.99-50.99s50.99 22.874 50.99 50.99c0 28.117-22.873 50.992-50.99 50.992s-50.99-22.875-50.99-50.992z"/><path d="M44.624 117.54c0 26.55 21.6 48.148 48.148 48.148s48.147-21.6 48.147-48.148-21.6-48.147-48.15-48.147S44.62 90.99 44.62 117.54z"/><path fill="#FFF" d="M45.524 117.54c0-26.05 21.195-47.246 47.247-47.246s47.25 21.196 47.25 47.246c0 26.053-21.19 47.246-47.24 47.246s-47.25-21.194-47.25-47.246z"/><path d="M140.06 117.93c.002-.13.006-.26.006-.39 0-.155-.005-.31-.006-.464h-43.3l42.46-8.447c-.054-.28-.11-.56-.167-.84l-42.125 8.38 39.66-16.43c-.11-.27-.218-.53-.33-.79l-39.662 16.43 35.668-23.83c-.157-.24-.315-.48-.476-.71L96.12 114.67l30.316-30.315c-.2-.207-.4-.408-.605-.607l-30.31 30.32 23.815-35.64c-.235-.162-.473-.318-.71-.474l-23.815 35.64 15.5-37.417-.79-.33-15.5 37.42 7.07-35.56-.838-.17-6.93 34.84V75.67H92.19v36.72l-7.163-36.004-.837.167 7.304 36.717L75.61 74.923l-.79.327 15.887 38.348L66.9 77.972c-.24.155-.477.313-.71.473l23.804 35.626-30.3-30.29c-.203.2-.405.4-.604.603l30.3 30.3-35.645-23.82c-.16.234-.32.47-.476.707l35.64 23.82-39.637-16.42c-.114.26-.22.523-.33.787l39.636 16.418-42.1-8.375c-.058.28-.11.56-.166.84l42.43 8.44h-43.26c0 .153-.008.308-.008.462 0 .13.005.26.006.39h42.6l-41.8 8.31c.055.28.106.56.164.84l42.14-8.384-39.704 16.45c.105.263.212.526.322.79l39.712-16.45-35.74 23.88c.156.238.313.477.472.713L89.39 120.2l-30.403 30.4c.2.205.4.406.603.605L89.996 120.8l-23.9 35.77c.234.16.47.32.71.476l23.9-35.77-16.474 39.77c.262.11.525.22.79.326l17.737-42.82 17.74 42.832c.26-.107.52-.215.78-.326l-16.477-39.78 23.907 35.784c.24-.156.476-.314.71-.475l-23.91-35.783 30.42 30.418c.2-.2.403-.4.603-.604l-30.42-30.42 35.766 23.898c.16-.234.315-.473.472-.71l-35.76-23.896 39.74 16.46c.11-.263.217-.526.323-.79L96.922 118.7l42.172 8.39c.058-.28.11-.56.162-.84l-41.83-8.32h42.63z"/><path fill="#009248" d="M69.52 65.045c-3.194-.785-5.9-1.152-7.707-.917-5.41.706-11.9 3.375-18.608 6.612-4.3 2.076-9.64 4.79-20.316 11.09l9.94.748-1.04 8.306c5.89-3.858 13.77-9.268 21.05-12.387 3.07-1.317 6.04-2.225 8.703-2.436 2.01-.15 3.717.36 5.703.86 8.663 2.18 17.003 4.65 25.52 4.65V69.35c-8.08 0-16.674-2.69-23.253-4.303z"/><path d="M129.608 87.333c-12.606 4.734-25.346 7.236-36.84 7.236s-24.233-2.51-36.84-7.24l-.48-.18-.09.5c-6.435 35.1 6.062 65.54 37.142 90.48l.268.212.267-.215c31.08-24.94 43.577-55.38 37.144-90.475l-.1-.502-.48.18z"/><path fill="#FFF" d="M92.77 95.422c11.446 0 24.107-2.467 36.65-7.118 1.023 5.737 1.544 11.352 1.544 16.834 0 27.434-12.802 51.623-38.195 72.102-25.4-20.48-38.2-44.668-38.2-72.102 0-5.482.52-11.098 1.54-16.834 12.542 4.652 25.204 7.118 36.65 7.118z"/><path fill="#EE3124" d="M92.77 172.877V99.79c-11.924 0-22.61-1.94-33.426-5.623-4.047 31.125 8.458 56.048 33.425 78.71z"/><path fill="#FDB913" d="M92.743 108.967c11.476 0 20.835 9.36 20.835 20.836s-9.36 20.836-20.835 20.836c-11.476 0-20.836-9.36-20.836-20.84s9.36-20.84 20.836-20.84z"/><path d="M71.48 129.803c0 11.725 9.538 21.264 21.263 21.264 11.724 0 21.263-9.54 21.263-21.264s-9.54-21.264-21.263-21.264c-11.725 0-21.264 9.54-21.264 21.26zm.854 0c0-11.254 9.156-20.408 20.41-20.408 11.252 0 20.406 9.154 20.406 20.408s-9.154 20.408-20.407 20.408-20.41-9.15-20.41-20.4z"/><path d="M71.52 129.403c1.268 2.37 3.44 4.705 6.278 6.754l.5-.693c-2.734-1.973-4.818-4.207-6.025-6.463l-.753.41zm10.03 3.977l.65-.552c-4.785-5.633-3.73-15.2 2.4-21.777l-.626-.58c-6.42 6.898-7.485 16.96-2.423 22.92zm9.494-12.534l.817-.248c-1.57-5.158-.02-8.395 5.19-10.826l-.36-.773c-5.6 2.61-7.34 6.26-5.64 11.84zm10.888 7.91c4.892 5.07 5.98 13.064 2.43 17.818l.683.512c3.856-5.162 2.76-13.473-2.498-18.924l-.615.594zm4.752-5.244c3.622 2.992 5.708 7.582 5.58 12.273l.854.023c.137-4.953-2.065-9.797-5.89-12.955l-.544.66zM95.226 134.19c3.453 6.41 2.91 12.97-1.32 15.953l.49.697c4.598-3.238 5.248-10.252 1.582-17.057l-.752.407z"/><path d="M87.257 144.262l-.127.846c3.765.566 8.868-1.146 10.91-5.438l-.772-.367c-1.865 3.922-6.55 5.483-10.01 4.96z"/><path d="M126.02 93.772c-4.527 1.543-8.866 2.727-13.26 3.62l-.125.026L67.47 142.44l.153.28c2.342 4.34 5.175 8.682 8.417 12.904l.296.385 50.997-50.84-.002-.18c-.02-3.56-.27-7.22-.74-10.87l-.066-.52-.495.17z"/><path fill="#0095DA" d="M125.786 94.745c.422 3.393.657 6.777.685 10.08-.26.26-49.35 49.2-50.04 49.89-3.02-3.976-5.68-8.05-7.89-12.124.456-.45 44.355-44.21 44.53-44.39 4.216-.86 8.39-2 12.725-3.45z"/><path fill="#FDB913" d="M78.16 146.774l1.19-1.19c.465.425.958.64 1.482.644.525.004.997-.2 1.412-.617.458-.45.69-.95.7-1.49.008-.54-.208-1.03-.653-1.472-.38-.39-.79-.59-1.2-.6-.41-.013-1.03.214-1.86.67l-.21.128c-.96.577-1.83.817-2.61.72-.35-.04-.67-.125-.966-.266-.297-.143-.567-.334-.814-.58-.736-.738-1.098-1.565-1.086-2.484.014-.917.396-1.755 1.15-2.51.7-.7 1.47-1.064 2.306-1.087.84-.028 1.634.29 2.39.954l-1.24 1.24c-.365-.323-.763-.476-1.198-.464-.438.014-.824.19-1.165.533-.366.365-.546.777-.54 1.238.006.467.193.88.562 1.25.13.13.27.23.43.305.153.07.322.113.51.123.38.02.94-.194 1.675-.64.34-.205.61-.357.8-.46.818-.392 1.585-.54 2.303-.448.714.09 1.355.42 1.923.987.83.828 1.246 1.748 1.25 2.76.007 1.01-.41 1.93-1.24 2.76-.78.78-1.655 1.172-2.63 1.176-.973 0-1.86-.388-2.664-1.173zm14.07-9.12l-1.26 1.26-1.45-1.45 1.26-1.26 1.45 1.45zm9.658-9.66l-4.33 4.33-8.582-8.58 1.328-1.33 7.397 7.4 3.01-3.005 1.186 1.18zm6.06-6.058l-1.26 1.26-1.45-1.45 1.26-1.26 1.45 1.45zm1.656-11.633l.422-.42c.685-.686 1.075-1.27 1.17-1.754.097-.49-.076-.96-.524-1.41-.396-.397-.823-.558-1.28-.485-.454.074-.952.383-1.498.93l-.71.71 2.42 2.42zm3.814 3.842l1.044-1.045c.614-.613.958-1.172 1.033-1.678.077-.502-.11-.98-.56-1.428-.487-.486-1.006-.703-1.56-.652s-1.127.37-1.715.957l-1.044 1.04 2.802 2.8zm-6.755-8.092c.978-.977 1.92-1.516 2.83-1.625.906-.105 1.744.223 2.51.99.354.354.582.75.688 1.188.11.436.09.9-.05 1.395.57-.32 1.17-.43 1.79-.33.62.1 1.178.396 1.67.89.4.4.7.857.89 1.37.19.512.267 1.023.217 1.537-.056.5-.212.968-.47 1.413-.253.444-.7.985-1.34 1.622l-2.112 2.113-8.582-8.582 1.97-1.97zm18.228-1.06l-1.25 1.258-1.45-1.44 1.26-1.26 1.45 1.45z"/><path d="M126.056 93.762c-11.222 3.822-21.8 5.602-33.287 5.602s-22.07-1.78-33.29-5.602l-.5-.168-.068.516c-3.858 29.672 6.806 54.8 33.56 79.084l.288.26.287-.26c26.754-24.285 37.42-49.412 33.562-79.084l-.07-.516-.494.168zM59.01 105.598c0-3.555.248-7.178.707-10.863 11.123 3.73 21.643 5.482 33.052 5.482s21.92-1.752 33.05-5.482c.46 3.686.7 7.31.7 10.863 0 24.428-10.925 45.87-33.76 66.693C69.927 151.47 59 130.03 59 105.6z"/><path fill="#EE3124" d="M162.654 81.83c-10.676-6.3-16.015-9.014-20.316-11.09-6.708-3.237-13.198-5.906-18.608-6.612-1.807-.235-4.513.132-7.71.917-6.577 1.613-15.17 4.302-23.248 4.302V81.56c8.516 0 16.855-2.463 25.52-4.644 1.984-.5 3.69-1.014 5.702-.856 2.664.21 5.63 1.12 8.705 2.436 7.28 3.12 15.16 8.53 21.05 12.387l-1.04-8.306 9.94-.748z"/><path d="M115.92 64.63l-3.687.942c-6.034 1.57-12.873 3.35-19.462 3.35-6.59 0-13.42-1.78-19.46-3.35l-3.68-.94c-3.445-.846-6.09-1.157-7.866-.927-4.696.612-10.475 2.663-18.74 6.65-4.056 1.96-9.31 4.592-20.35 11.106l-1.17.7 10.85.816-1.094 8.78 2.83-1.862c5.567-3.673 12.5-8.244 18.927-11 3.278-1.4 6.162-2.21 8.572-2.4 1.73-.137 3.225.246 4.955.69l3.9.995c7.637 1.963 14.847 3.817 22.33 3.817 7.487 0 14.698-1.854 22.33-3.816l3.904-.995c1.73-.443 3.222-.826 4.954-.69 2.41.19 5.294 1 8.57 2.403 6.43 2.753 13.36 7.325 18.93 11l2.83 1.86-1.1-8.78c.815-.06 10.852-.815 10.852-.815l-1.17-.69c-11.038-6.515-16.29-9.15-20.348-11.106-8.267-3.99-14.046-6.04-18.74-6.65-1.775-.23-4.42.08-7.866.925zm-3.473 1.768l3.675-.938c3.342-.82 5.883-1.125 7.553-.908 4.6.6 10.3 2.626 18.48 6.573 3.89 1.88 8.906 4.394 19.107 10.38-2.027.154-9.03.68-9.03.68l.98 7.834-1.283-.85c-5.6-3.69-12.57-8.29-19.07-11.07-3.41-1.46-6.3-2.27-8.84-2.47-1.876-.148-3.508.27-5.237.713l-3.903.996c-7.58 1.95-14.74 3.79-22.115 3.79S78.23 79.29 70.65 77.342l-3.902-.995c-1.73-.44-3.36-.86-5.234-.71-2.54.2-5.43 1.006-8.84 2.467-6.5 2.783-13.465 7.378-19.064 11.07l-1.282.843c.184-1.454.98-7.834.98-7.834l-9.027-.68C34.49 75.516 39.5 73 43.39 71.124c8.18-3.947 13.88-5.974 18.48-6.574 1.67-.217 4.21.088 7.55.908l3.678.938c6.083 1.583 12.978 3.376 19.677 3.376s13.592-1.794 19.675-3.376z"/><path d="M134.24 75.703l-1.123-.453.51-2.007c.038-.14.082-.297.132-.468.05-.17.11-.355.17-.554-.105.18-.25.39-.448.63-.04.06-.073.09-.093.12l-1.43 1.82-.8-.32.235-2.304c.002-.03.006-.08.015-.144.028-.313.067-.566.116-.76-.08.16-.16.32-.24.476-.085.16-.17.314-.258.468L130.002 74l-1.115-.45 2.458-4.127 1.186.48-.25 2.537-.01.087c-.02.23-.05.418-.09.57.04-.076.09-.157.15-.244.06-.086.135-.19.23-.308l1.583-1.993 1.19.48-1.1 4.675zm-10.91-7.99l1.28.18-.323 2.286c-.047.33-.07.57-.076.72 0 .15.01.274.04.38.03.124.11.23.22.31.116.08.26.132.436.156.176.025.328.014.46-.03.128-.048.228-.127.295-.24.055-.09.1-.21.14-.354.036-.145.08-.385.126-.72l.046-.323.276-1.964 1.275.18-.35 2.483c-.073.515-.157.89-.254 1.127-.096.237-.23.43-.4.584-.188.168-.43.28-.72.337-.296.06-.643.058-1.043 0-.402-.055-.736-.15-1.002-.285-.265-.134-.466-.31-.6-.52-.12-.196-.197-.418-.227-.673-.028-.254-.006-.64.066-1.153l.07-.49.28-1.998zm-7.514 6.428l-1.23-4.58 1.207-.32 2.363 1.896c.046.04.126.12.242.245.115.125.245.275.39.45-.075-.182-.14-.346-.19-.49-.05-.146-.092-.276-.122-.39l-.606-2.265 1.198-.32 1.23 4.58-1.2.32-2.366-1.9c-.05-.04-.13-.12-.246-.246-.114-.126-.242-.274-.385-.446.08.185.15.35.2.495.05.144.09.273.123.39l.606 2.263-1.205.32zm-7.647-2.91l1.24-.332.594 2.23c.09.328.16.56.214.7.055.138.115.25.183.335.077.104.186.17.32.2s.29.02.46-.023c.17-.046.308-.116.41-.208.1-.095.16-.208.18-.337.015-.107.01-.234-.01-.38-.023-.148-.077-.386-.165-.714l-.082-.314L111 70.47l1.244-.334.65 2.425c.134.5.203.88.206 1.14.005.26-.043.49-.142.698-.105.228-.284.425-.53.59-.25.167-.57.3-.96.407-.393.104-.736.147-1.034.128-.298-.02-.55-.1-.76-.243-.187-.13-.343-.308-.47-.53-.124-.224-.255-.586-.39-1.09l-.127-.476-.52-1.946zm-8.09 4.867c.23.18.44.31.64.38.202.076.395.097.58.065.17-.03.3-.1.393-.21.095-.112.13-.237.104-.377-.027-.155-.095-.267-.205-.334-.11-.067-.34-.117-.69-.147-.48-.04-.83-.146-1.055-.31-.223-.164-.366-.42-.426-.764-.08-.446.007-.837.257-1.173.25-.334.61-.542 1.087-.627.26-.048.51-.057.753-.03.244.03.48.095.71.2l-.235.986c-.166-.097-.33-.165-.495-.2-.163-.037-.318-.04-.467-.015-.153.028-.27.087-.353.177-.087.09-.117.194-.098.31.02.117.08.203.174.26.097.054.27.092.522.113l.06.005c.545.047.913.142 1.106.28.13.097.24.22.326.37.085.15.145.324.18.52.087.495-.006.923-.278 1.28-.27.36-.68.587-1.22.683-.327.058-.634.054-.92-.01-.287-.063-.574-.19-.863-.384l.404-1.05zm-6.82-2.67l1.28-.09.16 2.304c.024.34.05.58.077.728.03.148.065.27.114.365.058.117.15.204.278.26.127.054.28.075.456.06s.323-.054.44-.125c.12-.072.2-.17.24-.294.036-.103.056-.23.064-.376.007-.15 0-.394-.024-.732l-.024-.32-.14-1.98 1.284-.09.178 2.505c.035.52.032.905-.014 1.157-.044.25-.134.47-.27.655-.146.206-.36.365-.636.48-.274.118-.615.19-1.018.217-.406.03-.753.002-1.04-.07-.29-.08-.522-.21-.7-.39-.158-.167-.277-.37-.358-.61-.08-.244-.14-.625-.176-1.144l-.033-.492-.14-2.012zM51.59 75.6l-1.853-4.367 2.677-1.137.406.958-1.515.644.32.757 1.43-.606.398.93-1.43.604.314.737 1.516-.643.416.98-2.68 1.135zm10.056-2.982l-1.212.042-.166-4.743 1.35-.047c.53-.02.903-.006 1.12.04.215.043.4.126.553.247.18.137.32.313.42.528.1.214.16.454.17.72.01.282-.025.533-.11.75-.082.22-.21.4-.382.544-.13.1-.285.18-.464.24s-.47.08-.87.09l-.22.01-.232.01.054 1.562zm-.092-2.607h.247c.32-.01.53-.062.65-.15.12-.09.18-.237.17-.443-.002-.2-.07-.34-.19-.42-.124-.08-.34-.112-.646-.1l-.26.01.038 1.112zm4.485 3.13l1.22-4.58 1.25.34-.94 3.513 1.55.417-.287 1.07-2.804-.75zm6.01-3.33l1.24.34-.598 2.23c-.09.33-.144.568-.166.715-.02.147-.025.274-.01.38.016.13.076.24.18.336.1.09.24.163.41.208.17.046.322.054.46.025.13-.03.24-.1.32-.2.067-.086.126-.2.182-.336.054-.14.125-.372.213-.7l.085-.313.515-1.92 1.244.334-.65 2.424c-.135.505-.265.868-.39 1.09-.125.224-.28.4-.47.53-.207.144-.46.226-.757.246-.3.02-.644-.02-1.034-.126s-.712-.24-.96-.407c-.247-.167-.425-.364-.534-.59-.098-.21-.145-.44-.143-.695.004-.254.07-.633.207-1.136l.13-.478.522-1.946zm5.13 6.17l1.06-4.62 1.32.307c.514.12.87.226 1.06.32.19.094.35.214.47.36.14.164.23.356.274.57.044.218.04.444-.015.68-.08.358-.237.63-.464.813s-.516.272-.87.27l.83 2.153-1.425-.33-.64-2.054-.42 1.81-1.18-.275zm1.74-2.16l.232.055c.27.063.48.063.626 0 .146-.064.242-.196.29-.393.052-.232.033-.41-.06-.536-.097-.125-.28-.22-.558-.283l-.252-.057-.28 1.215zm3.892 3.34l.823-4.673 1.287.227-.823 4.674-1.287-.226z"/><path fill="#009248" d="M61.772 68.84l-.306.01.042 1.21.293-.01c.33-.012.55-.064.68-.162.135-.1.198-.26.19-.48-.007-.215-.08-.368-.217-.458-.133-.085-.353-.122-.673-.11zm.004.094c.295-.01.503.022.618.096.11.072.168.196.174.38v.033c0 .17-.05.295-.15.37-.112.083-.32.13-.62.14l-.198.01-.036-1.02.212-.01zm17.384 3.652l-.29 1.262.28.064c.284.065.5.064.656-.004.16-.07.266-.213.315-.425.06-.246.04-.44-.07-.575-.1-.135-.29-.233-.58-.3l-.3-.068-.01.046zm.082.067l.206.047c.264.06.442.15.528.265.054.07.08.165.08.278 0 .066-.008.14-.026.22-.042.18-.13.302-.262.358-.136.06-.336.06-.597 0l-.18-.04.26-1.12z"/><path d="M82.976 41.983v.05h.05c.33 0 1.157-.45 1.887-.847.43-.234.835-.455 1.028-.52l-.03-.097c-.2.06-.59.28-1.04.52-.65.352-1.443.78-1.78.82.017-1.398.44-2.24 1.68-3.306l-.063-.08c-1.29 1.11-1.723 1.977-1.723 3.45z"/><path fill="#FDB913" d="M114.265 42.066c-.94.333-1.96.116-2.507-.97-1.003.872-2.234.994-3.864.354l-6.745-9.178 1.02-9.28c1.71.873 3.61 1.05 4.4.968 5.09-.53.81-4.41 8.18-7.76 2.63-4.856 6.91-6.51 9.36-6.992 12.2-2.407 28.27-1.132 40.793-1.236l16.032-.134c-.99 2.442-4.424 3.97-7.9 4.735-.92 2.23-2.1 3.47-4.91 4.612-.18.886-.835 3.472-7.05 5.67-1.32 3.592-7.74 6.195-13.523 7.28-1.45 2.878-6.553 3.786-9.023 3.42-.223.795-2.008 1.788-2.707 1.71.12.325.247 1.737-1.513 1.373.344 1.12.11 1.743-.4 2.063-.53.33-1.356.34-2.165.24-.164.676-.727.93-1.376.955-.74.028-1.59-.24-2.1-.524.01.94-.62 1.234-1.48 1.173-.97-.07-2.076-.565-2.498-1.026-.16 1.014-1.083 1.43-2.063 1.473-.67.03-1.37-.117-1.87-.364-.07.81-.78 1.116-1.38 1.126-1.145.02-2.524-1.034-2.76-1.72-.314.976-1.106 1.737-1.96 2.04z"/><path d="M124.022 8.742c-1.923.38-6.676 1.84-9.6 7.094-3.964 1.846-4.654 3.905-5.15 5.415-.427 1.31-.663 2.03-2.747 2.24-.75.08-2.536-.1-4.134-.92l-.61-.31-1.12 10.15 6.94 9.44.128.05c1.564.614 2.83.526 3.897-.16.65.857 1.697 1.175 2.807.78.776-.274 1.448-.84 1.887-1.552.65.68 1.726 1.278 2.685 1.26.676-.012 1.365-.34 1.67-1 .498.16 1.048.26 1.587.237 1.072-.05 1.866-.48 2.26-1.18.62.383 1.48.677 2.24.73.67.05 1.185-.093 1.534-.423.158-.15.272-.333.348-.544.53.195 1.167.342 1.757.32.8-.03 1.365-.366 1.656-.93.92.076 1.63-.022 2.118-.327.393-.245.786-.697.786-1.525 0-.126-.016-.27-.035-.415.57-.02.916-.247 1.108-.47.257-.3.344-.685.344-1.02v-.003c.846-.208 1.996-.878 2.46-1.624 2.596.254 7.36-.643 9.014-3.486 5.37-1.034 11.998-3.548 13.598-7.332 4.106-1.484 6.48-3.4 7.085-5.694 2.566-1.08 3.882-2.31 4.86-4.55 2.57-.593 6.796-1.988 8.004-4.966l.268-.66-16.745.14c-3.334.028-6.874-.04-10.62-.114-9.97-.193-21.268-.414-30.267 1.36zm-17.398 15.69c2.696-.28 3.11-1.545 3.552-2.885.472-1.437 1.06-3.224 4.774-4.915l.145-.066.076-.14c2.73-5.022 7.23-6.396 9.04-6.753 8.9-1.755 19.66-1.545 30.067-1.34 3.754.072 7.3.14 10.646.113l15.23-.127c-1.09 1.64-3.65 3-7.202 3.79l-.24.05-.095.23c-.91 2.21-2.086 3.31-4.65 4.35l-.234.094-.05.25c-.425 2.096-2.693 3.885-6.74 5.317l-.21.075-.078.21c-1.227 3.344-7.5 5.913-13.165 6.976l-.23.044-.105.21c-1.366 2.706-6.28 3.5-8.53 3.164l-.416-.06-.113.4c-.15.54-1.685 1.425-2.195 1.367l-.77-.085.27.724c.035.092.077.462-.08.644-.18.21-.635.15-.89.1l-.784-.16.233.766c.356 1.174-.063 1.436-.2 1.522-.244.152-.764.304-1.853.164l-.424-.054-.1.412c-.037.155-.138.56-.934.59-.65.027-1.42-.22-1.853-.462l-.718-.394.01.818c.005.245-.05.42-.16.524-.143.135-.43.195-.812.167-.87-.06-1.845-.51-2.177-.87l-.667-.726-.156.972c-.14.875-1.072 1.046-1.616 1.07-.567.025-1.196-.095-1.64-.313l-.622-.307-.06.693c-.052.63-.71.69-.91.69-.975.02-2.143-.926-2.304-1.397l-.465-1.357-.437 1.366c-.25.785-.905 1.466-1.667 1.736-.397.14-1.378.35-1.924-.733l-.275-.544-.46.4c-.854.738-1.868.826-3.264.306l-6.544-8.906.938-8.463c1.61.67 3.256.837 4.047.755z"/><path fill="#FDB913" d="M78.725 39.463c-.894.374-1.61.54-2.294.515s-1.28-.244-1.86-.643c-.657 1.158-1.652 1.66-2.59 1.654-1.065-.01-1.95-.71-2.406-1.76-.626.93-1.974 2.49-3.385 2.474-.553-.006-1.018-.36-1.244-1.323-.54.266-1.264.51-1.9.56-.82.063-1.49-.2-1.43-1.16-.75.466-1.91.905-2.755.91-.75.002-1.256-.33-1.032-1.287-.176.193-1.373.817-2.3.72-.48-.052-.89-.303-1.04-.917-.793.105-1.68-.086-2.34-.535-.663-.45-1.104-1.154-1.012-2.083-2.326.53-2.385-1.278-2.265-1.604-.756-.172-1.993-.638-2.324-1.434-2.984-.08-6.857-.248-8.93-2.83 0 0 .073-.214-.05-.22-4.717-.202-11.415-2.637-12.736-6.23-5.59-2.094-7.346-4.367-7.837-5.512-3.046-1.028-5.55-2.158-6.21-4.52-3.664-.58-7.977-3.127-8.78-5.756l17.515-.098c12.526-.07 28.593-1.407 40.793 1 2.45.482 7.61 3.202 10.24 8.06 4.54.103 5.917 7.41 9.428 7.475 1.265.023 3.25-1.185 4.86-4.167-.684.2-1.346.29-1.976.284-.59-.006-1.15-.095-1.67-.253 2.84-1.282 2.668-3.485 2.72-4.402-.66.294-1.79.38-2.654.097.532-.69 1.074-2.08.815-3.036-.772.66-1.353.956-2.14 1.12.048-.82-.04-1.52-.335-2.19-1.3-2.933-5.51-1.96-5.425-5.11.515.585 1.25 1.06 2.083 1.06.437 0 .872-.153 1.258-.54.205-.25.29-.55.29-.86.004-.446-.17-.91-.42-1.256-.676-.94-1.65-1.225-2.625-1.195-1.49.045-2.993.82-3.485 1.12.19-2.594 2.554-3.794 4.7-3.8 1.25-.004 2.634.46 3.295 1.276 1.453-1.03 3.002-1.105 4.976-.067 2.21 1.16 7.24 2.53 9.67 1.89-.54 1.226-2.003 1.652-2.702 1.84 1.807-.02 3.572.19 4.903.61-1.01.475-1.865 1.06-2.74 1.535 1.565.14 3.085.216 4.374.86-1.056.247-1.705.672-1.872 1.226.78.72 2.17.715 3.56 1.098 1.307.36 2.615 1.06 3.42 3.03-.787 0-1.6.102-2.283.42 1.803 1.424 3.07 2.82 3.527 4.053-.823.04-1.56.193-2.24.52 1.55 1.183 2.92 2.403 3.73 3.733-.94.115-1.88.304-2.815.567 1.53 1.1 2.68 2.35 3.273 3.6-.614-.133-1.376-.205-1.99-.14 1.67 1.61 3.04 3.407 3.523 5.07-.604-.237-1.272-.37-1.974-.46.43 1.26.72 2.52.802 3.778 2.637 1.973 4.125 4.133 3.898 7.62-.642-.35-1.29-.577-1.94-.678.96 1.673.9 3.282.27 5.204-.48-.593-.98-1.013-1.51-1.26.004 2.057-.285 3.755-.926 5.02l-.74-1.224c-.91 1.96-2.795 4.35-4.516 3.796-1.506 1.51-2.8 1.93-5.18 3.01-.34-.377-.84-.7-1.292-1.05-.656.563-1.166 1.164-1.688 1.956-.46-.633-.964-1.196-1.538-1.655l-1.886.7c-4.06-2.777-7.785-3.513-7.362-7.48-.485.173-.917.64-1.46 1.162-.457-1.32-.49-3.616-.236-5.61-.75.106-1.08.196-1.74.537-.047-.752-.085-2.473.86-4.366-1.016.256-1.254.644-1.78 1.128-.007-1.313.402-2.592 1.09-3.587z"/><path d="M75.96 1.325c-2.338.006-4.955 1.336-5.17 4.24l-.07.916.787-.47c.615-.37 1.995-1.01 3.253-1.05 1-.03 1.727.298 2.23 1 .21.29.336.658.335.978 0 .225-.063.415-.184.566-.232.23-.533.36-.884.36-.81 0-1.433-.562-1.73-.9l-.797-.895-.03 1.2c-.056 2.012 1.43 2.642 2.744 3.197 1.08.457 2.193.93 2.72 2.118.25.566.34 1.174.297 1.97l-.034.62.605-.126c.59-.124 1.083-.33 1.59-.66-.094.647-.39 1.37-.74 1.82l-.41.533.64.21c.686.22 1.556.246 2.297.094-.063 1.006-.365 2.404-2.41 3.33l-1.15.516 1.21.367c.576.174 1.183.267 1.806.272.335.003.675-.023 1.02-.07-1.36 2.09-2.888 3.02-3.894 3.002-1.41-.028-2.52-1.56-3.7-3.18-1.39-1.916-2.97-4.057-5.453-4.264-2.637-4.667-7.653-7.537-10.43-8.084C51.11 7.1 39.437 7.43 29.142 7.72c-3.394.094-6.596.185-9.63.2l-18.16.1.186.61c.872 2.845 5.24 5.363 8.89 6.027.855 2.428 3.505 3.57 6.22 4.495.61 1.246 2.423 3.438 7.82 5.497 1.584 3.73 8.21 6.01 12.713 6.31l.05.07c2.2 2.73 6.24 2.92 9.03 2.99.488.74 1.48 1.14 2.1 1.325.016.377.13.832.45 1.197.3.343.878.668 1.865.582.08.78.483 1.462 1.197 1.945.646.44 1.48.664 2.297.64.245.51.69.83 1.3.893.62.064 1.33-.14 1.88-.384.042.165.107.316.21.444.27.34.706.51 1.294.51.75-.004 1.66-.3 2.385-.645.07.176.17.332.302.464.342.337.858.482 1.534.43.473-.036 1.026-.2 1.564-.41.404.996 1.114 1.17 1.537 1.175 1.427.017 2.67-1.24 3.35-2.097.595.854 1.46 1.37 2.444 1.372 1.084.005 2.05-.56 2.74-1.527.543.293 1.1.49 1.705.51.42.018.857-.04 1.327-.156-.374.857-.586 1.798-.586 2.752v1.11l1.06-1.014c.107-.102.204-.19.303-.276-.3.905-.46 1.855-.46 2.85 0 .197.006.397.02.598l.04.728.647-.333c.408-.208.67-.307.996-.38-.056.6-.1 1.243-.1 1.913 0 1.187.113 2.39.418 3.27l.245.706.75-.728c.155-.15.296-.28.436-.406.145 2.6 2.177 3.787 4.705 5.23.924.528 1.88 1.074 2.873 1.753l.203.14 1.844-.688c.437.38.854.825 1.26 1.386l.4.555.38-.573c.436-.656.858-1.14 1.336-1.59l.035.028c.33.245.644.475.865.72l.23.255 1.327-.594c1.7-.754 2.854-1.285 4.12-2.49 1.62.275 3.304-1.367 4.397-3.32l.744 1.23.386-.766c.57-1.127.87-2.583.944-4.384.238.195.47.428.7.71l.55.68.27-.83c.324-.994.487-1.874.487-2.69 0-.695-.16-1.338-.4-1.97.305.104.608.237.91.4l.65.35.05-.736c.017-.248.024-.49.024-.726 0-2.893-1.22-5.08-3.956-7.177-.08-.933-.29-1.91-.59-2.93.422.08.812.18 1.14.307l.897.35-.267-.923c-.475-1.63-1.69-3.21-2.848-4.45.25.023.506.06.75.114l.947.205-.416-.873c-.51-1.073-1.414-2.14-2.61-3.132.597-.133 1.19-.285 1.78-.357l.733-.09-.386-.63c-.78-1.278-2.02-2.404-3.165-3.32.394-.11.812-.188 1.29-.21l.647-.03-.227-.61c-.41-1.11-1.444-2.354-3.01-3.69.398-.087.827-.145 1.32-.145h.71l-.27-.655c-.93-2.275-2.483-2.96-3.732-3.307l-1.337-.29c-.68-.127-1.274-.247-1.71-.49.246-.253.713-.473 1.35-.62l1.277-.3-1.175-.585c-.94-.47-1.964-.655-3.04-.77l2.366-1.306-1.02-.346c-.84-.27-1.864-.447-2.97-.545.43-.306.822-.71 1.064-1.26l.394-.9-.95.25c-2.24.59-7.13-.7-9.33-1.856-1.945-1.02-3.583-1.02-5.13-.077-.863-.805-2.25-1.19-3.36-1.188zm.003.95c1.197-.004 2.4.448 2.925 1.1l.28.347.364-.258c1.337-.948 2.72-.958 4.48-.033 1.974 1.04 6.04 2.2 8.764 2.09-.5.38-1.13.62-1.702.77l-3.624.98 3.753-.042c1.306-.014 2.542.096 3.606.305l-.73.396-2.25 1.303 1.486.135.43.037c.925.078 1.812.166 2.627.373-.585.34-.87.735-.97 1.063l-.086.286.22.204c.63.583 1.53.753 2.49.933l1.26.278c.98.27 2.05.75 2.82 2.16-.66.06-1.27.177-1.76.4l-.7.327.604.48c1.518 1.2 2.553 2.324 3.094 3.3-.624.088-1.205.226-1.717.47l-.695.336.616.47c1.504 1.15 2.506 2.1 3.19 3.01-.705.116-1.414.26-2.115.456l-.95.265.8.577c1.146.82 2.043 1.71 2.65 2.607-.404-.034-.8-.043-1.136-.008l-1.01.106.73.708c1.454 1.406 2.476 2.763 3.045 3.99-.34-.077-.707-.14-1.11-.19l-.75-.094.245.717c.45 1.31.705 2.505.78 3.655l.017.217.175.13c2.61 1.955 3.725 3.882 3.73 6.522-.47-.196-.943-.354-1.414-.428l-.98-.152.49.857c.45.78.67 1.56.67 2.43 0 .49-.097 1.03-.236 1.604-.344-.32-.694-.59-1.062-.76l-.676-.32v.77c0 1.577-.183 2.892-.535 3.943l-.714-1.176-.375.81c-.94 2.03-2.642 3.96-3.94 3.543l-.273-.09-.207.205c-1.213 1.215-2.27 1.682-4.015 2.457 0 0-.437.193-.732.326-.233-.21-.485-.412-.74-.602l-.654-.492-.295.245c-.513.444-.96.958-1.392 1.548-.394-.48-.794-.91-1.225-1.254l-.21-.17-1.916.715c-.953-.637-1.893-1.18-2.727-1.658-2.522-1.44-4.25-2.425-4.25-4.706 0-.17.01-.35.03-.538l.08-.75-.71.252c-.376.135-.704.405-1.038.71-.12-.63-.18-1.403-.18-2.25 0-.77.05-1.59.152-2.4l.08-.62-.62.09c-.493.07-.83.144-1.195.278.02-1.218.28-2.37.806-3.426l.46-.926-1 .253c-.47.12-.8.27-1.063.437.155-.78.447-1.526.888-2.162l.925-1.333-1.497.626c-.844.355-1.49.5-2.092.48-.58-.022-1.09-.2-1.62-.56l-.424-.292-.253.45c-.51.902-1.304 1.418-2.174 1.413-.835-.005-1.573-.553-1.973-1.466l-.345-.793-.483.72c-.71 1.05-1.916 2.275-2.987 2.26-.153-.002-.562-.01-.786-.96l-.134-.58-.536.265c-.563.275-1.226.47-1.727.51-.38.03-.662-.028-.795-.16-.096-.096-.14-.263-.124-.498l.056-.916-.78.487c-.666.413-1.74.833-2.508.836-.27 0-.47-.052-.547-.15-.076-.093-.083-.29-.022-.55l.343-1.46-1.14 1.02c-.15.132-1.16.66-1.91.58-.357-.04-.544-.206-.63-.557l-.1-.415-.422.055c-.693.09-1.466-.087-2.017-.46-.414-.28-.89-.79-.806-1.644l.064-.654-.644.146c-.482.11-1.13.17-1.47-.183-.203-.21-.25-.515-.25-.688 0-.053.004-.093.01-.115l.123-.473-.47-.144c-.8-.182-1.77-.62-1.99-1.152l-.12-.283-.305-.01c-2.58-.067-6.45-.18-8.466-2.547-.01-.09-.02-.18-.08-.27-.096-.14-.25-.225-.424-.23-4.87-.21-11.123-2.694-12.31-5.92l-.074-.205-.205-.076c-5.71-2.14-7.193-4.388-7.565-5.255l-.084-.196-.2-.068c-3.228-1.09-5.34-2.17-5.906-4.2l-.08-.293-.3-.05c-3.443-.544-6.98-2.7-8.116-4.816 1.356-.01 16.78-.096 16.78-.096 3.047-.017 6.255-.11 9.65-.203 10.25-.285 21.865-.612 31.053 1.2 2.563.507 7.487 3.34 9.916 7.82l.13.24.275.008c2.177.05 3.6 2.01 4.98 3.907 1.32 1.818 2.567 3.535 4.45 3.57C81.31 25.44 83.49 24.3 85.272 21l.544-1.005-1.094.322c-.62.182-1.237.27-1.84.265-.107 0-.205-.04-.31-.046 1.706-1.29 1.787-2.98 1.816-3.87l.04-1-.697.303c-.395.173-1.052.233-1.686.166.32-.61.585-1.396.585-2.133 0-.23-.024-.454-.08-.665l-.197-.726-.57.487c-.507.43-.91.685-1.368.853-.026-.65-.135-1.227-.37-1.755-.677-1.53-2.026-2.1-3.215-2.605-.806-.34-1.38-.635-1.744-1.052.386.177.785.28 1.188.28.6 0 1.15-.235 1.594-.68.29-.356.424-.755.427-1.19.002-.52-.185-1.083-.513-1.538-.68-.95-1.73-1.433-3.022-1.393-1.058.03-2.086.395-2.798.715.593-1.664 2.387-2.444 4.026-2.45zm-38.81 28.3l-.003.006h.002z"/><path fill="#FDB913" d="M83.525 47.482c-.076 2.72-.935 7.655-3.36 9.385-2.05 1.462-4.972.457-6.493 2.51l.19 1.232c2.295.02 2.773.19 5.225-1.52-1.577 1.12-2.572 1.83-2.76 3.68.616.13.912.673 1.33.93.748-.79 1.678-1.663 2.696-3.354-.135 1.323-.77 2.25-.77 3.523.543-.088 1.086-.1 1.63 0 .475-1.04 1.714-3.385 1.714-4.59 1.423 0 2.41-.25 3.748-.48.604-.103 1.258.056 2.06-.07.075-.6.007-1.124.007-1.658-1.49-.467-1.678-.927-3.465-1.767-.642-1.418.2-3.704.658-6.066-.813-.45-1.48-1.17-1.81-2.115-.197.087-.4.21-.6.35z"/><path d="M83.938 46.697l-.917.53.03.242c-.07 2.77-.98 7.45-3.16 9.01-.81.58-1.79.73-2.83.88-1.374.21-2.8.424-3.762 1.727l-.117.16.28 1.822.94.013c.806.013 1.397.02 1.994-.104-.27.475-.46 1.03-.534 1.74l-.045.422.416.087c.265.056.456.24.678.453l.845.698.25-.357.285-.298c.3-.314.638-.67.994-1.087-.1.38-.174.78-.174 1.226v.56l.55-.09c.528-.086 1.008-.087 1.468 0l.36.064.446-.945c.67-1.4 1.25-2.718 1.405-3.72.967-.032 1.753-.17 2.633-.33l.784-.14.805-.02c.366.01.78.024 1.25-.05l.39-.06.004-.35.026-1.224-.025-.83-.322-.113c-.79-.248-1.172-.483-1.702-.81-.385-.24-.832-.51-1.512-.84-.096-.27-.147-.575-.147-.92 0-.862.25-1.93.51-3.036l.448-2.026-.313-.16c-.763-.425-1.313-1.066-1.59-1.857l-.19-.54-.444.26zm-6.74 11.61c1.103-.166 2.243-.34 3.243-1.053 2.52-1.797 3.39-6.51 3.54-9.322.34.612.83 1.128 1.43 1.526l-.295 1.345c-.272 1.16-.535 2.275-.535 3.252 0 .53.077 1.02.273 1.453l.07.16.16.073c.747.36 1.204.64 1.607.89.47.29.903.547 1.592.794l.004.193-.012.685c-.23.013-.46.018-.68.01l-.993.036-.793.14c-.957.178-1.785.33-2.87.33h-.475v.476c0 .896-.86 2.694-1.376 3.768l-.153.322c-.26-.028-.53-.036-.8-.02.06-.414.16-.815.29-1.224.17-.53.34-1.078.41-1.73l.216-2.11-1.094 1.817c-.856 1.423-1.637 2.236-2.327 2.95l-.06-.05c-.18-.17-.414-.35-.688-.497.25-1.388 1.057-2.014 2.486-3.028l-.545-.777c-2.12 1.478-2.604 1.47-4.406 1.44l-.14-.003-.09-.6c.732-.864 1.792-1.048 3.02-1.235z"/><path fill="#FDB913" d="M76.087 65.81c-.352-.53-.577-2.106.075-2.997.406.162 1.23.407 1.56.78-.49.48-1.322 1.51-1.635 2.217z"/><path d="M75.78 62.53c-.77 1.05-.563 2.826-.09 3.542l.48.723.35-.792c.29-.65 1.09-1.636 1.533-2.07l.322-.313-.297-.338c-.35-.396-1.008-.638-1.49-.815l-.587-.22-.22.284zm.44 1.8c0-.325.072-.638.186-.92.19.072.405.16.598.257-.244.277-.505.61-.75.958-.01-.1-.033-.19-.033-.296zm14.167-20.046c.49.508 1.176 2.136 1.176 3.693 0 .3-.026.596-.082.88-.15.797-.55 1.397-1.15 1.808-.322-1.026-1.123-2.725-2.35-3.49l-.382-.243-.256.375c-.33.48-.52 1.082-.64 1.738-1-.37-1.78-1.103-2.117-2.068l-.17-.482-.47.203c-.76.33-1.514 1.072-2.015 1.563l-.063.06c-.7-.85-1-1.59-1.03-2.58l-.01-.56-1.378.27.26.91.245-.042c.137 1.096.586 2.014 1.52 3.025l.322.35.315-.295.483-.45c.356-.35.855-.834 1.345-1.152.586 1.164 1.66 2.038 3.016 2.35l.537.127.04-.554c.04-.543.18-.995.367-1.4 1 .95 1.615 2.72 1.656 3.12l.065.645.595-.26c1.18-.512 1.943-1.472 2.2-2.776.407-2.04-.522-4.573-1.34-5.42l-.683.66zm.176-26.524c-.528 2.212-1.66 2.827-2.878 3.133.12-.41.19-.855.19-1.29 0-.31-.034-.614-.104-.89l-.27-1.06-.58.923c-.784 1.23-1.885 1.87-3.367 1.96l.057.945c1.31-.07 2.397-.54 3.26-1.36-.063.44-.175.87-.375 1.17l-.63.937 1.11-.206c1.35-.25 3.125-.592 4.104-2.81.07.287.11.57.11.853 0 .258-.025.52-.064.79l-.14 1.006.862-.54c1.572-.984 1.91-2.017 1.956-3.467l-.95-.034c-.03.905-.166 1.512-.724 2.08-.02-.69-.187-1.435-.695-2.273l-.6-.986-.266 1.125zM81.026 4.51c-.768.01-1.272.457-1.317 1.163-.03.415.19.753.4 1.08.215.33.44.674.44 1.125h.95c0-.733-.347-1.26-.597-1.644-.123-.188-.26-.4-.255-.5.007-.127.017-.27.385-.276.566-.01 1.228.39 1.995.854 1.204.726 2.7 1.63 4.82 1.646l.008-.95c-1.86-.01-3.177-.806-4.337-1.508-.89-.54-1.66-1.004-2.495-.99zm-.276.79c.18.998.985 2.225 2.326 2.563.374.094 1.076.196 1.563-.188.2-.16.44-.47.43-1.028l-.95.012c0 .09-.01.22-.076.27-.114.09-.42.09-.743.01-.892-.23-1.493-1.08-1.625-1.81l-.935.17zm16.21 11.028c.51.582.752 1.12.8 1.654-.814-.566-1.766-.905-2.6-.896l.012.95c.828-.01 1.914.49 2.64 1.217l.55.548.238-.73c.367-1.132.063-2.23-.928-3.36l-.712.626zm1.35 5.442c.16.295.334.782.402 1.32-.518-.566-1.12-.975-2.03-1.2l-.227.922c.978.24 1.52.68 2.234 1.808l.53.84.32-.942c.44-1.32-.06-2.57-.4-3.198l-.837.45zm-12.108 5.476l.128.95.677-.678c.755-.754 2.26-1.442 2.906-1.538l-.138-.938c-.587.087-1.71.54-2.625 1.152.097-.75.43-1.392.99-1.79l-.55-.774c-1.07.765-1.59 2.116-1.388 3.616zm8.658.098c.267.447.398 1.07.398 1.695 0 .24-.037.48-.078.72-.668-1.15-1.578-2.05-2.608-2.54l-.41.852c1.105.526 2.1 1.685 2.666 3.096l.36.907.49-.845c.705-1.222.705-3.187 0-4.38l-.817.484zm5.602-.39c.332.632.496 1.334.496 2.125 0 .03-.008.06-.008.09-.66-.808-1.45-1.61-2.677-2.11l-.354.88c1.28.515 1.98 1.42 2.73 2.376l.93 1.18.187-1.037c.276-1.526.122-2.82-.474-3.955l-.84.44zm.7 5.294c.316.43.438.924.438 1.403 0 .16-.034.3-.056.45-.6-.84-1.523-1.763-2.674-2.13l-.287.906c1.254.398 2.336 1.775 2.672 2.58l.4.96.462-.933c.483-.974.722-2.55-.193-3.792l-.762.566zM84.92 34.464l.09 1.052.727-.765c.78-.82 2.263-1.84 3.294-2.06l-.19-.93c-.92.2-2.02.85-2.894 1.55.195-1.06.804-1.908 1.78-2.346l-.387-.865c-1.653.74-2.577 2.415-2.41 4.37zm-4.094-5.637v.9l.743-.51c.82-.57 1.98-1.197 2.46-1.343l-.27-.91c-.46.14-1.23.542-1.93.96.13-1 .523-2.33 1.692-3.005l-.475-.83c-2.01 1.16-2.23 3.694-2.23 4.73zm20.97 9.18c.683.573 1.593 1.665 1.915 2.86l.22.81.58-.604c1.18-1.225.8-2.777.64-3.44l-.04-.17-.93.2.05.197c.07.277.168.666.168 1.088 0 .243-.03.498-.12.748-.48-1.013-1.225-1.878-1.86-2.414l-.61.726zm-6.284 2.267l.05 1.025.747-.7c.95-.9 1.98-1.54 2.98-1.87l-.295-.9c-.795.26-1.598.7-2.37 1.27.24-.807.724-1.59 1.355-1.88l-.396-.86c-1.37.63-2.146 2.52-2.08 3.91zm-5.078-2.858c.67.25 1.38 1.232 1.698 2.186-.855-.607-1.645-.84-2.313-1.03l-.55-.164-.3.9.582.175c.89.253 1.81.515 2.87 1.622l.71.743.103-1.023c.16-1.55-1.14-3.798-2.48-4.297l-.33.888zM78.836 2.97l.03 1.212.947-.023-.03-1.22-.947.022m.942 30.778l-.025.976 1.308-.973c.34-.25.62-.466.93-.646-.426.947-.656 1.904-.656 2.84 0 .3.02.6.068.89l.94-.143c-.21-1.36.164-2.83 1.08-4.25l.634-.98-1.137.26c-.785.18-1.335.49-1.866.864.42-.93 1.205-1.77 2.027-1.993l-.25-.915c-1.575.43-2.996 2.332-3.04 4.07zm1.852 2.603l.465.825.087-.048-.467-.826-.086.05m-3.44 3.033l.8.51c1.11-1.74 2.76-2.8 4.41-2.84l-.02-.948c-2 .044-3.89 1.24-5.196 3.276zM19.03 8.673c2.51 3.766 4.824 5.805 9.864 5.796 4.017-.01 8.623-1.33 11.67-2.2l-.26-.917c-2.998.86-7.527 2.156-11.412 2.163-4.637.007-6.694-1.804-9.073-5.375l-.79.527zm5.228 4.923c1.478 2.994 4.186 4.433 8.277 4.4 4.914-.04 7.05-.613 9.526-1.276l-.24-.913c-2.412.646-4.495 1.204-9.29 1.243-3.745.03-6.1-1.2-7.42-3.87l-.85.42zm17.223 8.07c1.31 2.577 4.49 3.98 8.97 3.95 2.97-.02 6.344-.69 9.498-1.88l-.334-.887c-3.05 1.15-6.306 1.79-9.166 1.81-4.097.03-6.98-1.19-8.113-3.43l-.845.43z"/><path d="M31.646 17.887c1.94 2.293 6.1 3.896 10.353 3.99 1.6.037 7.17.017 11.32-1.75l-.37-.873c-3.98 1.692-9.378 1.71-10.938 1.676-4.59-.102-8.22-1.966-9.65-3.656l-.725.613zM46.33 25.11c.645 1.615 1.872 2.753 3.642 3.383 4.13 1.47 10.248-.233 13.27-1.912l-.46-.83C60 27.3 54.102 28.96 50.29 27.6c-1.502-.534-2.54-1.49-3.08-2.842l-.88.354zm11.146 6.1c.436.827 1.24 1.424 2.33 1.728 1.883.525 4.48.12 6.316-.984l-.49-.813c-1.603.97-3.947 1.34-5.57.89-.844-.233-1.43-.655-1.746-1.254l-.84.44zm-4.89-2.35c.467.705 1.56 2.355 4.493 2.6 2.11.178 4.86-.394 8.18-1.698l-.35-.883c-3.185 1.25-5.796 1.8-7.76 1.63-2.475-.21-3.324-1.49-3.78-2.18l-.79.523zm8.838 3.97c.07.834 1.092 1.79 2.43 2.273.912.33 3.25.87 5.272-1.188l-.676-.665c-1.638 1.668-3.534 1.228-4.274.96-1.118-.403-1.778-1.12-1.806-1.46l-.946.08z"/><path d="M71.732 35.116c-.34.825-1.472 1.355-2.816 1.322-1.123-.028-2.542-.48-3.158-1.66l-.84.44c.674 1.292 2.197 2.123 3.974 2.168 1.455.037 2.672-.486 3.342-1.34.764.74 1.714 1.168 2.702 1.16 1.09-.012 2.148-.538 3.082-1.49.77.157 1.543.145 2.308-.09l-.28-.907c-.696.21-1.372.22-2.068.04l-.28-.08-.194.212c-.794.877-1.686 1.345-2.577 1.354-.884.01-1.753-.447-2.383-1.25l-.5-.64-.312.75zm-60.735-21.34l-.182.93c4.374.855 9.97.363 14.357-.16l-.113-.943c-4.32.515-9.82 1-14.07.173zm6.045 4.464l-.226.92c4.636 1.134 11.536.984 16.05-.35l-.27-.91c-4.374 1.293-11.06 1.438-15.554.34zm7.753 6.42c7.94 2.88 18.476 1.094 21.516.48l-.18-.93c-2.98.603-13.295 2.353-21.004-.442l-.323.892zm13.047 5.348v.95c4.153 0 10.218-1.13 12.48-2.324l-.443-.84c-2.12 1.118-8.08 2.214-12.04 2.214zM46.56 33.1l-.035.947c2.097.08 7.272-1.19 9.45-2.84l-.573-.756c-1.995 1.52-6.922 2.73-8.84 2.65zm2.38 1.424l-.076.945c3.034.24 7.604-.41 10.5-3.04l-.636-.7c-2.672 2.42-6.943 3.02-9.788 2.79zm5.18 4.276l.615.723c.653-.555 1.366-1.402 1.957-2.325l-.8-.51c-.533.833-1.196 1.623-1.77 2.112zm3.294.304l.597.737c.65-.52 1.19-1.15 1.76-2.06l-.8-.5c-.507.81-.985 1.37-1.55 1.83zm3.95.203l-.097.108.71.63.095-.107 1.14-1.307-.734-.6-1.114 1.28m3.34.7l.73.604 1.46-1.763-.732-.605L64.704 40m-28-26.906c.714 1.752 2.486 3.55 4.494 3.6 2.516.06 6.1-1.037 8.916-2.73l-.488-.813c-2.676 1.61-6.054 2.65-8.405 2.6-1.59-.04-3.04-1.54-3.63-3.01l-.88.36z"/><path d="M47.266 17.313c-1.383 0-2.517-.51-3.467-1.552l-.71.64c1.122 1.24 2.524 1.86 4.17 1.87 2.74 0 5.784-1.7 8.41-3.363l-.51-.8c-2.36 1.496-5.39 3.216-7.9 3.213z"/><path d="M57.962 16.807c-1.665 1.15-3.387 2.338-5.033 2.39-1.22.038-2.32-.554-3.38-1.81l-.73.61c1.256 1.493 2.607 2.196 4.13 2.148 1.926-.06 3.764-1.33 5.542-2.558l.83-.57-.53-.787-.84.577z"/><path d="M56.876 20.53c-1.55.087-2.042-.508-2.32-1.102l-.86.402c.56 1.198 1.618 1.736 3.232 1.647 1.805-.1 3.98-1.157 5.82-2.828l-.64-.71c-1.68 1.53-3.638 2.495-5.232 2.583z"/><path d="M59.29 21.908c-.595-.17-1.046-.533-1.343-1.08l-.834.452c.422.78 1.067 1.297 1.917 1.54 1.592.454 3.782-.105 6.51-1.662l-.47-.824c-3.112 1.776-4.86 1.836-5.78 1.574z"/><path d="M59.053 22.513c.302 1.012.918 1.73 1.833 2.135 2.63 1.163 6.753-.696 7.554-1.08l-.41-.856c-1.634.785-4.896 1.893-6.76 1.068-.66-.29-1.086-.794-1.31-1.538l-.907.27z"/><path d="M61.683 24.918c1.676 3.006 4.084 3.39 9.2 1.472l-.332-.888c-5.21 1.955-6.79 1.182-8.03-1.046l-.83.462zm3.727 2.532c.46 1.127 1.298 1.924 2.42 2.306 1.65.56 3.85.188 5.887-.997l-.477-.82c-1.803 1.04-3.71 1.39-5.105.91-.867-.295-1.488-.89-1.848-1.768l-.877.36z"/><path d="M69.713 29.907c.497 1.134 1.334 1.915 2.357 2.2 1.23.342 2.687-.037 4.323-1.08.59 1.284 1.468 1.547 2.728 1.53l-.01-.948c-1.08.01-1.6-.12-2.03-1.44l-.2-.61-.52.37c-1.603 1.13-2.958 1.56-4.026 1.26-.953-.27-1.473-1.05-1.742-1.67l-.87.38zm84.51-17.644c-4.07-.006-7.63-.44-10.59-1.288l-.26.912c3.04.872 6.69 1.317 10.85 1.324 4.395.01 7.225-1.42 9.763-4.93l-.77-.555c-2.366 3.278-4.89 4.55-8.994 4.546z"/><path d="M149.338 16.73c-1.943.012-4.494-.365-7-1.036l-.245.916c2.584.692 5.227 1.08 7.25 1.068 3.86-.025 6.466-1.475 8.717-4.85l-.79-.526c-2.082 3.122-4.38 4.405-7.932 4.427zm-24.51 5.756c2.28 1.504 5.737 3.504 9.387 3.506 2.564 0 4.935-.986 7.044-2.934l-.65-.696c-1.958 1.806-4.05 2.684-6.4 2.682-3.398 0-6.688-1.912-8.868-3.35l-.524.792z"/><path d="M141.147 22.08c-2.624.076-7.89-1.42-10.496-3.393l-.57.757c2.8 2.12 8.27 3.666 11.1 3.583 4.568-.134 9.04-3.458 10.79-5.523l-.724-.613c-1.64 1.94-5.833 5.07-10.09 5.19zm-19.163 3c1.327 2.464 4.707 4.283 8.036 4.322 2.97.036 5.363-1.273 6.738-3.686l-.824-.47c-1.614 2.833-4.39 3.226-5.902 3.208-3.006-.036-6.04-1.645-7.213-3.825l-.84.45zm.686 7.875c-1.582.05-3.382-.51-4.478-1.394l-.595.74c1.28 1.03 3.282 1.66 5.103 1.61 1.747-.054 3.115-.73 3.852-1.893l-.802-.506c-.76 1.203-2.255 1.426-3.08 1.45z"/><path d="M118.355 28.57c3.184 3.034 6.164 3.41 8.104 3.192 2.5-.282 4.26-1.627 4.78-2.41l-.79-.523c-.35.51-1.86 1.73-4.1 1.99-1.74.19-4.43-.16-7.35-2.94l-.65.682zm1.095 5.994c-.84.08-2.076-.063-3.197-1.205l-.677.66c1.384 1.41 2.92 1.58 3.964 1.48 1.697-.164 3.098-1.147 3.554-1.99l-.834-.45c-.337.622-1.507 1.372-2.81 1.5z"/><path d="M112.42 35.448c-.337.84-.825 1.38-1.306 1.448-.487.07-.93-.35-1.213-.71l-.74.583c.79 1.01 1.578 1.14 2.096 1.06.66-.095 1.245-.568 1.7-1.337.8.876 1.91 1.33 3.114 1.204 1.41-.148 2.603-1.04 3.04-2.275l-.898-.315c-.313.89-1.192 1.538-2.242 1.648-1.11.117-2.095-.387-2.698-1.38l-.49-.81-.356.877zm46.906-23.058c2.11.71 4.695 1.113 7.474 1.162 2.194.04 4.418-.148 6.432-.54l-.183-.932c-1.95.38-4.11.56-6.24.523-2.68-.047-5.168-.432-7.19-1.113l-.303.9zm-.328 5.697c-2.842-.037-5.45-.524-6.974-1.303l-.432.844c1.672.855 4.368 1.37 7.394 1.408 3.185.042 6.476-.442 9.265-1.363l-.29-.9c-2.69.888-5.87 1.354-8.954 1.314zm-11.042 6.728c-3.237.047-6.344-.282-8.746-.928l-.246.917c2.484.667 5.683 1.008 9.005.96 4.84-.07 9.49-.93 13.1-2.424l-.36-.876c-3.506 1.448-8.037 2.284-12.76 2.35zM133.56 28.28c1.867 1.828 9.57 2.872 14.176 2.346l-.107-.943c-4.63.528-11.9-.6-13.41-2.08l-.67.676zm-3.574 1.94c2.118 1.608 6.405 3.8 8.574 3.718l-.036-.948c-1.75.066-5.79-1.875-7.965-3.525l-.58.756zm-3.82 1.782c2.244 2.717 6.55 4.187 10.474 3.573l-.146-.937c-3.608.563-7.555-.77-9.596-3.24l-.732.604zm3.322 4.32l.457.73c.472.76 1.006 1.62 1.488 2.237l.747-.59c-.45-.58-.97-1.418-1.43-2.156l-.463-.74-.8.51zm-2.875.605l.447.98c.286.668.557 1.3.894 1.667l.698-.64c-.227-.25-.48-.834-.72-1.4l-.476-1.043-.843.44zm-3.58.6l.328.864c.38 1.04.53 1.42.69 1.6l.726-.61c-.096-.14-.357-.868-.514-1.3l-.366-.957-.856.413zm-4.21 1.213l1.04 1.955.84-.445-1.043-1.956-.836.446m24.113-23.16c-2.39.058-4.52-1.22-6.983-2.702l-.488.813c2.592 1.56 4.83 2.91 7.493 2.84 1.91-.04 4.44-1.84 5.2-3.71l-.88-.35c-.617 1.508-2.81 3.08-4.35 3.12z"/><path d="M130.857 15.678l.233.132c3.064 1.72 7.26 4.077 11.078.737l-.625-.714c-3.313 2.898-7.015.82-9.988-.85l-.234-.132-.46.83zm-5.432 1.395c1.902 1.28 3.405 2.29 5.663 2.362 1.403.043 2.887-.048 4.24-1.657l-.727-.61c-1.08 1.287-2.21 1.358-3.48 1.318-1.89-.06-3.13-.835-5.16-2.2l-.53.787z"/><path d="M121.955 18.98c.905.822 3.518 1.93 5.716 1.862 1.37-.042 2.39-.547 2.93-1.46l-.81-.488c-.372.632-1.1.97-2.14 1-1.9.058-4.3-.935-5.05-1.617l-.64.702zm1.718 3.077c-1.09 0-2.43-.45-3.985-1.34l-.47.825c1.7.97 3.2 1.462 4.454 1.463 1.546 0 2.77-.748 3.535-2.163l-.834-.452c-.607 1.122-1.49 1.667-2.7 1.667zm-2.147 2.13c-1.02.09-2.21-.147-3.266-.655l-.41.855c1.205.58 2.576.852 3.76.746 1.554-.14 2.73-.904 3.404-2.21l-.843-.435c-.52 1.017-1.41 1.59-2.64 1.7z"/><path d="M119.03 27.255c-1 .008-2.296-.37-4.08-1.193l-.398.86c1.917.884 3.343 1.29 4.486 1.282 2.006-.017 3.028-1.366 3.762-2.685l-.828-.47c-.875 1.57-1.7 2.19-2.94 2.2zm-3.337 12.293v.547h.95v-.547h-.95m.622-10.004c-.91.067-2.056-.24-2.85-.76l-.976-.643.25 1.15c.14.648.07 1.227-.2 1.628-.17.255-.41.417-.7.468-.497.088-1.064-.15-1.64-.69l-.648.692c1.013.95 1.892 1.03 2.45.933.543-.094 1.015-.405 1.327-.873.27-.4.4-.896.416-1.438.836.36 1.796.55 2.63.49 1.325-.098 2.337-.806 2.85-1.993l-.87-.376c-.377.87-1.065 1.35-2.05 1.42zM95.495 47.81c.03 1.416.526 2.622 1.44 3.486l.62.59.19-.952c.1-.485.2-.956.503-1.574.25.237.49.49.71.797l.423.586.69-1.15c.38-.672.87-1.487 1.77-2.085.6.35 1.4 1.108 1.91 1.597l1.003.925.26-.564c.506-.94 1.066-1.46 1.764-2.01l.378.224.548-.775-1.034-.613-.22.214c-.597.456-1.31 1.034-1.948 2.002l-.094-.086c-.654-.63-1.64-1.58-2.406-1.912l-.22-.094-.207.118c-1.245.714-1.85 1.75-2.29 2.528-.273-.304-.557-.584-.883-.83l-.42-.317-.273.452c-.366.61-.555 1.092-.683 1.526-.36-.59-.563-1.29-.58-2.104l-.002-.13c0-1.6.67-3.04 1.14-3.52l-.683-.66c-.71.73-1.44 2.495-1.402 4.322z"/><path fill="#FDB913" d="M71.83 62.012c-.075-.866.57-2.523 1.834-2.993-.058.53-.037 1.26.222 1.74-.74.15-1.54.73-2.055 1.244z"/><path d="M73.5 58.575c-1.468.545-2.237 2.394-2.142 3.48l.088 1.01.72-.717c.434-.433 1.17-.985 1.815-1.118l.63-.128-.3-.562c-.2-.37-.22-1.002-.166-1.47l.083-.763-.72.268zm-.308 1.308c.016.198.05.387.104.59-.26.103-.503.22-.727.363.14-.345.34-.684.62-.953z"/><path fill="#FDB913" d="M80.835 66.522c-.8-.357-1.634-1.355-1.237-2.58.508-.095 1.188-.155 1.696.033-.23.85-.552 1.826-.46 2.547z"/><path d="M79.51 63.475l-.276.052-.087.27c-.458 1.414.428 2.684 1.495 3.16l.77.345-.106-.838c-.067-.524.152-1.305.345-1.994l.22-.79-.41-.148c-.62-.23-1.4-.16-1.95-.057zm1.19.883c-.12.427-.214.85-.28 1.267-.25-.275-.448-.63-.448-1.06 0-.06.023-.127.03-.19.263-.03.49-.035.697-.017z"/><path fill="#FDB913" d="M91.18 59.245c-.116-1.066-1.457-2.07-2.41-2.056.094.53.034 1 .022 1.5.822.08 1.81.31 2.387.55z"/><path d="M88.763 56.714l-.558.008.097.55c.063.35.046.687.03 1.043l-.03.815.443.037c.765.076 1.712.293 2.253.517l.74.306-.087-.795c-.14-1.334-1.73-2.498-2.88-2.48zm.533 1.123c0-.017-.003-.036-.004-.053.35.134.687.38.96.682-.318-.075-.646-.136-.97-.184.007-.146.014-.293.014-.445zm-7.033-4.277l.027.95 1.68-.008 1.045.003-.005-.948-1.032-.004-1.715.008m.555-1.63l.017.95 2.45-.043-.017-.95-2.45.047m2.502-1.686l-2.133.044.015.95 2.43-.047.43-.66c-.127-.297-.333-.29-.74-.285zm-7.03 7.398c-.708.156-1.438.228-2.128.366.075.08.177.13.278.18l.07 1.13c.496.145.405-.48.9-.48l.905-.28c0-.07-.003-.45-.024-.91zm-1.7 2.82c.402-.113.82-.3 1.34-.61-.003-.036-.006-.074-.006-.11-.424 0-.99.14-1.273.355 0 .08-.02.213-.06.368zm1.354-.513c-.658.533-1.137 1.07-1.404 1.837.615-.01 1.302 0 1.738.215.188-.565-.237-1.465-.334-2.056zm2.202 1.456c-.154.544-.35 1.05-.463 1.593l.892-.38c.07-.285.823-1.24 1.177-1.24-.164-.165-1.048-.04-1.606.024zm7.977-4.417c-1.145-.263-1.282-.89-2.662-1.584.17 1.456.88 2.496 2.58 2.496.06-.242.08-.566.09-.912z"/><path fill="#FDB913" d="M102.65 47.51c.078 2.722.57 7.047 2.995 8.778 2.048 1.462 3.64.974 5.106 2.29l-.12 1.476c-2.58-.842-1.6-.056-3.68-.65 1.58 1.12 2.08 1.154 2.27 3.003-.614.13-.91.673-1.33.93-.75-.79-2.11-1.168-3.13-2.86.137 1.323.34 2.56.34 3.833-.544-.088-1.086-.1-1.63 0-.477-1.042-1.592-3.385-1.592-4.59-1.422 0-1.48-1.487-2.82-1.716-.603-.104-1.505.365-2.307.237-.075-.59-.007-1.12-.007-1.65 1.49-.464 1.926-1.42 3.713-2.26.64-1.42.087-3.27-.37-5.63.39-.847 1-1.23 1.71-1.79.202.09.664.47.862.61z"/><path d="M101.497 46.53l-.28.215c-.607.468-1.18.908-1.568 1.747l-.07.14.24 1.208c.235 1.134.44 2.12.44 2.957 0 .44-.07.835-.208 1.195-.778.39-1.314.795-1.78 1.157-.547.42-.98.76-1.685.98l-.324.1-.02.84.03 1.62.39.012c.515.08 1.026-.033 1.48-.133.322-.07.63-.14.82-.106.467.08.72.364 1.043.724.334.37.753.8 1.44.94.143 1.134.813 2.713 1.48 4.16l.25.55.365-.07c.46-.084.938-.083 1.467 0l.55.09V64.3c0-.774-.074-1.525-.16-2.293.434.406.87.71 1.254.97.355.235.66.44.884.68l.305.32.286-.24.504-.42c.224-.215.415-.398.678-.45l.418-.09-.046-.425c-.123-1.207-.403-1.76-.956-2.254.283 0 .683.05 1.75.4l.57.186.192-2.31-.176-.157c-.82-.737-1.654-.96-2.536-1.2-.814-.22-1.66-.446-2.61-1.125-2.16-1.54-2.71-5.42-2.794-8.402l-.007-.23-.41-.31-1.018-.686-.2.256zm.3.97l.015-.013c.152.11.318.227.318.227l.06.044c.11 3.167.762 7.19 3.18 8.917 1.092.78 2.062 1.04 2.917 1.27.73.198 1.37.385 1.97.855-.015.184-.026.33-.052.63-1.012-.292-1.378-.282-1.714-.262-.27.016-.53.03-1.41-.218l-2.78-.794 3.03 2.084c.935.63 1.22.872 1.368 1.893-.282.15-.524.33-.71.508l-.09.08c-.22-.18-.45-.35-.702-.52-.662-.44-1.414-.95-2.023-1.96l-1.12-1.86.36 3.227c.09.755.16 1.476.19 2.197-.287-.02-.566-.012-.837.017-.484-1.05-1.41-3.092-1.41-4.09v-.475h-.476c-.514 0-.76-.245-1.15-.682-.354-.396-.796-.89-1.59-1.026-.376-.065-.77.02-1.187.115-.25.056-.5.09-.74.11l-.01-.646.008-.203c.68-.27 1.166-.63 1.66-1.014.49-.38.996-.773 1.79-1.147l.16-.077.07-.16c.24-.527.33-1.1.33-1.72 0-.95-.216-2.003-.454-3.152l-.176-.874c.285-.54.68-.86 1.215-1.27z"/><path fill="#FDB913" d="M109.456 65.253c.35-.53.577-2.106-.076-2.997-.405.162-1.155.72-1.484 1.095.49.48 1.18 1.2 1.56 1.91z"/><path d="M109.203 61.814c-.512.206-1.314.826-1.664 1.223l-.3.338.32.314c.263.26 1.08 1.05 1.47 1.78l.375.7.44-.66c.473-.72.68-2.496-.09-3.54l-.218-.3-.34.138zm-.037 1.104c.096.262.155.544.155.832 0 .146-.02.272-.04.41-.23-.29-.47-.56-.7-.8.187-.157.4-.314.594-.442z"/><path fill="#FDB913" d="M112.723 61.518c.076-.865-.57-2.523-1.834-2.992-.02.51-.07.99-.23 1.5.706.29 1.515 1.078 2.055 1.492z"/><path d="M110.415 58.507c-.02.5-.062.928-.2 1.38l-.13.415.402.165c.45.184 1.005.65 1.45 1.023l1.19.973.067-.903c.096-1.085-.673-2.933-2.14-3.48l-.615-.228-.03.655zm.883.84c.292.264.508.596.667.948-.25-.196-.503-.353-.764-.5.04-.15.08-.304.1-.448z"/><path fill="#FDB913" d="M103.903 66.708c.8-.357 1.634-1.355 1.237-2.58-.508-.096-1.188-.155-1.696.033.23.85.552 1.83.46 2.55z"/><path d="M103.28 63.715l-.41.15.218.788c.193.69.412 1.47.345 1.994l-.107.838.772-.345c1.066-.477 1.953-1.746 1.495-3.16l-.088-.27-.278-.05c-.545-.1-1.327-.174-1.948.055zm1.455.847c.01.062.03.128.03.188 0 .43-.198.787-.448 1.06-.064-.415-.158-.838-.277-1.266.206-.02.434-.014.695.018z"/><path fill="#FDB913" d="M94.675 59.178c-.076-1.066 1.038-2.49 2.098-2.478-.094.53-.033 1.008-.022 1.506-.82.206-1.49.64-2.07.972z"/><path d="M95.088 57.055c-.597.632-.937 1.458-.888 2.156l.054.77.87-.507c.508-.297 1.083-.634 1.74-.8l.375-.092-.03-.745c-.02-.356-.03-.693.03-1.044l.09-.55-.56-.006c-.578-.01-1.178.287-1.69.83zm.69.652c.148-.158.31-.28.47-.37l-.002.012c0 .17.008.35.017.52v.01c-.29.1-.574.2-.827.33.1-.18.2-.358.342-.51zm6.13-4.64l-1.214.017-.006.95 1.242-.018 1.614-.012.026-.948-1.662.012m-1.042-1.333l.03.95 2.368-.07-.03-.95-2.368.07m-.586-1.3l.37.81c.18-.012 1.868-.133 2.272-.127l.016-.948c-.025 0-2.372-.015-2.658.266zm6.838 6.935c.71.153 1.55.313 2.24.45-.486.5-.47-.07-.527.866-.49.14-.42-.19-.92-.19l-.9-.28c0-.074.096-.386.116-.847zm-.124 2.103c.658.534 1.74 1.54 2.01 2.307-.617-.007-1.17-.2-1.605.018.12-1.344-.84-1.154-.41-2.325zm-2.587 1.987c.154.546.35 1.052.463 1.594l-.893-.38c-.07-.284-.452-1.24-.806-1.24.17-.163.68-.04 1.24.026zm-6.832-5.142c1.145-.26 1.28-.887 2.662-1.582-.167 1.455-.878 2.496-2.575 2.496-.06-.245-.083-.568-.087-.914zm-9.015 17.79l.32.02c.368.025.613.08.735.167s.176.223.163.413c-.012.18-.09.302-.23.366-.142.064-.395.083-.76.058l-.297-.02.07-1.007zm-.12 3.997c.622.043 1.07.056 1.346.037.275-.018.51-.066.702-.146.237-.093.423-.236.56-.43.137-.192.214-.42.233-.684.03-.37-.06-.673-.26-.91-.2-.234-.494-.38-.88-.434.35-.06.61-.168.78-.324.17-.156.264-.376.284-.66.016-.224-.023-.425-.117-.603-.093-.17-.237-.32-.43-.44-.17-.1-.377-.17-.62-.23-.24-.05-.67-.1-1.286-.14l-1.496-.1-.35 4.96 1.54.11zm-.01-2.103l.54.038c.364.026.61.084.738.176.13.09.186.242.17.452-.012.188-.095.316-.248.387-.153.07-.406.094-.76.07l-.52-.037.08-1.086z"/></g></svg>