<svg xmlns="http://www.w3.org/2000/svg" width="381" height="381" viewBox="0.297 -0.205 381 380"><path fill="#018749" d="M368.76 121.928c-17.77-47.58-60.9-90.71-108.266-108.478C205.09-10.027 131.917-1.987 83.498 31.217c-64.07 43.132-94.31 117.358-80.142 193.48C13.718 285.597 62.138 345.015 121.134 367c67.25 26.647 150.777 12.693 202.37-38.27 54.983-51.378 72.957-136.602 45.255-206.802"/><path fill="#FFF" d="M134.89 359.182C71.446 340.152 19 274.602 13.298 209.467 3.57 136.303 41.84 64.407 107.188 31.003c49.688-26.648 118.62-25.8 167.467 2.11 35.313 19.036 62.168 48.006 79.293 84.367 27.068 59.004 18.402 137.457-25.157 187.565-46.73 57.102-125.39 76.765-193.9 54.137"/><path fill="#018749" d="M348.882 118.543c-17.348-38.28-53.708-73.585-92.835-88.816C199.373 4.99 124.947 15.78 78.844 55.74 24.5 100.354 4.41 174.788 25.342 239.92c15.444 54.13 66.616 103.825 121.386 116.725 66.394 17.768 135.118-3.806 178.052-55.824 41.648-47.79 50.956-125.18 24.102-182.272"/><path fill="#FFF" d="M153.07 356.01C93.432 344.388 37.195 288.77 24.5 229.14 7.804 160.833 32.328 90.84 90.476 49.604c47.16-35.314 121.378-41.015 174.238-13.74 32.784 16.07 61.96 43.345 78.453 76.122 28.765 52.868 24.53 128.15-11.632 176.57-41.014 57.52-109.953 82.883-178.464 67.455"/><path fill="#018749" d="M182.042 52.99c2.958 0 5.708-1.056 7.397-3.593 2.75-7.405 1.06-15.437-.64-22.628-2.537-4.02-8.246-4.86-12.266-2.96-2.324 1.05-4.227 3.8-4.44 6.76.633 6.13-.635 13.954 2.75 19.456 1.69 2.54 4.654 2.54 7.192 2.96"/><path fill="#FFF" d="M176.96 28.038c2.124-2.537 6.35-2.117 8.245.428 2.125 5.074 1.063 10.783 1.704 16.277-.22 1.903-.86 4.448-3.18 4.868-2.328.42-5.5.21-6.14-2.33-1.056-6.123-2.11-13.11-.636-19.24"/><path fill="#018749" d="M209.95 53.417c2.537-.634 4.226-2.75 5.082-5.296.42-6.97 4.433-15.64-.635-21.78-2.545-2.32-6.77-2.74-10.37-1.89-2.117.42-4.012 2.744-4.646 4.646-.422 7.406-4.23 16.286 1.06 22.63 2.538 1.697 6.137 2.324 9.515 1.697"/><path fill="#FFF" d="M203.394 30.155c.428-1.482 2.116-2.544 3.385-2.965 2.11-.42 3.59.634 5.07 1.482 2.543 5.922 0 13.114-.85 19.03-.635 1.275-1.69 2.544-2.958 2.75-2.75.428-5.502-.42-6.137-2.75-.42-6.13.43-12.053 1.483-17.547"/><path fill="#018749" d="M159.833 55.32c0-4.44-2.323-8.674-1.688-13.114l9.094-1.91c.21-1.056-.22-2.324-1.06-2.96l-8.674 1.698c-1.69-2.117-1.69-5.29-2.538-8.04 2.322-2.323 6.762-1.482 9.934-2.537l.214-1.69-.85-1.688c-4.01.84-8.237 1.683-12.47 2.32l-1.063 1.052 5.93 27.282c.84.207 2.11 0 3.162-.42m69.573-22.84l-6.136 22.834c0 1.696 2.33 1.696 3.6 1.696l5.7-21.994c.428-4.226 5.296-.848 7.825-.634.43-1.057 1.27-1.905.634-2.96l-17.545-4.654-.634.42c0 1.062-.85 1.91 0 2.75 2.33.637 4.868.85 6.556 2.54m22.835 32.356c2.325-.428 3.808-2.958 4.86-5.074 1.064-2.546.43-5.71-1.48-7.827 1.48-.84 3.606-1.055 4.867-2.75 1.064-2.118 1.904-4.44 1.27-6.978-2.53-5.075-8.46-5.71-13.105-8.033-3.6 8.88-8.246 17.555-11.21 26.435 4.867 1.903 9.306 4.86 14.8 4.226"/><path fill="#FFF" d="M250.973 38.82c2.537.85 6.13 1.69 6.984 4.655.42 1.903-.428 3.592-1.91 4.646-2.958 2.34-5.71-.84-8.238-1.47.62-2.742 1.682-5.28 3.16-7.824m2.75 15.65c.42 2.11-.214 4.226-1.696 5.71-2.958 2.536-6.764.427-9.515-1.064l-.206-.634 3.806-8.666c2.538 1.274 5.916 2.115 7.61 4.652"/><path fill="#018749" d="M132.56 63.986c3.164-.42 6.136-1.27 8.46-3.378 1.894-2.33 1.268-5.922.42-8.674l-1.056-.206c-4.234.206-1.27 3.592-2.117 5.915-.85 1.688-2.545 2.965-4.44 3.385-6.343-1.903-6.77-9.514-9.522-14.596-.84-1.903-1.896-5.067 0-6.763 1.482-1.49 3.18-2.12 5.296-1.7 1.27.63 1.9 2.122 2.33 3.39 1.27.207 2.537-.428 3.59-1.07 0-1.475-.85-2.323-1.69-3.59-2.96-4.22-9.31-1.896-12.48 1.27-4.652 6.983 1.905 13.54 3.808 19.875 1.482 2.545 3.813 6.35 7.405 6.136m-9.31 4.657L109.086 44.31l-.634-.205c-.85.632-2.12 1.06-2.54 1.91l14.383 24.31c1.055.42 2.323-.843 2.957-1.69m-36.367-6.343c2.11-1.055 3.806-3.592 6.137-3.806l15.215 19.88c.848-.636 2.338-.85 2.545-2.12-4.868-7.18-10.156-12.897-14.803-20.09 1.472-2.322 3.59-2.742 5.5-4.44.203-.84-.86-2.11-1.91-2.53L85.4 59.34l-.42 1.055c.634.634.85 1.688 1.903 1.902M256.26 69.06c1.483 1.483 3.807 1.483 5.075-.42 4.02-5.92 8.032 2.324 12.06 3.38.626 2.543-1.697 4.66-1.063 7.19.848.848 2.116 1.697 3.17 1.482 2.745-9.308 5.282-19.028 7.406-28.55-1.482-.634-2.124-2.323-4.027-2.323L256.26 68v1.054z"/><path fill="#FFF" d="M268.098 63.352l10.15-8.246c-.842 4.02-2.11 9.094-4.014 13.114l-6.137-4.02v-.848z"/><path fill="#018749" d="M247.38 70.963c-37.85-19.243-93.47-17.126-128.56 7.19-47.374 29.82-68.52 86.065-56.254 139.995 8.88 45.24 51.17 88.38 96 98.742 46.103 11.418 93.04-1.054 125.817-34.045 36.797-36.154 47.794-94.523 28.55-141.89-10.782-29.603-37.43-57.092-65.552-69.992"/><path fill="#fff" d="M293.905 268.67c-30.24 38.92-76.98 56.475-125.818 48.22-44.2-7.19-87.126-44.612-100.446-87.752C52 181.13 64.68 124.465 105.07 91.055c34.687-31.508 91.987-40.602 135.332-20.932 28.764 11.417 56.04 37.423 68.525 65.974 19.028 41.02 13.946 97.267-15.017 132.573"/><path fill="#018749" d="M288.19 92.537c.847-.428 1.687-1.27 1.687-2.323l-6.55-5.93-.428-1.475 16.07-17.98c0-1.27-1.69-2.117-2.748-2.537-6.557 7.405-12.9 13.32-18.608 21.36l10.57 8.88zm-41.237-13.534c-41.23-22.2-99.805-16.92-135.54 13.74-37.643 30.026-52.225 79.087-41.02 125.61 9.513 41.444 47.578 80.983 89.235 90.712 43.773 11.846 89.228-1.27 120.324-32.563 33.823-33.83 43.346-86.072 27.06-130.472-10.997-28.542-31.93-52.866-60.06-67.027"/><path fill="#FFF" d="M277.406 270.374c-31.08 33.41-81.41 46.097-124.97 30.232-38.065-12.258-71.048-50.537-77.612-89.442-8.032-43.987 6.77-87.968 43.147-115.884 33.62-27.06 86.91-31.508 125.19-11.417 24.104 12.265 43.346 31.722 54.55 55.825 19.455 42.298 12.478 96.633-20.3 130.686"/><path fill="#018749" d="M104.01 81.746c1.688-1.26-.635-2.323-.842-3.164-3.17 1.27-5.296 5.28-8.673 6.335-5.716-5.7-11.417-13.32-17.34-18.188-.634.43-1.903 1.27-2.117 2.333l19.242 20.72 9.73-8.04zm-12.9 11.21c-.635-.847-1.27-1.902-2.324-1.902l-6.343 7.397-1.483.43c-2.537-2.11-4.868-3.38-6.557-6.34l5.923-7.19c-.207-.85-1.27-1.7-1.903-2.12l-6.763 6.98c-2.75-1.054-4.226-2.957-6.77-4.86V84.29l6.342-7.825c-.42-.84-1.054-1.904-2.11-2.11-2.964 3.806-6.984 7.61-9.514 11.417l21.986 18.187c3.593-3.17 6.35-7.183 9.515-10.997m199.613 2.75l7.825 9.095c.85 1.903 2.957.207 3.385-1.063-1.696-2.967-5.074-4.86-6.128-8.248l18.6-16.285c-1.056-1.057-1.27-2.325-2.538-2.54L290.72 94.86v.85zm-63.437 110.17c-3.593-.216-7.61 1.27-9.936-2.324-3.17-3.172-2.33-8.246-.85-11.838 2.11-4.233 6.56-4.447 10.57-5.082 17.555 2.323 37.86 5.7 53.296-3.6 10.36-5.915 15.856-17.332 15.643-28.963 1.053-15.863-13.74-25.8-25.8-32.14-9.72-6.565-12.054-18.19-21.567-24.738-10.785-7.19-27.92-8.252-38.7-.427-12.473 9.522-9.516 26.006-8.675 39.754.213 9.514 2.123 21.78-4.013 29.604-1.482.636-3.17 0-4.233-1.474-5.28-14.39-2.11-30.46-4.013-45.47-1.903-9.094-6.77-16.285-11.417-24.11-3.385-4.012-5.922-8.66-10.996-10.57-14.803-3.17-27.28 5.503-35.528 16.492-10.15 15.865-30.026 14.596-41.023 29.185-5.287 8.88-6.135 23.253 0 32.14 13.107 20.504 39.97 13.534 60.9 12.687 5.29 0 10.997-.42 15.437 1.903 1.482 1.055 3.592 3.17 2.75 5.717-.427 3.592-3.805 7.184-6.984 8.245-19.45 7.818-40.38-4.653-59.836 1.68-9.516 3.814-15.01 13.54-16.5 23.057-2.538 14.17 9.093 24.52 20.09 31.713 12.06 6.77 14.382 19.465 22.63 28.758 9.727 9.943 23.68 14.383 37.215 11.21 17.77-11.415 12.265-37.42 9.094-54.975-.635-3.38-.84-7.61 2.116-9.935 2.11-1.063 6.13-1.49 7.4 1.26 3.384 14.804.213 31.09-1.484 46.098-3.376 7.833-3.59 17.76-11.836 22.842 8.246 1.054 16.49 1.902 24.53 1.474-5.287-21.772-1.27-44.82-.42-67.243 1.26-1.27 2.11-4.43 4.854-3.59 3.393 1.055 4.447 4.646 4.66 7.826-.847 15.01-7.617 31.296 0 45.258 6.337 10.355 18.182 14.16 30.027 13.527 10.15.848 18.397-8.246 22.837-16.277 9.092-14.803 28.12-15.224 36.16-30.874 3.8-11.63 5.71-28.338-3.806-37.85-17.34-15.018-43.987-5.29-62.595 1.053"/><path fill="#FFF" d="M289.465 220.258l-1.49.84c-20.083 1.697-38.484 7.62-56.03 15.018-2.117-.635-4.02-2.537-5.075-4.227 6.558-4.45 15.017-6.14 22.62-9.1 12.273-3.59 25.166-6.557 38.7-6.984l1.275 4.447zm-4.235-9.094c-9.307 1.475-18.82 2.957-27.7 5.28-1.904-1.055-2.118 1.063-3.807.85-9.935 2.964-20.083 6.136-29.605 10.567-2.116-.62-2.965-2.74-4.653-4.22l.214-.627 12.26-4.447c1.482 1.476 1.696-1.054 2.96-1.054 14.8-4.227 29.603-8.04 44.83-11.417 2.112.84 4.65 2.745 5.5 5.076m-54.35-.422c13.326-3.385 25.8-10.79 40.814-8.245l.635.626c-2.117 1.696-6.137.85-8.666 2.536-16.285 3.174-31.516 9.097-47.373 13.32-2.742-2.74-4.653-6.127-5.922-9.727 6.983-1.055 13.54 4.87 20.51 1.49m29.82-25.597c-13.32 2.33-24.737-3.172-37.43-4.02.847-2.11 3.17-3.378 5.073-4.646 12.05 3.378 25.174 3.17 37.85 5.28-.204 2.332-3.59 2.546-5.493 3.386m-.848-7.825c-8.873-.84-17.555-2.53-26.007-4.227.214-1.48 1.482-2.536 2.75-3.17 13.948 2.743 28.338 2.743 42.72 4.44-3.814 8.666-12.694 2.117-19.464 2.96m23.69-6.765c-14.384-.428-28.55-2.116-42.514-4.226-.636-1.904 2.123-2.33 3.392-2.96 4.013-.213 8.032 1.056 12.052 1.056 11.203.84 22.2-1.27 33.41-1.91-.642 3.178-3.385 6.556-6.342 8.04m7.825-15.223c.206.848 0 1.268.206 2.322-13.963 2.323-30.026 3.592-43.988 1.688.85-7.397 9.522-2.53 14.176-4.012 9.3-.634 18.188-2.33 27.068-4.232 2.54-.42 2.11 2.545 2.54 4.234m-2.965-8.88v.42c-10.79 3.17-22.834 4.225-34.465 4.225.42-2.11 1.473-4.013 2.535-5.7 8.88-.215 19.663 0 28.123-2.974 2.537-.204 3.17 2.126 3.805 4.03m-26.426-24.533c3.8 1.476 6.55 4.233 10.147 6.557-.215 1.476-2.323 1.896-3.814 2.323-2.116 0-4.44.84-6.335 0v-8.88zm-.643 13.526c4.86-.626 10.36-.206 13.953-3.592 3.6.636 6.77 4.02 7.618 7.19-6.983 2.325-15.443 2.54-23.476 1.905.002-1.903.423-4.44 1.905-5.503m-13.75-31.928c7.826 4.447 2.33 14.595 5.717 21.36-1.054 2.75-1.902 6.13-4.233 7.824-4.225-8.674-2.116-18.608-1.482-29.185m-10.355-5.283l5.494 1.903c.85 13.32-2.116 25.38 3.387 37.85-.635 1.69-1.903 3.8-3.813 4.434-5.07-12.892-5.498-28.33-5.704-42.71l.634-1.476zm-9.308-1.055c1.48-.856 3.17-.214 4.653 0l.204 3.377c-.206 16.5 1.276 31.08 6.137 46.096-1.05 1.903-2.533 4.654-5.07 5.495-8.246-17.12-6.137-36.154-5.923-54.97"/><path fill="#FFF" d="M223.27 96.763l.43 2.117c-1.27 19.456-.85 38.905 6.976 56.88-1.482 1.688-3.17 4.226-5.494 4.44-9.522-18.823-8.04-40.81-8.674-60.48 1.48-1.895 4.224-2.957 6.763-2.957m-11.84 7.61l.427.208 1.063 22.007-.635.42c2.322 5.71 1.688 12.472 3.377 18.402 1.48 6.12 2.75 12.677 5.494 18.6-1.688.85-2.958 2.537-4.86 2.33-6.557-9.31-9.935-20.512-9.72-32.15-2.12-9.514-2.12-22.2 4.85-29.812m1.27 64.49c-1.902 1.482-4.226 3.172-6.756 3.6-.848-4.227 1.262-7.818 1.69-11.846h.42l4.646 8.246zm-27.48-24.095c.848 4.855.42 9.715.42 14.58-1.896.637-2.75-1.473-3.6-2.955-1.27-4.233 1.27-7.825 2.545-11.624h.636zm-7.826-35.74c3.378 5.28 4.646 12.265 6.137 18.607-2.33 6.975-1.91 15.22-4.654 21.984-1.696-1.055-3.385-2.744-4.653-4.654 1.062-11.837 1.903-23.89 3.17-35.94M164.5 90.42c5.066.85 7.183 6.56 9.08 10.57-1.27 12.695-1.27 25.38-3.166 38.28-2.116 0-3.59-2.957-5.287-4.02-.627-14.59-.42-29.605-.84-43.98l.213-.85zm-4.663-.42c1.27 13.74 1.27 26.428.634 39.755-2.32.207-3.796-2.116-4.86-3.813 0-11.195-1.274-23.89-1.91-35.1 1.49-1.267 4.45-2.11 6.138-.84m-10.568 2.324c1.27 10.148 2.536 20.51 1.902 30.232-1.697-.42-4.02-.84-5.075-2.743l-2.33-24.952c1.49-1.695 3.384-2.33 5.5-2.536m-9.727 5.922c1.69 5.7 1.482 12.47 2.537 18.392-.214 1.483-1.69 1.064-2.75 1.27-5.29-1.482-3.592-8.03-5.29-12.06.848-2.744 3.393-5.7 5.503-7.604m-9.307 13.106c1.696.42.634 2.537 1.27 3.6-1.27.412-2.53.412-3.593-.207.213-1.063 1.482-2.34 2.323-3.394m-19.87 11.63c1.053-.428 2.527 0 3.375-.428-3.377 2.33-7.825 4.232-12.05 5.08 1.268-3.376 5.708-3.17 8.673-4.653m-16.08 13.962c4.45-3.814 9.944-5.717 15.02-8.04s10.362-4.02 15.643-5.5c2.125 0 4.03.42 5.502 1.91l-.634.846c-12.052 4.856-23.897 10.357-35.735 15.85-1.27-1.473.205-3.375.205-5.065m-.42 19.03c-1.27-2.545-.636-5.29-.42-8.04 12.9-8.46 27.486-14.16 42.075-19.242 2.117.428 4.02 1.688 5.502 3.17-4.656 2.967-10.58 4.45-15.653 7.192-10.576 5.082-21.145 10.783-31.508 16.92m2.11 5.066c14.39-12.47 31.73-19.242 49.06-25.157 2.545.85 4.87 2.752 5.71 5.075-18.61 3.6-35.53 11.417-50.744 22.84-1.482 0-3.17-1.483-4.027-2.76"/><path fill="#FFF" d="M103.16 167.81l.215-1.268c14.81-12.258 32.142-19.028 51.17-21.772 2.126 0 3.6 2.53 4.655 3.8v1.054c-17.125 3.18-32.563 11.417-46.517 21.78-3.386-.842-6.985-1.27-9.522-3.593"/><path fill="#FFF" d="M120.08 172.25v-.848c12.9-9.73 27.282-16.698 43.98-16.92l3.392 4.868c.42 1.27-1.27 1.27-2.117 1.27-11.845.848-21.994 5.716-31.722 11.417-4.225-.42-9.307 1.062-13.533.214m25.593-1.684c6.13-4.226 13.955-5.915 22.2-5.915 5.067-1.27 4.86 4.853 6.77 7.39-8.887-1.475-19.455-2.11-28.97-1.475m10.15 27.908c-.635 1.27-1.69 3.18-3.18 3.387-1.903.205-3.378-1.69-4.01-2.96 1.9-1.064 4.86-.43 7.19-.43m-27.703-2.53l8.04 1.69c2.743 4.868 9.513 2.75 12.257 6.977-.42 1.483-1.69 1.903-2.744 2.752-5.288.204-8.88-3.388-13.748-4.236-9.308-1.27-18.402-2.743-27.496-3.806 5.93-5.28 15.86-4.01 23.69-3.38m-31.08 7.828c15.64-.644 30.02 2.53 43.98 6.754l-.22 2.117-1.27.64c-14.8-2.538-30.872-4.234-45.89-2.117-.42-2.967 1.485-5.504 3.395-7.398M93.22 216.02c2.538-2.323 6.558-1.055 9.73-1.903 11.203-.63 21.986.85 32.563 2.54.428 1.69-1.27 3.378-2.75 4.227-12.473-2.11-26.014-2.744-39.12-1.903-1.27-.42-.84-1.902-.42-2.957m.213 8.038c11.417-2.322 24.317-1.27 35.734.636l.636.42c-.206 1.27-.84 2.74-2.11 2.955-10.576-1.687-22.84-2.956-32.57 1.698-1.268-1.697-1.688-3.6-1.688-5.71m26.64 28.125c-1.475 0-2.53-1.27-3.378-2.323.42-1.49 3.17-2.33 3.805-.43l-.428 2.753zm-6.763-5.71c-1.903.628-3.17-2.116-4.654-3.17 2.96-2.323 8.04-2.75 12.055-1.903l.428 1.27c-1.06 3.59-5.93.84-7.824 3.804m-9.73-6.566c-1.69-1.896-4.02-3.378-5.288-5.487 2.537-3.17 7.397-3.17 11.21-4.026 5.28 0 10.363.21 15.01 1.49 1.06 1.9-1.055 3.375-1.69 5.064-6.762-.635-13.105 1.062-19.242 2.957m31.93 32.366c-.85.84-2.324.42-2.75-.634-5.917-4.025-1.477-10.146-2.746-15.862-1.48-4.014-.42-7.827 1.904-10.998 2.11.636 1.69 3.173 2.53 4.86 1.49 7.408 1.276 15.02 1.062 22.638m7.19 7.612c-8.46-2.538-.633-11.84-3.385-17.555 0-7.61-1.27-15.23-3.376-22.207.42-2.11 2.11-4.013 3.59-5.495 4.01 9.728 4.226 21.993 4.44 33.418-.43 3.595.206 8.66-1.27 11.84m12.06 2.743c-2.125 1.27-4.87.213-6.985-.635l-.633-1.264c1.27-16.5.85-34.26-3.805-49.07-.427-2.107 1.69-3.805 3.17-5.065.85 0 1.484.42 1.905 1.263 2.958 17.98 8.254 35.742 6.35 54.77m4.86-.843l-.633-.42c0-20.304-2.75-39.967-8.674-58.155 1.052-1.476 2.114-2.744 4.01-3.8 6.556 18.6 8.252 39.12 10.163 59.417-.64 1.902-2.973 2.743-4.868 2.957m9.088-7.825l-.626-1.484c-2.75-18.814-5.082-38.058-9.942-56.04 1.482-1.895 3.377-3.805 5.495-4.01l2.33 4.645c1.484 12.906 4.228 25.17 6.337 37.85.634 6.77.634 14.175-3.592 19.036m1.697-57.307c-1.063-2.11-4.02-4.86-2.538-7.61 2.11-1.27 4.012-3.388 6.77-3.173.42 4.02-.847 8.04-4.233 10.782m40.38 56.46c-5.487-4.655-4.646-12.26-3.59-19.244 1.06-5.923 3.383-11.417 3.59-17.76.85 0 1.49.42 1.902 1.27-1.688 11.424-.412 24.11-1.902 35.732m9.31 9.31c-3.173-1.69-5.28-4.236-4.44-8.257.214-10.99-.207-21.984 1.062-32.35 1.896 1.27 4.646 2.96 5.495 5.497-.42 11.424-.85 23.895 1.055 34.893-.422 1.482-2.325.848-3.173.214m7.403 2.744c-1.48-10.997-1.69-23.675-1.27-34.672 2.326 1.054 6.14 1.902 6.55 5.28 0 9.94 1.065 18.822 2.75 27.916-2.105 1.69-5.49 1.896-8.03 1.475m12.26-3.17c-2.744-7.828-2.53-16.494-2.53-24.95 2.958.63 6.13 1.693 7.826 3.81 0 4.646-.428 9.72 2.53 13.313-1.26 3.59-4.227 6.563-7.826 7.825m11.418-11.624c-1.056.207-1.897-1.054-1.69-1.91-.206-2.322-.84-5.073 0-7.603l8.04.42c-1.483 3.38-4.44 5.915-6.35 9.094"/><path fill="#fff" d="M229.406 248.587c-17.125-13.954-30.453-32.563-40.18-51.17-28.124 5.5-52.647 31.08-65.126 56.458-2.537-18.395 11.417-32.135 23.476-44.408 11.204-9.086 22.2-16.49 34.672-22.62-6.97-29.604-28.757-53.93-56.253-67.035l-.626-.85c6.34-1.687 12.26 1.064 17.76 2.966 6.55 3.806 12.9 8.452 18.39 13.526 12.27 12.907 23.69 27.71 31.09 43.773 4.44.428 8.663-1.902 13.11-2.957 23.05-9.73 42.29-31.08 52.226-53.502l.634.214c1.27 18.395-11.837 33.84-25.8 46.097-10.147 8.67-21.145 15.23-32.35 21.353l-.212 1.276c6.77 28.115 31.09 53.914 57.31 65.752-10.58 1.91-19.88-2.956-28.126-8.88"/><path fill="#FFF" d="M267.044 256.626c-3.378-.214-6.77-.848-9.515-2.537.42-2.54 3.17-2.757 4.65-4.018 6.13-3.18 13.32-4.027 20.295-5.082l.213.42c-4.233 5.28-10.148 7.827-15.65 11.21m20.092-16.71c-11.846 2.124-23.683 3.813-33.41 10.783-2.966 1.275-5.71-1.262-8.033-3.164v-.43c12.68-6.977 26.853-9.934 41.442-12.47l1.91.215c.42 1.903-.857 3.592-1.91 5.067m2.75-9.713l-1.48.84c-16.708 2.115-32.78 5.71-47.16 13.32-2.118-1.27-5.496-2.745-5.28-5.504 16.704-7.19 34.892-12.258 53.92-13.32v4.662z"/><path fill="#018749" d="M70.598 118.757c3.592-1.69 6.137-5.717 6.137-9.942-.84-2.323-2.75-4.868-5.074-5.7-5.93 3.797 4.24 4.645 1.27 9.292-1.06 2.76-4.22 3.6-6.76 2.545-5.08-2.752-10.582-5.71-14.594-9.935-.633-2.338-.213-4.448 2.11-6.136 1.063-1.05 2.75-.63 3.813.21 1.902 1.905 2.322-1.26 3.17-2.32-2.117-2.33-6.557-3.165-8.88-.84-1.696 2.11-4.02 4.225-3.806 6.97-.42 2.33.42 4.652 2.11 6.135 6.13 3.805 12.265 10.568 20.51 9.728m238.315-3.172c-1.69 4.44 1.48 8.46 4.645 10.99 2.966.635 5.717.635 8.254-1.055-.215-1.27-1.063-2.11-1.483-3.172-1.9-.42-2.535 1.482-4.224.848-2.116 0-2.964-1.27-3.812-2.956-1.054-1.912 0-4.02 1.697-5.503 5.288-2.743 10.36-7.404 16.49-7.825 2.118 1.056 3.395 2.96 3.593 5.28.222 1.698-1.9 2.33-2.957 3.395.42 1.054.635 2.742 1.69 3.163 1.49-.637 3.18-1.69 4.233-3.166 1.06-2.323.633-4.66-.636-6.984-1.474-3.38-5.073-5.7-8.88-5.28-6.554 3.59-14.594 5.28-18.606 12.263m-244.66 17.76c-.42-1.27-1.904-1.9-2.96-1.48-1.06 3.59-2.33 6.984-4.02 10.147l-5.707-1.686c-6.98-1.27 0-7.19 0-10.783l-.843-1.052c-.642-.214-1.704-.848-2.545 0-.85 2.958-1.905 5.915-3.38 8.674-2.75-.642-5.93-1.27-8.04-3.18l3.17-9.514c0-1.482-1.694-1.062-2.535-1.696-2.12 4.225-3.387 9.092-5.28 13.746 8.663 3.6 17.964 7.19 27.06 10.156l5.073-13.328zm252.27.85l5.287 12.685 2.325-1.27-3.17-9.31.64-.84 22.62-8.89c-.213-1.265-.42-2.953-1.687-3.374l-25.8 10.148-.216.85zm37.636 26.64c.43-.85 0-2.323-.42-3.378-7.405.42-13.954 3.592-21.565 4.432-2.11-.42-4.447-.634-5.08-3.17-.42-1.69-1.26-4.647.847-5.924 7.19-3.164 15.438-4.226 23.057-6.335v-.85l-.43-2.544c-3.385-.206-6.34 1.697-9.514 1.697-5.502 2.33-12.693 1.48-16.706 6.556-2.32 3.6-.42 8.243 1.27 11.415 1.905 2.323 4.45 2.75 7.19 2.75l21.354-4.653zM29.79 146.663l-.634.636c-.42.844-1.055 2.112-.214 3.17 3.806.85 7.825 1.052 11.63 2.542-.633 3.164-.633 6.764-2.322 9.515l-11.21-2.124c-1.055.856-1.475 2.34-1.055 3.6 9.514 1.903 19.036 3.806 28.123 5.494l.428-3.375c-4.027-1.27-8.673-1.055-12.273-2.958.42-3.18.42-6.77 2.125-9.308l11.624 2.115c1.482-.214 1.482-2.322 1.27-3.6l-27.492-5.71zM355.86 171.4c-9.31-.205-19.244.85-27.918 1.27l-.84.635c1.054 4.867-1.063 12.272 4.02 16.078 2.323.84 5.28 1.896 8.023.635 2.125-.637 2.974-2.967 3.813-4.87 1.055 0 1.27 1.063 1.903 1.903 1.908 1.7 4.87 1.906 7.197 1.486 7.827-2.744 3.38-11.203 3.807-17.134"/><path fill="#FFF" d="M339.582 185.364c-1.49.85-3.6 1.69-5.503.85-3.6-1.483-3.18-6.138-3.18-9.31 2.76-1.055 6.552-.634 9.31-1.055l.833 1.683c-.197 2.752.436 5.924-1.466 7.826m13.107-2.116c-1.482 2.117-4.233 1.697-6.137 1.276-2.74-1.91-1.9-5.5-2.106-8.46 2.53-.846 5.71-.632 8.247-.632.42 2.536 1.053 5.494 0 7.816"/><path fill="#018749" d="M27.887 171.83c-.848-.206-2.117-.84-2.958-.206-.42 6.335-.85 12.892-.42 18.814h2.74c.42-2.33-.42-5.502.632-7.397l25.38.847v-3.172c-8.254-1.26-17.555-.633-25.166-1.687l-.214-7.192zm95.578 151.404c-2.323-5.29-3.17-11.203-6.77-15.65-3.593-4.86-10.363 0-14.162-3.593-2.75-1.9-1.27-5.702-1.062-8.46-1.683-4.65-6.76-.63-9.93-1.263-4.45-1.475-3.385-6.557-4.233-10.148-2.958-8.03-12.265-6.344-18.822-8.03-4.645-4.44-2.536-12.268-6.976-16.92-1.27-.636-2.538-1.904-3.807-1.065 1.69 5.298 2.96 11.21 3.17 16.92 0 3.807-2.956 6.77-2.115 10.157 6.137-1.063 12.694-2.33 18.403.42 2.538 1.27 4.44 3.8 5.075 6.343.428 2.537-.207 5.28-2.33 6.977-4.227 7.395 6.556 2.75 8.673 7.61 3.386 2.322 4.868 5.922 6.343 9.514 2.75 2.116 4.655-3.378 6.986-4.012 1.904-.42 4.647-1.06 6.336.216 7.62 4.43 7.405 13.74 7.62 21.77h.633c6.976-5.494 17.124-4.43 26.005-3.806-2.528-8.88-13.104-3.383-19.027-6.975m197.714-60.9c-7.62 2.955-4.446 12.47-9.307 17.552-5.71 1.473-12.473.42-17.126 3.804-3.17 2.957-2.536 7.184-3.385 10.997-2.53 5.077-7.61 1.485-11.203 1.485-3.18 1.27-1.49 4.86-1.49 7.184-1.26 7.833-9.515 2.537-14.16 5.074-4.646 2.76-4.868 7.826-6.77 12.05-.842 9.31-12.26 4.44-17.967 6.987-1.48 1.056-3.385 2.324-2.965 4.227 9.096-1.062 19.03-1.062 26.015 4.654l.84-.42c.214-7.19-.42-14.81 5.296-19.67 2.11-1.903 5.28-2.537 8.025-1.69 3.178.628 3.81 6.13 7.403 4.648 1.903-2.744 2.323-6.558 5.717-8.88 2.955-2.958 7.39-2.538 10.78-4.44 0-2.537-2.124-4.227-3.18-6.343-.847-2.745 0-5.718 1.697-7.827 2.744-3.377 6.97-3.806 11.204-4.01 3.59.204 7.406 1.686 10.784 1.473-3.798-8.46-1.475-18.395.85-26.648l-1.055-.208zm-159.23 60.9c-1.9 1.685-6.555 1.685-5.287 5.49 1.483 0 2.75-1.69 4.02-.85-1.055 7.62-3.18 14.81-4.02 22.414l3.386.222 5.28-25.166c.85-2.324-2.11-1.903-3.378-2.117m61.32 13.114c.42-.85.85-1.696 1.483-2.537 1.056-2.542.42-5.713-1.062-7.822-2.53-3.806-8.666-2.75-11.624 0-1.053 1.902-1.687 4.44-.847 6.557.428 2.11 2.323 3.805 4.226 4.645.213 1.268-1.056 1.48-1.69 2.322-1.48 2.76-.213 5.922.42 8.674 1.27 2.11 3.395 4.234 6.35 4.02 2.746 0 5.068-1.054 6.773-3.18 1.475-2.107.84-4.43.626-6.97-.43-2.543-2.117-4.867-4.654-5.707"/><path fill="#FFF" d="M215.024 331.693c-.42-1.482 0-3.385.84-4.44 2.546-1.695 5.297.42 5.503 2.744.214 2.125-.206 4.654-2.323 5.082-2.117.42-3.6-1.7-4.02-3.39m6.77 17.13c-2.322.64-3.59-1.487-4.225-3.176-.65-1.903-.86-4.013 0-5.923.63-1.054 1.9-1.054 2.74-1.27 2.32-.212 3.17 2.11 3.803 4.02.206 2.326.84 5.71-2.323 6.345"/><path fill="#018749" d="M185 328.942c-2.11-4.02-7.192-4.226-10.784-2.957-1.69.848-2.75 2.537-2.75 4.44-.842 2.957.427 5.922 2.33 8.03-2.538.85-3.6 3.172-4.02 5.717-.214 2.958-.214 5.915 2.117 8.024 1.903 2.124 5.28 2.124 8.032 1.49 2.33-.635 3.806-2.965 4.226-5.082.64-3.378.85-7.825-2.523-9.72l2.744-2.538c1.267-2.116 1.48-5.286.633-7.404"/><path fill="#FFF" d="M178.228 350.302c-1.69.84-3.798-.428-4.432-1.902-.428-2.537.206-4.654.84-6.77 1.903-2.744 6.557-1.056 6.137 2.322-.214 2.33-.214 5.288-2.545 6.35m.634-13.534c-2.11.42-3.592-1.475-3.798-3.17-.214-1.697 0-3.387 1.26-4.655 1.697-1.688 4.87-.42 5.083 1.903s-.214 5.074-2.545 5.922"/><path fill="#018749" d="M202.76 339.305c-.842-1.054 1.062-1.054 1.48-2.108 1.056-2.117 1.69-5.082.636-7.62-1.69-3.805-6.77-4.432-10.148-3.17-2.117.848-3.592 2.964-3.806 5.073 0 3.18 1.27 6.343 3.806 7.825-1.903 1.69-3.172 3.378-3.172 5.71 0 3.17.214 6.342 2.957 8.245 2.117 1.696 5.717 1.696 8.04.642 2.743-1.055 3.592-4.027 3.798-6.557-.2-2.958-.42-6.557-3.59-8.04"/><path fill="#FFF" d="M197.685 328.736c1.688 0 3.6 1.055 3.813 2.743 0 1.683 0 3.8-1.063 5.282-1.063.635-2.545 1.055-3.6.215-1.688-1.055-1.902-3.17-1.902-4.868-.205-1.69 1.27-2.96 2.752-3.38m4.233 21.354c-1.27 1.055-3.18 1.69-4.653.85-1.483-1.483-2.537-3.387-2.117-5.924 0-1.687.85-3.805 2.743-4.225 2.12-.635 4.03 1.055 4.45 2.957.218 2.117.85 4.44-.42 6.343"/></svg>