<svg width="253" height="300" viewBox="0 0 253 300" xmlns="http://www.w3.org/2000/svg" xmlns:xlink="http://www.w3.org/1999/xlink"><title>logo--brugge</title><defs><path id="a" d="M0 0h252.66v300H0z"/><path id="c" d="M0 0h252.66v300H0z"/><path id="e" d="M0 0h252.66v300H0z"/><path id="g" d="M0 0h252.66v300H0z"/><path id="i" d="M0 0h252.66v300H0z"/><path id="k" d="M0 0h252.66v300H0z"/><path id="m" d="M0 0h252.66v300H0z"/><path id="o" d="M0 0h252.66v300H0z"/><path id="q" d="M0 0h252.66v300H0z"/><path id="s" d="M0 0h252.66v300H0z"/><path id="u" d="M0 0h252.66v300H0z"/><path id="w" d="M0 0h252.66v300H0z"/><path id="y" d="M0 0h252.66v300H0z"/><path id="A" d="M0 0h252.66v300H0z"/><path id="C" d="M0 0h252.66v300H0z"/><path id="E" d="M0 0h252.66v300H0z"/><path id="G" d="M0 0h252.66v300H0z"/><path id="I" d="M0 0h252.66v300H0z"/><path id="K" d="M0 0h252.66v300H0z"/><path id="M" d="M0 0h252.66v300H0z"/><path id="O" d="M0 0h252.66v300H0z"/><path id="Q" d="M0 0h252.66v300H0z"/><path id="S" d="M0 0h252.66v300H0z"/><path id="U" d="M0 0h252.66v300H0z"/><path id="W" d="M0 0h252.66v300H0z"/><path id="Y" d="M0 0h252.66v300H0z"/><path id="aa" d="M0 0h252.66v300H0z"/><path id="ac" d="M0 0h252.66v300H0z"/><path id="ae" d="M0 0h252.66v300H0z"/><path id="ag" d="M0 0h252.66v300H0z"/><path id="ai" d="M0 0h252.66v300H0z"/><path id="ak" d="M0 0h252.66v300H0z"/><path id="am" d="M0 0h252.66v300H0z"/><path id="ao" d="M0 0h252.66v300H0z"/><path id="aq" d="M0 0h252.66v300H0z"/><path id="as" d="M0 0h252.66v300H0z"/><path id="au" d="M0 0h252.66v300H0z"/><path id="aw" d="M0 0h252.66v300H0z"/><path id="ay" d="M0 0h252.66v300H0z"/><path id="aA" d="M0 0h252.66v300H0z"/><path id="aC" d="M0 0h252.66v300H0z"/><path id="aE" d="M0 0h252.66v300H0z"/><path id="aG" d="M0 0h252.66v300H0z"/><path id="aI" d="M0 0h252.66v300H0z"/><path id="aK" d="M0 0h252.66v300H0z"/><path id="aM" d="M0 0h252.66v300H0z"/><path id="aO" d="M0 0h252.66v300H0z"/><path id="aQ" d="M0 0h252.66v300H0z"/><path id="aS" d="M0 0h252.66v300H0z"/><path id="aU" d="M0 0h252.66v300H0z"/><path id="aW" d="M0 0h252.66v300H0z"/><path id="aY" d="M0 0h252.66v300H0z"/><path id="ba" d="M0 0h252.66v300H0z"/><path id="bc" d="M0 0h252.66v300H0z"/><path id="be" d="M0 0h252.66v300H0z"/><path id="bg" d="M0 0h252.66v300H0z"/><path id="bi" d="M0 0h252.66v300H0z"/><path id="bk" d="M0 0h252.66v300H0z"/><path id="bm" d="M0 0h252.66v300H0z"/><path id="bo" d="M0 0h252.66v300H0z"/><path id="bq" d="M0 0h252.66v300H0z"/><path id="bs" d="M0 0h252.66v300H0z"/><path id="bu" d="M0 0h252.66v300H0z"/><path id="bw" d="M0 0h252.66v300H0z"/><path id="by" d="M0 0h252.66v300H0z"/><path id="bA" d="M0 0h252.66v300H0z"/><path id="bC" d="M0 0h252.66v300H0z"/><path id="bE" d="M0 0h252.66v300H0z"/><path id="bG" d="M0 0h252.66v300H0z"/><path id="bI" d="M0 0h252.66v300H0z"/><path id="bK" d="M0 0h252.66v300H0z"/><path id="bM" d="M0 0h252.66v300H0z"/><path id="bO" d="M0 0h252.66v300H0z"/><path id="bQ" d="M0 0h252.66v300H0z"/><path id="bS" d="M0 0h252.66v300H0z"/><path id="bU" d="M0 0h252.66v300H0z"/><path id="bW" d="M0 0h252.66v300H0z"/><path id="bY" d="M0 0h252.66v300H0z"/><path id="ca" d="M0 0h252.66v300H0z"/><path id="cc" d="M0 0h252.66v300H0z"/><path id="ce" d="M0 0h252.66v300H0z"/><path id="cg" d="M0 0h252.66v300H0z"/><path id="ci" d="M0 0h252.66v300H0z"/><path id="ck" d="M0 0h252.66v300H0z"/><path id="cm" d="M0 0h252.66v300H0z"/><path id="co" d="M0 0h252.66v300H0z"/></defs><g fill="none" fill-rule="evenodd"><g id="Clipped"><mask id="b" fill="#fff"><use xlink:href="#a"/></mask><path d="M158.924 60.685c3.375-3.722 9.43-10.928 11.208-16.526 1.868-5.885 1.33-11.334-1.596-16.195-3.774-6.262-11.016-8.494-16.532-8.494-1.46 0-2.887.146-4.195.42-.44.084-.94.204-1.5.36-1.878-.516-3.835-.775-5.825-.775-1.462 0-2.885.145-4.186.416l-.237.05c.32-.986.496-2.04.496-3.132 0-5.615-4.55-10.17-10.165-10.17-5.615 0-10.166 4.555-10.166 10.17 0 1.093.177 2.145.493 3.133-.04-.007-.09-.02-.13-.026-3.26-.687-6.852-.556-10.11.334-.535-.147-1.008-.264-1.395-.333-1.378-.29-2.82-.438-4.3-.438-5.52 0-12.765 2.23-16.533 8.49-2.928 4.86-3.466 10.31-1.596 16.19 2.167 6.826 7.15 12.76 11.04 16.6-50.15 14.52-84.863 60.41-84.863 112.847 0 64.857 52.77 117.623 117.632 117.623 64.78 0 117.484-52.766 117.484-117.623 0-52.554-34.792-98.492-85.03-112.92" id="Shape" fill="#FFF" mask="url(#b)"/></g><g id="Clipped"><mask id="d" fill="#fff"><use xlink:href="#c"/></mask><path d="M119.06 28.505c-1.59-.593-3.083-1.093-4.013-1.27-.934-.19-1.856-.286-2.808-.286-4.38 0-8.36 1.91-10.147 4.87-4.914 8.168 2.556 17.834 7.98 23.284 2.47-.373 4.972-.654 7.494-.86-5.02-5.614-10.277-13.95-5.95-21.132 1.408-2.335 4.187-4.002 7.44-4.61" id="Shape" fill="#000" mask="url(#d)"/></g><g id="Clipped"><mask id="f" fill="#fff"><use xlink:href="#e"/></mask><path d="M132.014 36.775c0-3.01-2.538-5.595-5.53-5.595-3.263 0-5.765 2.584-5.765 5.595 0 3.242 2.5 5.597 5.76 5.597 2.994 0 5.53-2.354 5.53-5.597" id="Shape" fill="#000" mask="url(#f)"/></g><g id="Clipped"><mask id="h" fill="#fff"><use xlink:href="#g"/></mask><path d="M97.646 29.144c.45-.747.984-1.443 1.576-2.092-3.456.364-6.92 1.932-8.632 4.77-5.556 9.228 4.7 20.364 9.95 25.18 1.145-.278 2.292-.543 3.45-.786-3.086-3.51-6.198-7.95-7.725-12.752-1.657-5.23-1.193-10.046 1.38-14.32" id="Shape" fill="#000" mask="url(#h)"/></g><g id="Clipped"><mask id="j" fill="#fff"><use xlink:href="#i"/></mask><path d="M156.39 43.47c-1.522 4.795-4.625 9.225-7.707 12.732 1.157.24 2.31.504 3.454.783 5.255-4.824 15.482-15.947 9.93-25.162-1.713-2.846-5.19-4.413-8.635-4.777.596.65 1.13 1.35 1.58 2.098 2.576 4.276 3.04 9.094 1.378 14.326" id="Shape" fill="#000" mask="url(#j)"/></g><g id="Clipped"><mask id="l" fill="#fff"><use xlink:href="#k"/></mask><path d="M215.682 84.326c-12.7-12.7-27.636-22.363-43.92-28.62 2.556-3.568 4.8-7.54 6.12-11.694 2.454-7.723 1.69-15.237-2.218-21.72-4.334-7.2-12.867-11.67-22.264-11.67-1.875 0-3.72.183-5.484.538-.362.058-2.893.637-6.15 1.42C140.51 5.437 134.29 0 126.788 0c-7.72 0-14.078 5.75-15.07 13.197-4.274-1.078-7.972-1.958-8.425-2.026-1.78-.36-3.636-.543-5.523-.543-9.4 0-17.934 4.47-22.268 11.666-3.91 6.484-4.678 14-2.22 21.724 1.383 4.342 3.77 8.483 6.47 12.175C63.922 62.458 49.397 71.946 37 84.33 13.14 108.168-.002 139.874-.002 173.605c0 33.788 13.14 65.537 37.002 89.396 23.86 23.86 55.613 37 89.403 37 33.736 0 65.442-13.14 89.28-37 23.844-23.86 36.977-55.61 36.977-89.393 0-33.726-13.133-65.43-36.978-89.278zM122.51 13.68l3.205.138-.516-2.98h3.172l-.45 2.98 3.147-.138v3.046l-3.08-.114.58 2.784h-3.575l.59-2.784-3.077.114V13.68zm3.893 275.27C62.8 288.95 11.05 237.206 11.05 173.604c0-53.628 36.882-98.816 86.643-111.592l-.052-.623C93.68 57.88 87.2 51.135 84.768 43.47c-1.663-5.236-1.198-10.05 1.376-14.33 3.818-6.34 12.155-8.32 18.415-7 .53.1 1.168.267 1.86.48 1.823-.564 3.784-.87 5.822-.87 1.31 0 2.595.135 3.82.39 1.767.33 4.657 1.398 7.09 2.375.23-1.532 1.57-2.77 3.283-2.77 1.563 0 2.902 1.224 3.147 2.74 2.423-.97 5.298-2.022 7.077-2.355 1.17-.243 2.45-.377 3.763-.377 2.04 0 4.005.308 5.828.87.712-.218 1.368-.39 1.914-.49 6.204-1.31 14.537.672 18.356 7.012 2.574 4.276 3.037 9.093 1.378 14.326-2.318 7.297-12.96 18.07-12.96 18.07l-.04.43c49.79 12.716 86.712 57.943 86.712 111.637 0 63.6-51.68 115.345-115.205 115.345z" id="Shape" fill="#000" mask="url(#l)"/></g><g id="Clipped"><mask id="n" fill="#fff"><use xlink:href="#m"/></mask><path d="M129.632 47.773c0-1.74-1.467-3.232-3.197-3.232-1.888 0-3.333 1.496-3.333 3.235 0 1.875 1.445 3.235 3.333 3.235 1.73 0 3.197-1.36 3.197-3.236" id="Shape" fill="#000" mask="url(#n)"/></g><g id="Clipped"><mask id="p" fill="#fff"><use xlink:href="#o"/></mask><path d="M141.42 33.112c4.33 7.192-.944 15.545-5.968 21.158 2.406.2 4.792.467 7.147.822 5.42-5.453 12.875-15.108 7.96-23.268-1.785-2.962-5.765-4.878-10.14-4.878-.95 0-1.876.095-2.75.277-.936.176-2.398.66-3.95 1.237 3.363.567 6.256 2.258 7.7 4.652" id="Shape" fill="#000" mask="url(#p)"/></g><g id="Clipped"><mask id="r" fill="#fff"><use xlink:href="#q"/></mask><path d="M146.79 81.447c-.448.41-.75.78-2.042.737l-.247.92 1.39.302-1.536 6.515 1.537.33 1.908-8.645-1.008-.156z" id="Shape" fill="#000" mask="url(#r)"/></g><g id="Clipped"><mask id="t" fill="#fff"><use xlink:href="#s"/></mask><path d="M121.62 83.535c.7-.43.964-1.256.918-1.97-.093-1.635-1.35-2.29-2.84-2.168-1.518.124-2.635.92-2.556 2.53.037.763.504 1.522 1.156 1.85-.854.378-1.156 1.163-1.12 2.182.157 1.71 1.506 2.496 3.11 2.373 1.656-.13 2.88-1.1 2.77-2.797-.074-.953-.474-1.723-1.44-2.003m-1.842-2.776c.706-.022 1.164.427 1.208 1.014.033.67-.44 1.16-1.094 1.16-.546.084-1.073-.372-1.123-1.005-.04-.572.32-1.112 1.01-1.17m.428 6.2c-.965.082-1.347-.42-1.388-1.18-.09-.838.423-1.373 1.202-1.407.792-.095 1.33.41 1.47 1.244.04.763-.304 1.25-1.287 1.342" id="Shape" fill="#000" mask="url(#t)"/></g><g id="Clipped"><mask id="v" fill="#fff"><use xlink:href="#u"/></mask><path d="M106.61 81.22c-.29.64-.423 1.06-1.64 1.64l.227.917 1.297-.29L107.912 90l1.55-.282-1.884-8.7-.97.202z" id="Shape" fill="#000" mask="url(#v)"/></g><g id="Clipped"><mask id="x" fill="#fff"><use xlink:href="#w"/></mask><path d="M133.725 79.43c-2.05-.153-2.966 1.05-3.097 2.85-.122 1.374.58 2.63 2.105 2.752.647 0 1.368-.168 1.946-.543l-.087.8c-.116 1.417-.622 1.773-1.496 1.75-.626-.084-1.06-.53-.962-1.14l-1.66-.12c0 1.6 1.035 2.5 2.538 2.61 1.884.15 2.972-.935 3.12-2.774l.267-2.927c.16-1.875-.792-3.09-2.677-3.26m1.08 3.305l-.03.5c-.505.3-.926.625-1.394.58-.737-.038-1.24-.542-1.147-1.537.08-.925.498-1.523 1.325-1.465.92.04 1.34.54 1.245 1.92" id="Shape" fill="#000" mask="url(#x)"/></g><g id="Clipped"><mask id="z" fill="#fff"><use xlink:href="#y"/></mask><path d="M153.582 267.865l.868 2.754 2.714-.828.416 1.487c.54 1.926-.084 3.345-1.725 3.844-.45.1-.84.16-1.162.16-1.163 0-2.005-.78-2.505-2.49l-2.42-8.354c-.598-2.13-.038-3.343 1.878-3.89 1.716-.5 2.89.38 3.594 2.705l3.42-.946c-1.112-3.38-3.038-5.05-5.665-5.05-.63 0-1.382.07-2.225.29-4.06 1.21-5.528 4.042-4.25 8.44l2.117 7.26c1.245 4.37 3.976 6.052 8.11 4.894 1.205-.43 2.083-1.287 2.882-2.92l.165-.368 1.21 1.694 1.635-.46-2.894-10.03-6.165 1.806z" id="Shape" fill="#000" mask="url(#z)"/></g><g id="Clipped"><mask id="B" fill="#fff"><use xlink:href="#A"/></mask><path d="M34.92 217.51l-1.29-3.29-1.117.44c-.716.32-1.313.4-1.775.4-1.438 0-1.995-1.037-2.323-1.842-.366-.92-.426-1.58-.123-2.208.295-.68.904-1.208 2.05-1.677l8.07-3.22c.607-.325 1.197-.408 1.69-.408 1.434 0 1.985 1.01 2.385 1.84.343.866.374 1.586.125 2.178-.275.65-.96 1.243-2.08 1.658l-.352.15 1.355 3.326c2.167-.91 3.512-2.12 4.137-3.642.498-1.372.407-3.013-.334-4.834-1.145-2.816-2.933-4.2-5.258-4.2-1.062 0-2.226.253-3.56.807l-7.063 2.843c-2.21.937-3.676 2.178-4.27 3.714-.576 1.343-.408 2.962.345 4.848 1.64 4.01 4.55 5.102 8.808 3.383l.58-.266z" id="Shape" fill="#000" mask="url(#B)"/></g><g id="Clipped"><mask id="D" fill="#fff"><use xlink:href="#C"/></mask><path id="Shape" fill="#000" mask="url(#D)" d="M51.92 219.95l-1.877-3.05-17.528 11.288 5.415 8.423 2.682-1.662-3.59-5.47z"/></g><g id="Clipped"><mask id="F" fill="#fff"><use xlink:href="#E"/></mask><path d="M96.96 256.183l-5.098-1.78-6.89 19.63 5.346 1.854c1.26.425 2.31.664 3.303.664 2.528 0 4.23-1.325 5.136-3.963.842-2.507.293-3.854-1.115-5.722l-.26-.29.38-.092c1.837-.42 3.13-1.49 3.676-3.162 1.462-4.106-1.587-6.15-4.476-7.134m-1.453 14.942c-.508 1.46-1.548 2.252-2.926 2.252-.46 0-.914-.086-1.424-.256l-1.833-.663 2.14-6.185 1.57.51c1.087.376 1.853.905 2.237 1.665.525.756.646 1.676.237 2.676m2.455-8.578c-.38 1.133-1.336 1.81-2.692 1.81-.383 0-.808-.086-1.272-.242l-1.577-.604 1.83-5.217 1.75.633c.962.33 1.585.848 1.893 1.443.324.638.324 1.354.073 2.18" id="Shape" fill="#000" mask="url(#F)"/></g><g id="Clipped"><mask id="H" fill="#fff"><use xlink:href="#G"/></mask><path d="M114.18 260.43l-5.605-.766-2.756 20.6 3.494.476 1.192-8.603 2.28.322 2.342 9.06 3.856.56-2.72-9.866.242-.08c2.1-.475 3.382-2.01 3.692-4.683.28-2.02-.045-3.556-1.02-4.77-1.034-1.215-2.705-1.97-5.003-2.25m2.498 6.43c-.298 2.344-1.71 2.848-2.833 2.848-.216 0-.465-.06-.678-.1l-2.298-.335.832-6.24 2.38.218c.926.173 1.645.523 2.105 1.103.45.632.658 1.437.49 2.506" id="Shape" fill="#000" mask="url(#H)"/></g><g id="Clipped"><mask id="J" fill="#fff"><use xlink:href="#I"/></mask><path d="M139.586 260.548l-3.596.265 1.07 14.558c.04 1.094-.117 2.027-.572 2.614-.498.577-1.262.92-2.258.996-2.092.114-3.178-.914-3.354-3.13l-1.08-14.597-3.554.253 1.105 14.63c.263 3.966 2.42 5.945 6.212 5.945h.83c3.046-.214 6.595-1.59 6.18-6.893l-.986-14.637z" id="Shape" fill="#000" mask="url(#J)"/></g><g id="Clipped"><mask id="L" fill="#fff"><use xlink:href="#K"/></mask><path d="M171.81 260.593l1.393 2.507 2.468-1.326.696 1.405c.513.84.59 1.65.513 2.35-.21.744-.67 1.33-1.37 1.71-1.84.956-3 .45-4.105-1.56l-4.014-7.667c-.986-2.01-.702-3.317 1.034-4.188 1.646-.834 2.945-.162 4.11 1.93l3.138-1.676c-1.55-2.595-3.342-3.923-5.52-3.923-.96 0-2.042.32-3.17.87-1.767.97-2.923 2.133-3.42 3.553-.476 1.506-.17 3.436.95 5.603l3.555 6.68c2.085 4.06 5.06 5.096 8.813 3.13 1.212-.553 1.88-1.624 2.323-3.422l.058-.37 1.59 1.41 1.464-.745-4.8-9.278-5.698 3.008z" id="Shape" fill="#000" mask="url(#L)"/></g><g id="Clipped"><mask id="N" fill="#fff"><use xlink:href="#M"/></mask><path id="Shape" fill="#000" mask="url(#N)" d="M210.43 200.437l-.715 1.742 14.043 11.55-.125.323-.182.048-17.91-1.88-.758 1.72 21.638 2.13.708-1.677z"/></g><g id="Clipped"><mask id="P" fill="#fff"><use xlink:href="#O"/></mask><path id="Shape" fill="#000" mask="url(#P)" d="M190.91 257.038l-3.795-4.76 4.18-3.33-1.93-2.44-4.22 3.326-3.33-4.19 5.513-4.393-1.976-2.45-8.275 6.63 13.01 16.257 8.472-6.764-1.967-2.44z"/></g><g id="Clipped"><mask id="R" fill="#fff"><use xlink:href="#Q"/></mask><path d="M64.298 235.48l-10.73 9.996c-.84.747-1.648 1.113-2.42 1.113-.76 0-1.476-.37-2.22-1.116-.676-.75-.967-1.55-.93-2.34.046-.72.563-1.46 1.347-2.168l10.687-9.988-2.422-2.643-10.737 10.02c-1.632 1.47-2.365 3.014-2.365 4.62.032 1.535.733 3.083 2.246 4.62 2.92 3.19 6.1 3.347 9.186.514l10.74-9.99-2.382-2.64z" id="Shape" fill="#000" mask="url(#R)"/></g><g id="Clipped"><mask id="T" fill="#fff"><use xlink:href="#S"/></mask><path id="Shape" fill="#000" mask="url(#T)" d="M202.486 218.074l-1.253 1.758 4 13.522-.194.303-.18-.104-8.897-6.216-1.074 1.517 16.997 11.937 1.12-1.49-5.725-4.03-1.542-5.63 13.036 1.384 1.262-1.714-14.88-1.59z"/></g><g id="Clipped"><mask id="V" fill="#fff"><use xlink:href="#U"/></mask><path d="M75.38 244.884l-4.443-3.118-12.03 16.993 4.684 3.26c3.596 2.556 6.778 2.25 8.98-.88 1.538-2.134 1.376-3.635.495-5.806l-.167-.373h.428c1.886.127 3.424-.56 4.478-2.002 2.455-3.517.07-6.32-2.42-8.077m-5.538 13.97c-.708.99-1.584 1.497-2.543 1.497-.705 0-1.42-.3-2.17-.764l-1.62-1.163 3.843-5.393 1.336.978c.92.65 1.495 1.4 1.76 2.192.19.894 0 1.815-.605 2.654m4.736-7.614c-.493.756-1.256 1.115-2.14 1.115-.662 0-1.424-.234-2.12-.72l-1.3-.99 3.17-4.497 1.51 1.074c1.627 1.09 1.93 2.613.88 4.018" id="Shape" fill="#000" mask="url(#V)"/></g><g id="Clipped"><mask id="X" fill="#fff"><use xlink:href="#W"/></mask><path d="M224.476 184.813c3.73-.79 8.51-5.827 8.636-10.963-4.953 1.4-8.627 7.308-8.636 10.963" id="Shape" fill="#D9A500" mask="url(#X)"/></g><g id="Clipped"><mask id="Z" fill="#fff"><use xlink:href="#Y"/></mask><path d="M222.558 129.34c-3.774 3.677-4.178 10.6-2.463 13.796 2.924-2.434 4.762-9.153 2.463-13.796" id="Shape" fill="#D9A500" mask="url(#Z)"/></g><g id="Clipped"><mask id="ab" fill="#fff"><use xlink:href="#aa"/></mask><path d="M225.126 163.37c3.396-1.774 6.465-7.982 5.19-12.97-4.415 2.77-6.255 9.494-5.19 12.97" id="Shape" fill="#D9A500" mask="url(#ab)"/></g><g id="Clipped"><mask id="ad" fill="#fff"><use xlink:href="#ac"/></mask><path d="M216.878 120.407c-3.126 4.122-2.42 11.098-.106 13.974 2.48-2.935 3.13-9.77.106-13.97" id="Shape" fill="#D9A500" mask="url(#ad)"/></g><g id="Clipped"><mask id="af" fill="#fff"><use xlink:href="#ae"/></mask><path d="M226.25 173.958c3.496-1.52 7.135-7.424 6.22-12.572-4.61 2.44-6.97 8.996-6.22 12.572" id="Shape" fill="#D9A500" mask="url(#af)"/></g><g id="Clipped"><mask id="ah" fill="#fff"><use xlink:href="#ag"/></mask><path d="M218.416 143.248c-1.337-3.596-7.068-7.493-12.244-6.878 2.208 4.784 8.645 7.47 12.244 6.878" id="Shape" fill="#D9A500" mask="url(#ah)"/></g><g id="Clipped"><mask id="aj" fill="#fff"><use xlink:href="#ai"/></mask><path d="M206.063 117.867c-2.138-3.2-8.565-5.862-13.506-4.16 3.178 4.22 10.047 5.46 13.506 4.16" id="Shape" fill="#D9A500" mask="url(#aj)"/></g><g id="Clipped"><mask id="al" fill="#fff"><use xlink:href="#ak"/></mask><path d="M215.247 135.162c-1.715-3.414-7.76-6.71-12.86-5.604 2.62 4.483 9.297 6.546 12.86 5.604" id="Shape" fill="#D9A500" mask="url(#al)"/></g><g id="Clipped"><mask id="an" fill="#fff"><use xlink:href="#am"/></mask><path d="M210.674 126.177c-2-3.274-8.34-6.003-13.312-4.42 3.025 4.233 9.89 5.692 13.312 4.42" id="Shape" fill="#D9A500" mask="url(#an)"/></g><g id="Clipped"><mask id="ap" fill="#fff"><use xlink:href="#ao"/></mask><path d="M205.662 102.588c-2.863 4.357-1.594 11.246.807 13.927 2.296-3.075 2.44-9.98-.81-13.927" id="Shape" fill="#D9A500" mask="url(#ap)"/></g><g id="Clipped"><mask id="ar" fill="#fff"><use xlink:href="#aq"/></mask><path d="M191.672 87.736c-2.416 4.74-.477 11.392 2.21 13.852 2-3.31 1.47-10.18-2.21-13.852" id="Shape" fill="#D9A500" mask="url(#ar)"/></g><g id="Clipped"><mask id="at" fill="#fff"><use xlink:href="#as"/></mask><path d="M198.732 94.726c-2.578 4.584-.997 11.374 1.596 13.916 2.088-3.152 1.932-10.15-1.596-13.916" id="Shape" fill="#D9A500" mask="url(#at)"/></g><g id="Clipped"><mask id="av" fill="#fff"><use xlink:href="#au"/></mask><path d="M211.62 111.293c-3.06 4.223-2.212 11.18.082 13.98 2.47-2.917 2.984-9.79-.08-13.98" id="Shape" fill="#D9A500" mask="url(#av)"/></g><g id="Clipped"><mask id="ax" fill="#fff"><use xlink:href="#aw"/></mask><path d="M222.96 153.252c3.14-2.156 5.63-8.642 3.78-13.436-4.04 3.19-5.173 10.055-3.78 13.436" id="Shape" fill="#D9A500" mask="url(#ax)"/></g><g id="Clipped"><mask id="az" fill="#fff"><use xlink:href="#ay"/></mask><path d="M210.498 144.474c1.413 4.996 7.27 8.705 10.97 8.776-.738-3.82-5.81-8.52-10.97-8.776" id="Shape" fill="#D9A500" mask="url(#az)"/></g><g id="Clipped"><mask id="aB" fill="#fff"><use xlink:href="#aA"/></mask><path d="M187.854 95.212c1.194-3.668-.68-10.252-5.04-13.104-1.4 5.057 1.872 11.225 5.04 13.104" id="Shape" fill="#D9A500" mask="url(#aB)"/></g><g id="Clipped"><mask id="aD" fill="#fff"><use xlink:href="#aC"/></mask><path d="M192.613 102.808c-2.483-2.906-9.197-4.697-13.87-2.36 3.57 3.684 10.622 4.115 13.87 2.36" id="Shape" fill="#D9A500" mask="url(#aD)"/></g><g id="Clipped"><mask id="aF" fill="#fff"><use xlink:href="#aE"/></mask><path d="M30.834 143.136c1.716-3.195 1.31-10.12-2.462-13.794-2.3 4.64-.46 11.362 2.462 13.794" id="Shape" fill="#D9A500" mask="url(#aF)"/></g><g id="Clipped"><mask id="aH" fill="#fff"><use xlink:href="#aG"/></mask><path d="M25.805 163.37c1.063-3.477-.777-10.2-5.19-12.97-1.276 4.988 1.792 11.196 5.19 12.97" id="Shape" fill="#D9A500" mask="url(#aH)"/></g><g id="Clipped"><mask id="aJ" fill="#fff"><use xlink:href="#aI"/></mask><path d="M34.05 120.407c-3.022 4.203-2.374 11.036.107 13.974 2.314-2.873 3.02-9.85-.106-13.97" id="Shape" fill="#D9A500" mask="url(#aJ)"/></g><g id="Clipped"><mask id="aL" fill="#fff"><use xlink:href="#aK"/></mask><path d="M24.678 173.958c.75-3.576-1.61-10.133-6.22-12.572-.914 5.148 2.726 11.053 6.22 12.572" id="Shape" fill="#D9A500" mask="url(#aL)"/></g><g id="Clipped"><mask id="aN" fill="#fff"><use xlink:href="#aM"/></mask><path d="M32.515 143.248c3.598.592 10.037-2.094 12.243-6.878-5.174-.615-10.905 3.282-12.243 6.878" id="Shape" fill="#D9A500" mask="url(#aN)"/></g><g id="Clipped"><mask id="aP" fill="#fff"><use xlink:href="#aO"/></mask><path d="M44.865 117.867c3.46 1.3 10.332.06 13.51-4.16-4.943-1.702-11.37.96-13.51 4.16" id="Shape" fill="#D9A500" mask="url(#aP)"/></g><g id="Clipped"><mask id="aR" fill="#fff"><use xlink:href="#aQ"/></mask><path d="M35.684 135.162c3.564.94 10.235-1.12 12.86-5.604-5.1-1.106-11.145 2.19-12.86 5.604" id="Shape" fill="#D9A500" mask="url(#aR)"/></g><g id="Clipped"><mask id="aT" fill="#fff"><use xlink:href="#aS"/></mask><path d="M40.255 126.177c3.422 1.272 10.288-.187 13.312-4.42-4.97-1.583-11.313 1.145-13.312 4.42" id="Shape" fill="#D9A500" mask="url(#aT)"/></g><g id="Clipped"><mask id="aV" fill="#fff"><use xlink:href="#aU"/></mask><path d="M45.267 102.588c-3.247 3.946-3.104 10.853-.807 13.927 2.4-2.68 3.67-9.57.807-13.927" id="Shape" fill="#D9A500" mask="url(#aV)"/></g><g id="Clipped"><mask id="aX" fill="#fff"><use xlink:href="#aW"/></mask><path d="M59.258 87.736c-3.68 3.673-4.21 10.542-2.212 13.852 2.688-2.46 4.63-9.112 2.212-13.852" id="Shape" fill="#D9A500" mask="url(#aX)"/></g><g id="Clipped"><mask id="aZ" fill="#fff"><use xlink:href="#aY"/></mask><path d="M52.196 94.726c-3.527 3.768-3.684 10.765-1.596 13.916 2.594-2.542 4.174-9.332 1.596-13.916" id="Shape" fill="#D9A500" mask="url(#aZ)"/></g><g id="Clipped"><mask id="bb" fill="#fff"><use xlink:href="#ba"/></mask><path d="M39.308 111.293c-3.064 4.19-2.55 11.063-.08 13.98 2.295-2.8 3.14-9.757.08-13.98" id="Shape" fill="#D9A500" mask="url(#bb)"/></g><g id="Clipped"><mask id="bd" fill="#fff"><use xlink:href="#bc"/></mask><path d="M27.97 153.252c1.392-3.38.26-10.247-3.78-13.436-1.85 4.794.64 11.28 3.78 13.436" id="Shape" fill="#D9A500" mask="url(#bd)"/></g><g id="Clipped"><mask id="bf" fill="#fff"><use xlink:href="#be"/></mask><path d="M29.462 153.252c3.7-.073 9.56-3.78 10.97-8.778-5.16.255-10.23 4.953-10.97 8.778" id="Shape" fill="#D9A500" mask="url(#bf)"/></g><g id="Clipped"><mask id="bh" fill="#fff"><use xlink:href="#bg"/></mask><path d="M68.115 82.107c-4.36 2.853-6.235 9.437-5.04 13.104 3.166-1.875 6.44-8.043 5.04-13.1" id="Shape" fill="#D9A500" mask="url(#bh)"/></g><g id="Clipped"><mask id="bj" fill="#fff"><use xlink:href="#bi"/></mask><path d="M68.536 91.517c3.606.357 9.92-2.73 11.84-7.574-5.22-.29-10.734 3.9-11.84 7.574" id="Shape" fill="#D9A500" mask="url(#bj)"/></g><g id="Clipped"><mask id="bl" fill="#fff"><use xlink:href="#bk"/></mask><path d="M58.315 102.808c3.25 1.756 10.3 1.324 13.873-2.36-4.673-2.338-11.388-.547-13.873 2.36" id="Shape" fill="#D9A500" mask="url(#bl)"/></g><g id="Clipped"><mask id="bn" fill="#fff"><use xlink:href="#bm"/></mask><path d="M63.707 96.51c3.25 1.754 10.3 1.323 13.873-2.364-4.674-2.333-11.39-.545-13.873 2.363" id="Shape" fill="#D9A500" mask="url(#bn)"/></g><g id="Clipped"><mask id="bp" fill="#fff"><use xlink:href="#bo"/></mask><path d="M51.494 110.152c3.284 1.63 10.247.915 13.757-3.013-4.76-2.036-11.433-.027-13.754 3.01" id="Shape" fill="#D9A500" mask="url(#bp)"/></g><g id="Clipped"><mask id="br" fill="#fff"><use xlink:href="#bq"/></mask><path d="M26.46 173.646c3.548-.92 8.405-5.864 8.484-11.075-4.963 1.46-8.68 7.268-8.483 11.078" id="Shape" fill="#D9A500" mask="url(#br)"/></g><g id="Clipped"><mask id="bt" fill="#fff"><use xlink:href="#bs"/></mask><path d="M27.092 163.215c3.68-.48 9.088-4.844 9.877-9.963-5.098.837-9.47 6.094-9.88 9.963" id="Shape" fill="#D9A500" mask="url(#bt)"/></g><g id="Clipped"><mask id="bv" fill="#fff"><use xlink:href="#bu"/></mask><path d="M18.566 184.996c.733 5.097 5.944 9.654 9.76 9.994-.344-3.62-4.62-9.126-9.76-9.994" id="Shape" fill="#D9A500" mask="url(#bv)"/></g><g id="Clipped"><mask id="bx" fill="#fff"><use xlink:href="#bw"/></mask><path d="M26.453 184.813c-.01-3.654-3.684-9.563-8.635-10.963.125 5.135 4.91 10.173 8.635 10.963" id="Shape" fill="#D9A500" mask="url(#bx)"/></g><g id="Clipped"><mask id="bz" fill="#fff"><use xlink:href="#by"/></mask><path d="M27.872 184.225c3.506-1.186 7.972-6.492 7.806-11.68-4.84 1.8-8.256 7.81-7.806 11.68" id="Shape" fill="#D9A500" mask="url(#bz)"/></g><g id="Clipped"><mask id="bB" fill="#fff"><use xlink:href="#bA"/></mask><path d="M29.563 194.37c3.365-1.568 7.204-7.363 6.408-12.48-4.6 2.337-7.18 8.668-6.405 12.48" id="Shape" fill="#D9A500" mask="url(#bB)"/></g><g id="Clipped"><mask id="bD" fill="#fff"><use xlink:href="#bC"/></mask><path d="M182.396 91.517c-1.108-3.674-6.62-7.863-11.84-7.574 1.92 4.843 8.233 7.93 11.84 7.574" id="Shape" fill="#D9A500" mask="url(#bD)"/></g><g id="Clipped"><mask id="bF" fill="#fff"><use xlink:href="#bE"/></mask><path d="M187.222 96.51c-2.483-2.91-9.197-4.697-13.87-2.364 3.57 3.687 10.622 4.118 13.87 2.363" id="Shape" fill="#D9A500" mask="url(#bF)"/></g><g id="Clipped"><mask id="bH" fill="#fff"><use xlink:href="#bG"/></mask><path d="M199.436 110.152c-2.322-3.037-8.997-5.046-13.758-3.013 3.51 3.925 10.472 4.64 13.758 3.01" id="Shape" fill="#D9A500" mask="url(#bH)"/></g><g id="Clipped"><mask id="bJ" fill="#fff"><use xlink:href="#bI"/></mask><path d="M215.984 162.568c.08 5.214 4.937 10.158 8.483 11.077.2-3.807-3.52-9.614-8.483-11.077" id="Shape" fill="#D9A500" mask="url(#bJ)"/></g><g id="Clipped"><mask id="bL" fill="#fff"><use xlink:href="#bK"/></mask><path d="M223.837 163.215c-.41-3.87-4.782-9.126-9.877-9.963.79 5.12 6.196 9.484 9.877 9.963" id="Shape" fill="#D9A500" mask="url(#bL)"/></g><g id="Clipped"><mask id="bN" fill="#fff"><use xlink:href="#bM"/></mask><path d="M222.604 194.99c3.813-.34 9.027-4.897 9.76-9.994-5.14.87-9.415 6.376-9.76 9.994" id="Shape" fill="#D9A500" mask="url(#bN)"/></g><g id="Clipped"><mask id="bP" fill="#fff"><use xlink:href="#bO"/></mask><path d="M215.25 172.544c-.165 5.19 4.303 10.493 7.806 11.68.45-3.87-2.967-9.878-7.805-11.68" id="Shape" fill="#D9A500" mask="url(#bP)"/></g><g id="Clipped"><mask id="bR" fill="#fff"><use xlink:href="#bQ"/></mask><path d="M214.96 181.89c-.795 5.12 3.04 10.912 6.407 12.48.78-3.812-1.804-10.145-6.407-12.48" id="Shape" fill="#D9A500" mask="url(#bR)"/></g><g id="Clipped"><mask id="bT" fill="#fff"><use xlink:href="#bS"/></mask><path d="M126.396 70.03c-12.395 0-26.52 1.767-24.604 2.737 1.882.99 9.644 2.19 24.604 2.19 14.873 0 22.584-1.2 24.52-2.19 1.857-.97-12.172-2.738-24.52-2.738" id="Shape" fill="#000" mask="url(#bT)"/></g><g id="Clipped"><mask id="bV" fill="#fff"><use xlink:href="#bU"/></mask><path d="M126.394 63.367c-1.185 0-2.223.92-2.223 2.173 0 1.24 1.04 2.175 2.226 2.175 1.206 0 2.13-.934 2.13-2.175 0-1.254-.924-2.173-2.13-2.173" id="Shape" fill="#000" mask="url(#bV)"/></g><g id="Clipped"><mask id="bX" fill="#fff"><use xlink:href="#bW"/></mask><path d="M148.947 65.542c-1.182 0-2.222.917-2.222 2.17 0 1.242 1.04 2.178 2.222 2.178 1.21 0 2.134-.936 2.134-2.177 0-1.254-.922-2.17-2.13-2.17" id="Shape" fill="#000" mask="url(#bX)"/></g><g id="Clipped"><mask id="bZ" fill="#fff"><use xlink:href="#bY"/></mask><path d="M103.837 65.542c-1.183 0-2.224.917-2.224 2.17 0 1.242 1.04 2.178 2.224 2.178 1.208 0 2.134-.936 2.134-2.177 0-1.254-.923-2.17-2.13-2.17" id="Shape" fill="#000" mask="url(#bZ)"/></g><g id="Clipped"><mask id="cb" fill="#fff"><use xlink:href="#ca"/></mask><path d="M137.27 64.76c-.807 0-1.513.624-1.513 1.476 0 .843.706 1.48 1.513 1.48.82 0 1.45-.638 1.45-1.48 0-.852-.63-1.477-1.45-1.477" id="Shape" fill="#000" mask="url(#cb)"/></g><g id="Clipped"><mask id="cd" fill="#fff"><use xlink:href="#cc"/></mask><path d="M115.444 64.76c-.8 0-1.475.624-1.475 1.476 0 .843.67 1.48 1.472 1.48.888 0 1.57-.638 1.57-1.48 0-.852-.682-1.477-1.57-1.477" id="Shape" fill="#000" mask="url(#cd)"/></g><g id="Clipped"><mask id="cf" fill="#fff"><use xlink:href="#ce"/></mask><path d="M97.712 62.225l.277 3.208c9.016-2.627 18.546-4.04 28.4-4.04 9.785 0 19.25 1.395 28.21 3.99l.272-3.165c-9.06-2.567-18.612-3.943-28.485-3.943-9.838 0-19.465 1.35-28.678 3.95" id="Shape" fill="#000" mask="url(#cf)"/></g><g id="Clipped"><mask id="ch" fill="#fff"><use xlink:href="#cg"/></mask><path d="M206.226 173.58c0-44.527-36.088-80.62-80.62-80.62-44.617 0-80.715 36.093-80.715 80.62 0 44.61 36.1 80.712 80.72 80.712 44.53 0 80.62-36.1 80.62-80.712m-80.62 70.732c-39.025 0-70.73-31.714-70.73-70.73 0-38.923 31.705-70.675 70.73-70.675 38.923 0 70.666 31.752 70.666 70.674 0 39.02-31.743 70.734-70.668 70.734" id="Shape" fill="#000" mask="url(#ch)"/></g><g id="Clipped"><mask id="cj" fill="#fff"><use xlink:href="#ci"/></mask><path d="M173.688 221.756c-26.583 26.58-69.68 26.58-96.26.002-26.583-26.582-26.58-69.68 0-96.26 26.584-26.583 69.677-26.583 96.26 0 26.58 26.578 26.58 69.676 0 96.258" id="Shape" fill="#0078BB" mask="url(#cj)"/></g><mask id="cl" fill="#fff"><use xlink:href="#ck"/></mask><path d="M59.713 156.407c-2.857 10.97-2.95 22.51-.25 33.51l82.385-82.385c-10.998-2.702-22.538-2.607-33.51.25l-48.625 48.625z" fill="#000" mask="url(#cl)"/><mask id="cn" fill="#fff"><use xlink:href="#cm"/></mask><path d="M69.88 212.764c2.222 3.153 4.725 6.17 7.546 8.994 2.854 2.853 5.905 5.38 9.098 7.62l94.785-94.785c-2.24-3.19-4.77-6.244-7.62-9.097-2.826-2.82-5.845-5.324-8.998-7.55L69.88 212.764z" fill="#000" mask="url(#cn)"/><g><mask id="cp" fill="#fff"><use xlink:href="#co"/></mask><path d="M191.654 157.335l-82.39 82.387c11.004 2.702 22.542 2.61 33.51-.25l48.63-48.628c2.856-10.97 2.95-22.507.25-33.51" fill="#000" mask="url(#cp)"/></g></g></svg>