<svg xmlns="http://www.w3.org/2000/svg" width="432.108" height="716.985"><defs><clipPath id="a"><path d="M0 5735.88V0h3456.87v5735.88H0z"/></clipPath></defs><g clip-path="url(#a)" transform="matrix(.125 0 0 -.125 0 716.985)"><path d="M1728.48 0c-51.11 0-99.08 25.06-128.37 67.07C1339.7 440.53 169.91 2118.02 37.285 2308.14c-49.695 71.23-49.715 149.7-.05 220.94l417.738 599.03C899.188 3765.14 1582.9 4745.58 1601.18 4771.75c28.79 41.28 76.23 65.93 126.9 65.93 50.93 0 98.74-24.83 127.9-66.43 21.13-30.16 1526.45-2188.59 1563.77-2242.27 49.53-71.27 49.49-149.69-.14-220.8l-59.18-84.83C2275.04 667.148 1943.68 191.8 1856.82 67.07 1827.6 25.06 1779.62 0 1728.48 0" fill="#176fc1" fill-rule="evenodd"/><path d="M3351.65 2355.6c-28.11-40.25-1349.56-1934.81-1562.85-2241.19-29.22-41.96-91.28-42.16-120.71.06-204.6 293.4-1424.074 2042.17-1562.856 2241.09-29.328 42.04-29.394 83.99-.007 126.13C195.45 2611.06 1642.28 4685.84 1669.13 4724.33c28.54 40.9 90.06 40.57 118.97-.66 28.9-41.23 1533.41-2198.58 1563.6-2242 29.32-42.18 29.24-84.1-.05-126.07" fill="#fff" fill-rule="evenodd"/><path d="M1744.07 214.63c-8.59-12.34-22.65-12.34-31.26 0L191.29 2396.44c-8.595 12.33-8.595 32.5 0 44.82l1521.52 2181.79c8.61 12.33 22.67 12.33 31.26 0l1521.52-2181.79c8.59-12.32 8.59-32.49 0-44.82L1744.07 214.63" fill="#1d4692" fill-rule="evenodd"/><path d="M1734.31 282.89c-3.23-4.628-8.5-4.628-11.73 0L238.895 2410.44c-3.23 4.62-3.23 12.19 0 16.82L1722.58 4554.79c3.23 4.62 8.5 4.62 11.73 0l1483.66-2127.53c3.23-4.63 3.23-12.2 0-16.82L1734.31 282.89" fill="#176fc1" fill-rule="evenodd"/><path d="M2253.74 1878.53c-135.2-162.73-344.03-240.55-557.5-202.05 201.68 180.89 344.76 565.8 349.47 890.29-13.65 13.04-43.5 31.85-43.5 31.85s-2.65-16.81-12.34-12.81c-78.13 32.15-168.14 92.54-228.59 192.65-18.4 30.45-35.63 67.06-50.32 107.67 118.92 75.11 216.8 175.72 283.87 285.45 185.53-84.59 321.52-246.64 386.33-435.12 111.52-324.38 39.22-657.35-127.42-857.93zm-1008.69-278.19c-57.15 3.82-108.57 32.54-114.4 71.44-5.48 36.71 23.87 59.23 62.16 58.53 56.01-1.06 143.86-64.28 213.33-97.58-48.42-25.74-113.57-35.57-161.09-32.39zm425.43 1633.21c23.39.95 47.31.9 71.87-.44 39.98-2.18 78.64-7.57 115.87-15.82-44.58-73.62-102.62-143.76-181.76-202.35-12.76 70.81-16.41 146.14-5.98 218.61zm235.97 301.35c49.57-11.86 55.16-85.81 18.5-175.86-19.57 2.32-39.3 4.26-59.18 5.7-55.1 3.98-108.51 4.83-160.23 2.89 54.2 136.26 144.25 180.78 200.91 167.27zm896.17-1039.3c-12.93 431.32-319.98 734.92-726.35 835.88 18.27 45.39 34.67 93.15 43.01 133.96 28.79 140.79-21.93 231.69-120.29 248.85-154.58 27.01-351.93-110.49-429.96-358.7-390.95-55.29-662.05-279.46-757.272-538.89-93.82-255.56-.11-471.6 165.246-536.74 169.176-66.64 326.146 24.21 372.326 141.56-9.05 6.6-43.6 32.03-43.6 32.03s-12.73-15.12-24.24-9.29c-95.93 48.64-166.28 162.13-154.03 322.07 15.57 203.42 169.49 391.05 412.13 449.28-11.71-93.57-12.08-187.78-6.06-282.06-34.65-14.83-72.06-27.94-112.63-38.92-6.62-38.81-47.37-99.85-47.37-99.85l44.39-26.57c43.85 8.69 86.41 20.87 127.42 36.01 27.01-234.25 79.83-467.38 83.38-690.65 2.19-137.4-21.09-292.73-98.77-386.88-125.65 52.17-215.6 119.43-306.16 135.12-127.37 22.07-231.66-59.74-217.36-180.87 10.45-88.62 111.64-169.1 244.09-177.6 104.35-6.69 216.97 27.61 293.65 71.71 78.11-30.7 177.21-61.98 274.94-67.7 612.26-35.89 999.25 462.98 983.51 988.25" fill="#1d4692" fill-rule="evenodd"/><path d="M2210.32 1910.4c-135.2-162.75-344.01-240.56-557.49-202.05 201.66 180.87 344.75 565.8 349.46 890.28-87.01 23.43-208.82 86.49-284.43 211.69-18.38 30.45-35.61 67.06-50.32 107.67 118.93 75.1 216.82 175.72 283.87 285.44 185.53-84.58 321.54-246.64 386.33-435.11 111.52-324.38 39.22-657.36-127.42-857.92zm-1008.68-278.21c-57.16 3.82-108.56 32.55-114.39 71.46-5.5 36.7 23.85 59.22 62.15 58.51 56.02-1.05 143.85-64.27 213.32-97.56-48.4-25.76-113.55-35.58-161.08-32.41zm425.42 1633.22c23.4.94 47.32.89 71.89-.44 39.93-2.18 78.54-7.56 115.73-15.78-44.63-73.26-102.73-142.61-181.97-200.55-12.49 70.28-15.98 144.93-5.65 216.77zm237.28 303.41c50.76-13.06 62.23-86.07 22.87-178.61-21.42 2.66-43.05 4.82-64.86 6.39-55.07 3.97-108.49 4.82-160.2 2.89 54.6 137.31 145.73 183.89 202.19 169.33zm894.86-1041.36c-12.91 431.24-319.88 734.8-726.13 835.82 18.58 46.93 33.67 95.67 40.92 138.81 24.53 145.76-20.04 226.89-118.42 244.07-154.56 26.99-351.93-110.51-429.94-358.71-390.96-55.3-662.044-279.47-757.278-538.9-93.832-255.55-.122-471.59 165.253-536.75 169.155-66.63 326.145 24.22 372.315 141.58-128.02 22.75-236.86 148.96-221.87 344.81 15.56 203.41 169.49 391.04 412.13 449.29-11.6-92.64-12.05-185.9-6.23-279.22-34.61-14.7-71.95-27.71-112.46-38.66-11.15-65.4-2.98-129.53-2.98-129.53 43.84 8.7 86.4 20.87 127.43 36.02 27.01-234.26 79.81-467.37 83.36-690.66 2.2-137.41-21.09-292.74-98.76-386.89-125.65 52.18-215.6 119.43-306.16 135.13-127.37 22.06-231.657-59.75-217.36-180.87 10.45-88.62 111.64-169.1 244.09-177.6 104.35-6.69 216.97 27.61 293.64 71.71 78.11-30.7 177.21-61.97 274.96-67.7 612.24-35.89 999.26 462.97 983.49 988.25" fill="#fff" fill-rule="evenodd"/><path d="M2102.09 1114.99h-60.95v-78.27h60.95c25.96 0 42.19 15.15 42.19 39.31 0 23.81-16.23 38.96-42.19 38.96zm-3.26 108.55h-57.69v-66.22h57.69c25.98 0 32.31 6.36 32.31 29.43 0 23.08-6.33 36.79-32.31 36.79zm7.23-221.8h-103.87l-31.68 23.81 31.68 232.97 121.08 7.69s21.64-14.54 35.17-26.62c13.52-12.08 21.19-29.39 21.19-50.32 0-25.96-11.89-44.71-34.63-55.89 25.26-11.91 38.6-30.29 38.6-59.51 0-44.35-29.57-72.13-77.54-72.13" fill="#1d4692"/><path d="M2070.42 1138.84h-60.94v-78.26h60.94c25.97 0 42.2 15.14 42.2 39.31 0 23.81-16.23 38.95-42.2 38.95zm-3.25 108.56h-57.69v-73.58h57.69c25.98 0 41.84 13.72 41.84 36.78 0 23.08-15.86 36.8-41.84 36.8zm7.21-221.8h-103.87v256.78h99.91c46.87 0 77.53-27.42 77.53-69.25 0-25.98-11.91-44.73-34.62-55.89 25.25-11.91 38.59-30.3 38.59-59.51 0-44.35-29.57-72.13-77.54-72.13" fill="#fff"/><path d="M1605.15 5448.59h-287.6c-39.96 123.79-84.92 263.28-88.07 273.37-5.74 18.41-28.86 18.7-34.67.04-2.81-9.07-49.74-153.38-88.77-273.41H818.43c-19.4 0-25.98-21.86-10.664-32.97 7.593-5.51 130.425-94.61 232.714-168.79-38.97-119.92-85.707-263.75-88.632-272.77-5.98-18.44 12.77-31.45 28.062-20.33 7.578 5.49 129.69 94.38 231.7 168.63 102.07-74.3 224.47-163.4 232.05-168.9 15.31-11.13 34.06 1.89 28.07 20.33-2.93 9.02-49.73 153.03-88.69 272.99 102.28 74.18 225.19 163.33 232.77 168.84 15.33 11.11 8.73 32.97-10.66 32.97" fill="#e4ac21"/><path d="M1623.17 5437.22c-4.55-1.58-75-25.08-102.67-34.3h.04l-191.17-138.62 72.79-224.1c22.99-31.71 63.22-87.26 63.51-87.66 5.86 4.17 9.05 12.03 6.06 21.25-2.93 9.02-49.73 153.03-88.69 272.99 102.28 74.18 225.19 163.33 232.77 168.84 8.03 5.81 10.04 14.57 7.36 21.6" fill="#bf851e"/><path d="M2638.42 5448.59h-287.59c-39.97 123.79-84.93 263.28-88.05 273.37-5.74 18.41-28.89 18.7-34.69.04-2.81-9.07-49.73-153.38-88.75-273.41h-287.63c-19.4 0-25.98-21.86-10.65-32.97 7.58-5.51 130.43-94.61 232.71-168.79-38.98-119.92-85.72-263.75-88.63-272.77-5.99-18.44 12.76-31.45 28.05-20.33 7.58 5.49 129.69 94.38 231.7 168.63 102.07-74.3 224.47-163.4 232.07-168.9 15.29-11.13 34.04 1.89 28.04 20.33-2.92 9.02-49.72 153.03-88.69 272.99 102.29 74.18 225.2 163.33 232.78 168.84 15.31 11.11 8.73 32.97-10.67 32.97" fill="#e4ac21"/><path d="M2656.45 5437.22c-4.55-1.58-75-25.08-102.66-34.3h.02l-191.15-138.62 72.79-224.1c22.97-31.71 63.23-87.26 63.52-87.66 5.84 4.17 9.04 12.03 6.03 21.25-2.92 9.02-49.72 153.03-88.69 272.99 102.29 74.18 225.2 163.33 232.78 168.84 8.02 5.81 10.04 14.57 7.36 21.6" fill="#bf851e"/></g></svg>