<svg xmlns="http://www.w3.org/2000/svg" version="1" width="768" height="768" viewBox="0 0 72 72"><path d="M1.668 35.996c0-18.96 15.368-34.33 34.328-34.33s34.328 15.37 34.328 34.33-15.37 34.33-34.328 34.33c-18.96 0-34.328-15.37-34.328-34.33z" fill="#2e6abd" stroke="#2e6abd" stroke-width=".771"/><path d="M3.163 35.96c0-18.126 14.695-32.82 32.823-32.82 18.127 0 32.82 14.694 32.82 32.82 0 18.127-14.693 32.822-32.82 32.822-18.128 0-32.823-14.695-32.823-32.822z" fill="#fff" stroke="#fff" stroke-width=".618"/><path d="M35.97 4.47C18.573 4.47 4.5 18.574 4.5 35.97s14.074 31.468 31.47 31.468c17.394 0 31.5-14.073 31.5-31.47 0-17.393-14.106-31.5-31.5-31.5zm2.155 2.03l2.407.375.718 2.157c.125.385.212.776.25 1.156l.032.03c.136-.308.498-.865.656-1.093l1.28-1.78 2.314.374-3.563 4.37-.44 2.84-2.13-.344.47-2.844-2-5.25zM34 6.688l3.594 7.375-2.25.25-.625-1.53-2.88.342-.348 1.625L29.4 15l1.907-8L34 6.688zm-1.25 1.72c-.026.43-.117.944-.187 1.28l-.375 1.875 1.875-.22-.813-1.75c-.205-.445-.36-.9-.437-1.186h-.063zm14.938.155l4.78 2.5-.75 1.406-2.936-1.54-.657 1.28 2.75 1.44-.75 1.405-2.75-1.438-.718 1.343 3.03 1.594-.718 1.406-4.88-2.563 3.59-6.845zm-23.53.5c.642-.082 1.34.092 1.81.937.71 1.263-.08 1.975-.374 2.25l.03.063c.604-.24 1.64-.42 2.345.844 1.01 1.815-.93 2.918-1.63 3.312l-2.78 1.56-3.78-6.78 2.84-1.6c.293-.166.89-.51 1.53-.595zm-.314 1.78c-.068-.002-.14.01-.22.032-.104.032-.214.085-.342.157l-1 .562.75 1.313.968-.563c.467-.26.63-.605.375-1.062-.164-.294-.327-.43-.53-.438zm31.938 2.595l2.406 2.625c.397.43 1.772 1.886.156 3.375-.714.657-1.524.915-2.437.5l-1.344 3.594-1.594-1.75 1.31-2.938-.57-.594-2.187 2-1.44-1.562 5.69-5.25zm-30.282.03c-.21-.027-.443.034-.718.19l-1 .56.812 1.47 1.094-.594c.475-.266.625-.74.375-1.187-.163-.29-.354-.41-.563-.438zM56.094 16l-1.25 1.157.75.812c.184.2.63.69 1.28.09.33-.31.44-.74-.03-1.25l-.75-.818zm-20.125.25c10.87 0 19.71 8.84 19.71 19.72 0 10.88-8.84 19.687-19.72 19.687-10.878 0-19.686-8.808-19.686-19.688 0-10.88 8.81-19.72 19.687-19.72zm-21.75.594c.47-.036.93.065 1.31.22l-.72 1.843c-.37-.155-1.12-.403-1.63.406-.308.487-.46 1.482 1.25 2.562 1.077.68 2.286 1.125 2.937.094.465-.74-.03-1.38-.375-1.79l1.406-1.406c1.123 1.2 1.305 2.465.375 3.937-1.053 1.666-2.94 2.66-5.47 1.063-2.53-1.6-2.355-3.853-1.374-5.408.664-1.053 1.487-1.47 2.28-1.53zm48.25 5.375l.81 2.53-3 2.97c-.38.37-.86.79-1.38 1.15l.03.09c.32-.172.85-.37 1.53-.594l3.594-1.187.625 1.906-7.375 2.375-.842-2.53 3.155-3.126c.46-.46 1.004-.878 1.25-1l-.03-.066c-.38.142-.69.296-1.127.436l-4.03 1.28-.594-1.874 7.375-2.375zM9.09 23.97l1.5.562-1.09 3.062 1.532.563 1.062-3 1.5.53-1.062 3 2.75 1-.72 2-7.28-2.624 1.812-5.094zm5.75 18.218l1.5 2.844-2.937 2.843c-.163.16-.613.522-.97.782l.032.062c.352-.13 1.027-.29 1.343-.35l3.907-.69 1.437 2.78-6.875 3.564-.94-1.813 3.94-2.062c.51-.268 1.3-.617 1.59-.72l-.06-.124c-.296.094-1.24.306-1.814.408l-4.53.843-.72-1.374 3.594-3.562c.35-.34.84-.746 1.064-.935l-.06-.094c-.25.156-1.122.68-1.682.97l-3.75 1.97-.938-1.75 6.873-3.594zm42.625.062l6.812 3.72L63 48.312l-4.406-.125c-.646-.016-1.334-.125-1.594-.22l-.03.064c.363.17.692.29 1.093.5l3.72 2.03-.94 1.75-6.81-3.68 1.28-2.342 4.22.126c.524.01 1.156.06 1.78.187l.03-.094c-.346-.113-.835-.346-1.468-.687L56.532 44l.937-1.75zm-4.345 7.594L54.188 51l-2.406 2.25.968 1.032 2.282-2.094 1.062 1.156-2.25 2.125 1.03 1.12 2.5-2.31 1.095 1.15-4.04 3.75-5.28-5.687 3.967-3.658zm-33.093 1.53l1.686 1.283-3 3.875c-.5.643-.642 1.326.062 1.875.756.587 1.392.242 1.874-.375l3-3.844 1.62 1.25-3 3.844c-1.19 1.53-2.795 1.677-4.47.375-1.41-1.095-2.16-2.625-.75-4.438l2.97-3.85zM22.187 53l1.062.844-1.91 1.313L22.18 53zm25.625 1.22l3.656 6.812-1.878 1.03-1.562-2.874-2.25 1.187 1.53 2.875-1.873 1-3.656-6.812 1.87-1 1.376 2.53 2.25-1.186-1.343-2.563 1.874-1zm-21 1.874l2.53.78.69 4.19c.087.518.16 1.143.155 1.78l.094.03c.05-.36.198-.907.41-1.592l1.127-3.625 1.875.593-2.313 7.375-2.53-.78-.75-4.376c-.11-.64-.104-1.32-.064-1.6l-.093-.03c-.1.39-.145.75-.28 1.184l-1.283 4.03-1.875-.593 2.315-7.375zm11.53 1.563c1.522-.09 2.43.808 2.814 1.687l-1.813.813c-.154-.367-.505-1.063-1.437-.844-.56.132-1.338.717-.875 2.687.298 1.24.82 2.405 2 2.125.85-.197.93-.996.97-1.53h2c-.04 1.64-.77 2.664-2.47 3.062-1.912.45-4-.153-4.682-3.063-.685-2.914 1.023-4.422 2.813-4.844.24-.057.47-.08.687-.093z" fill="#ed1248"/><path d="M35.938 17.782c-7.11 0-13.27 4.077-16.25 10.03l2.72 4.657.717-8.47 4.032 6.9.687-8.44 4.063 6.906.718-8.437 4.032 6.906.718-8.47 4.032 6.94.625-7.5c-1.904-.677-3.958-1.03-6.094-1.03zm5.47 8.53l-.72 8.47 4.03 6.875.69-8.438-4-6.91zm-.72 8.47l-4.03-6.907-.72 8.438-4.03-6.906-.72 8.437-4.03-6.875-.72 8.43 4.03 6.905.69-8.47 4.06 6.94.72-8.44 4.03 6.876.72-8.437zm-5.47 10L34.5 53.25l-4.03-6.906-.563 6.72c1.89.664 3.913 1.03 6.03 1.03 6.95 0 12.98-3.89 16.032-9.625l-2.5-4.35-.72 8.47-4.03-6.91-.72 8.47-4.03-6.908-.72 8.47-4.03-6.94zm14.25-4.657l.69-8.468-4-6.875-.72 8.437 4.03 6.9zm-23.03-.718l-4.03-6.907-.69 8.47 4 6.874.72-8.437zm16.437-20.25l3.282 5.593.28-3.625c-1.104-.785-2.292-1.443-3.562-1.968zm7.844 6.218l-.54 6.313 3.78 6.47c.09-.73.126-1.47.126-2.22 0-3.936-1.247-7.588-3.375-10.563zm-32.88 8.97c-.05.52-.06 1.06-.06 1.593 0 3.962 1.28 7.64 3.432 10.625l.468-5.625-3.843-6.594zm7.87 13.53l-.25 2.907c.91.642 1.884 1.186 2.906 1.656l-2.656-4.563z" fill="#2e6abd"/></svg>