<svg xmlns="http://www.w3.org/2000/svg" width="2088" height="3407" shape-rendering="geometricPrecision" text-rendering="geometricPrecision" image-rendering="optimizeQuality" fill-rule="evenodd" clip-rule="evenodd" viewBox="0 0 2174.08 3547.71"><path fill="#1F1A17" d="M1087.04 0c600.256 0 1087.04 794.356 1087.04 1773.86 0 979.507-486.787 1773.86-1087.04 1773.86C486.79 3547.72 0 2753.37 0 1773.86 0 794.36 486.787 0 1087.04 0z"/><path fill="#fff" d="M1087.04 136.64c564.19 0 1021.72 723.973 1021.72 1616.7 0 892.724-457.535 1616.7-1021.72 1616.7-564.184 0-1021.72-723.975-1021.72-1616.7 0-892.732 457.535-1616.7 1021.72-1616.7z"/><path fill="#1F1A17" d="M1087.03 187.41c63.15 0 124.857 9.808 184.652 28.325v569.38c-63.097-4.688-127.47-7.108-192.858-7.108-59.733 0-118.59 2.05-176.442 5.957v-568.23c59.797-18.515 121.498-28.324 184.648-28.324zm454.21 182.2c151.246 129.387 278.735 321.17 369.293 554.01v.85c-108.428-42.417-227.705-76.755-355.023-101.515-4.292-69.112-9.035-136.976-14.27-203.513V369.608zM263.53 917.16c87.073-221.522 207.7-405.384 350.37-533.176v235.608c-5.23 66.49-9.986 134.303-14.265 203.37-119.947 23.31-232.776 55.126-336.105 94.198zm319.348 609.44c-117.504 57.026-227.855 133.456-328.817 226.247v684.49c88.127 232.68 216 425.417 369.3 556.414v-301.43c-26.39-319.95-41.03-672.525-41.03-1042.99 0-41.14.197-82.05.55-122.72zm697.01-101.196c-63.108-10.987-127.46-16.76-192.857-16.76-59.73 0-118.59 4.852-176.44 14.036v652.534c56.18-27.896 115.328-42.853 176.44-42.853 67.098 0 131.84 18.02 192.86 51.407V1425.41zM1920 1752.847c-100.96-92.796-211.307-169.198-328.81-226.247.353 40.673.55 81.58.55 122.722 0 370.52-14.64 723.15-41.036 1043.14v315.003C1701.95 2884.05 1829.44 2701.113 1920 2479.033V1752.85z"/><path fill="#F5B400" d="M1073.5 1305.18c355.64 0 697.383 80.28 974.866 217.4 3.86 54.234 5.922 109.32 5.922 165.14 0 20.743-.36 41.35-.905 61.886-278.42-238.487-621.725-378.22-979.883-378.22-358.154 0-680.154 131.04-953.38 355.932-.217-13.16-.343-26.35-.343-39.597 0-60.48 2.41-120.1 6.935-178.703 271.92-128.82 591.152-203.832 946.788-203.832z"/><path fill="#1F1A17" d="M1289.53 2479.06h-405c-47.74 0-86.792 35.328-86.792 78.525v134.996c0 194.46 68.803 305.62 289.294 489.05 220.495-183.43 289.293-294.59 289.293-489.044V2557.59c0-43.197-39.05-78.525-86.794-78.525z"/><path fill="#fff" d="M952.733 2525.45s15.244 24.044 11.21 26.738c-6.11 4.007-26.156-8.634-26.156-8.634s13.195 28.57 20.77 39.878c3.062 4.45 10.054 7.7 12.172 13.503 8.503 22.7-18.9 57.657 6.883 73.398 8.492 5.26 19.364 2.346 29.052-2.5 0 0 3.037-1.74 4.8-.807 4.726 2.38-.658 14.013-1.333 15.8-10.684 24.638-19.92 11.706-31.782 1.286-24.06-21.154-25.834 8.784-33.352 11.49-27.24 9.636-24.2-1.534-33.127 2.443-5.623 2.353-6.522 13.836-8.17 19.387-3.346 11.205-11.27 39.93 13.563 31.29 14.494-5.042 18.9-41.224 32.965-22.855 16.926 22.12-5.934 44.58 17.087 70.84 6.3 7.18 13.61 10.494 20.987 2.94 2.604-2.66 5.363-6.51 6.41-10.08 1.18-4.156 1.682-10.988-.378-17.156-4.72-13.64-16.377-14.26-12.285-33.143 5.07-1.144 5.745-1.44 10.837 1.397 8.75 4.85 21.745 7.8 28.84 14.774 11.553 11.233 20.868 24.044 35.368 32.015 4.344 9.396-5.705 21.355-8.994 26.563-5.722 9.128-13.523 21.087-15.69 32.234-4.24 20.85 15.763 42.252-7.107 49.553-26.51 8.354-69.908 1.7-72.637 30.437-.556 5.35-1.774 14.11 2.41 19.278 3.364 4.05 12.662 7.496 18.498 7.525 22.3-.207 2.46-24.195 20.33-29.79 8.756-2.667 18.97 3.216 26.013 3.787 7.76.59 17.83.098 24.554-.148 26.71-.867 30.987-11.63 44.21-19.82 17.27-10.796 32.68 19.005 38.807 30.203 4.83 9.18 17.476 13.298 21.195 23.398 4.06 11.016 4.408 27.914 3.1 37.2-1.17 7.95-9.312 6.798-12.584 12.824-5.335 9.786-7.29 51.168 8.92 56.696 12.856 4.245 35.002-10.69 30.52-22.53-1.315-3.707-7.542-6.55-8.32-10.79-5.423-27.936 41.95-51.57 43.19-58.24 2.05-10.615-15.763-9.024-11.855-31.57 2.685-16.44 19.61-27.534 27.336-40.77 4.16-7.066 2.564-20.37 7.74-26.755 4.3-5.287 11.722-7.17 15.01-13.188 17.912-33.206-2.83-84.97-16.026-121.83-3.803-10.696-24.29-53.737-10.85-58.842 3.4-1.326 5.565.27 7.424.378 7.77 8.212 2.724 20.823 6.734 30.007 5.466 12.364 21.49 18.024 32.72 23.053-1.195.984 2.41.39 2.518.428-3.226-7.14-6.002-12.55-6.14-21.08-.32-23.502-3.753-42.03-18.803-52.54-7.575-5.26-20.822-9.353-31.71-3.58-44.65 23.365-.67 96.196 10.74 135.037 5.08 17.077-6.86 27.147-20.932 20.81-11.45-5.152-17.4-32.4-20.93-45.59-14.013-52.724-33.555-147.71-57.987-175.314-22.392-25.43-81.775-37.49-121.573-44.742-6.403-1.178-16.623-2.506-23.01-5.07-5.2-2.106-31.18-19.214-31.18-19.214z"/><path fill="#1F1A17" d="M1856.91 1294.68l.047-.052-.013-.017-.034.07zm-.08-203.627l70.302 23.557v-6.106c0-14.436-.623-26.962-1.9-37.524-1.242-10.363-3.084-18.803-5.515-25.27-2.415-6.426-6.123-12.84-11.118-19.237-5.07-6.5-11.52-13.012-19.33-19.524v-.01c-11.153-9.29-24.096-17.2-38.773-23.7-2.96-1.31-5.9-2.53-8.8-3.65-2.965-1.147-6.026-2.25-9.168-3.31l-.127-.04-.045-.023c-14.49-4.85-27.38-7.364-38.63-7.57-2.09-.033-4.218.02-6.35.15-1.96.12-3.95.343-5.917.64l-.262.04v-.017c-6.63 1.077-12.32 3.074-17.035 5.964-4.57 2.81-8.263 6.51-11.043 11.09v.028c-2.907 4.726-5.127 11.616-6.656 20.617-1.59 9.412-2.396 21.04-2.396 34.84 0 9.55.56 18.404 1.685 26.53v.017c1.104 8.02 2.787 15.426 5.035 22.172v.03c3.2 9.726 7.04 18.33 11.432 25.737.837 1.408 1.717 2.816 2.61 4.155v.028c.79 1.198 1.728 2.515 2.724 3.865l-4.726 3.72 4.754-3.674.006.01.007-.003c3.46 4.61 8.793 10.957 16.004 19.042 7.29 8.18 16.42 18.045 27.36 29.604l-.006.006c11.164 11.684 20.194 21.46 27.032 29.27l-.018.01c7.112 8.11 12.16 14.43 15.112 18.96l.017.02c2.676 4.165 4.76 9.544 6.236 16.085.247 1.053.504 2.34.768 3.81h.01c1.42 7.835 2.14 17.38 2.156 28.583h.023v.325c0 7.74-.854 14.02-2.56 18.803-.376 1.063-.8 2.053-1.24 2.94h-.007c-.417.864-.96 1.73-1.534 2.563l.01.02-.08.113-4.863-3.53 4.82 3.58c-2.3 3.29-5.294 5.38-8.933 6.244-3.256.772-6.878.486-10.844-.843h-.022c-5.24-1.745-9.423-4.497-12.525-8.124v-.022c-.617-.72-1.207-1.5-1.728-2.28-.515-.774-1.013-1.62-1.453-2.473l-.062-.15-.052-.096c-2.73-5.648-4.108-15.828-4.108-30.608v-40.48l-70.296-23.563v15.69c0 13.635.635 25.892 1.894 36.736 1.242 10.734 3.112 20.13 5.58 28.18l-.018.007c2.39 7.754 6.162 15.41 11.318 22.94 5.24 7.662 11.89 15.18 19.912 22.522h.03c11.58 10.61 24.913 19.415 39.957 26.356 2.756 1.278 5.772 2.576 9.03 3.86 3.162 1.253 6.31 2.41 9.404 3.455v-.005l.12.04.053.02c10.42 3.49 20.16 5.74 29.19 6.73 8.866.984 17.135.766 24.75-.612 10.443-1.905 18.37-5.482 23.718-10.678l.007.016c.956-.94 1.883-1.98 2.718-3.08v-.027c.85-1.11 1.593-2.26 2.205-3.385l.016-.074.08-.135.004.004c1.6-3.01 2.99-6.883 4.125-11.575.59-2.473 1.115-5.14 1.55-7.95 1.38-8.868 2.09-19.67 2.1-32.364h-.028v-.37c0-17.756-1.236-33.434-3.72-46.996-2.438-13.35-6.083-24.692-10.918-33.98-4.928-9.457-13.454-21.297-25.54-35.493-12.245-14.374-28.175-31.17-47.8-50.372-7.018-6.897-12.71-13.025-17.038-18.36-4.508-5.56-7.655-10.447-9.384-14.624-1.46-3.457-2.61-7.348-3.42-11.657v-.07l-.41-2.34-.02-.09c-.8-5.12-1.22-10.947-1.23-17.385v-.326c0-7.57.812-13.648 2.42-18.163l.01.006c.37-1.055.774-1.98 1.163-2.77.48-.98 1.015-1.855 1.54-2.61l-.045.07.052-.07h-.007.006l.028-.046.07-.1c2.214-3.12 5.046-5.11 8.468-5.956 3.102-.78 6.53-.545 10.23.71 3.16 1.046 5.912 2.55 8.246 4.473 2.428 2.01 4.368 4.453 5.787 7.326l-.018.007c1.146 2.31 2.038 5.395 2.645 9.206l.023.12.287 1.973v.073c.543 4.368.84 9.867.852 16.44h.027v23.35zm-150.24 95.05V944.017l-78.496-20.17v264.315c0 9.22-.212 16.84-.63 22.826-.434 6.283-1.167 10.855-2.168 13.687l-.045.12c-2.1 5.636-6.043 8.652-11.83 8.996h-.03c-.94.05-1.95.028-2.97-.09-1.01-.11-1.994-.3-2.96-.54l-.098-.01-.155-.04c-3.45-.9-6.397-2.48-8.806-4.727h-.03c-2.38-2.24-4.154-5.082-5.287-8.51h-.004c-1.013-2.917-1.757-7.323-2.203-13.144-.43-5.493-.64-12.33-.64-20.48V914.1l-78.41-20.153v210.666h-.03c0 20.77.172 38.04.515 51.794.33 13.47.864 23.53 1.585 30.162v.02c.64 6.18 2.072 12.434 4.246 18.77 2.21 6.425 5.184 12.913 8.886 19.426l-.01.005c3.69 6.386 8.36 12.566 14 18.523 5.66 5.98 12.325 11.713 19.97 17.212v.018c10.88 7.833 23.06 14.196 36.51 19.083 2.623.955 5.31 1.853 8.01 2.69 2.705.84 5.485 1.63 8.324 2.357l.154.04c12.742 3.273 24.272 4.755 34.504 4.457 1.968-.06 3.925-.197 5.813-.38 1.748-.178 3.608-.45 5.508-.79v.01l.48-.085c6.27-1.173 11.92-3.17 16.943-5.968 4.94-2.76 9.31-6.318 13.08-10.667l-.016-.016c3.89-4.492 6.982-9.082 9.265-13.728 2.253-4.6 3.787-9.32 4.56-14.144.663-4.24 1.195-9.957 1.595-17.104l.23-4.51c.428-9.504.663-20.993.67-34.417h-.024v-1.27zm-228.21-231.26v-61.506l-189.59-27.495v61.507l49.437 7.163 5.146.75v295.463l80.275 11.632V946.91l6.78.973 47.952 6.958zm-223.083 270.068v-357.1l-65.878-2.37v159.997l-11.63 1.873-50.96-164.123-67.45-2.43v357.106l65.88 2.368v-161.55l11.673-1.727 47.247 165.397 71.116 2.56zm-241.17-363.09L871.09 872.14v357.06l149.218-10.758v-61.6l-61.81 4.46-6.364.463v-93.517l5.574-.412 52.43-3.78v-58.012l-51.64 3.72-6.364.463V927.91l5.574-.412 56.42-4.074V861.82zm-215.964 372.94l45.057-365.08-84.34 15.35-5.9 65.145v.023c-3.698 39.9-7.348 84.195-10.896 132.862l-2.048 28.747-2.015 29.658-.04.584-11.874.05c-3.468-49.766-8.54-107.34-15.233-172.58-1.23-12.05-2.62-25.136-4.11-39.093-1.203-11.186-2.474-22.882-3.85-35.225L618.12 910.62l51.16 347.594 128.885-23.45zM537.8 1283.08l-.045.023.006.016.04-.04zm48.353-131.133v-238.71l-77.655 22.97v267.542c0 9.19-.218 16.914-.624 23.134-.43 6.437-1.115 11.244-2.025 14.373l-.03.07c-1.63 5.31-4.708 9.377-9.218 12.153l.006.01c-.91.562-1.814 1.05-2.695 1.432-.904.395-1.888.766-2.895 1.075l-.07.023-.135.04c-3.753 1.105-7.072 1.093-9.945-.022-3.267-1.282-5.636-3.77-7.083-7.44l.022-.005c-1.07-2.633-1.856-6.765-2.3-12.332-.427-5.252-.645-11.993-.645-20.163v-268.77l-77.562 22.94v213.886h-.03c0 20.77.167 37.955.51 51.52.326 13.23.86 22.975 1.575 29.22v.057c.624 5.71 1.98 11.02 4.03 15.906 2.053 4.887 4.86 9.482 8.392 13.78h-.005c3.376 4.033 7.656 7.38 12.795 10.007 5.355 2.73 11.696 4.74 18.962 5.962 10.522 1.803 22.293 1.488 35.293-.938 2.442-.446 5.092-1.03 7.89-1.7 2.563-.623 5.31-1.367 8.2-2.208h.03l.45-.138v-.005c12.806-3.793 24.474-8.784 34.854-14.91h.022c2.024-1.19 4.01-2.434 5.904-3.687 1.93-1.28 3.8-2.58 5.58-3.907l-.006-.018.105-.074 3.52 4.95-3.476-4.97c6.5-4.847 12.382-10.2 17.63-16.07 5.246-5.863 9.86-12.226 13.836-19.07 3.976-6.844 7.174-13.43 9.584-19.73 2.34-6.105 3.92-11.907 4.72-17.39h.007c.67-4.743 1.21-10.79 1.604-18.104l.23-4.614c.423-9.737.658-21.364.67-34.812h-.03v-1.27zm-237.766 70.124V983.964l-75.663 28.4v255.578h.022c0 6.426-.063 12.32-.205 17.79-.12 5.07-.34 8.91-.62 11.474-.353 3.18-1.165 6.265-2.44 9.258-1.22 2.855-2.915 5.688-5.054 8.486v.02c-2.156 2.79-4.708 5.263-7.656 7.385-2.896 2.087-6.14 3.815-9.733 5.16-1.706.64-4.24 1.476-7.497 2.45v51.177l35.865-13.47c13.614-5.11 24.784-10.12 33.418-14.997l-.004-.005c1.73-.984 3.304-1.916 4.684-2.78 1.413-.886 2.723-1.74 3.89-2.56l-.005-.01.05-.04.16-.14c6.33-4.53 11.755-9.985 16.194-16.28h.017c.807-1.133 1.644-2.403 2.485-3.788v-.028c.887-1.437 1.655-2.77 2.29-3.977l.04-.076c3.645-6.894 6.173-13.835 7.558-20.793l-.016-.006c.287-1.485.533-2.904.71-4.19.18-1.34.332-2.69.436-4.04v-.106h.006l.033-.515v-.028c.354-5.447.63-14.042.8-25.71.16-10.75.24-25.977.24-45.536zm918.823 1155.18c.692-3.323 11.53-21.297 24.262-43.59 32.53-56.98 77.442-142.264-2.994-84.03-21.194 15.34-34.647 38.985-59.63 31.17l-.028-.024c-24.93-7.823-39.46-34.82-31.117-59.614 21.95-65.22-54.08-56.7-55.155-5.77-1.34 63.82-109.688 63.82-111.027 0-1.07-50.925-77.1-59.45-55.15 5.775 8.338 24.796-6.185 51.792-31.122 59.615l-.024.022c-24.982 7.817-38.434-15.827-59.63-31.17-111.92-81.023 18.804 115.778 21.27 127.623 97.447-29.12 210.607-38.904 360.35 0z"/></svg>