<svg xmlns="http://www.w3.org/2000/svg" width="322.793" height="379.84" viewBox="0 0 322.793 379.84"><path fill="#9C824A" stroke="#9C824A" stroke-width=".793" stroke-miterlimit="282" d="M161.396.396c-38.436 0-109.31 9.944-145.402 30.932C-31.526 199.803 33.1 314.37 161.396 379.396 289.692 314.37 354.32 199.236 306.798 31.33 270.668 10.34 199.83.395 161.396.395z"/><path fill="#023474" stroke="#023474" stroke-width=".793" stroke-miterlimit="282" d="M161.396 11.228c-37.76 0-80.278 4.83-135.962 27.558-41.452 147.06 6.637 264.93 135.962 329.174C290.72 303.717 338.774 185.846 297.322 38.786c-55.684-22.728-98.165-27.558-135.926-27.558z"/><path fill="#FFF" stroke="#FFF" stroke-width=".793" stroke-miterlimit="282" d="M161.22 11.086c-37.585 0-77.937 5.575-114.35 19.355-37.76 150.58-9.9 260.53 114.562 337.42l-.212-356.77zm.212 356.768C285.894 290.967 313.72 181.018 275.957 30.44c-36.412-13.78-76.73-19.354-114.312-19.354l-.213 356.768z"/><path fill="#EF0107" stroke="#EF0107" stroke-width=".793" stroke-miterlimit="282" d="M161.432 11.05c-37.797 0-76.055 5.718-107.144 16.55-39.11 157.82-7.702 264.396 107.18 337.234L161.43 11.05z"/><path fill="#DB0007" stroke="#DB0007" stroke-width=".793" stroke-miterlimit="282" d="M161.503 11.05c37.796 0 76.055 5.718 107.18 16.55 39.11 157.82 7.7 264.396-107.215 337.234l.035-353.783z"/><path fill="#FFF" d="M112.598 249.203c-16.68 11.437-29.953 15.556-45.356 19.64l-9.298-14.454c14.16-7.18 28.818-17.16 43.582-31.61 1.242 14.02 7.77 23.97 11.072 26.42z"/><path fill="#9C824A" d="M110.326 248.6c-15.828 10.866-37.868 18.43-63.1 22.124l-5.147-7.812c21.61-8.1 42.48-20.172 58.66-37.147 2.45 10.866 6.17 18.076 9.58 22.835z"/><path fill="#FFF" d="M68.165 182.225c0 6.073-4.897 10.974-10.966 10.974s-11.01-4.91-11.01-10.98 4.932-10.976 11-10.976 10.966 4.9 10.966 10.973z"/><path fill="#FFF" d="M66.993 160.597v41.41h32.615c2.13-13.887 10.008-28.625 27.86-41.41H66.992"/><path fill="#FFF" d="M68.307 202.006c-7.276.106-13.273-9.02-13.38-20.456-.07-11.436 5.75-20.81 13.06-20.953h.25"/><path fill="#9C824A" d="M63.55 182.225c0 4.688-3.406 8.453-7.594 8.453-4.188 0-7.595-3.764-7.595-8.453 0-4.688 3.41-8.452 7.6-8.452s7.6 3.764 7.6 8.452zm4.33-19.46v37.216h32.368c2.555-12.35 8.837-25.49 24.523-37.21H67.88"/><path fill="#9C824A" d="M69.087 199.98c-6.85.144-12.457-8.095-12.563-18.36-.07-10.262 5.43-18.715 12.28-18.856h.212"/><path fill="#FFF" d="M223.325 211.7c0 34.557-27.965 62.54-62.497 62.54-34.496 0-62.497-27.983-62.497-62.54 0-34.553 28.01-62.538 62.5-62.538 34.53 0 62.5 27.985 62.5 62.54z"/><path fill="#9C824A" d="M220.062 211.7c0 32.745-26.512 59.272-59.233 59.272-32.69 0-59.2-26.527-59.2-59.27 0-32.708 26.51-59.272 59.19-59.272 32.72 0 59.233 26.528 59.233 59.27z"/><path fill="#FFF" d="M210.23 211.7c0 27.31-22.11 49.437-49.402 49.437-27.256 0-49.366-22.126-49.366-49.436s22.11-49.43 49.366-49.43c27.29 0 49.402 22.13 49.402 49.44z"/><path fill="#9C824A" d="M206.966 211.7c0 25.5-20.656 46.133-46.138 46.133-25.446 0-46.1-20.634-46.1-46.132 0-25.49 20.654-46.13 46.1-46.13 25.482 0 46.138 20.64 46.138 46.13z"/><path fill="#FFF" d="M180.063 211.7c.036 10.62-8.588 19.25-19.2 19.285-10.646 0-19.27-8.63-19.27-19.248v-.036c0-10.61 8.588-19.24 19.234-19.24 10.61-.034 19.235 8.596 19.235 19.214v.035z"/><path fill="#9C824A" d="M177.793 211.7c0 9.378-7.56 16.977-16.93 16.977-9.368 0-16.963-7.563-17-16.94v-.035c0-9.375 7.596-16.976 16.965-16.976s16.965 7.565 16.965 16.94v.035z"/><path fill="#FFF" d="M169.56 211.7c0 4.795-3.905 8.7-8.73 8.736-4.792 0-8.696-3.905-8.696-8.735 0-4.82 3.904-8.7 8.695-8.73 4.82 0 8.73 3.91 8.73 8.74z"/><path fill="#9C824A" d="M167.146 211.7c0 3.48-2.804 6.322-6.317 6.322-3.48 0-6.32-2.806-6.32-6.32 0-3.48 2.84-6.32 6.31-6.32 3.477-.002 6.317 2.803 6.317 6.32z"/><path fill="#FFF" d="M154.192 164.504h13.13v30.647h-13.13z"/><path fill="#9C824A" d="M156.25 160.1h9.05v38.958h-9.05z"/><path fill="#FFF" d="M197.418 181.798l7.17 11.01-25.695 16.692-7.133-11.01"/><path fill="#9C824A" d="M202.21 181.124l4.933 7.6-32.65 21.237-4.934-7.63"/><path fill="#FFF" d="M142.41 214.187l7.026 11.08-25.872 16.408-7.027-11.116"/><path fill="#9C824A" d="M146.81 213.548l4.862 7.67-32.863 20.847-4.87-7.67"/><path fill="#FFF" d="M154.192 229.28h13.13v30.647h-13.13z"/><path fill="#9C824A" d="M156.25 224.913h9.05v38.922h-9.05z"/><path fill="#EF0107" stroke="#EF0107" stroke-width=".311" stroke-miterlimit="282" d="M148.017 226.013c1.775 1.49 3.726 2.84 6.175 3.87l-.07 27.346c-12.387-1.6-21.756-7.71-28.854-16.41l22.785-14.81"/><path fill="#DB0007" stroke="#DB0007" stroke-width=".311" stroke-miterlimit="282" d="M173.604 226.12c-1.81 1.456-3.727 2.84-6.175 3.835l.03 27.346c12.382-1.59 21.752-7.7 28.85-16.4l-22.75-14.77"/><path fill="#DB0007" d="M179.815 214.65l27.114-3.27c.21 6.783-1.42 12.75-3.73 18.468l-23.46-15.2"/><path fill="#FFF" stroke="#FFF" stroke-width=".311" stroke-miterlimit="282" d="M179.85 214.542c.107-.426.072-.816.25-2.06l26.76-3.48c.106 1.244.035 1.705 0 2.273l-27.01 3.267z"/><path fill="#FFF" d="M219.458 191.992h35.1c-1.1 4.154-2.166 8.38-7.206 10.263-8.056 3.02-24.77 5.93-24.77 5.93-.32-4.58-1.35-10.797-3.124-16.193zm-24.452-31.998l91.705.106-3.22 33.524-62.64 3.268c-3.372-14.987-14.765-29.298-25.836-36.898z"/><path fill="#9C824A" d="M198.27 162.373l117.08.106-4.47 27.31-90.855 4.47c-3.585-13.57-11.782-23.478-21.755-31.89zm21.188 29.62h32.33c-1.064 3.69-1.81 7.065-6.565 8.734-7.56 2.7-22.784 4.83-22.784 4.83-.64-4.438-1.57-8.95-2.99-13.565zm-35.49-80.688c0 1.492-.32 5.576-.496 6.712h18.17c-1.1-4.83-1.598-11.542-1.74-16.727 0 .355-.318-10.406-.318-10.406 0-.746.32-1.882.78-2.237.64-.746 1.28-.746 2.06-.746.78-.35 2.2-.35 2.377 2.6l.47 11.15c.178 5.22.178 12.29-.46 16.375h17.49c-.143-1.492-.64-5.22-.78-6.322 2.2 4.83 6.955 7.423 13.272 7.423 3.762 0 6.636-1.46 8.837-2.95 0 .354.92 1.847.92 1.847h32.51c-1.42-4.83-2.35-11.543-2.84-16.728l-4.58-36.436-16.72-2.984c1.42 4.83 2.38 11.9 2.98 16.73l2.556 23.44c.463 4.083.783 8.558.783 13.387v.355l-.64-1.493c-1.277-2.984-1.88-6.677-2.378-12.253l-.603-7.46C254.66 82.685 248.2 77.5 233.97 77.5c-2.34 0-8.34.354-11.995 1.49l.96 13.35 3.795-2.2c3.16-1.884 5.5-2.63 8.34-2.63 2.238 0 3.657.745 4.296 2.236-2.695.39-5.68 1.136-9.013 2.592-5.04 2.235-8.2 5.61-9.618 9.302v-.357L220.24 89c-.284-7.813-5.36-12.998-13.097-12.998-3.442 0-6.602 1.1-9.44 2.983-.177-.39-.32-.747-.497-1.137l-.64-1.492-14.515-.746c.64 2.628 1.6 10.05 1.74 12.644-.78-3.694-2.84-7.778-6.63-10.76-2.98-1.883-6.78-2.984-10.716-2.984-5.36 0-10.896 2.237-14.516 5.966-3.796 3.693-5.68 8.914-5.855 14.845-1.42-1.49-3.3-2.94-5.5-3.69l-6.64-3.37h-.32c-1.56-.745-1.74-1.1-1.74-1.455.18-.746 1.74-1.492 3.8-1.492 2.84 0 6.78 1.493 9.937 3.34l.32-11.897c-2.38-1.14-5.68-1.85-10.436-1.85-2.52 0-7.24.357-11.357 2.594-1.1.745-2.058 1.49-2.98 2.237l.142-3.374c-3.8-.71-7.88-.71-12.92 4.12-.178-.39-.498-2.24-.817-2.983l-15.62.746c1.1 4.44 1.278 10.76.96 16.336l-.32 5.965v.747c-.177 2.98-.318 6.32-.638 9.303-1.278-4.12-2.662-9.694-3.798-14.133l-7.738-34.95-22.076 3.34c.142.354.46 1.49.64 2.59.142 1.493.142 4.476-1.917 10.797-3.62 10.02-8.66 25.29-13.557 36.05-.64 1.49-1.91 3.73-1.91 3.73H58.8c.32-2.592 1.42-7.07 2.52-10.405 2.377 0 8.517 0 11.355-.39.64 2.628 1.28 5.966 1.457 8.203l.284 2.592h34.426c-.78-5.577-.464-13-.18-17.12.32-4.83 1.277-8.17 3.336-10.015 1.56-1.882 3.3-2.237 4.578-2.237-.177 6.676 4.082 9.66 7.88 11.506l6.777 3.373c2.38 1.493 2.38 1.848 2.38 2.594-.142 1.1-2.06 1.496-3.797 1.496-3.62 0-8.517-2.24-13.876-8.17l-.32 15.59c4.26 2.238 9.62 3.34 14.375 3.34 7.88 0 16.254-3.695 18.455-10.76 3.94 7.42 11.676 10.76 19.27 10.76 6.778.005 11.817-2.198 16.254-7.06zM65.432 96.07c.958-2.593 1.738-4.83 3.158-8.915.958 4.084 1.42 6.677 1.88 8.56-1.88.354-2.838.354-5.038.354zm96.603-4.085c0-5.185 1.88-7.422 3.763-7.422.64 0 2.058-.39 2.696 2.237.32 1.1.46 1.847.46 2.202 0 1.492-.78 1.882-1.737 1.882v.355s-2.662.74-5.182 1.88v-1.14zm17.993 10.796c-3.337 2.95-5.714 4.83-9.653 4.83-3.158-.39-5.04-2.23-6.14-4.83 3.3-1.13 16.077-5.96 19.732-7.45 0 2.984.143 6.32.143 6.32v6.324l-4.082-5.185zm58.842 5.19c-2.98 0-3.62-2.24-3.762-3.69.142-1.49.603-3.73 5.358-5.22.143 1.848.32 3.34.32 3.34v1.49c.142 1.136.142 2.237.283 3.338-.61.39-1.39.39-2.2.747"/><path fill="#FFF" d="M143.225 78.597c-1.56-.355-3.94-1.1-7.736-1.1-2.99 0-6.93.745-9.94 2.237-3.48 2.237-6 5.185-6.14 8.56-.32 5.184 2.38 7.42 6.31 9.268 2.662 1.492 5.217 2.983 6.78 3.73 2.057 1.1 3.94 2.236 3.796 4.83-.177 2.592-2.555 4.474-6.494 4.474-3.3 0-8.02-2.237-11.358-5.22l-.144 7.812c2.84 1.492 7.42 2.237 11.678 2.237 7.24 0 16.254-3.338 16.396-11.542.177-6.32-4.258-8.56-6.92-10.015-2.697-1.136-5.395-2.627-6.636-2.983-1.277-.746-3.797-1.49-3.62-4.475.285-2.592 3.3-3.73 6.46-3.73 2.66 0 5.36.747 7.417 1.883M78.38 64.853L61.63 67.09c.32 2.238-.32 6.677-2.06 11.897-3.44 10.015-9.12 26.74-13.556 36.436H56.45c.604-3.373 1.385-6.32 2.98-10.405l15.476-.39c.603 2.982 1.74 7.812 1.88 10.795H90.84c-1.74-4.12-3.94-12.643-5.357-18.61l-7.1-31.96zm-16.75 33.81l7.6-21.913 4.577 21.557m44.647-19.71l-.32 7.458c-2.52-.39-5.677.355-8.197 2.948-2.2 2.237-3.62 5.576-3.94 11.542-.32 4.83-.46 10.406-.177 14.88H94c.782-4.474 1.102-9.66 1.243-14.524l.32-5.93c.318-4.83.318-9.66-.462-14.13l10.44-.35c.46 1.492.78 4.084.607 6.676 4.578-7.07 9.014-8.56 12.315-8.56M267.3 67.09l-10.755-1.882c1.1 4.866 1.42 8.204 2.06 13.033l2.52 23.41c.496 4.83.958 9.308.815 13.78h11.675c-1.136-4.472-1.597-8.95-2.06-13.78m-52.415 13.78c-.605-4.472-.925-8.95-1.103-13.78l-.46-12.25c-.32-6.71-4.117-10.404-10.435-10.404-3.442 0-7.56 1.1-11.037 5.575-.142-1.136-.64-4.084-1.277-5.575l-9.44-.39c.78 4.472 1.1 8.91 1.24 13.74l.18 9.307c.14 4.83 0 9.306-.32 13.78h11.818c-.604-4.474-.923-8.95-1.1-13.78l-.32-10.404c-.142-3.73 2.697-6.32 5.537-6.32 3.3 0 4.897 2.236 5.04 5.575l.496 11.15c.14 4.83.14 9.306-.18 13.78m48.3 0c-1.42-3.73-2.2-8.204-2.52-13.034l-.64-7.42c-.64-8.916-4.4-14.88-18.95-14.88-2.52 0-6.14.39-9.12 1.1l.46 6.71c2.98-1.845 6-3.336 9.79-3.336 3.94 0 7.24 1.847 7.56 7.42-3.797.39-7.275 1.1-11.214 2.985-4.4 1.846-8.98 5.575-8.518 11.505.46 6.713 5.535 9.696 11.853 9.696 4.896 0 8.197-2.236 10.078-4.473.32 1.49.817 2.59 1.278 3.73h9.94zm-17.217-4.83c-3.48 0-6.317-1.883-6.46-5.967 0-4.083 2.52-7.42 10.576-8.56l.462 6.324c.175 2.24.175 3.73.494 5.578-1.135 1.49-3.017 2.237-5.076 2.627m-63.27-30.87c-2.695-1.882-5.854-2.628-9.154-2.628-7.737 0-17.994 5.576-17.675 19.71.144 14.49 11.217 18.964 18.954 18.964 6.778 0 10.896-2.595 14.195-5.933l-2.38-3.374c-1.74 1.492-4.58 3.73-9.157 3.73-4.893-.356-8.02-3.73-9.76-8.915l21.44-7.814c-.64-7.067-3.156-11.15-6.46-13.744zm-7.416 13.744l-8.518 3.337c-.177-1.49-.32-2.983-.32-4.83 0-8.56 4.72-10.05 6.317-10.05 2.52-.355 4.72 1.136 5.536 4.12.922 3.338.603 6.32-3.017 7.422m-50.502 96.81l7.21-10.975 25.624 16.762-7.203 11.01"/><path fill="#9C824A" d="M115.295 186.522l4.97-7.6 32.543 21.343-4.97 7.6"/><path fill="#FFF" d="M172.363 225.232l7.204-11.01 25.623 16.798-7.204 11.01"/><path fill="#9C824A" d="M169.984 221.467l4.97-7.6 32.544 21.344-4.97 7.57"/></svg>