<svg xmlns="http://www.w3.org/2000/svg" width="744" height="744" version="1"><defs><clipPath id="b"><path d="M758.26 224.11c0-18.936-15.37-34.303-34.305-34.303-18.935 0-34.304 15.368-34.304 34.304s15.37 34.31 34.31 34.31 34.304-15.37 34.304-34.305" clip-rule="evenodd"/></clipPath><clipPath id="a"/></defs><g clip-path="url(#a)" transform="matrix(11.992 0 0 -11.979 -8308.855 3056.436)"><g clip-path="url(#b)"><path d="M741.46 210.343c3 3.796 4.792 8.594 4.792 13.81 0 11.286-8.392 20.612-19.27 22.075 0-19.04 7.22-29.363 14.477-35.886" fill="#1f53a9"/><path d="M754.744 224.113c0-17-13.78-30.78-30.78-30.78s-30.78 13.78-30.78 30.78 13.78 30.78 30.78 30.78 30.78-13.78 30.78-30.78" fill="#fff"/><path d="M754.744 224.113c0-17-13.78-30.78-30.78-30.78s-30.78 13.78-30.78 30.78 13.78 30.78 30.78 30.78 30.78-13.78 30.78-30.78z" fill="none" stroke="#122657" stroke-width=".047"/><path d="M753.627 224.07c0-16.402-13.297-29.7-29.7-29.7s-29.7 13.298-29.7 29.7c0 16.404 13.297 29.7 29.7 29.7s29.7-13.296 29.7-29.7" fill="#122657"/><path d="M700.577 223.984c0-12.898 10.457-23.355 23.355-23.355 12.9 0 23.355 10.452 23.355 23.35s-10.456 23.355-23.355 23.355c-12.898 0-23.355-10.458-23.355-23.357" fill="#fff"/><path d="M723.966 217.11c8.953 0 10.405-7.134 10.138-13.182 2.372 1.197 4.498 2.796 6.297 4.714-3.7 3.84-7.202 8.008-9.82 13.69h-13.22c-2.614-5.682-6.12-9.85-9.822-13.69 1.8-1.918 3.925-3.517 6.297-4.713-.267 6.042 1.186 13.18 10.137 13.18m6.363 5.77c-2.59 5.852-4.24 13.3-4.24 23.563-.695.065-1.41.098-2.123.098-.713 0-1.427-.03-2.124-.096 0-10.266-1.65-17.712-4.24-23.566" fill="#ed1c24"/><path d="M706.29 210.083c-3.034 3.836-4.847 8.685-4.847 13.955 0 11.404 8.485 20.828 19.485 22.307 0-19.238-7.3-29.67-14.638-36.262m17.676-8.553c2.526 0 4.972.416 7.238 1.183 2.265 6.018.814 13.845-7.238 13.845-8.05 0-9.502-7.827-7.237-13.845 2.26-.767 4.71-1.184 7.23-1.184m17.68 8.55c3.033 3.835 4.846 8.684 4.846 13.954 0 11.404-8.486 20.828-19.486 22.307 0-19.237 7.3-29.67 14.64-36.26" fill="#122657"/><path d="M726.5 211.85v-4.32h-8.67s.347-.115.6-.6c.232-.44.37-1.2.925-1.708.553-.508.808-.6 1.87-.6.103 0 .392-.3.392-.635h.115c0 .336.29.636.393.636h3.982c.104 0 .392-.3.392-.635h.11c0 .335.29.635.392.635 2.147 0 2.69 1.385 2.69 2.93 0 2.403-1.2 4.296-3.198 4.296m-2.613.11c-.16 0-.293-.023-.42-.554-.136-.57-.485-.74-.716-.74h-.185v.83c.51.74.462 1.43-.16 2.124-.624-.692-.67-1.384-.163-2.123v-.83h-.186c-.23 0-.58.173-.714.74-.128.53-.26.555-.42.555-.143 0-.505-.104-.46-.404.048-.3.22-.536.36-.47.074.032.06.15.1.2.042.06.14.05.234-.053.118-.124.236-.533.53-.843.22-.226.41-.268.557-.275v-.328c0-.256-.255-.326-.255-.326l.417-.46.414.46s-.254.07-.254.322v.325c.148.007.338.05.554.275.298.31.415.72.53.843.097.1.194.112.238.05.04-.053.025-.17.1-.202.137-.064.31.173.357.473.046.3-.316.404-.456.404m-1.32-13.604c.024.32-.216.6-.536.62-.325.024-.6-.217-.625-.54-.022-.32.218-.596.538-.62.326-.02.6.215.625.54zm-1.627-2.263l.916.973-.038.002-.034.003-.12.017c-.1.01-.312.073-.44.134-.512.237-.796.7-.757 1.258.055.792.714 1.295 1.607 1.232.86-.06 1.438-.638 1.386-1.38-.03-.41-.268-.91-.63-1.327l-.86-.984-1.033.075m7.448 1.995c.127-.674.42-1.033.78-.966.36.065.498.494.37 1.177-.127.684-.402 1.03-.763.964-.37-.07-.51-.494-.383-1.176zm2.05.375c.207-1.113-.246-1.972-1.122-2.135-.883-.165-1.615.472-1.824 1.592-.207 1.116.244 1.988 1.114 2.15.896.166 1.624-.472 1.835-1.606M700.7 237.41c.175.3.135.505-.127.656-.257.15-.467.08-.635-.21l-.154-.266.764-.442.152.26zm1.508-1.225l-.462-.796-3.066 1.774.735 1.266c.205.36.393.523.7.614.3.092.612.043.93-.142.667-.383.82-.96.43-1.63l-.29-.5 1.02-.59m2.69 6.756c.253.25.288.515.095.71-.09.09-.246.142-.366.123-.105-.016-.226-.09-.347-.21l-.12-.12.617-.624.123.12zm2.693-.09l-.813-.805-1.58.353.956-.968-.652-.648-2.49 2.52 1.02 1.007c.286.28.537.396.838.39.277-.014.56-.14.766-.348.167-.17.286-.405.318-.61.03-.22-.02-.406-.164-.64l1.81-.254m1.652 4.427c-.257.027-.46-.018-.632-.134-.188-.13-.256-.333-.158-.48.036-.053.094-.09.168-.096.082-.013.177 0 .267.026.055.016.16.05.316.1.325.1.513.118.73.065.23-.052.39-.172.542-.4.12-.18.227-.438.25-.606.05-.43-.215-.897-.69-1.216-.23-.155-.454-.244-.76-.306-.2-.044-.28-.048-.49-.045l-.083.83c.37-.045.65.005.874.156.23.15.294.36.176.535-.04.06-.103.1-.17.114-.13.026-.22.01-.516-.085-.29-.093-.41-.12-.56-.136-.31-.04-.57.104-.784.422-.398.592-.263 1.264.334 1.664.308.21.693.348 1.093.39m4.24 1.344c-.25.07-.458.06-.647-.026-.207-.094-.31-.284-.237-.444.026-.06.077-.108.148-.127.08-.027.175-.03.27-.02.054.004.165.023.327.043.338.042.525.03.73-.06.217-.09.355-.236.467-.486.09-.197.15-.47.145-.64-.026-.43-.36-.845-.884-1.08-.252-.113-.49-.162-.8-.172-.204-.01-.286 0-.49.04l.057.83c.36-.107.64-.104.887.006.25.112.35.307.262.5-.03.065-.085.12-.147.142-.126.047-.22.047-.525.002-.302-.042-.423-.05-.573-.04-.31.016-.544.202-.7.55-.292.652-.045 1.29.61 1.585.34.152.743.224 1.144.197m18.663-.592c-.033-.128-.06-.228-.08-.29-.055-.178-.115-.323-.178-.444-.39-.747-1.146-1.078-2.004-.87-1.087.266-1.654 1.192-1.39 2.275.27 1.1 1.203 1.662 2.323 1.39.467-.116.8-.33 1.028-.666.126-.187.184-.328.278-.68l-.935-.148c-.042.21-.073.3-.14.403-.1.164-.254.274-.456.323-.523.127-1.01-.236-1.163-.865-.156-.64.116-1.177.663-1.31.192-.047.37-.033.515.04.056.03.115.073.16.125.068.07.105.126.17.27l-.734.18.17.693m5.95-2.247c.313-.165.578-.118.707.124.06.112.06.276.005.385-.046.093-.152.187-.302.266l-.15.08-.41-.777.15-.08zm.723-2.595l-1.01.538-.142 1.614-.636-1.2-.814.43 1.657 3.132 1.265-.668c.355-.19.54-.394.622-.683.073-.27.038-.577-.1-.836-.11-.21-.297-.394-.485-.487-.2-.1-.392-.104-.66-.036l.303-1.8" fill="#fff"/></g></g></svg>